;Holesize 1 =   11.0 PLATED MILS
;Holesize 2 =   40.0 PLATED MILS
;Holesize 3 =   36.0 PLATED MILS
;Holesize 4 =   91.0 PLATED MILS
;Holesize 5 =   35.0 PLATED MILS
;Holesize 6 =   14.0 PLATED MILS
M48
INCH,00.0000
T01C0.011
T02C0.040
T03C0.036
T04C0.091
T05C0.035
T06C0.014
%
G05
G90
T01
X024316Y004074
X024592Y004074
X024867Y004074
T02
X018100Y007000
X019100Y007000
X016100Y007000
X017100Y007000
X002000Y007000
X001000Y007000
X006000Y007000
X005000Y007000
X010000Y007000
X009000Y007000
X014000Y007000
X013000Y007000
X005000Y001000
X006000Y001000
X007000Y001000
X008000Y001000
X009000Y001000
X033000Y007000
X034000Y007000
X037000Y001000
X038000Y001000
X039000Y001000
X040000Y001000
X041000Y001000
X022000Y007000
X023000Y007000
X024000Y007000
X025000Y007000
X022000Y001000
X023000Y001000
X024000Y001000
X025000Y001000
X021600Y005100
X021600Y004100
X021600Y003100
X015000Y003100
X015000Y004100
X015000Y005100
X011000Y007000
X012000Y007000
X007000Y007000
X008000Y007000
X003000Y007000
X004000Y007000
T03
X043000Y004500
X043000Y003500
X044000Y003500
X044000Y004500
T04
X044850Y006380
X044850Y001637
T05
X029710Y006680
X028530Y006680
T06
X028800Y004500
X027450Y004060
X038240Y004020
X037970Y001620
X030700Y000570
X036900Y003710
X028870Y002560
X023290Y003500
X016260Y003990
X003000Y002030
X001000Y002030
X005000Y002030
X007000Y002030
X009000Y002030
X011000Y002030
X013000Y002030
X018700Y002800
X016900Y005100
X025700Y003100
X022700Y002530
X022710Y004450
X026520Y005000
X027450Y004560
X027130Y001400
X032900Y005570
X031950Y001590
X040280Y003000
X040280Y004300
X040280Y005200
X039800Y005200
X038900Y005190
X038000Y005190
X036520Y006780
X035790Y004400
X039800Y004300
X037640Y004020
X039180Y002910
X030100Y001400
M30
