G04 FreePCB version 1.359*
G04 C:\Users\Jack Ruby\Documents\GitHub\DRI\DRI_DevBoard\CAM\top_copper.grb*
G04 top copper layer *
G04 Scale: 100 percent, Rotated: No, Reflected: No *
%FSLAX24Y24*%
%MOIN*%
%LN top copper *%
G04 Rounded Rectangle Macro, params: W/2, H/2, R *
%AMRNDREC*
21,1,$1+$1,$2+$2-$3-$3,0,0,0*
21,1,$1+$1-$3-$3,$2+$2,0,0,0*
1,1,$3+$3,$1-$3,$2-$3*
1,1,$3+$3,$3-$1,$2-$3*
1,1,$3+$3,$1-$3,$3-$2*
1,1,$3+$3,$3-$1,$3-$2*%
G04 Rectangular Thermal Macro, params: W/2, H/2, T/2 *
%AMRECTHERM*
$4=$3/2*
21,1,$1-$3,$2-$3,0-$1/2-$4,0-$2/2-$4,0*
21,1,$1-$3,$2-$3,0-$1/2-$4,$2/2+$4,0*
21,1,$1-$3,$2-$3,$1/2+$4,0-$2/2-$4,0*
21,1,$1-$3,$2-$3,$1/2+$4,$2/2+$4,0*%
%ADD10C,0.005000*%
%ADD11R,0.023622X0.047244*%
%ADD12R,0.023622X0.049213*%
%ADD13R,0.023622X0.035433*%
%ADD14R,0.035433X0.023622*%
%ADD15R,0.011024X0.019685*%
%ADD16R,0.027559X0.035433*%
%ADD17R,0.027559X0.009843*%
%ADD18R,0.031496X0.031496*%
%ADD19R,0.035433X0.027559*%
%ADD20R,0.059055X0.068898*%
%ADD21C,0.060000*%
%ADD22R,0.050787X0.057874*%
%ADD23R,0.011811X0.033465*%
%ADD24R,0.098425X0.059055*%
%ADD25C,0.056000*%
%ADD26R,0.028000X0.059000*%
%ADD27R,0.039000X0.032000*%
%ADD28C,0.010000*%
%ADD29C,0.028000*%
G90*
G70D02*

G04 Step and Repeat for panelization *

G04 ----------------------- Draw board outline (positive)*
%LPD*%
G54D10*
G01X0Y0D02*
G01X0Y8000D01*
G04 end of side 1*
G01X46000Y8000D01*
G04 end of side 2*
G01X46000Y0D01*
G04 end of side 3*
G01X0Y0D01*

G04 -------------- Draw Parts, Pads, Traces, Vias and Text (positive)*
%LPD*%
G04 Draw part U7*
G54D11*
G01X36900Y6200D03*
G01X36525Y6200D03*
G01X36151Y6200D03*
G01X36151Y5255D03*
G01X36900Y5255D03*
G04 Draw part U1*
G01X28200Y3500D03*
G01X27825Y3500D03*
G01X27451Y3500D03*
G01X27451Y2555D03*
G01X28200Y2555D03*
G04 Draw part U5*
G01X33100Y3500D03*
G01X32725Y3500D03*
G01X32351Y3500D03*
G01X32351Y2555D03*
G01X33100Y2555D03*
G04 Draw part FET1*
G54D12*
G01X30700Y3900D03*
G01X29951Y3900D03*
G01X30325Y3053D03*
G04 Draw part R10*
G54D13*
G01X39400Y3600D03*
G01X39990Y3600D03*
G04 Draw part R14*
G01X39400Y2200D03*
G01X39990Y2200D03*
G04 Draw part C13*
G01X40800Y3000D03*
G01X41390Y3000D03*
G04 Draw part C12*
G01X40800Y4300D03*
G01X41390Y4300D03*
G04 Draw part C11*
G01X40800Y5200D03*
G01X41390Y5200D03*
G04 Draw part C14*
G01X38700Y4300D03*
G01X39290Y4300D03*
G04 Draw part C15*
G54D14*
G01X38900Y5600D03*
G01X38900Y6190D03*
G04 Draw part C16*
G01X39800Y5600D03*
G01X39800Y6190D03*
G04 Draw part U3*
G54D15*
G01X24100Y3700D03*
G01X24296Y3700D03*
G01X24493Y3700D03*
G01X24690Y3700D03*
G01X24887Y3700D03*
G01X25084Y3700D03*
G01X25084Y4448D03*
G01X24887Y4448D03*
G01X24690Y4448D03*
G01X24493Y4448D03*
G01X24296Y4448D03*
G01X24100Y4448D03*
G54D16*
G01X24316Y4074D03*
G01X24592Y4074D03*
G01X24867Y4074D03*
G54D17*
G01X24044Y4201D03*
G01X24044Y3946D03*
G01X25139Y4201D03*
G01X25139Y3946D03*
G04 Draw part C1*
G54D13*
G01X23300Y4000D03*
G01X22709Y4000D03*
G04 Draw part C2*
G01X22700Y3000D03*
G01X23290Y3000D03*
G04 Draw part U6*
G54D18*
G01X17000Y3566D03*
G01X17557Y3566D03*
G01X18114Y3566D03*
G01X18671Y3566D03*
G54D19*
G01X18721Y4000D03*
G54D18*
G01X18671Y4433D03*
G01X18114Y4433D03*
G01X17557Y4433D03*
G01X17000Y4433D03*
G54D19*
G01X16949Y4000D03*
G04 Draw part C6*
G54D13*
G01X16800Y2100D03*
G01X17390Y2100D03*
G04 Draw part C8*
G01X18700Y2100D03*
G01X18109Y2100D03*
G04 Draw part R5*
G01X18000Y1300D03*
G01X17409Y1300D03*
G04 Draw part R4*
G01X18100Y5400D03*
G01X18690Y5400D03*
G04 Draw part C7*
G01X18700Y6000D03*
G01X18109Y6000D03*
G04 Draw part R6*
G54D14*
G01X1000Y3300D03*
G01X1000Y2709D03*
G04 Draw part R7*
G01X5000Y3300D03*
G01X5000Y2709D03*
G04 Draw part R8*
G01X9000Y3300D03*
G01X9000Y2709D03*
G04 Draw part R9*
G01X13000Y3300D03*
G01X13000Y2709D03*
G04 Draw part R11*
G01X11000Y3300D03*
G01X11000Y2709D03*
G04 Draw part R12*
G01X7000Y3300D03*
G01X7000Y2709D03*
G04 Draw part R13*
G01X3000Y3300D03*
G01X3000Y2709D03*
G04 Draw part R1*
G54D13*
G01X28800Y5000D03*
G01X28209Y5000D03*
G04 Draw part R2*
G01X33100Y1400D03*
G01X32509Y1400D03*
G04 Draw part C5*
G01X32900Y5000D03*
G01X32309Y5000D03*
G04 Draw part C4*
G01X27600Y1400D03*
G01X28190Y1400D03*
G04 Draw part C10*
G01X36300Y4400D03*
G01X36890Y4400D03*
G04 Draw part C9*
G54D14*
G01X38000Y5600D03*
G01X38000Y6190D03*
G04 Draw part C3*
G54D13*
G01X27000Y5000D03*
G01X27590Y5000D03*
G04 Draw part D1*
G54D20*
G01X34200Y2200D03*
G01X34200Y3676D03*
G04 Draw part R3*
G54D13*
G01X33600Y5000D03*
G01X34190Y5000D03*
G04 Draw part J3*
G54D21*
G01X18100Y7000D03*
G01X19100Y7000D03*
G04 Draw part J2*
G01X16100Y7000D03*
G01X17100Y7000D03*
G04 Draw part PT1*
G01X2000Y7000D03*
G01X1000Y7000D03*
G04 Draw part PT2*
G01X6000Y7000D03*
G01X5000Y7000D03*
G04 Draw part PT3*
G01X10000Y7000D03*
G01X9000Y7000D03*
G04 Draw part PT4*
G01X14000Y7000D03*
G01X13000Y7000D03*
G04 Draw part J4*
G01X5000Y1000D03*
G01X6000Y1000D03*
G01X7000Y1000D03*
G01X8000Y1000D03*
G01X9000Y1000D03*
G04 Draw part J1*
G01X33000Y7000D03*
G01X34000Y7000D03*
G04 Draw part J5*
G01X37000Y1000D03*
G01X38000Y1000D03*
G01X39000Y1000D03*
G01X40000Y1000D03*
G01X41000Y1000D03*
G04 Draw part ferrite*
G54D22*
G01X40600Y6200D03*
G01X41363Y6200D03*
G04 Draw part U4*
G54D21*
G01X22000Y7000D03*
G01X23000Y7000D03*
G01X24000Y7000D03*
G01X25000Y7000D03*
G04 Draw part U2*
G01X22000Y1000D03*
G01X23000Y1000D03*
G01X24000Y1000D03*
G01X25000Y1000D03*
G04 Draw part SW1*
G01X21600Y5100D03*
G01X21600Y4100D03*
G01X21600Y3100D03*
G04 Draw part SW3*
G01X15000Y3100D03*
G01X15000Y4100D03*
G01X15000Y5100D03*
G04 Draw part U8*
G54D23*
G01X38500Y3500D03*
G01X38322Y3500D03*
G01X38145Y3500D03*
G01X37968Y3500D03*
G01X37791Y3500D03*
G01X37614Y3500D03*
G01X37614Y2338D03*
G01X37791Y2338D03*
G01X37968Y2338D03*
G01X38145Y2338D03*
G01X38322Y2338D03*
G01X38500Y2338D03*
G54D24*
G01X38057Y2919D03*
G04 Draw part D2*
G54D21*
G01X11000Y7000D03*
G01X12000Y7000D03*
G04 Draw part D3*
G01X7000Y7000D03*
G01X8000Y7000D03*
G04 Draw part D4*
G01X3000Y7000D03*
G01X4000Y7000D03*
G04 Draw part K1*
G54D25*
G01X43000Y4500D03*
G01X43000Y3500D03*
G01X44000Y3500D03*
G01X44000Y4500D03*
G04 Draw part SW2*
G54D26*
G01X30000Y6000D03*
G01X28820Y6000D03*
G01X28230Y6000D03*
G54D27*
G01X30555Y6250D03*
G01X30555Y7120D03*
G01X27685Y6250D03*
G01X27685Y7120D03*

G04 Draw traces*
G54D28*
G01X32309Y5000D02*
G01X32290Y5170D01*
G01X32290Y5170D02*
G01X32110Y5350D01*
G01X32110Y5350D02*
G01X29100Y5350D01*
G01X29100Y5350D02*
G01X28820Y5630D01*
G01X28820Y5630D02*
G01X28820Y6000D01*
G01X32309Y5000D02*
G01X32309Y4990D01*
G01X32309Y4990D02*
G01X32350Y4950D01*
G01X32350Y4950D02*
G01X32350Y3520D01*
G01X32350Y3520D02*
G01X32351Y3500D01*
G01X5000Y1000D02*
G01X2400Y1000D01*
G01X2400Y1000D02*
G01X2000Y1400D01*
G01X2000Y1400D02*
G01X2000Y3000D01*
G01X2000Y3000D02*
G01X1700Y3300D01*
G01X1700Y3300D02*
G01X1000Y3300D01*
G01X1000Y7000D02*
G01X1000Y3300D01*
G01X28800Y5000D02*
G01X28800Y4500D01*
G54D29*
G01X28800Y4500D03*
G01X27450Y4060D03*
G54D28*
G01X27450Y4060D02*
G01X27450Y3510D01*
G01X27450Y3510D02*
G01X27451Y3500D01*
G01X28800Y5000D02*
G01X29550Y5000D01*
G01X29550Y5000D02*
G01X29950Y4600D01*
G01X29950Y4600D02*
G01X29950Y3900D01*
G01X29950Y3900D02*
G01X29951Y3900D01*
G01X22000Y7000D02*
G01X22000Y6200D01*
G01X22000Y6200D02*
G01X22100Y6100D01*
G01X22100Y6100D02*
G01X23201Y6100D01*
G01X23201Y6100D02*
G01X24493Y4807D01*
G01X24493Y4807D02*
G01X24493Y4448D01*
G01X6000Y1000D02*
G01X6000Y3000D01*
G01X6000Y3000D02*
G01X5700Y3300D01*
G01X5700Y3300D02*
G01X5000Y3300D01*
G01X5000Y7000D02*
G01X5000Y3300D01*
G01X38322Y3500D02*
G01X38322Y3937D01*
G01X38322Y3937D02*
G01X38240Y4020D01*
G54D29*
G01X38240Y4020D03*
G54D28*
G01X38240Y4020D02*
G01X38150Y3940D01*
G01X38150Y3940D02*
G01X38150Y3580D01*
G01X38150Y3580D02*
G01X38145Y3500D01*
G01X38700Y4300D02*
G01X38730Y4300D01*
G01X38730Y4300D02*
G01X38510Y4300D01*
G01X38510Y4300D02*
G01X38280Y4070D01*
G01X38280Y4070D02*
G01X38240Y4020D01*
G01X37968Y2338D02*
G01X37970Y2340D01*
G01X37970Y2340D02*
G01X37970Y1620D01*
G54D29*
G01X37970Y1620D03*
G54D28*
G01X30700Y3900D02*
G01X30690Y3900D01*
G01X30690Y3900D02*
G01X31310Y3900D01*
G01X31310Y3900D02*
G01X31480Y3730D01*
G01X31480Y3730D02*
G01X31480Y2770D01*
G01X31480Y2770D02*
G01X30700Y1990D01*
G01X30700Y1990D02*
G01X30700Y570D01*
G54D29*
G01X30700Y570D03*
G54D28*
G01X38500Y3500D02*
G01X38900Y3500D01*
G01X38900Y3500D02*
G01X39000Y3600D01*
G01X39000Y3600D02*
G01X39400Y3600D01*
G01X23000Y7000D02*
G01X23000Y6801D01*
G01X23000Y6801D02*
G01X23400Y6400D01*
G01X23400Y6400D02*
G01X24690Y5110D01*
G01X24690Y5110D02*
G01X24690Y4448D01*
G01X7000Y1000D02*
G01X7000Y1160D01*
G01X7000Y1160D02*
G01X8000Y2170D01*
G01X8000Y2170D02*
G01X8000Y3000D01*
G01X8000Y3000D02*
G01X8300Y3300D01*
G01X8300Y3300D02*
G01X9000Y3300D01*
G01X9000Y7000D02*
G01X9000Y3300D01*
G01X34190Y5000D02*
G01X34190Y3799D01*
G01X34190Y3799D02*
G01X34230Y3760D01*
G01X34230Y3760D02*
G01X34200Y3676D01*
G01X24100Y4448D02*
G01X23578Y4448D01*
G01X23578Y4448D02*
G01X23310Y4180D01*
G01X23310Y4180D02*
G01X23310Y4020D01*
G01X23310Y4020D02*
G01X23300Y4000D01*
G01X23290Y3000D02*
G01X23570Y3000D01*
G01X23570Y3000D02*
G01X24100Y3530D01*
G01X24100Y3530D02*
G01X24100Y3700D01*
G01X28190Y1400D02*
G01X28220Y1410D01*
G01X28220Y1410D02*
G01X28200Y1430D01*
G01X28200Y1430D02*
G01X28200Y2555D01*
G01X36890Y4400D02*
G01X36860Y4440D01*
G01X36860Y4440D02*
G01X36900Y4480D01*
G01X36900Y4480D02*
G01X36900Y5255D01*
G01X36890Y4400D02*
G01X36890Y3719D01*
G01X36890Y3719D02*
G01X36900Y3710D01*
G54D29*
G01X36900Y3710D03*
G01X28870Y2560D03*
G54D28*
G01X28870Y2560D02*
G01X28190Y2560D01*
G01X28190Y2560D02*
G01X28200Y2555D01*
G01X23290Y3000D02*
G01X23290Y2950D01*
G01X23290Y2950D02*
G01X23290Y3500D01*
G54D29*
G01X23290Y3500D03*
G54D28*
G01X23300Y4000D02*
G01X23290Y4050D01*
G01X23290Y4050D02*
G01X23290Y3500D01*
G01X17000Y4433D02*
G01X16910Y4430D01*
G01X16910Y4430D02*
G01X16360Y4430D01*
G01X16360Y4430D02*
G01X16260Y4330D01*
G01X16260Y4330D02*
G01X16260Y3990D01*
G54D29*
G01X16260Y3990D03*
G54D28*
G01X21600Y3100D02*
G01X22000Y3500D01*
G01X22000Y3500D02*
G01X23290Y3500D01*
G01X17000Y3566D02*
G01X16403Y3566D01*
G01X16403Y3566D02*
G01X16260Y3710D01*
G01X16260Y3710D02*
G01X16260Y3990D01*
G01X3000Y2709D02*
G01X3000Y2030D01*
G54D29*
G01X3000Y2030D03*
G01X1000Y2030D03*
G54D28*
G01X1000Y2030D02*
G01X1000Y2709D01*
G01X5000Y2709D02*
G01X5000Y2030D01*
G54D29*
G01X5000Y2030D03*
G54D28*
G01X7000Y2709D02*
G01X7000Y2730D01*
G01X7000Y2730D02*
G01X7000Y2030D01*
G54D29*
G01X7000Y2030D03*
G54D28*
G01X9000Y2709D02*
G01X9000Y2740D01*
G01X9000Y2740D02*
G01X9000Y2030D01*
G54D29*
G01X9000Y2030D03*
G54D28*
G01X11000Y2709D02*
G01X11000Y2720D01*
G01X11000Y2720D02*
G01X11000Y2030D01*
G54D29*
G01X11000Y2030D03*
G54D28*
G01X13000Y2709D02*
G01X13000Y2030D01*
G54D29*
G01X13000Y2030D03*
G54D28*
G01X38500Y2338D02*
G01X38550Y2290D01*
G01X38550Y2290D02*
G01X38910Y2290D01*
G01X38910Y2290D02*
G01X39000Y2200D01*
G01X39000Y2200D02*
G01X39400Y2200D01*
G01X24000Y7000D02*
G01X24000Y6400D01*
G01X24000Y6400D02*
G01X24887Y5512D01*
G01X24887Y5512D02*
G01X24887Y4448D01*
G01X13000Y3300D02*
G01X12300Y3300D01*
G01X12300Y3300D02*
G01X12000Y3000D01*
G01X12000Y3000D02*
G01X12000Y1780D01*
G01X12000Y1780D02*
G01X11820Y1600D01*
G01X11820Y1600D02*
G01X8100Y1600D01*
G01X8100Y1600D02*
G01X8000Y1500D01*
G01X8000Y1500D02*
G01X8000Y1000D01*
G01X13000Y7000D02*
G01X13000Y3300D01*
G01X33100Y3500D02*
G01X33100Y3960D01*
G01X33100Y3960D02*
G01X33600Y4460D01*
G01X33600Y4460D02*
G01X33600Y5000D01*
G01X39990Y3600D02*
G01X41070Y3600D01*
G01X41070Y3600D02*
G01X41390Y3920D01*
G01X41390Y3920D02*
G01X41390Y4240D01*
G01X41390Y4240D02*
G01X41390Y4300D01*
G01X41390Y4300D02*
G01X42090Y4300D01*
G01X42090Y4300D02*
G01X42850Y3540D01*
G01X42850Y3540D02*
G01X43000Y3500D01*
G01X25000Y7000D02*
G01X25000Y6500D01*
G01X25000Y6500D02*
G01X25100Y6400D01*
G01X25100Y6400D02*
G01X25100Y4600D01*
G01X25100Y4600D02*
G01X25080Y4560D01*
G01X25080Y4560D02*
G01X25084Y4448D01*
G01X11000Y7000D02*
G01X11000Y3300D01*
G01X37614Y2338D02*
G01X37258Y2338D01*
G01X37258Y2338D02*
G01X37000Y2080D01*
G01X37000Y2080D02*
G01X37000Y1000D01*
G01X39990Y2200D02*
G01X41070Y2200D01*
G01X41070Y2200D02*
G01X41390Y2520D01*
G01X41390Y2520D02*
G01X41390Y3120D01*
G01X41390Y3120D02*
G01X41390Y3000D01*
G01X44000Y3500D02*
G01X43980Y3470D01*
G01X43980Y3470D02*
G01X43390Y2880D01*
G01X43390Y2880D02*
G01X41420Y2880D01*
G01X41420Y2880D02*
G01X41420Y2990D01*
G01X41420Y2990D02*
G01X41390Y3000D01*
G01X15000Y4100D02*
G01X15550Y4100D01*
G01X15550Y4100D02*
G01X15770Y3880D01*
G01X15770Y3880D02*
G01X15770Y3030D01*
G01X15770Y3030D02*
G01X16000Y2800D01*
G01X16000Y2800D02*
G01X17400Y2800D01*
G01X17400Y2800D02*
G01X17600Y3000D01*
G01X17600Y3000D02*
G01X17600Y3500D01*
G01X17600Y3500D02*
G01X17557Y3566D01*
G01X7000Y7000D02*
G01X7000Y3300D01*
G01X37791Y2338D02*
G01X37791Y2071D01*
G01X37791Y2071D02*
G01X37610Y1890D01*
G01X37610Y1890D02*
G01X37610Y1390D01*
G01X37610Y1390D02*
G01X38040Y960D01*
G01X38040Y960D02*
G01X38000Y1000D01*
G01X41390Y5200D02*
G01X41390Y5250D01*
G01X41390Y5250D02*
G01X41390Y5000D01*
G01X41390Y5000D02*
G01X42500Y5000D01*
G01X42500Y5000D02*
G01X43000Y4500D01*
G01X41363Y6200D02*
G01X41380Y6150D01*
G01X41380Y6150D02*
G01X41390Y6139D01*
G01X41390Y6139D02*
G01X41390Y5200D01*
G01X18690Y5400D02*
G01X18700Y5400D01*
G01X18700Y5400D02*
G01X18671Y5371D01*
G01X18671Y5371D02*
G01X18671Y4433D01*
G01X3000Y7000D02*
G01X3000Y3300D01*
G01X38145Y2338D02*
G01X38150Y2160D01*
G01X38150Y2160D02*
G01X38150Y1980D01*
G01X38150Y1980D02*
G01X38620Y1510D01*
G01X38620Y1510D02*
G01X38620Y1370D01*
G01X38620Y1370D02*
G01X38810Y1180D01*
G01X38810Y1180D02*
G01X39000Y1000D01*
G01X22000Y1000D02*
G01X22000Y1580D01*
G01X22000Y1580D02*
G01X22170Y1750D01*
G01X22170Y1750D02*
G01X22890Y1750D01*
G01X22890Y1750D02*
G01X24296Y3156D01*
G01X24296Y3156D02*
G01X24296Y3700D01*
G01X16100Y7000D02*
G01X16100Y5900D01*
G01X16100Y5900D02*
G01X16200Y5800D01*
G01X16200Y5800D02*
G01X17000Y5800D01*
G01X17000Y5800D02*
G01X18114Y4685D01*
G01X18114Y4685D02*
G01X18114Y4433D01*
G01X33100Y1400D02*
G01X33100Y2555D01*
G01X38322Y2338D02*
G01X38322Y2127D01*
G01X38322Y2127D02*
G01X38840Y1610D01*
G01X38840Y1610D02*
G01X39780Y1610D01*
G01X39780Y1610D02*
G01X40000Y1390D01*
G01X40000Y1390D02*
G01X40000Y1000D01*
G01X23000Y1000D02*
G01X23010Y1180D01*
G01X23010Y1180D02*
G01X24493Y2663D01*
G01X24493Y2663D02*
G01X24493Y3700D01*
G01X17390Y2100D02*
G01X18109Y2100D01*
G01X18114Y3566D02*
G01X18100Y3600D01*
G01X18100Y3600D02*
G01X18109Y3590D01*
G01X18109Y3590D02*
G01X18109Y2100D01*
G01X30000Y6000D02*
G01X30000Y5760D01*
G01X30000Y5760D02*
G01X31760Y5760D01*
G01X31760Y5760D02*
G01X33000Y7000D01*
G01X24000Y1000D02*
G01X24000Y960D01*
G01X24000Y960D02*
G01X24000Y1450D01*
G01X24000Y1450D02*
G01X24690Y2140D01*
G01X24690Y2140D02*
G01X24690Y3700D01*
G01X16800Y2100D02*
G01X16800Y1700D01*
G01X16800Y1700D02*
G01X17200Y1300D01*
G01X17200Y1300D02*
G01X17409Y1300D01*
G01X27590Y5000D02*
G01X27560Y5040D01*
G01X27560Y5040D02*
G01X27600Y5000D01*
G01X27600Y5000D02*
G01X28209Y5000D01*
G01X28209Y5000D02*
G01X28230Y4950D01*
G01X28230Y4950D02*
G01X28210Y5170D01*
G01X28210Y5170D02*
G01X28210Y5790D01*
G01X28210Y5790D02*
G01X28230Y6000D01*
G01X28200Y3500D02*
G01X28210Y3670D01*
G01X28210Y3670D02*
G01X28209Y4000D01*
G01X28209Y4000D02*
G01X28209Y5000D01*
G01X25000Y1000D02*
G01X25000Y1440D01*
G01X25000Y1440D02*
G01X24890Y1550D01*
G01X24890Y1550D02*
G01X24890Y3600D01*
G01X24890Y3600D02*
G01X24887Y3700D01*
G01X18109Y6000D02*
G01X18109Y5409D01*
G01X18109Y5409D02*
G01X18100Y5400D01*
G01X18100Y7000D02*
G01X18100Y5900D01*
G01X18100Y5900D02*
G01X18109Y6000D01*
G01X24296Y4448D02*
G01X24300Y4450D01*
G01X24300Y4450D02*
G01X24300Y4600D01*
G01X24300Y4600D02*
G01X24030Y4870D01*
G01X24030Y4870D02*
G01X22450Y4870D01*
G01X22450Y4870D02*
G01X22220Y4640D01*
G01X22220Y4640D02*
G01X22220Y4260D01*
G01X22220Y4260D02*
G01X22060Y4100D01*
G01X22060Y4100D02*
G01X21600Y4100D01*
G01X18671Y3566D02*
G01X18700Y3500D01*
G01X18700Y3500D02*
G01X18700Y2900D01*
G01X18700Y2900D02*
G01X18671Y2828D01*
G01X18671Y2828D02*
G01X18700Y2800D01*
G54D29*
G01X18700Y2800D03*
G54D28*
G01X18700Y2100D02*
G01X18700Y2800D01*
G01X18700Y2800D02*
G01X18671Y2828D01*
G01X18700Y2100D02*
G01X18700Y1700D01*
G01X18700Y1700D02*
G01X18300Y1300D01*
G01X18300Y1300D02*
G01X18000Y1300D01*
G01X17557Y4433D02*
G01X17500Y4400D01*
G01X17500Y4400D02*
G01X17500Y4800D01*
G01X17500Y4800D02*
G01X17200Y5100D01*
G01X17200Y5100D02*
G01X16900Y5100D01*
G54D29*
G01X16900Y5100D03*
G54D28*
G01X19100Y7000D02*
G01X19100Y6700D01*
G01X19100Y6700D02*
G01X18700Y6300D01*
G01X18700Y6300D02*
G01X18700Y6000D01*
G01X25084Y3700D02*
G01X25090Y3680D01*
G01X25090Y3680D02*
G01X25090Y3510D01*
G01X25090Y3510D02*
G01X25500Y3100D01*
G01X25500Y3100D02*
G01X25700Y3100D01*
G54D29*
G01X25700Y3100D03*
G54D28*
G01X22700Y3000D02*
G01X22700Y2530D01*
G54D29*
G01X22700Y2530D03*
G54D28*
G01X22709Y4000D02*
G01X22709Y4449D01*
G01X22709Y4449D02*
G01X22710Y4450D01*
G54D29*
G01X22710Y4450D03*
G54D28*
G01X27000Y5000D02*
G01X26520Y5000D01*
G54D29*
G01X26520Y5000D03*
G54D28*
G01X27825Y3500D02*
G01X27850Y3490D01*
G01X27850Y3490D02*
G01X27825Y3514D01*
G01X27825Y3514D02*
G01X27830Y3680D01*
G01X27830Y3680D02*
G01X27830Y4180D01*
G01X27830Y4180D02*
G01X27450Y4560D01*
G54D29*
G01X27450Y4560D03*
G54D28*
G01X27600Y1400D02*
G01X27130Y1400D01*
G54D29*
G01X27130Y1400D03*
G54D28*
G01X32900Y5000D02*
G01X32900Y4320D01*
G01X32900Y4320D02*
G01X32725Y4145D01*
G01X32725Y4145D02*
G01X32725Y3500D01*
G01X32900Y5000D02*
G01X32900Y5570D01*
G54D29*
G01X32900Y5570D03*
G54D28*
G01X32509Y1400D02*
G01X32510Y1480D01*
G01X32510Y1480D02*
G01X32070Y1480D01*
G01X32070Y1480D02*
G01X31950Y1590D01*
G54D29*
G01X31950Y1590D03*
G54D28*
G01X40800Y3000D02*
G01X40280Y3000D01*
G54D29*
G01X40280Y3000D03*
G54D28*
G01X40800Y4300D02*
G01X40280Y4300D01*
G54D29*
G01X40280Y4300D03*
G54D28*
G01X40800Y5200D02*
G01X40280Y5200D01*
G54D29*
G01X40280Y5200D03*
G54D28*
G01X39800Y5600D02*
G01X39800Y5200D01*
G54D29*
G01X39800Y5200D03*
G54D28*
G01X38900Y5600D02*
G01X38900Y5190D01*
G54D29*
G01X38900Y5190D03*
G54D28*
G01X38000Y5600D02*
G01X38000Y5190D01*
G54D29*
G01X38000Y5190D03*
G54D28*
G01X36525Y6200D02*
G01X36525Y6774D01*
G01X36525Y6774D02*
G01X36520Y6780D01*
G54D29*
G01X36520Y6780D03*
G54D28*
G01X36300Y4400D02*
G01X35790Y4400D01*
G54D29*
G01X35790Y4400D03*
G54D28*
G01X39290Y4300D02*
G01X39800Y4300D01*
G54D29*
G01X39800Y4300D03*
G54D28*
G01X37791Y3500D02*
G01X37791Y3868D01*
G01X37791Y3868D02*
G01X37640Y4020D01*
G54D29*
G01X37640Y4020D03*
G54D28*
G01X38057Y2919D02*
G01X39170Y2919D01*
G01X39170Y2919D02*
G01X39180Y2910D01*
G54D29*
G01X39180Y2910D03*
G54D28*
G01X30325Y3053D02*
G01X30325Y1625D01*
G01X30325Y1625D02*
G01X30100Y1400D01*
G54D29*
G01X30100Y1400D03*
G54D28*
G01X36900Y6200D02*
G01X36900Y6940D01*
G01X36900Y6940D02*
G01X36700Y7140D01*
G01X36700Y7140D02*
G01X36360Y7140D01*
G01X36360Y7140D02*
G01X36160Y6940D01*
G01X36160Y6940D02*
G01X36160Y6220D01*
G01X36160Y6220D02*
G01X36151Y6200D01*
G01X40600Y6200D02*
G01X39830Y6200D01*
G01X39830Y6200D02*
G01X39800Y6190D01*
G01X39800Y6190D02*
G01X38850Y6190D01*
G01X38850Y6190D02*
G01X38850Y6190D01*
G01X38850Y6190D02*
G01X38900Y6190D01*
G01X38000Y6190D02*
G01X37950Y6200D01*
G01X37950Y6200D02*
G01X37959Y6190D01*
G01X37959Y6190D02*
G01X38900Y6190D01*
G01X38000Y6190D02*
G01X37420Y6190D01*
G01X37420Y6190D02*
G01X36850Y6190D01*
G01X36850Y6190D02*
G01X36840Y6180D01*
G01X36840Y6180D02*
G01X36900Y6200D01*
G01X37968Y3500D02*
G01X37970Y3520D01*
G01X37970Y3520D02*
G01X37970Y4200D01*
G01X37970Y4200D02*
G01X37770Y4400D01*
G01X37770Y4400D02*
G01X37420Y4400D01*
G01X37420Y4400D02*
G01X37420Y6190D01*
G01X34200Y2200D02*
G01X34000Y2110D01*
G01X34000Y2110D02*
G01X34200Y1880D01*
G01X34200Y1880D02*
G01X34200Y1120D01*
G01X34200Y1120D02*
G01X34000Y920D01*
G01X34000Y920D02*
G01X31640Y920D01*
G01X31640Y920D02*
G01X31450Y1110D01*
G01X31450Y1110D02*
G01X31450Y2010D01*
G01X31450Y2010D02*
G01X31580Y2140D01*
G01X31580Y2140D02*
G01X32240Y2140D01*
G01X32240Y2140D02*
G01X32351Y2251D01*
G01X32351Y2251D02*
G01X32351Y2555D01*
G01X36151Y6200D02*
G01X35370Y6200D01*
G01X35370Y6200D02*
G01X35060Y5890D01*
G01X35060Y5890D02*
G01X35060Y2460D01*
G01X35060Y2460D02*
G01X34800Y2200D01*
G01X34800Y2200D02*
G01X34180Y2200D01*
G01X34180Y2200D02*
G01X34200Y2200D01*

G04 Draw Text*
M00*
M02*
