G04 FreePCB version 1.359*
G04 C:\Users\Jack Ruby\Documents\GitHub\DRI\DRI_DevBoard\CAM\top_paste_mask.grb*
G04 top paste mask layer *
G04 Scale: 100 percent, Rotated: No, Reflected: No *
%FSLAX24Y24*%
%MOIN*%
%LN top paste mask *%
G04 Rounded Rectangle Macro, params: W/2, H/2, R *
%AMRNDREC*
21,1,$1+$1,$2+$2-$3-$3,0,0,0*
21,1,$1+$1-$3-$3,$2+$2,0,0,0*
1,1,$3+$3,$1-$3,$2-$3*
1,1,$3+$3,$3-$1,$2-$3*
1,1,$3+$3,$1-$3,$3-$2*
1,1,$3+$3,$3-$1,$3-$2*%
G04 Rectangular Thermal Macro, params: W/2, H/2, T/2 *
%AMRECTHERM*
$4=$3/2*
21,1,$1-$3,$2-$3,0-$1/2-$4,0-$2/2-$4,0*
21,1,$1-$3,$2-$3,0-$1/2-$4,$2/2+$4,0*
21,1,$1-$3,$2-$3,$1/2+$4,0-$2/2-$4,0*
21,1,$1-$3,$2-$3,$1/2+$4,$2/2+$4,0*%
%ADD10C,0.005000*%
%ADD11R,0.023622X0.047244*%
%ADD12R,0.023622X0.049213*%
%ADD13R,0.023622X0.035433*%
%ADD14R,0.035433X0.023622*%
%ADD15R,0.011024X0.019685*%
%ADD16R,0.027559X0.009843*%
%ADD17R,0.031496X0.031496*%
%ADD18R,0.035433X0.027559*%
%ADD19R,0.059055X0.068898*%
%ADD20R,0.050787X0.057874*%
%ADD21R,0.011811X0.033465*%
%ADD22R,0.098425X0.059055*%
%ADD23R,0.028000X0.059000*%
%ADD24R,0.039000X0.032000*%
G90*
G70D02*

G04 Step and Repeat for panelization *

G04 ----------------------- Draw board outline (positive)*
%LPD*%
G54D10*
G01X0Y0D02*
G01X0Y8000D01*
G04 end of side 1*
G01X46000Y8000D01*
G04 end of side 2*
G01X46000Y0D01*
G04 end of side 3*
G01X0Y0D01*

G04 -------------- Draw Parts, Pads, Traces, Vias and Text (positive)*
%LPD*%
G04 Draw part U7*
G54D11*
G01X36900Y6200D03*
G01X36525Y6200D03*
G01X36151Y6200D03*
G01X36151Y5255D03*
G01X36900Y5255D03*
G04 Draw part U1*
G01X28200Y3500D03*
G01X27825Y3500D03*
G01X27451Y3500D03*
G01X27451Y2555D03*
G01X28200Y2555D03*
G04 Draw part U5*
G01X33100Y3500D03*
G01X32725Y3500D03*
G01X32351Y3500D03*
G01X32351Y2555D03*
G01X33100Y2555D03*
G04 Draw part FET1*
G54D12*
G01X30700Y3900D03*
G01X29951Y3900D03*
G01X30325Y3053D03*
G04 Draw part R10*
G54D13*
G01X39400Y3600D03*
G01X39990Y3600D03*
G04 Draw part R14*
G01X39400Y2200D03*
G01X39990Y2200D03*
G04 Draw part C13*
G01X40800Y3000D03*
G01X41390Y3000D03*
G04 Draw part C12*
G01X40800Y4300D03*
G01X41390Y4300D03*
G04 Draw part C11*
G01X40800Y5200D03*
G01X41390Y5200D03*
G04 Draw part C14*
G01X38700Y4300D03*
G01X39290Y4300D03*
G04 Draw part C15*
G54D14*
G01X38900Y5600D03*
G01X38900Y6190D03*
G04 Draw part C16*
G01X39800Y5600D03*
G01X39800Y6190D03*
G04 Draw part U3*
G54D15*
G01X24100Y3700D03*
G01X24296Y3700D03*
G01X24493Y3700D03*
G01X24690Y3700D03*
G01X24887Y3700D03*
G01X25084Y3700D03*
G01X25084Y4448D03*
G01X24887Y4448D03*
G01X24690Y4448D03*
G01X24493Y4448D03*
G01X24296Y4448D03*
G01X24100Y4448D03*
G54D16*
G01X24044Y4201D03*
G01X24044Y3946D03*
G01X25139Y4201D03*
G01X25139Y3946D03*
G04 Draw part C1*
G54D13*
G01X23300Y4000D03*
G01X22709Y4000D03*
G04 Draw part C2*
G01X22700Y3000D03*
G01X23290Y3000D03*
G04 Draw part U6*
G54D17*
G01X17000Y3566D03*
G01X17557Y3566D03*
G01X18114Y3566D03*
G01X18671Y3566D03*
G54D18*
G01X18721Y4000D03*
G54D17*
G01X18671Y4433D03*
G01X18114Y4433D03*
G01X17557Y4433D03*
G01X17000Y4433D03*
G54D18*
G01X16949Y4000D03*
G04 Draw part C6*
G54D13*
G01X16800Y2100D03*
G01X17390Y2100D03*
G04 Draw part C8*
G01X18700Y2100D03*
G01X18109Y2100D03*
G04 Draw part R5*
G01X18000Y1300D03*
G01X17409Y1300D03*
G04 Draw part R4*
G01X18100Y5400D03*
G01X18690Y5400D03*
G04 Draw part C7*
G01X18700Y6000D03*
G01X18109Y6000D03*
G04 Draw part R6*
G54D14*
G01X1000Y3300D03*
G01X1000Y2709D03*
G04 Draw part R7*
G01X5000Y3300D03*
G01X5000Y2709D03*
G04 Draw part R8*
G01X9000Y3300D03*
G01X9000Y2709D03*
G04 Draw part R9*
G01X13000Y3300D03*
G01X13000Y2709D03*
G04 Draw part R11*
G01X11000Y3300D03*
G01X11000Y2709D03*
G04 Draw part R12*
G01X7000Y3300D03*
G01X7000Y2709D03*
G04 Draw part R13*
G01X3000Y3300D03*
G01X3000Y2709D03*
G04 Draw part R1*
G54D13*
G01X28800Y5000D03*
G01X28209Y5000D03*
G04 Draw part R2*
G01X33100Y1400D03*
G01X32509Y1400D03*
G04 Draw part C5*
G01X32900Y5000D03*
G01X32309Y5000D03*
G04 Draw part C4*
G01X27600Y1400D03*
G01X28190Y1400D03*
G04 Draw part C10*
G01X36300Y4400D03*
G01X36890Y4400D03*
G04 Draw part C9*
G54D14*
G01X38000Y5600D03*
G01X38000Y6190D03*
G04 Draw part C3*
G54D13*
G01X27000Y5000D03*
G01X27590Y5000D03*
G04 Draw part D1*
G54D19*
G01X34200Y2200D03*
G01X34200Y3676D03*
G04 Draw part R3*
G54D13*
G01X33600Y5000D03*
G01X34190Y5000D03*
G04 Draw part J3*
G04 Draw part J2*
G04 Draw part PT1*
G04 Draw part PT2*
G04 Draw part PT3*
G04 Draw part PT4*
G04 Draw part J4*
G04 Draw part J1*
G04 Draw part J5*
G04 Draw part ferrite*
G54D20*
G01X40600Y6200D03*
G01X41363Y6200D03*
G04 Draw part U4*
G04 Draw part U2*
G04 Draw part SW1*
G04 Draw part SW3*
G04 Draw part U8*
G54D21*
G01X38500Y3500D03*
G01X38322Y3500D03*
G01X38145Y3500D03*
G01X37968Y3500D03*
G01X37791Y3500D03*
G01X37614Y3500D03*
G01X37614Y2338D03*
G01X37791Y2338D03*
G01X37968Y2338D03*
G01X38145Y2338D03*
G01X38322Y2338D03*
G01X38500Y2338D03*
G54D22*
G01X38057Y2919D03*
G04 Draw part D2*
G04 Draw part D3*
G04 Draw part D4*
G04 Draw part K1*
G04 Draw part SW2*
G54D23*
G01X30000Y6000D03*
G01X28820Y6000D03*
G01X28230Y6000D03*
G54D24*
G01X30555Y6250D03*
G01X30555Y7120D03*
G01X27685Y6250D03*
G01X27685Y7120D03*

G04 Draw traces*

G04 Draw Text*
M00*
M02*
