;Holesize 1 =   40.0 PLATED MILS
;Holesize 2 =   35.0 PLATED MILS
;Holesize 3 =   11.0 PLATED MILS
;Holesize 4 =   15.0 PLATED MILS
;Holesize 5 =   20.0 PLATED MILS
M48
INCH,00.0000
T01C0.040
T02C0.035
T03C0.011
T04C0.015
T05C0.020
%
G05
G90
T01
X000700Y009600
X001410Y010310
X006000Y000900
X007000Y000900
X002100Y011000
X002810Y011710
X015200Y000900
X016200Y000900
X017400Y000900
X018400Y000900
X026200Y011700
X026910Y010990
X027600Y010300
X028310Y009590
T02
X002290Y001120
X003470Y001120
T03
X016516Y002874
X016792Y002874
X017067Y002874
T04
X025204Y003623
X024023Y003623
X024811Y003623
X024417Y003623
X025204Y004017
X024811Y004017
X024811Y004411
X024023Y004017
X025204Y004411
X024417Y004027
X024417Y004411
X024023Y004411
X025204Y004804
X024811Y004804
X024417Y004804
X024023Y004804
X014690Y006330
X009460Y008500
X014550Y009700
X006470Y006300
X007240Y006300
X024780Y007360
X026670Y004530
X022980Y005900
X023500Y005900
X002700Y009600
X000790Y009600
X002700Y009600
X001500Y005860
X025170Y005900
X026240Y004530
X025940Y003000
X025680Y002300
X022820Y002660
X020880Y002670
X019540Y002670
X012520Y007050
X008900Y007560
X019710Y011570
X015150Y011250
X023620Y001790
X019140Y004670
X012890Y009090
X026780Y004100
X019130Y005900
X017430Y008520
X008210Y008400
X015970Y010570
X007820Y005890
X022730Y003570
X014080Y009240
X009270Y003600
X010780Y003600
X018980Y007310
X018650Y006520
X018570Y007440
X018310Y006190
X014790Y005770
X009460Y010740
X011690Y004680
X008700Y005030
X012100Y005400
X009270Y003170
X010950Y002800
X011980Y004000
X008000Y002940
X006170Y002320
X004470Y004000
X000600Y000840
X001500Y002250
X003030Y005400
X023700Y001300
X023300Y001030
X026480Y001950
X026790Y002250
X027100Y002570
X027300Y005200
X027300Y005700
X021700Y002650
X022700Y002000
X021700Y003600
X023310Y007770
X017890Y002500
X015180Y001910
X014400Y003940
X008350Y002200
X012210Y002160
X025980Y005540
X019130Y006400
X011770Y009110
X011770Y008500
X012770Y008280
X024930Y008400
X024930Y009200
X024930Y010000
X021900Y011080
X018280Y011570
X007010Y008800
X010910Y006800
X010120Y005940
X008720Y006300
X028300Y008040
X001800Y008900
X000710Y005400
X020890Y002110
X021230Y000890
X013270Y007720
X013440Y007010
X016780Y009170
X013310Y009900
X016090Y003800
X016770Y007560
X017100Y008850
X013590Y009610
X022670Y004560
X018230Y005400
X021900Y007300
X015980Y009800
X014110Y009700
X024400Y007090
X011190Y005040
X008700Y004010
X011320Y002500
T05
X013720Y002500
X002680Y002850
X004330Y002550
M30
