G04 FreePCB version 1.359*
G04 C:\Users\Jack Ruby\Documents\GitHub\DRI\DRI_mk1\CAM\top_solder_mask.grb*
G04 top solder mask layer *
G04 Scale: 100 percent, Rotated: No, Reflected: No *
%FSLAX24Y24*%
%MOIN*%
%LN top solder mask *%
G04 Rounded Rectangle Macro, params: W/2, H/2, R *
%AMRNDREC*
21,1,$1+$1,$2+$2-$3-$3,0,0,0*
21,1,$1+$1-$3-$3,$2+$2,0,0,0*
1,1,$3+$3,$1-$3,$2-$3*
1,1,$3+$3,$3-$1,$2-$3*
1,1,$3+$3,$1-$3,$3-$2*
1,1,$3+$3,$3-$1,$3-$2*%
G04 Rectangular Thermal Macro, params: W/2, H/2, T/2 *
%AMRECTHERM*
$4=$3/2*
21,1,$1-$3,$2-$3,0-$1/2-$4,0-$2/2-$4,0*
21,1,$1-$3,$2-$3,0-$1/2-$4,$2/2+$4,0*
21,1,$1-$3,$2-$3,$1/2+$4,0-$2/2-$4,0*
21,1,$1-$3,$2-$3,$1/2+$4,$2/2+$4,0*%
%ADD10C,0.005000*%
%ADD11R,0.049465X0.027811*%
%ADD12R,0.075055X0.114425*%
%ADD13R,0.039622X0.035685*%
%ADD14R,0.039622X0.059307*%
%ADD15R,0.051433X0.039622*%
%ADD16R,0.039622X0.051433*%
%ADD17R,0.065213X0.039622*%
%ADD18C,0.076000*%
%ADD19R,0.035685X0.039622*%
%ADD20R,0.044000X0.075000*%
%ADD21R,0.055000X0.048000*%
%ADD22C,0.051000*%
%ADD23R,0.047496X0.047496*%
%ADD24R,0.051433X0.043559*%
%ADD25R,0.039622X0.025055*%
%ADD26R,0.025055X0.039622*%
%ADD27R,0.138047X0.138047*%
%ADD28R,0.027024X0.035685*%
%ADD29R,0.043559X0.051433*%
%ADD30R,0.043559X0.025843*%
%ADD31R,0.027024X0.049465*%
%ADD32R,0.049465X0.027024*%
%ADD33R,0.193165X0.193165*%
%ADD34C,0.032000*%
%ADD35R,0.031748X0.069150*%
%ADD36R,0.078992X0.071118*%
%ADD37R,0.106551X0.067181*%
%ADD38R,0.086866X0.090803*%
%ADD39R,0.066000X0.116000*%
%ADD40R,0.055370X0.029780*%
%ADD41R,0.047496X0.078992*%
%ADD42R,0.110488X0.045528*%
%ADD43R,0.098677X0.078992*%
%ADD44R,0.102614X0.067181*%
%ADD45R,0.049465X0.053402*%
%ADD46C,0.046000*%
%ADD47C,0.056000*%
G90*
G70D02*

G04 Step and Repeat for panelization *

G04 ----------------------- Draw board outline (positive)*
%LPD*%
G54D10*
G01X0Y0D02*
G01X0Y12500D01*
G04 end of side 1*
G01X29000Y12500D01*
G04 end of side 2*
G01X29000Y0D01*
G04 end of side 3*
G01X0Y0D01*

G04 -------------- Draw Parts, Pads, Traces, Vias and Text (positive)*
%LPD*%
G04 Draw part U1*
G54D11*
G01X10700Y4500D03*
G01X10700Y4677D03*
G01X10700Y4854D03*
G01X10700Y5031D03*
G01X10700Y5208D03*
G01X10700Y5385D03*
G01X9538Y5385D03*
G01X9538Y5208D03*
G01X9538Y5031D03*
G01X9538Y4854D03*
G01X9538Y4677D03*
G01X9538Y4500D03*
G54D12*
G01X10119Y4942D03*
G04 Draw part F1*
G54D13*
G01X8700Y3300D03*
G01X8700Y3595D03*
G04 Draw part U2*
G54D14*
G01X5800Y2900D03*
G01X6174Y2900D03*
G01X6548Y2900D03*
G01X6548Y4002D03*
G01X5800Y4002D03*
G04 Draw part U3*
G01X1500Y3200D03*
G01X1874Y3200D03*
G01X2248Y3200D03*
G01X2248Y4302D03*
G01X1500Y4302D03*
G04 Draw part C10*
G54D15*
G01X700Y4200D03*
G01X700Y4790D03*
G04 Draw part C6*
G54D16*
G01X7900Y2200D03*
G01X7309Y2200D03*
G04 Draw part C7*
G54D15*
G01X8000Y4000D03*
G01X8000Y3409D03*
G04 Draw part D3*
G54D16*
G01X3500Y4400D03*
G01X2909Y4400D03*
G04 Draw part FET1*
G54D17*
G01X3400Y3600D03*
G01X3400Y2851D03*
G01X4246Y3225D03*
G04 Draw part C9*
G54D16*
G01X1900Y5400D03*
G01X2490Y5400D03*
G04 Draw part D4*
G54D18*
G01X700Y9600D03*
G01X1410Y10310D03*
G04 Draw part FET2*
G54D17*
G01X13000Y2500D03*
G01X13000Y3248D03*
G01X12153Y2874D03*
G04 Draw part C31*
G54D15*
G01X14400Y2500D03*
G01X14400Y1909D03*
G04 Draw part C4*
G54D13*
G01X11500Y4000D03*
G01X11500Y4295D03*
G04 Draw part C5*
G01X15500Y10100D03*
G01X15500Y9804D03*
G04 Draw part R3*
G01X11500Y5400D03*
G01X11500Y5695D03*
G04 Draw part R1*
G01X9800Y3600D03*
G01X9800Y3304D03*
G04 Draw part R2*
G01X10300Y3600D03*
G01X10300Y3304D03*
G04 Draw part C2*
G54D19*
G01X9800Y2800D03*
G01X9504Y2800D03*
G04 Draw part C3*
G01X10300Y2800D03*
G01X10595Y2800D03*
G04 Draw part R4*
G54D13*
G01X7300Y2800D03*
G01X7300Y3095D03*
G04 Draw part R5*
G54D19*
G01X5500Y1800D03*
G01X5795Y1800D03*
G04 Draw part C8*
G54D13*
G01X7300Y4000D03*
G01X7300Y3704D03*
G04 Draw part R6*
G01X4100Y4000D03*
G01X4100Y4295D03*
G04 Draw part R24*
G01X600Y1600D03*
G01X600Y1304D03*
G04 Draw part C13*
G54D19*
G01X10000Y8000D03*
G01X10295Y8000D03*
G04 Draw part R7*
G01X11100Y8500D03*
G01X10804Y8500D03*
G04 Draw part C12*
G01X10000Y8500D03*
G01X10295Y8500D03*
G04 Draw part C14*
G54D13*
G01X11300Y9400D03*
G01X11300Y9104D03*
G04 Draw part R8*
G01X11300Y10100D03*
G01X11300Y9804D03*
G04 Draw part R9*
G54D19*
G01X9100Y6300D03*
G01X9395Y6300D03*
G04 Draw part R10*
G54D13*
G01X1800Y9300D03*
G01X1800Y9595D03*
G04 Draw part R11*
G01X2700Y10500D03*
G01X2700Y10204D03*
G04 Draw part C11*
G54D19*
G01X7900Y8800D03*
G01X7604Y8800D03*
G04 Draw part R17*
G54D13*
G01X15000Y9800D03*
G01X15000Y10095D03*
G04 Draw part C16*
G01X16900Y7900D03*
G01X16900Y8195D03*
G04 Draw part C15*
G01X13000Y7300D03*
G01X13000Y7004D03*
G04 Draw part R14*
G54D19*
G01X24600Y10000D03*
G01X24304Y10000D03*
G04 Draw part R15*
G01X24600Y9200D03*
G01X24304Y9200D03*
G04 Draw part R16*
G01X24600Y8400D03*
G01X24304Y8400D03*
G04 Draw part C29*
G01X26700Y5700D03*
G01X26404Y5700D03*
G04 Draw part R22*
G01X26400Y2700D03*
G01X26695Y2700D03*
G04 Draw part C27*
G54D13*
G01X27100Y4800D03*
G01X27100Y4504D03*
G04 Draw part C26*
G01X27100Y3000D03*
G01X27100Y3295D03*
G04 Draw part C22*
G01X22700Y1600D03*
G01X22700Y1304D03*
G04 Draw part C21*
G54D19*
G01X22300Y2000D03*
G01X22004Y2000D03*
G04 Draw part R21*
G01X22300Y3200D03*
G01X22004Y3200D03*
G04 Draw part R18*
G54D13*
G01X24800Y6400D03*
G01X24800Y6695D03*
G04 Draw part R19*
G01X24400Y6400D03*
G01X24400Y6695D03*
G04 Draw part R20*
G01X23900Y6700D03*
G01X23900Y6404D03*
G04 Draw part C19*
G54D19*
G01X22000Y3600D03*
G01X22295Y3600D03*
G04 Draw part C24*
G01X26400Y2300D03*
G01X26104Y2300D03*
G04 Draw part C23*
G54D13*
G01X23300Y1500D03*
G01X23300Y1795D03*
G04 Draw part C20*
G54D19*
G01X22000Y2650D03*
G01X22295Y2650D03*
G04 Draw part C25*
G01X26700Y3100D03*
G01X26404Y3100D03*
G04 Draw part C18*
G54D13*
G01X23500Y6700D03*
G01X23500Y6404D03*
G04 Draw part C28*
G01X26700Y5200D03*
G01X26700Y4904D03*
G04 Draw part C17*
G54D15*
G01X20200Y2700D03*
G01X20200Y2109D03*
G04 Draw part C30*
G54D13*
G01X14400Y3300D03*
G01X14400Y3595D03*
G04 Draw part R23*
G54D19*
G01X13100Y1900D03*
G01X12804Y1900D03*
G04 Draw part C1*
G01X8700Y2800D03*
G01X8995Y2800D03*
G04 Draw part D1*
G54D16*
G01X11500Y6300D03*
G01X10909Y6300D03*
G04 Draw part D2*
G54D15*
G01X5000Y2900D03*
G01X5000Y2309D03*
G04 Draw part B1*
G54D18*
G01X6000Y900D03*
G01X7000Y900D03*
G04 Draw part D10*
G54D15*
G01X600Y2800D03*
G01X600Y2209D03*
G04 Draw part SW1*
G54D20*
G01X2000Y1800D03*
G01X3180Y1800D03*
G01X3770Y1800D03*
G54D21*
G01X1445Y1550D03*
G01X1445Y680D03*
G01X4315Y1550D03*
G01X4315Y680D03*
G54D22*
G01X2290Y1120D03*
G01X3470Y1120D03*
G04 Draw part U4*
G54D23*
G01X8900Y9266D03*
G01X9457Y9266D03*
G01X10014Y9266D03*
G01X10571Y9266D03*
G54D24*
G01X10621Y9700D03*
G54D23*
G01X10571Y10133D03*
G01X10014Y10133D03*
G01X9457Y10133D03*
G01X8900Y10133D03*
G54D24*
G01X8849Y9700D03*
G04 Draw part PT2*
G54D18*
G01X2100Y11000D03*
G01X2810Y11710D03*
G04 Draw part U5*
G54D25*
G01X14144Y8677D03*
G01X14144Y8481D03*
G01X14144Y8284D03*
G01X14144Y8087D03*
G01X14144Y7890D03*
G01X14144Y7693D03*
G01X14144Y7496D03*
G01X14144Y7300D03*
G54D26*
G01X14400Y7044D03*
G01X14596Y7044D03*
G01X14793Y7044D03*
G01X14990Y7044D03*
G01X15187Y7044D03*
G01X15384Y7044D03*
G01X15581Y7044D03*
G01X15777Y7044D03*
G54D25*
G01X16033Y7300D03*
G01X16033Y7496D03*
G01X16033Y7693D03*
G01X16033Y7890D03*
G01X16033Y8087D03*
G01X16033Y8284D03*
G01X16033Y8481D03*
G01X16033Y8677D03*
G54D26*
G01X15777Y8933D03*
G01X15581Y8933D03*
G01X15384Y8933D03*
G01X15187Y8933D03*
G01X14990Y8933D03*
G01X14793Y8933D03*
G01X14596Y8933D03*
G01X14400Y8933D03*
G54D27*
G01X15088Y7988D03*
G04 Draw part D6*
G54D16*
G01X23200Y10000D03*
G01X23790Y10000D03*
G04 Draw part D7*
G01X23200Y9200D03*
G01X23790Y9200D03*
G04 Draw part D8*
G01X23200Y8400D03*
G01X23790Y8400D03*
G04 Draw part D9*
G01X23900Y7300D03*
G01X23309Y7300D03*
G04 Draw part U7*
G54D28*
G01X16300Y2500D03*
G01X16496Y2500D03*
G01X16693Y2500D03*
G01X16890Y2500D03*
G01X17087Y2500D03*
G01X17284Y2500D03*
G01X17284Y3248D03*
G01X17087Y3248D03*
G01X16890Y3248D03*
G01X16693Y3248D03*
G01X16496Y3248D03*
G01X16300Y3248D03*
G54D29*
G01X16516Y2874D03*
G01X16792Y2874D03*
G01X17067Y2874D03*
G54D30*
G01X16244Y3001D03*
G01X16244Y2746D03*
G01X17339Y3001D03*
G01X17339Y2746D03*
G04 Draw part H5*
G54D18*
G01X15200Y900D03*
G01X16200Y900D03*
G04 Draw part H6*
G01X17400Y900D03*
G01X18400Y900D03*
G04 Draw part U6*
G54D31*
G01X25500Y5385D03*
G01X25303Y5385D03*
G01X25106Y5385D03*
G01X24909Y5385D03*
G01X24712Y5385D03*
G01X24515Y5385D03*
G01X24318Y5385D03*
G01X24122Y5385D03*
G01X23925Y5385D03*
G01X23728Y5385D03*
G54D32*
G01X23442Y5100D03*
G01X23442Y4903D03*
G01X23442Y4706D03*
G01X23442Y4509D03*
G01X23442Y4312D03*
G01X23442Y4115D03*
G01X23442Y3918D03*
G01X23442Y3722D03*
G01X23442Y3525D03*
G01X23442Y3328D03*
G54D31*
G01X23728Y3042D03*
G01X23925Y3042D03*
G01X24122Y3042D03*
G01X24318Y3042D03*
G01X24515Y3042D03*
G01X24712Y3042D03*
G01X24909Y3042D03*
G01X25106Y3042D03*
G01X25303Y3042D03*
G01X25500Y3042D03*
G54D32*
G01X25785Y3328D03*
G01X25785Y3525D03*
G01X25785Y3722D03*
G01X25785Y3918D03*
G01X25785Y4115D03*
G01X25785Y4312D03*
G01X25785Y4509D03*
G01X25785Y4706D03*
G01X25785Y4903D03*
G01X25785Y5100D03*
G54D33*
G01X24614Y4214D03*
G54D34*
G01X25204Y3623D03*
G01X24023Y3623D03*
G01X24811Y3623D03*
G01X24417Y3623D03*
G01X25204Y4017D03*
G01X24811Y4017D03*
G01X24811Y4411D03*
G01X24023Y4017D03*
G01X25204Y4411D03*
G01X24417Y4027D03*
G01X24417Y4411D03*
G01X24023Y4411D03*
G01X25204Y4804D03*
G01X24811Y4804D03*
G01X24417Y4804D03*
G01X24023Y4804D03*
G04 Draw part H1*
G54D35*
G01X10200Y1734D03*
G01X10455Y1734D03*
G01X10711Y1734D03*
G01X9944Y1734D03*
G01X9688Y1734D03*
G54D36*
G01X8940Y1645D03*
G01X11459Y1645D03*
G54D37*
G01X8723Y681D03*
G01X11676Y681D03*
G54D38*
G01X9747Y681D03*
G01X10652Y681D03*
G04 Draw part H2*
G54D39*
G01X19900Y8100D03*
G01X20900Y8100D03*
G01X21900Y8100D03*
G01X21900Y10249D03*
G01X20900Y10249D03*
G01X19900Y10249D03*
G04 Draw part Balun1*
G54D40*
G01X25000Y1300D03*
G01X25000Y1555D03*
G01X25000Y1811D03*
G01X24291Y1811D03*
G01X24291Y1555D03*
G01X24291Y1300D03*
G04 Draw part A1*
G54D41*
G01X26800Y900D03*
G01X28138Y900D03*
G04 Draw part H4*
G54D42*
G01X20200Y6400D03*
G01X20200Y5900D03*
G01X20200Y5400D03*
G01X20200Y4900D03*
G01X20200Y4400D03*
G01X21735Y4400D03*
G01X21735Y4900D03*
G01X21735Y5400D03*
G01X21735Y5900D03*
G01X21735Y6400D03*
G04 Draw part PT1*
G54D23*
G01X9500Y7100D03*
G01X8909Y7100D03*
G04 Draw part SW2*
G54D43*
G01X13500Y11300D03*
G01X17082Y11300D03*
G04 Draw part X2*
G54D44*
G01X28000Y4700D03*
G01X28000Y3046D03*
G04 Draw part X1*
G54D45*
G01X22200Y900D03*
G01X22200Y1470D03*
G01X21747Y1470D03*
G01X21747Y900D03*
G04 Draw part PT3*
G54D18*
G01X26200Y11700D03*
G01X26910Y10990D03*
G04 Draw part R13*
G54D13*
G01X26200Y10500D03*
G01X26200Y10795D03*
G04 Draw part R12*
G01X28300Y8500D03*
G01X28300Y8795D03*
G04 Draw part D5*
G54D18*
G01X27600Y10300D03*
G01X28310Y9590D03*

G04 Draw traces*
G54D46*
G01X14690Y6330D03*
G01X9460Y8500D03*
G01X14550Y9700D03*
G01X6470Y6300D03*
G01X7240Y6300D03*
G01X24780Y7360D03*
G01X26670Y4530D03*
G01X22980Y5900D03*
G54D47*
G01X13720Y2500D03*
G01X2680Y2850D03*
G54D46*
G01X23500Y5900D03*
G01X2700Y9600D03*
G01X790Y9600D03*
G01X2700Y9600D03*
G01X1500Y5860D03*
G01X25170Y5900D03*
G01X26240Y4530D03*
G01X25940Y3000D03*
G01X25680Y2300D03*
G01X22820Y2660D03*
G01X20880Y2670D03*
G01X19540Y2670D03*
G01X12520Y7050D03*
G01X8900Y7560D03*
G01X19710Y11570D03*
G01X15150Y11250D03*
G01X23620Y1790D03*
G01X19140Y4670D03*
G01X12890Y9090D03*
G01X26780Y4100D03*
G01X19130Y5900D03*
G01X17430Y8520D03*
G01X8210Y8400D03*
G01X15970Y10570D03*
G01X7820Y5890D03*
G01X22730Y3570D03*
G01X14080Y9240D03*
G01X9270Y3600D03*
G01X10780Y3600D03*
G01X18980Y7310D03*
G01X18650Y6520D03*
G01X18570Y7440D03*
G01X18310Y6190D03*
G01X14790Y5770D03*
G01X9460Y10740D03*
G01X11690Y4680D03*
G01X8700Y5030D03*
G01X12100Y5400D03*
G01X9270Y3170D03*
G01X10950Y2800D03*
G01X11980Y4000D03*
G01X8000Y2940D03*
G01X6170Y2320D03*
G01X4470Y4000D03*
G01X600Y840D03*
G01X1500Y2250D03*
G01X3030Y5400D03*
G01X23700Y1300D03*
G01X23300Y1030D03*
G01X26480Y1950D03*
G01X26790Y2250D03*
G01X27100Y2570D03*
G01X27300Y5200D03*
G01X27300Y5700D03*
G01X21700Y2650D03*
G01X22700Y2000D03*
G01X21700Y3600D03*
G01X23310Y7770D03*
G01X17890Y2500D03*
G01X15180Y1910D03*
G01X14400Y3940D03*
G01X8350Y2200D03*
G01X12210Y2160D03*
G01X25980Y5540D03*
G01X19130Y6400D03*
G01X11770Y9110D03*
G01X11770Y8500D03*
G01X12770Y8280D03*
G01X24930Y8400D03*
G01X24930Y9200D03*
G01X24930Y10000D03*
G01X21900Y11080D03*
G01X18280Y11570D03*
G01X7010Y8800D03*
G01X10910Y6800D03*
G01X10120Y5940D03*
G01X8720Y6300D03*
G01X28300Y8040D03*
G01X1800Y8900D03*
G01X710Y5400D03*
G01X20890Y2110D03*
G01X21230Y890D03*
G01X13270Y7720D03*
G01X13440Y7010D03*
G01X16780Y9170D03*
G01X13310Y9900D03*
G01X16090Y3800D03*
G01X16770Y7560D03*
G01X17100Y8850D03*
G01X13590Y9610D03*
G01X22670Y4560D03*
G01X18230Y5400D03*
G01X21900Y7300D03*
G01X15980Y9800D03*
G01X14110Y9700D03*
G01X24400Y7090D03*
G54D47*
G01X4330Y2550D03*
G54D46*
G01X11190Y5040D03*
G01X8700Y4010D03*
G01X11320Y2500D03*

G04 Draw Text*

G04 Draw solder mask cutouts*
M00*
M02*
