G04 FreePCB version 1.359*
G04 C:\Users\Jack Ruby\Documents\GitHub\DRI\DRI_mk1\CAM\top_silk.grb*
G04 top silk layer *
G04 Scale: 100 percent, Rotated: No, Reflected: No *
%FSLAX24Y24*%
%MOIN*%
%LN top silk *%
G04 Rounded Rectangle Macro, params: W/2, H/2, R *
%AMRNDREC*
21,1,$1+$1,$2+$2-$3-$3,0,0,0*
21,1,$1+$1-$3-$3,$2+$2,0,0,0*
1,1,$3+$3,$1-$3,$2-$3*
1,1,$3+$3,$3-$1,$2-$3*
1,1,$3+$3,$1-$3,$3-$2*
1,1,$3+$3,$3-$1,$3-$2*%
G04 Rectangular Thermal Macro, params: W/2, H/2, T/2 *
%AMRECTHERM*
$4=$3/2*
21,1,$1-$3,$2-$3,0-$1/2-$4,0-$2/2-$4,0*
21,1,$1-$3,$2-$3,0-$1/2-$4,$2/2+$4,0*
21,1,$1-$3,$2-$3,$1/2+$4,0-$2/2-$4,0*
21,1,$1-$3,$2-$3,$1/2+$4,$2/2+$4,0*%
%ADD10C,0.005000*%
%ADD11C,0.007000*%
%ADD12C,0.010000*%
G90*
G70D02*

G04 Step and Repeat for panelization *

G04 ----------------------- Draw board outline (positive)*
%LPD*%
G54D10*
G01X0Y0D02*
G01X0Y12500D01*
G04 end of side 1*
G01X29000Y12500D01*
G04 end of side 2*
G01X29000Y0D01*
G04 end of side 3*
G01X0Y0D01*

G04 -------------- Draw Parts, Pads, Traces, Vias and Text (positive)*
%LPD*%
G04 Draw part U1*
G04 draw part outline for part U1*
G04 draw reference designator for part U1*
G54D10*
G01X7222Y6500D02*
G01X7563Y6500D01*
G01X7563Y6500D02*
G01X7631Y6522D01*
G01X7631Y6522D02*
G01X7677Y6568D01*
G01X7677Y6568D02*
G01X7700Y6636D01*
G01X7700Y6681D02*
G01X7700Y6636D01*
G01X7677Y6750D02*
G01X7700Y6681D01*
G01X7631Y6795D02*
G01X7677Y6750D01*
G01X7563Y6818D02*
G01X7631Y6795D01*
G01X7222Y6818D02*
G01X7563Y6818D01*
G01X7290Y7045D02*
G01X7313Y7000D01*
G01X7222Y7113D02*
G01X7290Y7045D01*
G01X7222Y7113D02*
G01X7700Y7113D01*
G04 Draw part F1*
G04 draw part outline for part F1*
G04 draw reference designator for part F1*
G01X7922Y5100D02*
G01X8400Y5100D01*
G01X7922Y5395D02*
G01X7922Y5100D01*
G01X8150Y5281D02*
G01X8150Y5100D01*
G01X7990Y5622D02*
G01X8013Y5577D01*
G01X7922Y5690D02*
G01X7990Y5622D01*
G01X7922Y5690D02*
G01X8400Y5690D01*
G04 Draw part U2*
G04 draw part outline for part U2*
G54D11*
G01X5800Y3208D02*
G01X6548Y3208D01*
G01X6548Y3208D02*
G01X6548Y3693D01*
G01X6548Y3693D02*
G01X5800Y3693D01*
G01X5800Y3693D02*
G01X5800Y3543D01*
G01X5800Y3543D02*
G01X5893Y3543D01*
G01X5893Y3543D02*
G01X5893Y3359D01*
G01X5893Y3359D02*
G01X5800Y3359D01*
G01X5800Y3359D02*
G01X5800Y3208D01*
G04 draw reference designator for part U2*
G54D10*
G01X6800Y4377D02*
G01X6800Y4036D01*
G01X6800Y4036D02*
G01X6822Y3968D01*
G01X6822Y3968D02*
G01X6868Y3922D01*
G01X6868Y3922D02*
G01X6936Y3900D01*
G01X6981Y3900D02*
G01X6936Y3900D01*
G01X7050Y3922D02*
G01X6981Y3900D01*
G01X7095Y3968D02*
G01X7050Y3922D01*
G01X7118Y4036D02*
G01X7095Y3968D01*
G01X7118Y4377D02*
G01X7118Y4036D01*
G01X7322Y4286D02*
G01X7322Y4263D01*
G01X7345Y4331D02*
G01X7322Y4286D01*
G01X7368Y4354D02*
G01X7345Y4331D01*
G01X7413Y4377D02*
G01X7368Y4354D01*
G01X7504Y4377D02*
G01X7413Y4377D01*
G01X7504Y4377D02*
G01X7550Y4354D01*
G01X7550Y4354D02*
G01X7572Y4331D01*
G01X7572Y4331D02*
G01X7595Y4286D01*
G01X7595Y4286D02*
G01X7595Y4240D01*
G01X7595Y4240D02*
G01X7572Y4195D01*
G01X7572Y4195D02*
G01X7527Y4127D01*
G01X7527Y4127D02*
G01X7300Y3900D01*
G01X7618Y3900D02*
G01X7300Y3900D01*
G04 Draw part U3*
G04 draw part outline for part U3*
G54D11*
G01X1500Y3508D02*
G01X2248Y3508D01*
G01X2248Y3508D02*
G01X2248Y3993D01*
G01X2248Y3993D02*
G01X1500Y3993D01*
G01X1500Y3993D02*
G01X1500Y3843D01*
G01X1500Y3843D02*
G01X1593Y3843D01*
G01X1593Y3843D02*
G01X1593Y3659D01*
G01X1593Y3659D02*
G01X1500Y3659D01*
G01X1500Y3659D02*
G01X1500Y3508D01*
G04 draw reference designator for part U3*
G54D10*
G01X2500Y4677D02*
G01X2500Y4336D01*
G01X2500Y4336D02*
G01X2522Y4268D01*
G01X2522Y4268D02*
G01X2568Y4222D01*
G01X2568Y4222D02*
G01X2636Y4200D01*
G01X2681Y4200D02*
G01X2636Y4200D01*
G01X2750Y4222D02*
G01X2681Y4200D01*
G01X2795Y4268D02*
G01X2750Y4222D01*
G01X2818Y4336D02*
G01X2795Y4268D01*
G01X2818Y4677D02*
G01X2818Y4336D01*
G01X3295Y4677D02*
G01X3045Y4677D01*
G01X3295Y4677D02*
G01X3159Y4495D01*
G01X3227Y4495D02*
G01X3159Y4495D01*
G01X3227Y4495D02*
G01X3272Y4472D01*
G01X3272Y4472D02*
G01X3295Y4450D01*
G01X3295Y4450D02*
G01X3318Y4381D01*
G01X3318Y4381D02*
G01X3318Y4336D01*
G01X3318Y4336D02*
G01X3295Y4268D01*
G01X3295Y4268D02*
G01X3250Y4222D01*
G01X3250Y4222D02*
G01X3181Y4200D01*
G01X3113Y4200D02*
G01X3181Y4200D01*
G01X3045Y4222D02*
G01X3113Y4200D01*
G01X3022Y4245D02*
G01X3045Y4222D01*
G01X3000Y4290D02*
G01X3022Y4245D01*
G04 Draw part C10*
G04 draw part outline for part C10*
G54D11*
G01X1007Y3951D02*
G01X1007Y5038D01*
G01X1007Y5038D02*
G01X392Y5038D01*
G01X392Y5038D02*
G01X392Y3951D01*
G01X392Y3951D02*
G01X1007Y3951D01*
G04 draw reference designator for part C10*
G54D10*
G01X-709Y5518D02*
G01X-663Y5540D01*
G01X-754Y5472D02*
G01X-709Y5518D01*
G01X-777Y5427D02*
G01X-754Y5472D01*
G01X-777Y5336D02*
G01X-777Y5427D01*
G01X-777Y5336D02*
G01X-754Y5290D01*
G01X-754Y5290D02*
G01X-709Y5245D01*
G01X-709Y5245D02*
G01X-663Y5222D01*
G01X-663Y5222D02*
G01X-595Y5200D01*
G01X-595Y5200D02*
G01X-481Y5200D01*
G01X-481Y5200D02*
G01X-413Y5222D01*
G01X-413Y5222D02*
G01X-368Y5245D01*
G01X-368Y5245D02*
G01X-322Y5290D01*
G01X-322Y5290D02*
G01X-300Y5336D01*
G01X-300Y5427D02*
G01X-300Y5336D01*
G01X-322Y5472D02*
G01X-300Y5427D01*
G01X-368Y5518D02*
G01X-322Y5472D01*
G01X-413Y5540D02*
G01X-368Y5518D01*
G01X-709Y5768D02*
G01X-686Y5722D01*
G01X-777Y5836D02*
G01X-709Y5768D01*
G01X-777Y5836D02*
G01X-300Y5836D01*
G01X-777Y6154D02*
G01X-754Y6086D01*
G01X-754Y6086D02*
G01X-686Y6040D01*
G01X-686Y6040D02*
G01X-572Y6018D01*
G01X-572Y6018D02*
G01X-504Y6018D01*
G01X-504Y6018D02*
G01X-390Y6040D01*
G01X-390Y6040D02*
G01X-322Y6086D01*
G01X-322Y6086D02*
G01X-300Y6154D01*
G01X-300Y6200D02*
G01X-300Y6154D01*
G01X-322Y6268D02*
G01X-300Y6200D01*
G01X-390Y6313D02*
G01X-322Y6268D01*
G01X-504Y6336D02*
G01X-390Y6313D01*
G01X-572Y6336D02*
G01X-504Y6336D01*
G01X-686Y6313D02*
G01X-572Y6336D01*
G01X-754Y6268D02*
G01X-686Y6313D01*
G01X-777Y6200D02*
G01X-754Y6268D01*
G01X-777Y6154D02*
G01X-777Y6200D01*
G04 Draw part C6*
G04 draw part outline for part C6*
G54D11*
G01X8148Y2507D02*
G01X7061Y2507D01*
G01X7061Y2507D02*
G01X7061Y1892D01*
G01X7061Y1892D02*
G01X8148Y1892D01*
G01X8148Y1892D02*
G01X8148Y2507D01*
G04 draw reference designator for part C6*
G54D10*
G01X6581Y790D02*
G01X6559Y836D01*
G01X6627Y745D02*
G01X6581Y790D01*
G01X6672Y722D02*
G01X6627Y745D01*
G01X6763Y722D02*
G01X6672Y722D01*
G01X6763Y722D02*
G01X6809Y745D01*
G01X6809Y745D02*
G01X6854Y790D01*
G01X6854Y790D02*
G01X6877Y836D01*
G01X6877Y836D02*
G01X6900Y904D01*
G01X6900Y904D02*
G01X6900Y1018D01*
G01X6900Y1018D02*
G01X6877Y1086D01*
G01X6877Y1086D02*
G01X6854Y1131D01*
G01X6854Y1131D02*
G01X6809Y1177D01*
G01X6809Y1177D02*
G01X6763Y1200D01*
G01X6672Y1200D02*
G01X6763Y1200D01*
G01X6627Y1177D02*
G01X6672Y1200D01*
G01X6581Y1131D02*
G01X6627Y1177D01*
G01X6559Y1086D02*
G01X6581Y1131D01*
G01X6127Y745D02*
G01X6104Y790D01*
G01X6195Y722D02*
G01X6127Y745D01*
G01X6240Y722D02*
G01X6195Y722D01*
G01X6240Y722D02*
G01X6309Y745D01*
G01X6309Y745D02*
G01X6354Y813D01*
G01X6354Y813D02*
G01X6377Y927D01*
G01X6377Y927D02*
G01X6377Y1040D01*
G01X6377Y1040D02*
G01X6354Y1131D01*
G01X6354Y1131D02*
G01X6309Y1177D01*
G01X6309Y1177D02*
G01X6240Y1200D01*
G01X6218Y1200D02*
G01X6240Y1200D01*
G01X6150Y1177D02*
G01X6218Y1200D01*
G01X6104Y1131D02*
G01X6150Y1177D01*
G01X6081Y1063D02*
G01X6104Y1131D01*
G01X6081Y1040D02*
G01X6081Y1063D01*
G01X6104Y972D02*
G01X6081Y1040D01*
G01X6150Y927D02*
G01X6104Y972D01*
G01X6218Y904D02*
G01X6150Y927D01*
G01X6240Y904D02*
G01X6218Y904D01*
G01X6240Y904D02*
G01X6309Y927D01*
G01X6309Y927D02*
G01X6354Y972D01*
G01X6354Y972D02*
G01X6377Y1040D01*
G04 Draw part C7*
G04 draw part outline for part C7*
G54D11*
G01X7692Y4248D02*
G01X7692Y3161D01*
G01X7692Y3161D02*
G01X8307Y3161D01*
G01X8307Y3161D02*
G01X8307Y4248D01*
G01X8307Y4248D02*
G01X7692Y4248D01*
G04 draw reference designator for part C7*
G54D10*
G01X9409Y2681D02*
G01X9363Y2659D01*
G01X9454Y2727D02*
G01X9409Y2681D01*
G01X9477Y2772D02*
G01X9454Y2727D01*
G01X9477Y2863D02*
G01X9477Y2772D01*
G01X9477Y2863D02*
G01X9454Y2909D01*
G01X9454Y2909D02*
G01X9409Y2954D01*
G01X9409Y2954D02*
G01X9363Y2977D01*
G01X9363Y2977D02*
G01X9295Y3000D01*
G01X9295Y3000D02*
G01X9181Y3000D01*
G01X9181Y3000D02*
G01X9113Y2977D01*
G01X9113Y2977D02*
G01X9068Y2954D01*
G01X9068Y2954D02*
G01X9022Y2909D01*
G01X9022Y2909D02*
G01X9000Y2863D01*
G01X9000Y2772D02*
G01X9000Y2863D01*
G01X9022Y2727D02*
G01X9000Y2772D01*
G01X9068Y2681D02*
G01X9022Y2727D01*
G01X9113Y2659D02*
G01X9068Y2681D01*
G01X9477Y2159D02*
G01X9000Y2386D01*
G01X9477Y2159D02*
G01X9477Y2477D01*
G04 Draw part D3*
G04 draw part outline for part D3*
G54D11*
G01X3748Y4707D02*
G01X2661Y4707D01*
G01X2661Y4707D02*
G01X2661Y4092D01*
G01X2661Y4092D02*
G01X3748Y4092D01*
G01X3748Y4092D02*
G01X3748Y4707D01*
G04 draw reference designator for part D3*
G54D10*
G01X2500Y2922D02*
G01X2500Y3400D01*
G01X2340Y2922D02*
G01X2500Y2922D01*
G01X2340Y2922D02*
G01X2272Y2945D01*
G01X2272Y2945D02*
G01X2227Y2990D01*
G01X2227Y2990D02*
G01X2204Y3036D01*
G01X2204Y3036D02*
G01X2181Y3104D01*
G01X2181Y3104D02*
G01X2181Y3218D01*
G01X2181Y3218D02*
G01X2204Y3286D01*
G01X2204Y3286D02*
G01X2227Y3331D01*
G01X2227Y3331D02*
G01X2272Y3377D01*
G01X2272Y3377D02*
G01X2340Y3400D01*
G01X2500Y3400D02*
G01X2340Y3400D01*
G01X1704Y2922D02*
G01X1954Y2922D01*
G01X1704Y2922D02*
G01X1840Y3104D01*
G01X1772Y3104D02*
G01X1840Y3104D01*
G01X1772Y3104D02*
G01X1727Y3127D01*
G01X1727Y3127D02*
G01X1704Y3150D01*
G01X1704Y3150D02*
G01X1681Y3218D01*
G01X1681Y3218D02*
G01X1681Y3263D01*
G01X1681Y3263D02*
G01X1704Y3331D01*
G01X1704Y3331D02*
G01X1750Y3377D01*
G01X1750Y3377D02*
G01X1818Y3400D01*
G01X1886Y3400D02*
G01X1818Y3400D01*
G01X1954Y3377D02*
G01X1886Y3400D01*
G01X1977Y3354D02*
G01X1954Y3377D01*
G01X2000Y3309D02*
G01X1977Y3354D01*
G04 Draw part FET1*
G04 draw part outline for part FET1*
G04 draw reference designator for part FET1*
G01X4777Y1900D02*
G01X4300Y1900D01*
G01X4777Y1604D02*
G01X4777Y1900D01*
G01X4550Y1718D02*
G01X4550Y1900D01*
G01X4777Y1422D02*
G01X4300Y1422D01*
G01X4777Y1127D02*
G01X4777Y1422D01*
G01X4550Y1240D02*
G01X4550Y1422D01*
G01X4300Y1127D02*
G01X4300Y1422D01*
G01X4777Y786D02*
G01X4300Y786D01*
G01X4777Y627D02*
G01X4777Y945D01*
G01X4709Y400D02*
G01X4686Y445D01*
G01X4777Y331D02*
G01X4709Y400D01*
G01X4777Y331D02*
G01X4300Y331D01*
G04 Draw part C9*
G04 draw part outline for part C9*
G54D11*
G01X1651Y5092D02*
G01X2738Y5092D01*
G01X2738Y5092D02*
G01X2738Y5707D01*
G01X2738Y5707D02*
G01X1651Y5707D01*
G01X1651Y5707D02*
G01X1651Y5092D01*
G04 draw reference designator for part C9*
G54D10*
G01X3218Y6809D02*
G01X3240Y6763D01*
G01X3172Y6854D02*
G01X3218Y6809D01*
G01X3127Y6877D02*
G01X3172Y6854D01*
G01X3036Y6877D02*
G01X3127Y6877D01*
G01X3036Y6877D02*
G01X2990Y6854D01*
G01X2990Y6854D02*
G01X2945Y6809D01*
G01X2945Y6809D02*
G01X2922Y6763D01*
G01X2922Y6763D02*
G01X2900Y6695D01*
G01X2900Y6695D02*
G01X2900Y6581D01*
G01X2900Y6581D02*
G01X2922Y6513D01*
G01X2922Y6513D02*
G01X2945Y6468D01*
G01X2945Y6468D02*
G01X2990Y6422D01*
G01X2990Y6422D02*
G01X3036Y6400D01*
G01X3127Y6400D02*
G01X3036Y6400D01*
G01X3172Y6422D02*
G01X3127Y6400D01*
G01X3218Y6468D02*
G01X3172Y6422D01*
G01X3240Y6513D02*
G01X3218Y6468D01*
G01X3718Y6718D02*
G01X3695Y6650D01*
G01X3695Y6650D02*
G01X3650Y6604D01*
G01X3650Y6604D02*
G01X3581Y6581D01*
G01X3559Y6581D02*
G01X3581Y6581D01*
G01X3490Y6604D02*
G01X3559Y6581D01*
G01X3445Y6650D02*
G01X3490Y6604D01*
G01X3422Y6718D02*
G01X3445Y6650D01*
G01X3422Y6740D02*
G01X3422Y6718D01*
G01X3445Y6809D02*
G01X3422Y6740D01*
G01X3490Y6854D02*
G01X3445Y6809D01*
G01X3559Y6877D02*
G01X3490Y6854D01*
G01X3581Y6877D02*
G01X3559Y6877D01*
G01X3581Y6877D02*
G01X3650Y6854D01*
G01X3650Y6854D02*
G01X3695Y6809D01*
G01X3695Y6809D02*
G01X3718Y6718D01*
G01X3718Y6718D02*
G01X3718Y6604D01*
G01X3718Y6604D02*
G01X3695Y6490D01*
G01X3695Y6490D02*
G01X3650Y6422D01*
G01X3650Y6422D02*
G01X3581Y6400D01*
G01X3536Y6400D02*
G01X3581Y6400D01*
G01X3468Y6422D02*
G01X3536Y6400D01*
G01X3445Y6468D02*
G01X3468Y6422D01*
G04 Draw part D4*
G04 draw part outline for part D4*
G54D11*
G01X700Y8900D02*
G01X2100Y10300D01*
G01X2100Y10300D02*
G01X1400Y11000D01*
G01X1400Y11000D02*
G01X0Y9600D01*
G01X0Y9600D02*
G01X700Y8900D01*
G04 draw reference designator for part D4*
G54D10*
G01X847Y10077D02*
G01X847Y9600D01*
G01X1006Y10077D02*
G01X847Y10077D01*
G01X1006Y10077D02*
G01X1074Y10054D01*
G01X1074Y10054D02*
G01X1120Y10009D01*
G01X1120Y10009D02*
G01X1143Y9963D01*
G01X1143Y9963D02*
G01X1165Y9895D01*
G01X1165Y9895D02*
G01X1165Y9781D01*
G01X1165Y9781D02*
G01X1143Y9713D01*
G01X1143Y9713D02*
G01X1120Y9668D01*
G01X1120Y9668D02*
G01X1074Y9622D01*
G01X1074Y9622D02*
G01X1006Y9600D01*
G01X847Y9600D02*
G01X1006Y9600D01*
G01X1574Y10077D02*
G01X1347Y9759D01*
G01X1688Y9759D02*
G01X1347Y9759D01*
G01X1574Y10077D02*
G01X1574Y9600D01*
G04 draw part outline for part H3*
G04 Draw part FET2*
G04 draw part outline for part FET2*
G04 draw reference designator for part FET2*
G01X11622Y4200D02*
G01X12100Y4200D01*
G01X11622Y4495D02*
G01X11622Y4200D01*
G01X11850Y4381D02*
G01X11850Y4200D01*
G01X11622Y4677D02*
G01X12100Y4677D01*
G01X11622Y4972D02*
G01X11622Y4677D01*
G01X11850Y4859D02*
G01X11850Y4677D01*
G01X12100Y4972D02*
G01X12100Y4677D01*
G01X11622Y5313D02*
G01X12100Y5313D01*
G01X11622Y5472D02*
G01X11622Y5154D01*
G01X11713Y5677D02*
G01X11736Y5677D01*
G01X11668Y5700D02*
G01X11713Y5677D01*
G01X11645Y5722D02*
G01X11668Y5700D01*
G01X11622Y5768D02*
G01X11645Y5722D01*
G01X11622Y5859D02*
G01X11622Y5768D01*
G01X11622Y5859D02*
G01X11645Y5904D01*
G01X11645Y5904D02*
G01X11668Y5927D01*
G01X11668Y5927D02*
G01X11713Y5950D01*
G01X11713Y5950D02*
G01X11759Y5950D01*
G01X11759Y5950D02*
G01X11804Y5927D01*
G01X11804Y5927D02*
G01X11872Y5881D01*
G01X11872Y5881D02*
G01X12100Y5654D01*
G01X12100Y5972D02*
G01X12100Y5654D01*
G04 Draw part C31*
G04 draw part outline for part C31*
G54D11*
G01X14092Y2748D02*
G01X14092Y1661D01*
G01X14092Y1661D02*
G01X14707Y1661D01*
G01X14707Y1661D02*
G01X14707Y2748D01*
G01X14707Y2748D02*
G01X14092Y2748D01*
G04 draw reference designator for part C31*
G54D10*
G01X15809Y1181D02*
G01X15763Y1159D01*
G01X15854Y1227D02*
G01X15809Y1181D01*
G01X15877Y1272D02*
G01X15854Y1227D01*
G01X15877Y1363D02*
G01X15877Y1272D01*
G01X15877Y1363D02*
G01X15854Y1409D01*
G01X15854Y1409D02*
G01X15809Y1454D01*
G01X15809Y1454D02*
G01X15763Y1477D01*
G01X15763Y1477D02*
G01X15695Y1500D01*
G01X15695Y1500D02*
G01X15581Y1500D01*
G01X15581Y1500D02*
G01X15513Y1477D01*
G01X15513Y1477D02*
G01X15468Y1454D01*
G01X15468Y1454D02*
G01X15422Y1409D01*
G01X15422Y1409D02*
G01X15400Y1363D01*
G01X15400Y1272D02*
G01X15400Y1363D01*
G01X15422Y1227D02*
G01X15400Y1272D01*
G01X15468Y1181D02*
G01X15422Y1227D01*
G01X15513Y1159D02*
G01X15468Y1181D01*
G01X15877Y681D02*
G01X15877Y931D01*
G01X15877Y681D02*
G01X15695Y818D01*
G01X15695Y750D02*
G01X15695Y818D01*
G01X15695Y750D02*
G01X15672Y704D01*
G01X15672Y704D02*
G01X15650Y681D01*
G01X15650Y681D02*
G01X15581Y659D01*
G01X15581Y659D02*
G01X15536Y659D01*
G01X15536Y659D02*
G01X15468Y681D01*
G01X15468Y681D02*
G01X15422Y727D01*
G01X15422Y727D02*
G01X15400Y795D01*
G01X15400Y863D02*
G01X15400Y795D01*
G01X15422Y931D02*
G01X15400Y863D01*
G01X15445Y954D02*
G01X15422Y931D01*
G01X15490Y977D02*
G01X15445Y954D01*
G01X15809Y431D02*
G01X15786Y477D01*
G01X15877Y363D02*
G01X15809Y431D01*
G01X15877Y363D02*
G01X15400Y363D01*
G04 Draw part C4*
G04 draw part outline for part C4*
G04 draw reference designator for part C4*
G01X10790Y6118D02*
G01X10836Y6140D01*
G01X10745Y6072D02*
G01X10790Y6118D01*
G01X10722Y6027D02*
G01X10745Y6072D01*
G01X10722Y5936D02*
G01X10722Y6027D01*
G01X10722Y5936D02*
G01X10745Y5890D01*
G01X10745Y5890D02*
G01X10790Y5845D01*
G01X10790Y5845D02*
G01X10836Y5822D01*
G01X10836Y5822D02*
G01X10904Y5800D01*
G01X10904Y5800D02*
G01X11018Y5800D01*
G01X11018Y5800D02*
G01X11086Y5822D01*
G01X11086Y5822D02*
G01X11131Y5845D01*
G01X11131Y5845D02*
G01X11177Y5890D01*
G01X11177Y5890D02*
G01X11200Y5936D01*
G01X11200Y6027D02*
G01X11200Y5936D01*
G01X11177Y6072D02*
G01X11200Y6027D01*
G01X11131Y6118D02*
G01X11177Y6072D01*
G01X11086Y6140D02*
G01X11131Y6118D01*
G01X10722Y6550D02*
G01X11040Y6322D01*
G01X11040Y6663D02*
G01X11040Y6322D01*
G01X10722Y6550D02*
G01X11200Y6550D01*
G04 draw value for part C4*
G04 Draw part C5*
G04 draw part outline for part C5*
G04 draw reference designator for part C5*
G01X16209Y7981D02*
G01X16163Y7959D01*
G01X16254Y8027D02*
G01X16209Y7981D01*
G01X16277Y8072D02*
G01X16254Y8027D01*
G01X16277Y8163D02*
G01X16277Y8072D01*
G01X16277Y8163D02*
G01X16254Y8209D01*
G01X16254Y8209D02*
G01X16209Y8254D01*
G01X16209Y8254D02*
G01X16163Y8277D01*
G01X16163Y8277D02*
G01X16095Y8300D01*
G01X16095Y8300D02*
G01X15981Y8300D01*
G01X15981Y8300D02*
G01X15913Y8277D01*
G01X15913Y8277D02*
G01X15868Y8254D01*
G01X15868Y8254D02*
G01X15822Y8209D01*
G01X15822Y8209D02*
G01X15800Y8163D01*
G01X15800Y8072D02*
G01X15800Y8163D01*
G01X15822Y8027D02*
G01X15800Y8072D01*
G01X15868Y7981D02*
G01X15822Y8027D01*
G01X15913Y7959D02*
G01X15868Y7981D01*
G01X16277Y7731D02*
G01X16277Y7504D01*
G01X16277Y7731D02*
G01X16072Y7754D01*
G01X16095Y7731D02*
G01X16072Y7754D01*
G01X16118Y7663D02*
G01X16095Y7731D01*
G01X16118Y7595D02*
G01X16118Y7663D01*
G01X16118Y7595D02*
G01X16095Y7527D01*
G01X16095Y7527D02*
G01X16050Y7481D01*
G01X16050Y7481D02*
G01X15981Y7459D01*
G01X15981Y7459D02*
G01X15936Y7459D01*
G01X15936Y7459D02*
G01X15868Y7481D01*
G01X15868Y7481D02*
G01X15822Y7527D01*
G01X15822Y7527D02*
G01X15800Y7595D01*
G01X15800Y7663D02*
G01X15800Y7595D01*
G01X15822Y7731D02*
G01X15800Y7663D01*
G01X15845Y7754D02*
G01X15822Y7731D01*
G01X15890Y7777D02*
G01X15845Y7754D01*
G04 draw value for part C5*
G04 Draw part R3*
G04 draw part outline for part R3*
G04 draw reference designator for part R3*
G01X10722Y7200D02*
G01X11200Y7200D01*
G01X10722Y7404D02*
G01X10722Y7200D01*
G01X10722Y7404D02*
G01X10745Y7472D01*
G01X10745Y7472D02*
G01X10768Y7495D01*
G01X10768Y7495D02*
G01X10813Y7518D01*
G01X10813Y7518D02*
G01X10859Y7518D01*
G01X10859Y7518D02*
G01X10904Y7495D01*
G01X10904Y7495D02*
G01X10927Y7472D01*
G01X10927Y7472D02*
G01X10950Y7404D01*
G01X10950Y7200D02*
G01X10950Y7404D01*
G01X10950Y7359D02*
G01X11200Y7518D01*
G01X10722Y7995D02*
G01X10722Y7745D01*
G01X10722Y7995D02*
G01X10904Y7859D01*
G01X10904Y7927D02*
G01X10904Y7859D01*
G01X10904Y7927D02*
G01X10927Y7972D01*
G01X10927Y7972D02*
G01X10950Y7995D01*
G01X10950Y7995D02*
G01X11018Y8018D01*
G01X11018Y8018D02*
G01X11063Y8018D01*
G01X11063Y8018D02*
G01X11131Y7995D01*
G01X11131Y7995D02*
G01X11177Y7950D01*
G01X11177Y7950D02*
G01X11200Y7881D01*
G01X11200Y7813D02*
G01X11200Y7881D01*
G01X11177Y7745D02*
G01X11200Y7813D01*
G01X11154Y7722D02*
G01X11177Y7745D01*
G01X11109Y7700D02*
G01X11154Y7722D01*
G04 draw value for part R3*
G04 Draw part R1*
G04 draw part outline for part R1*
G04 draw reference designator for part R1*
G01X10577Y1800D02*
G01X10100Y1800D01*
G01X10577Y1595D02*
G01X10577Y1800D01*
G01X10577Y1595D02*
G01X10554Y1527D01*
G01X10554Y1527D02*
G01X10531Y1504D01*
G01X10531Y1504D02*
G01X10486Y1481D01*
G01X10486Y1481D02*
G01X10440Y1481D01*
G01X10440Y1481D02*
G01X10395Y1504D01*
G01X10395Y1504D02*
G01X10372Y1527D01*
G01X10372Y1527D02*
G01X10350Y1595D01*
G01X10350Y1800D02*
G01X10350Y1595D01*
G01X10350Y1640D02*
G01X10100Y1481D01*
G01X10509Y1254D02*
G01X10486Y1300D01*
G01X10577Y1186D02*
G01X10509Y1254D01*
G01X10577Y1186D02*
G01X10100Y1186D01*
G04 draw value for part R1*
G04 Draw part R2*
G04 draw part outline for part R2*
G04 draw reference designator for part R2*
G01X11077Y1800D02*
G01X10600Y1800D01*
G01X11077Y1595D02*
G01X11077Y1800D01*
G01X11077Y1595D02*
G01X11054Y1527D01*
G01X11054Y1527D02*
G01X11031Y1504D01*
G01X11031Y1504D02*
G01X10986Y1481D01*
G01X10986Y1481D02*
G01X10940Y1481D01*
G01X10940Y1481D02*
G01X10895Y1504D01*
G01X10895Y1504D02*
G01X10872Y1527D01*
G01X10872Y1527D02*
G01X10850Y1595D01*
G01X10850Y1800D02*
G01X10850Y1595D01*
G01X10850Y1640D02*
G01X10600Y1481D01*
G01X10986Y1277D02*
G01X10963Y1277D01*
G01X11031Y1254D02*
G01X10986Y1277D01*
G01X11054Y1231D02*
G01X11031Y1254D01*
G01X11077Y1186D02*
G01X11054Y1231D01*
G01X11077Y1095D02*
G01X11077Y1186D01*
G01X11077Y1095D02*
G01X11054Y1050D01*
G01X11054Y1050D02*
G01X11031Y1027D01*
G01X11031Y1027D02*
G01X10986Y1004D01*
G01X10986Y1004D02*
G01X10940Y1004D01*
G01X10940Y1004D02*
G01X10895Y1027D01*
G01X10895Y1027D02*
G01X10827Y1072D01*
G01X10827Y1072D02*
G01X10600Y1300D01*
G01X10600Y981D02*
G01X10600Y1300D01*
G04 draw value for part R2*
G04 Draw part C2*
G04 draw part outline for part C2*
G04 draw reference designator for part C2*
G01X7681Y2090D02*
G01X7659Y2136D01*
G01X7727Y2045D02*
G01X7681Y2090D01*
G01X7772Y2022D02*
G01X7727Y2045D01*
G01X7863Y2022D02*
G01X7772Y2022D01*
G01X7863Y2022D02*
G01X7909Y2045D01*
G01X7909Y2045D02*
G01X7954Y2090D01*
G01X7954Y2090D02*
G01X7977Y2136D01*
G01X7977Y2136D02*
G01X8000Y2204D01*
G01X8000Y2204D02*
G01X8000Y2318D01*
G01X8000Y2318D02*
G01X7977Y2386D01*
G01X7977Y2386D02*
G01X7954Y2431D01*
G01X7954Y2431D02*
G01X7909Y2477D01*
G01X7909Y2477D02*
G01X7863Y2500D01*
G01X7772Y2500D02*
G01X7863Y2500D01*
G01X7727Y2477D02*
G01X7772Y2500D01*
G01X7681Y2431D02*
G01X7727Y2477D01*
G01X7659Y2386D02*
G01X7681Y2431D01*
G01X7454Y2113D02*
G01X7454Y2136D01*
G01X7431Y2068D02*
G01X7454Y2113D01*
G01X7409Y2045D02*
G01X7431Y2068D01*
G01X7363Y2022D02*
G01X7409Y2045D01*
G01X7272Y2022D02*
G01X7363Y2022D01*
G01X7272Y2022D02*
G01X7227Y2045D01*
G01X7227Y2045D02*
G01X7204Y2068D01*
G01X7204Y2068D02*
G01X7181Y2113D01*
G01X7181Y2113D02*
G01X7181Y2159D01*
G01X7181Y2159D02*
G01X7204Y2204D01*
G01X7204Y2204D02*
G01X7250Y2272D01*
G01X7250Y2272D02*
G01X7477Y2500D01*
G01X7159Y2500D02*
G01X7477Y2500D01*
G04 draw value for part C2*
G04 Draw part C3*
G04 draw part outline for part C3*
G04 draw reference designator for part C3*
G01X12418Y3509D02*
G01X12440Y3463D01*
G01X12372Y3554D02*
G01X12418Y3509D01*
G01X12327Y3577D02*
G01X12372Y3554D01*
G01X12236Y3577D02*
G01X12327Y3577D01*
G01X12236Y3577D02*
G01X12190Y3554D01*
G01X12190Y3554D02*
G01X12145Y3509D01*
G01X12145Y3509D02*
G01X12122Y3463D01*
G01X12122Y3463D02*
G01X12100Y3395D01*
G01X12100Y3395D02*
G01X12100Y3281D01*
G01X12100Y3281D02*
G01X12122Y3213D01*
G01X12122Y3213D02*
G01X12145Y3168D01*
G01X12145Y3168D02*
G01X12190Y3122D01*
G01X12190Y3122D02*
G01X12236Y3100D01*
G01X12327Y3100D02*
G01X12236Y3100D01*
G01X12372Y3122D02*
G01X12327Y3100D01*
G01X12418Y3168D02*
G01X12372Y3122D01*
G01X12440Y3213D02*
G01X12418Y3168D01*
G01X12918Y3577D02*
G01X12668Y3577D01*
G01X12918Y3577D02*
G01X12781Y3395D01*
G01X12850Y3395D02*
G01X12781Y3395D01*
G01X12850Y3395D02*
G01X12895Y3372D01*
G01X12895Y3372D02*
G01X12918Y3350D01*
G01X12918Y3350D02*
G01X12940Y3281D01*
G01X12940Y3281D02*
G01X12940Y3236D01*
G01X12940Y3236D02*
G01X12918Y3168D01*
G01X12918Y3168D02*
G01X12872Y3122D01*
G01X12872Y3122D02*
G01X12804Y3100D01*
G01X12736Y3100D02*
G01X12804Y3100D01*
G01X12668Y3122D02*
G01X12736Y3100D01*
G01X12645Y3145D02*
G01X12668Y3122D01*
G01X12622Y3190D02*
G01X12645Y3145D01*
G04 draw value for part C3*
G04 Draw part R4*
G04 draw part outline for part R4*
G04 draw reference designator for part R4*
G01X6522Y4600D02*
G01X7000Y4600D01*
G01X6522Y4804D02*
G01X6522Y4600D01*
G01X6522Y4804D02*
G01X6545Y4872D01*
G01X6545Y4872D02*
G01X6568Y4895D01*
G01X6568Y4895D02*
G01X6613Y4918D01*
G01X6613Y4918D02*
G01X6659Y4918D01*
G01X6659Y4918D02*
G01X6704Y4895D01*
G01X6704Y4895D02*
G01X6727Y4872D01*
G01X6727Y4872D02*
G01X6750Y4804D01*
G01X6750Y4600D02*
G01X6750Y4804D01*
G01X6750Y4759D02*
G01X7000Y4918D01*
G01X6522Y5327D02*
G01X6840Y5100D01*
G01X6840Y5440D02*
G01X6840Y5100D01*
G01X6522Y5327D02*
G01X7000Y5327D01*
G04 draw value for part R4*
G04 Draw part R5*
G04 draw part outline for part R5*
G04 draw reference designator for part R5*
G01X7300Y2577D02*
G01X7300Y2100D01*
G01X7504Y2577D02*
G01X7300Y2577D01*
G01X7504Y2577D02*
G01X7572Y2554D01*
G01X7572Y2554D02*
G01X7595Y2531D01*
G01X7595Y2531D02*
G01X7618Y2486D01*
G01X7618Y2486D02*
G01X7618Y2440D01*
G01X7618Y2440D02*
G01X7595Y2395D01*
G01X7595Y2395D02*
G01X7572Y2372D01*
G01X7572Y2372D02*
G01X7504Y2350D01*
G01X7300Y2350D02*
G01X7504Y2350D01*
G01X7459Y2350D02*
G01X7618Y2100D01*
G01X7845Y2577D02*
G01X8072Y2577D01*
G01X7845Y2577D02*
G01X7822Y2372D01*
G01X7845Y2395D02*
G01X7822Y2372D01*
G01X7913Y2418D02*
G01X7845Y2395D01*
G01X7981Y2418D02*
G01X7913Y2418D01*
G01X7981Y2418D02*
G01X8050Y2395D01*
G01X8050Y2395D02*
G01X8095Y2350D01*
G01X8095Y2350D02*
G01X8118Y2281D01*
G01X8118Y2281D02*
G01X8118Y2236D01*
G01X8118Y2236D02*
G01X8095Y2168D01*
G01X8095Y2168D02*
G01X8050Y2122D01*
G01X8050Y2122D02*
G01X7981Y2100D01*
G01X7913Y2100D02*
G01X7981Y2100D01*
G01X7845Y2122D02*
G01X7913Y2100D01*
G01X7822Y2145D02*
G01X7845Y2122D01*
G01X7800Y2190D02*
G01X7822Y2145D01*
G04 draw value for part R5*
G04 Draw part C8*
G04 draw part outline for part C8*
G04 draw reference designator for part C8*
G01X8009Y1881D02*
G01X7963Y1859D01*
G01X8054Y1927D02*
G01X8009Y1881D01*
G01X8077Y1972D02*
G01X8054Y1927D01*
G01X8077Y2063D02*
G01X8077Y1972D01*
G01X8077Y2063D02*
G01X8054Y2109D01*
G01X8054Y2109D02*
G01X8009Y2154D01*
G01X8009Y2154D02*
G01X7963Y2177D01*
G01X7963Y2177D02*
G01X7895Y2200D01*
G01X7895Y2200D02*
G01X7781Y2200D01*
G01X7781Y2200D02*
G01X7713Y2177D01*
G01X7713Y2177D02*
G01X7668Y2154D01*
G01X7668Y2154D02*
G01X7622Y2109D01*
G01X7622Y2109D02*
G01X7600Y2063D01*
G01X7600Y1972D02*
G01X7600Y2063D01*
G01X7622Y1927D02*
G01X7600Y1972D01*
G01X7668Y1881D02*
G01X7622Y1927D01*
G01X7713Y1859D02*
G01X7668Y1881D01*
G01X8077Y1563D02*
G01X8054Y1631D01*
G01X8054Y1631D02*
G01X8009Y1654D01*
G01X8009Y1654D02*
G01X7963Y1654D01*
G01X7963Y1654D02*
G01X7918Y1631D01*
G01X7918Y1631D02*
G01X7895Y1586D01*
G01X7895Y1586D02*
G01X7872Y1495D01*
G01X7872Y1495D02*
G01X7850Y1427D01*
G01X7850Y1427D02*
G01X7804Y1381D01*
G01X7804Y1381D02*
G01X7759Y1359D01*
G01X7759Y1359D02*
G01X7690Y1359D01*
G01X7690Y1359D02*
G01X7645Y1381D01*
G01X7645Y1381D02*
G01X7622Y1404D01*
G01X7622Y1404D02*
G01X7600Y1472D01*
G01X7600Y1563D02*
G01X7600Y1472D01*
G01X7622Y1631D02*
G01X7600Y1563D01*
G01X7645Y1654D02*
G01X7622Y1631D01*
G01X7690Y1677D02*
G01X7645Y1654D01*
G01X7759Y1677D02*
G01X7690Y1677D01*
G01X7804Y1654D02*
G01X7759Y1677D01*
G01X7850Y1609D02*
G01X7804Y1654D01*
G01X7872Y1540D02*
G01X7850Y1609D01*
G01X7895Y1450D02*
G01X7872Y1540D01*
G01X7918Y1404D02*
G01X7895Y1450D01*
G01X7963Y1381D02*
G01X7918Y1404D01*
G01X8009Y1381D02*
G01X7963Y1381D01*
G01X8054Y1404D02*
G01X8009Y1381D01*
G01X8077Y1472D02*
G01X8054Y1404D01*
G01X8077Y1563D02*
G01X8077Y1472D01*
G04 draw value for part C8*
G04 Draw part R6*
G04 draw part outline for part R6*
G04 draw reference designator for part R6*
G01X3322Y5800D02*
G01X3800Y5800D01*
G01X3322Y6004D02*
G01X3322Y5800D01*
G01X3322Y6004D02*
G01X3345Y6072D01*
G01X3345Y6072D02*
G01X3368Y6095D01*
G01X3368Y6095D02*
G01X3413Y6118D01*
G01X3413Y6118D02*
G01X3459Y6118D01*
G01X3459Y6118D02*
G01X3504Y6095D01*
G01X3504Y6095D02*
G01X3527Y6072D01*
G01X3527Y6072D02*
G01X3550Y6004D01*
G01X3550Y5800D02*
G01X3550Y6004D01*
G01X3550Y5959D02*
G01X3800Y6118D01*
G01X3345Y6550D02*
G01X3390Y6572D01*
G01X3322Y6481D02*
G01X3345Y6550D01*
G01X3322Y6436D02*
G01X3322Y6481D01*
G01X3322Y6436D02*
G01X3345Y6368D01*
G01X3345Y6368D02*
G01X3413Y6322D01*
G01X3413Y6322D02*
G01X3527Y6300D01*
G01X3527Y6300D02*
G01X3640Y6300D01*
G01X3640Y6300D02*
G01X3731Y6322D01*
G01X3731Y6322D02*
G01X3777Y6368D01*
G01X3777Y6368D02*
G01X3800Y6436D01*
G01X3800Y6459D02*
G01X3800Y6436D01*
G01X3777Y6527D02*
G01X3800Y6459D01*
G01X3731Y6572D02*
G01X3777Y6527D01*
G01X3663Y6595D02*
G01X3731Y6572D01*
G01X3640Y6595D02*
G01X3663Y6595D01*
G01X3572Y6572D02*
G01X3640Y6595D01*
G01X3527Y6527D02*
G01X3572Y6572D01*
G01X3504Y6459D02*
G01X3527Y6527D01*
G01X3504Y6436D02*
G01X3504Y6459D01*
G01X3504Y6436D02*
G01X3527Y6368D01*
G01X3527Y6368D02*
G01X3572Y6322D01*
G01X3572Y6322D02*
G01X3640Y6300D01*
G04 draw value for part R6*
G04 Draw part R24*
G04 draw part outline for part R24*
G04 draw reference designator for part R24*
G01X1377Y-200D02*
G01X900Y-200D01*
G01X1377Y-404D02*
G01X1377Y-200D01*
G01X1377Y-404D02*
G01X1354Y-472D01*
G01X1354Y-472D02*
G01X1331Y-495D01*
G01X1331Y-495D02*
G01X1286Y-518D01*
G01X1286Y-518D02*
G01X1240Y-518D01*
G01X1240Y-518D02*
G01X1195Y-495D01*
G01X1195Y-495D02*
G01X1172Y-472D01*
G01X1172Y-472D02*
G01X1150Y-404D01*
G01X1150Y-200D02*
G01X1150Y-404D01*
G01X1150Y-359D02*
G01X900Y-518D01*
G01X1286Y-722D02*
G01X1263Y-722D01*
G01X1331Y-745D02*
G01X1286Y-722D01*
G01X1354Y-768D02*
G01X1331Y-745D01*
G01X1377Y-813D02*
G01X1354Y-768D01*
G01X1377Y-904D02*
G01X1377Y-813D01*
G01X1377Y-904D02*
G01X1354Y-950D01*
G01X1354Y-950D02*
G01X1331Y-972D01*
G01X1331Y-972D02*
G01X1286Y-995D01*
G01X1286Y-995D02*
G01X1240Y-995D01*
G01X1240Y-995D02*
G01X1195Y-972D01*
G01X1195Y-972D02*
G01X1127Y-927D01*
G01X1127Y-927D02*
G01X900Y-700D01*
G01X900Y-1018D02*
G01X900Y-700D01*
G01X1377Y-1427D02*
G01X1059Y-1200D01*
G01X1059Y-1540D02*
G01X1059Y-1200D01*
G01X1377Y-1427D02*
G01X900Y-1427D01*
G04 draw value for part R24*
G04 Draw part C13*
G04 draw part outline for part C13*
G04 draw reference designator for part C13*
G01X12118Y8709D02*
G01X12140Y8663D01*
G01X12072Y8754D02*
G01X12118Y8709D01*
G01X12027Y8777D02*
G01X12072Y8754D01*
G01X11936Y8777D02*
G01X12027Y8777D01*
G01X11936Y8777D02*
G01X11890Y8754D01*
G01X11890Y8754D02*
G01X11845Y8709D01*
G01X11845Y8709D02*
G01X11822Y8663D01*
G01X11822Y8663D02*
G01X11800Y8595D01*
G01X11800Y8595D02*
G01X11800Y8481D01*
G01X11800Y8481D02*
G01X11822Y8413D01*
G01X11822Y8413D02*
G01X11845Y8368D01*
G01X11845Y8368D02*
G01X11890Y8322D01*
G01X11890Y8322D02*
G01X11936Y8300D01*
G01X12027Y8300D02*
G01X11936Y8300D01*
G01X12072Y8322D02*
G01X12027Y8300D01*
G01X12118Y8368D02*
G01X12072Y8322D01*
G01X12140Y8413D02*
G01X12118Y8368D01*
G01X12368Y8709D02*
G01X12322Y8686D01*
G01X12436Y8777D02*
G01X12368Y8709D01*
G01X12436Y8777D02*
G01X12436Y8300D01*
G01X12913Y8777D02*
G01X12663Y8777D01*
G01X12913Y8777D02*
G01X12777Y8595D01*
G01X12845Y8595D02*
G01X12777Y8595D01*
G01X12845Y8595D02*
G01X12890Y8572D01*
G01X12890Y8572D02*
G01X12913Y8550D01*
G01X12913Y8550D02*
G01X12936Y8481D01*
G01X12936Y8481D02*
G01X12936Y8436D01*
G01X12936Y8436D02*
G01X12913Y8368D01*
G01X12913Y8368D02*
G01X12868Y8322D01*
G01X12868Y8322D02*
G01X12800Y8300D01*
G01X12731Y8300D02*
G01X12800Y8300D01*
G01X12663Y8322D02*
G01X12731Y8300D01*
G01X12640Y8345D02*
G01X12663Y8322D01*
G01X12618Y8390D02*
G01X12640Y8345D01*
G04 draw value for part C13*
G04 Draw part R7*
G04 draw part outline for part R7*
G04 draw reference designator for part R7*
G01X9300Y7722D02*
G01X9300Y8200D01*
G01X9095Y7722D02*
G01X9300Y7722D01*
G01X9095Y7722D02*
G01X9027Y7745D01*
G01X9027Y7745D02*
G01X9004Y7768D01*
G01X9004Y7768D02*
G01X8981Y7813D01*
G01X8981Y7813D02*
G01X8981Y7859D01*
G01X8981Y7859D02*
G01X9004Y7904D01*
G01X9004Y7904D02*
G01X9027Y7927D01*
G01X9027Y7927D02*
G01X9095Y7950D01*
G01X9300Y7950D02*
G01X9095Y7950D01*
G01X9140Y7950D02*
G01X8981Y8200D01*
G01X8481Y7722D02*
G01X8709Y8200D01*
G01X8481Y7722D02*
G01X8800Y7722D01*
G04 draw value for part R7*
G04 Draw part C12*
G04 draw part outline for part C12*
G04 draw reference designator for part C12*
G01X12118Y9209D02*
G01X12140Y9163D01*
G01X12072Y9254D02*
G01X12118Y9209D01*
G01X12027Y9277D02*
G01X12072Y9254D01*
G01X11936Y9277D02*
G01X12027Y9277D01*
G01X11936Y9277D02*
G01X11890Y9254D01*
G01X11890Y9254D02*
G01X11845Y9209D01*
G01X11845Y9209D02*
G01X11822Y9163D01*
G01X11822Y9163D02*
G01X11800Y9095D01*
G01X11800Y9095D02*
G01X11800Y8981D01*
G01X11800Y8981D02*
G01X11822Y8913D01*
G01X11822Y8913D02*
G01X11845Y8868D01*
G01X11845Y8868D02*
G01X11890Y8822D01*
G01X11890Y8822D02*
G01X11936Y8800D01*
G01X12027Y8800D02*
G01X11936Y8800D01*
G01X12072Y8822D02*
G01X12027Y8800D01*
G01X12118Y8868D02*
G01X12072Y8822D01*
G01X12140Y8913D02*
G01X12118Y8868D01*
G01X12368Y9209D02*
G01X12322Y9186D01*
G01X12436Y9277D02*
G01X12368Y9209D01*
G01X12436Y9277D02*
G01X12436Y8800D01*
G01X12640Y9186D02*
G01X12640Y9163D01*
G01X12663Y9231D02*
G01X12640Y9186D01*
G01X12686Y9254D02*
G01X12663Y9231D01*
G01X12731Y9277D02*
G01X12686Y9254D01*
G01X12822Y9277D02*
G01X12731Y9277D01*
G01X12822Y9277D02*
G01X12868Y9254D01*
G01X12868Y9254D02*
G01X12890Y9231D01*
G01X12890Y9231D02*
G01X12913Y9186D01*
G01X12913Y9186D02*
G01X12913Y9140D01*
G01X12913Y9140D02*
G01X12890Y9095D01*
G01X12890Y9095D02*
G01X12845Y9027D01*
G01X12845Y9027D02*
G01X12618Y8800D01*
G01X12936Y8800D02*
G01X12618Y8800D01*
G04 draw value for part C12*
G04 Draw part C14*
G04 draw part outline for part C14*
G04 draw reference designator for part C14*
G01X12009Y7281D02*
G01X11963Y7259D01*
G01X12054Y7327D02*
G01X12009Y7281D01*
G01X12077Y7372D02*
G01X12054Y7327D01*
G01X12077Y7463D02*
G01X12077Y7372D01*
G01X12077Y7463D02*
G01X12054Y7509D01*
G01X12054Y7509D02*
G01X12009Y7554D01*
G01X12009Y7554D02*
G01X11963Y7577D01*
G01X11963Y7577D02*
G01X11895Y7600D01*
G01X11895Y7600D02*
G01X11781Y7600D01*
G01X11781Y7600D02*
G01X11713Y7577D01*
G01X11713Y7577D02*
G01X11668Y7554D01*
G01X11668Y7554D02*
G01X11622Y7509D01*
G01X11622Y7509D02*
G01X11600Y7463D01*
G01X11600Y7372D02*
G01X11600Y7463D01*
G01X11622Y7327D02*
G01X11600Y7372D01*
G01X11668Y7281D02*
G01X11622Y7327D01*
G01X11713Y7259D02*
G01X11668Y7281D01*
G01X12009Y7031D02*
G01X11986Y7077D01*
G01X12077Y6963D02*
G01X12009Y7031D01*
G01X12077Y6963D02*
G01X11600Y6963D01*
G01X12077Y6554D02*
G01X11759Y6781D01*
G01X11759Y6440D02*
G01X11759Y6781D01*
G01X12077Y6554D02*
G01X11600Y6554D01*
G04 draw value for part C14*
G04 Draw part R8*
G04 draw part outline for part R8*
G04 draw reference designator for part R8*
G01X12077Y8300D02*
G01X11600Y8300D01*
G01X12077Y8095D02*
G01X12077Y8300D01*
G01X12077Y8095D02*
G01X12054Y8027D01*
G01X12054Y8027D02*
G01X12031Y8004D01*
G01X12031Y8004D02*
G01X11986Y7981D01*
G01X11986Y7981D02*
G01X11940Y7981D01*
G01X11940Y7981D02*
G01X11895Y8004D01*
G01X11895Y8004D02*
G01X11872Y8027D01*
G01X11872Y8027D02*
G01X11850Y8095D01*
G01X11850Y8300D02*
G01X11850Y8095D01*
G01X11850Y8140D02*
G01X11600Y7981D01*
G01X12077Y7686D02*
G01X12054Y7754D01*
G01X12054Y7754D02*
G01X12009Y7777D01*
G01X12009Y7777D02*
G01X11963Y7777D01*
G01X11963Y7777D02*
G01X11918Y7754D01*
G01X11918Y7754D02*
G01X11895Y7709D01*
G01X11895Y7709D02*
G01X11872Y7618D01*
G01X11872Y7618D02*
G01X11850Y7550D01*
G01X11850Y7550D02*
G01X11804Y7504D01*
G01X11804Y7504D02*
G01X11759Y7481D01*
G01X11759Y7481D02*
G01X11690Y7481D01*
G01X11690Y7481D02*
G01X11645Y7504D01*
G01X11645Y7504D02*
G01X11622Y7527D01*
G01X11622Y7527D02*
G01X11600Y7595D01*
G01X11600Y7686D02*
G01X11600Y7595D01*
G01X11622Y7754D02*
G01X11600Y7686D01*
G01X11645Y7777D02*
G01X11622Y7754D01*
G01X11690Y7800D02*
G01X11645Y7777D01*
G01X11759Y7800D02*
G01X11690Y7800D01*
G01X11804Y7777D02*
G01X11759Y7800D01*
G01X11850Y7731D02*
G01X11804Y7777D01*
G01X11872Y7663D02*
G01X11850Y7731D01*
G01X11895Y7572D02*
G01X11872Y7663D01*
G01X11918Y7527D02*
G01X11895Y7572D01*
G01X11963Y7504D02*
G01X11918Y7527D01*
G01X12009Y7504D02*
G01X11963Y7504D01*
G01X12054Y7527D02*
G01X12009Y7504D01*
G01X12077Y7595D02*
G01X12054Y7527D01*
G01X12077Y7686D02*
G01X12077Y7595D01*
G04 draw value for part R8*
G04 Draw part R9*
G04 draw part outline for part R9*
G04 draw reference designator for part R9*
G01X10900Y7077D02*
G01X10900Y6600D01*
G01X11104Y7077D02*
G01X10900Y7077D01*
G01X11104Y7077D02*
G01X11172Y7054D01*
G01X11172Y7054D02*
G01X11195Y7031D01*
G01X11195Y7031D02*
G01X11218Y6986D01*
G01X11218Y6986D02*
G01X11218Y6940D01*
G01X11218Y6940D02*
G01X11195Y6895D01*
G01X11195Y6895D02*
G01X11172Y6872D01*
G01X11172Y6872D02*
G01X11104Y6850D01*
G01X10900Y6850D02*
G01X11104Y6850D01*
G01X11059Y6850D02*
G01X11218Y6600D01*
G01X11695Y6918D02*
G01X11672Y6850D01*
G01X11672Y6850D02*
G01X11627Y6804D01*
G01X11627Y6804D02*
G01X11559Y6781D01*
G01X11536Y6781D02*
G01X11559Y6781D01*
G01X11468Y6804D02*
G01X11536Y6781D01*
G01X11422Y6850D02*
G01X11468Y6804D01*
G01X11400Y6918D02*
G01X11422Y6850D01*
G01X11400Y6940D02*
G01X11400Y6918D01*
G01X11422Y7009D02*
G01X11400Y6940D01*
G01X11468Y7054D02*
G01X11422Y7009D01*
G01X11536Y7077D02*
G01X11468Y7054D01*
G01X11559Y7077D02*
G01X11536Y7077D01*
G01X11559Y7077D02*
G01X11627Y7054D01*
G01X11627Y7054D02*
G01X11672Y7009D01*
G01X11672Y7009D02*
G01X11695Y6918D01*
G01X11695Y6918D02*
G01X11695Y6804D01*
G01X11695Y6804D02*
G01X11672Y6690D01*
G01X11672Y6690D02*
G01X11627Y6622D01*
G01X11627Y6622D02*
G01X11559Y6600D01*
G01X11513Y6600D02*
G01X11559Y6600D01*
G01X11445Y6622D02*
G01X11513Y6600D01*
G01X11422Y6668D02*
G01X11445Y6622D01*
G04 draw value for part R9*
G04 Draw part R10*
G04 draw part outline for part R10*
G04 draw reference designator for part R10*
G01X1022Y11100D02*
G01X1500Y11100D01*
G01X1022Y11304D02*
G01X1022Y11100D01*
G01X1022Y11304D02*
G01X1045Y11372D01*
G01X1045Y11372D02*
G01X1068Y11395D01*
G01X1068Y11395D02*
G01X1113Y11418D01*
G01X1113Y11418D02*
G01X1159Y11418D01*
G01X1159Y11418D02*
G01X1204Y11395D01*
G01X1204Y11395D02*
G01X1227Y11372D01*
G01X1227Y11372D02*
G01X1250Y11304D01*
G01X1250Y11100D02*
G01X1250Y11304D01*
G01X1250Y11259D02*
G01X1500Y11418D01*
G01X1090Y11645D02*
G01X1113Y11600D01*
G01X1022Y11713D02*
G01X1090Y11645D01*
G01X1022Y11713D02*
G01X1500Y11713D01*
G01X1022Y12031D02*
G01X1045Y11963D01*
G01X1045Y11963D02*
G01X1113Y11918D01*
G01X1113Y11918D02*
G01X1227Y11895D01*
G01X1227Y11895D02*
G01X1295Y11895D01*
G01X1295Y11895D02*
G01X1409Y11918D01*
G01X1409Y11918D02*
G01X1477Y11963D01*
G01X1477Y11963D02*
G01X1500Y12031D01*
G01X1500Y12077D02*
G01X1500Y12031D01*
G01X1477Y12145D02*
G01X1500Y12077D01*
G01X1409Y12190D02*
G01X1477Y12145D01*
G01X1295Y12213D02*
G01X1409Y12190D01*
G01X1227Y12213D02*
G01X1295Y12213D01*
G01X1113Y12190D02*
G01X1227Y12213D01*
G01X1045Y12145D02*
G01X1113Y12190D01*
G01X1022Y12077D02*
G01X1045Y12145D01*
G01X1022Y12031D02*
G01X1022Y12077D01*
G04 draw value for part R10*
G04 Draw part R11*
G04 draw part outline for part R11*
G04 draw reference designator for part R11*
G01X3477Y8700D02*
G01X3000Y8700D01*
G01X3477Y8495D02*
G01X3477Y8700D01*
G01X3477Y8495D02*
G01X3454Y8427D01*
G01X3454Y8427D02*
G01X3431Y8404D01*
G01X3431Y8404D02*
G01X3386Y8381D01*
G01X3386Y8381D02*
G01X3340Y8381D01*
G01X3340Y8381D02*
G01X3295Y8404D01*
G01X3295Y8404D02*
G01X3272Y8427D01*
G01X3272Y8427D02*
G01X3250Y8495D01*
G01X3250Y8700D02*
G01X3250Y8495D01*
G01X3250Y8540D02*
G01X3000Y8381D01*
G01X3409Y8154D02*
G01X3386Y8200D01*
G01X3477Y8086D02*
G01X3409Y8154D01*
G01X3477Y8086D02*
G01X3000Y8086D01*
G01X3409Y7859D02*
G01X3386Y7904D01*
G01X3477Y7790D02*
G01X3409Y7859D01*
G01X3477Y7790D02*
G01X3000Y7790D01*
G04 draw value for part R11*
G04 Draw part C11*
G04 draw part outline for part C11*
G04 draw reference designator for part C11*
G01X5781Y8090D02*
G01X5759Y8136D01*
G01X5827Y8045D02*
G01X5781Y8090D01*
G01X5872Y8022D02*
G01X5827Y8045D01*
G01X5963Y8022D02*
G01X5872Y8022D01*
G01X5963Y8022D02*
G01X6009Y8045D01*
G01X6009Y8045D02*
G01X6054Y8090D01*
G01X6054Y8090D02*
G01X6077Y8136D01*
G01X6077Y8136D02*
G01X6100Y8204D01*
G01X6100Y8204D02*
G01X6100Y8318D01*
G01X6100Y8318D02*
G01X6077Y8386D01*
G01X6077Y8386D02*
G01X6054Y8431D01*
G01X6054Y8431D02*
G01X6009Y8477D01*
G01X6009Y8477D02*
G01X5963Y8500D01*
G01X5872Y8500D02*
G01X5963Y8500D01*
G01X5827Y8477D02*
G01X5872Y8500D01*
G01X5781Y8431D02*
G01X5827Y8477D01*
G01X5759Y8386D02*
G01X5781Y8431D01*
G01X5531Y8090D02*
G01X5577Y8113D01*
G01X5463Y8022D02*
G01X5531Y8090D01*
G01X5463Y8022D02*
G01X5463Y8500D01*
G01X5236Y8090D02*
G01X5281Y8113D01*
G01X5168Y8022D02*
G01X5236Y8090D01*
G01X5168Y8022D02*
G01X5168Y8500D01*
G04 draw value for part C11*
G04 Draw part R17*
G04 draw part outline for part R17*
G04 draw reference designator for part R17*
G01X14222Y11600D02*
G01X14700Y11600D01*
G01X14222Y11804D02*
G01X14222Y11600D01*
G01X14222Y11804D02*
G01X14245Y11872D01*
G01X14245Y11872D02*
G01X14268Y11895D01*
G01X14268Y11895D02*
G01X14313Y11918D01*
G01X14313Y11918D02*
G01X14359Y11918D01*
G01X14359Y11918D02*
G01X14404Y11895D01*
G01X14404Y11895D02*
G01X14427Y11872D01*
G01X14427Y11872D02*
G01X14450Y11804D01*
G01X14450Y11600D02*
G01X14450Y11804D01*
G01X14450Y11759D02*
G01X14700Y11918D01*
G01X14290Y12145D02*
G01X14313Y12100D01*
G01X14222Y12213D02*
G01X14290Y12145D01*
G01X14222Y12213D02*
G01X14700Y12213D01*
G01X14222Y12713D02*
G01X14700Y12486D01*
G01X14222Y12713D02*
G01X14222Y12395D01*
G04 draw value for part R17*
G01X12981Y10590D02*
G01X13027Y10500D01*
G01X12845Y10727D02*
G01X12981Y10590D01*
G01X12845Y10727D02*
G01X13800Y10727D01*
G01X12845Y11090D02*
G01X13800Y11090D01*
G01X12845Y11090D02*
G01X13800Y11454D01*
G01X12845Y11818D02*
G01X13800Y11454D01*
G01X12845Y11818D02*
G01X13800Y11818D01*
G04 Draw part C16*
G04 draw part outline for part C16*
G04 draw reference designator for part C16*
G01X16190Y10018D02*
G01X16236Y10040D01*
G01X16145Y9972D02*
G01X16190Y10018D01*
G01X16122Y9927D02*
G01X16145Y9972D01*
G01X16122Y9836D02*
G01X16122Y9927D01*
G01X16122Y9836D02*
G01X16145Y9790D01*
G01X16145Y9790D02*
G01X16190Y9745D01*
G01X16190Y9745D02*
G01X16236Y9722D01*
G01X16236Y9722D02*
G01X16304Y9700D01*
G01X16304Y9700D02*
G01X16418Y9700D01*
G01X16418Y9700D02*
G01X16486Y9722D01*
G01X16486Y9722D02*
G01X16531Y9745D01*
G01X16531Y9745D02*
G01X16577Y9790D01*
G01X16577Y9790D02*
G01X16600Y9836D01*
G01X16600Y9927D02*
G01X16600Y9836D01*
G01X16577Y9972D02*
G01X16600Y9927D01*
G01X16531Y10018D02*
G01X16577Y9972D01*
G01X16486Y10040D02*
G01X16531Y10018D01*
G01X16190Y10268D02*
G01X16213Y10222D01*
G01X16122Y10336D02*
G01X16190Y10268D01*
G01X16122Y10336D02*
G01X16600Y10336D01*
G01X16145Y10768D02*
G01X16190Y10790D01*
G01X16122Y10700D02*
G01X16145Y10768D01*
G01X16122Y10654D02*
G01X16122Y10700D01*
G01X16122Y10654D02*
G01X16145Y10586D01*
G01X16145Y10586D02*
G01X16213Y10540D01*
G01X16213Y10540D02*
G01X16327Y10518D01*
G01X16327Y10518D02*
G01X16440Y10518D01*
G01X16440Y10518D02*
G01X16531Y10540D01*
G01X16531Y10540D02*
G01X16577Y10586D01*
G01X16577Y10586D02*
G01X16600Y10654D01*
G01X16600Y10677D02*
G01X16600Y10654D01*
G01X16577Y10745D02*
G01X16600Y10677D01*
G01X16531Y10790D02*
G01X16577Y10745D01*
G01X16463Y10813D02*
G01X16531Y10790D01*
G01X16440Y10813D02*
G01X16463Y10813D01*
G01X16372Y10790D02*
G01X16440Y10813D01*
G01X16327Y10745D02*
G01X16372Y10790D01*
G01X16304Y10677D02*
G01X16327Y10745D01*
G01X16304Y10654D02*
G01X16304Y10677D01*
G01X16304Y10654D02*
G01X16327Y10586D01*
G01X16327Y10586D02*
G01X16372Y10540D01*
G01X16372Y10540D02*
G01X16440Y10518D01*
G04 draw value for part C16*
G04 Draw part C15*
G04 draw part outline for part C15*
G04 draw reference designator for part C15*
G01X13709Y5181D02*
G01X13663Y5159D01*
G01X13754Y5227D02*
G01X13709Y5181D01*
G01X13777Y5272D02*
G01X13754Y5227D01*
G01X13777Y5363D02*
G01X13777Y5272D01*
G01X13777Y5363D02*
G01X13754Y5409D01*
G01X13754Y5409D02*
G01X13709Y5454D01*
G01X13709Y5454D02*
G01X13663Y5477D01*
G01X13663Y5477D02*
G01X13595Y5500D01*
G01X13595Y5500D02*
G01X13481Y5500D01*
G01X13481Y5500D02*
G01X13413Y5477D01*
G01X13413Y5477D02*
G01X13368Y5454D01*
G01X13368Y5454D02*
G01X13322Y5409D01*
G01X13322Y5409D02*
G01X13300Y5363D01*
G01X13300Y5272D02*
G01X13300Y5363D01*
G01X13322Y5227D02*
G01X13300Y5272D01*
G01X13368Y5181D02*
G01X13322Y5227D01*
G01X13413Y5159D02*
G01X13368Y5181D01*
G01X13709Y4931D02*
G01X13686Y4977D01*
G01X13777Y4863D02*
G01X13709Y4931D01*
G01X13777Y4863D02*
G01X13300Y4863D01*
G01X13777Y4636D02*
G01X13777Y4409D01*
G01X13777Y4636D02*
G01X13572Y4659D01*
G01X13595Y4636D02*
G01X13572Y4659D01*
G01X13618Y4568D02*
G01X13595Y4636D01*
G01X13618Y4500D02*
G01X13618Y4568D01*
G01X13618Y4500D02*
G01X13595Y4431D01*
G01X13595Y4431D02*
G01X13550Y4386D01*
G01X13550Y4386D02*
G01X13481Y4363D01*
G01X13481Y4363D02*
G01X13436Y4363D01*
G01X13436Y4363D02*
G01X13368Y4386D01*
G01X13368Y4386D02*
G01X13322Y4431D01*
G01X13322Y4431D02*
G01X13300Y4500D01*
G01X13300Y4568D02*
G01X13300Y4500D01*
G01X13322Y4636D02*
G01X13300Y4568D01*
G01X13345Y4659D02*
G01X13322Y4636D01*
G01X13390Y4681D02*
G01X13345Y4659D01*
G04 draw value for part C15*
G04 Draw part R14*
G04 draw part outline for part R14*
G04 draw reference designator for part R14*
G01X22800Y9222D02*
G01X22800Y9700D01*
G01X22595Y9222D02*
G01X22800Y9222D01*
G01X22595Y9222D02*
G01X22527Y9245D01*
G01X22527Y9245D02*
G01X22504Y9268D01*
G01X22504Y9268D02*
G01X22481Y9313D01*
G01X22481Y9313D02*
G01X22481Y9359D01*
G01X22481Y9359D02*
G01X22504Y9404D01*
G01X22504Y9404D02*
G01X22527Y9427D01*
G01X22527Y9427D02*
G01X22595Y9450D01*
G01X22800Y9450D02*
G01X22595Y9450D01*
G01X22640Y9450D02*
G01X22481Y9700D01*
G01X22254Y9290D02*
G01X22300Y9313D01*
G01X22186Y9222D02*
G01X22254Y9290D01*
G01X22186Y9222D02*
G01X22186Y9700D01*
G01X21777Y9222D02*
G01X22004Y9540D01*
G01X21663Y9540D02*
G01X22004Y9540D01*
G01X21777Y9222D02*
G01X21777Y9700D01*
G04 draw value for part R14*
G04 Draw part R15*
G04 draw part outline for part R15*
G04 draw reference designator for part R15*
G01X22800Y8422D02*
G01X22800Y8900D01*
G01X22595Y8422D02*
G01X22800Y8422D01*
G01X22595Y8422D02*
G01X22527Y8445D01*
G01X22527Y8445D02*
G01X22504Y8468D01*
G01X22504Y8468D02*
G01X22481Y8513D01*
G01X22481Y8513D02*
G01X22481Y8559D01*
G01X22481Y8559D02*
G01X22504Y8604D01*
G01X22504Y8604D02*
G01X22527Y8627D01*
G01X22527Y8627D02*
G01X22595Y8650D01*
G01X22800Y8650D02*
G01X22595Y8650D01*
G01X22640Y8650D02*
G01X22481Y8900D01*
G01X22254Y8490D02*
G01X22300Y8513D01*
G01X22186Y8422D02*
G01X22254Y8490D01*
G01X22186Y8422D02*
G01X22186Y8900D01*
G01X21959Y8422D02*
G01X21731Y8422D01*
G01X21959Y8422D02*
G01X21981Y8627D01*
G01X21959Y8604D02*
G01X21981Y8627D01*
G01X21890Y8581D02*
G01X21959Y8604D01*
G01X21822Y8581D02*
G01X21890Y8581D01*
G01X21822Y8581D02*
G01X21754Y8604D01*
G01X21754Y8604D02*
G01X21709Y8650D01*
G01X21709Y8650D02*
G01X21686Y8718D01*
G01X21686Y8718D02*
G01X21686Y8763D01*
G01X21686Y8763D02*
G01X21709Y8831D01*
G01X21709Y8831D02*
G01X21754Y8877D01*
G01X21754Y8877D02*
G01X21822Y8900D01*
G01X21890Y8900D02*
G01X21822Y8900D01*
G01X21959Y8877D02*
G01X21890Y8900D01*
G01X21981Y8854D02*
G01X21959Y8877D01*
G01X22004Y8809D02*
G01X21981Y8854D01*
G04 draw value for part R15*
G04 Draw part R16*
G04 draw part outline for part R16*
G04 draw reference designator for part R16*
G01X22800Y7622D02*
G01X22800Y8100D01*
G01X22595Y7622D02*
G01X22800Y7622D01*
G01X22595Y7622D02*
G01X22527Y7645D01*
G01X22527Y7645D02*
G01X22504Y7668D01*
G01X22504Y7668D02*
G01X22481Y7713D01*
G01X22481Y7713D02*
G01X22481Y7759D01*
G01X22481Y7759D02*
G01X22504Y7804D01*
G01X22504Y7804D02*
G01X22527Y7827D01*
G01X22527Y7827D02*
G01X22595Y7850D01*
G01X22800Y7850D02*
G01X22595Y7850D01*
G01X22640Y7850D02*
G01X22481Y8100D01*
G01X22254Y7690D02*
G01X22300Y7713D01*
G01X22186Y7622D02*
G01X22254Y7690D01*
G01X22186Y7622D02*
G01X22186Y8100D01*
G01X21754Y7645D02*
G01X21731Y7690D01*
G01X21822Y7622D02*
G01X21754Y7645D01*
G01X21868Y7622D02*
G01X21822Y7622D01*
G01X21868Y7622D02*
G01X21936Y7645D01*
G01X21936Y7645D02*
G01X21981Y7713D01*
G01X21981Y7713D02*
G01X22004Y7827D01*
G01X22004Y7827D02*
G01X22004Y7940D01*
G01X22004Y7940D02*
G01X21981Y8031D01*
G01X21981Y8031D02*
G01X21936Y8077D01*
G01X21936Y8077D02*
G01X21868Y8100D01*
G01X21845Y8100D02*
G01X21868Y8100D01*
G01X21777Y8077D02*
G01X21845Y8100D01*
G01X21731Y8031D02*
G01X21777Y8077D01*
G01X21709Y7963D02*
G01X21731Y8031D01*
G01X21709Y7940D02*
G01X21709Y7963D01*
G01X21731Y7872D02*
G01X21709Y7940D01*
G01X21777Y7827D02*
G01X21731Y7872D01*
G01X21845Y7804D02*
G01X21777Y7827D01*
G01X21868Y7804D02*
G01X21845Y7804D01*
G01X21868Y7804D02*
G01X21936Y7827D01*
G01X21936Y7827D02*
G01X21981Y7872D01*
G01X21981Y7872D02*
G01X22004Y7940D01*
G04 draw value for part R16*
G04 Draw part C29*
G04 draw part outline for part C29*
G04 draw reference designator for part C29*
G01X24581Y4990D02*
G01X24559Y5036D01*
G01X24627Y4945D02*
G01X24581Y4990D01*
G01X24672Y4922D02*
G01X24627Y4945D01*
G01X24763Y4922D02*
G01X24672Y4922D01*
G01X24763Y4922D02*
G01X24809Y4945D01*
G01X24809Y4945D02*
G01X24854Y4990D01*
G01X24854Y4990D02*
G01X24877Y5036D01*
G01X24877Y5036D02*
G01X24900Y5104D01*
G01X24900Y5104D02*
G01X24900Y5218D01*
G01X24900Y5218D02*
G01X24877Y5286D01*
G01X24877Y5286D02*
G01X24854Y5331D01*
G01X24854Y5331D02*
G01X24809Y5377D01*
G01X24809Y5377D02*
G01X24763Y5400D01*
G01X24672Y5400D02*
G01X24763Y5400D01*
G01X24627Y5377D02*
G01X24672Y5400D01*
G01X24581Y5331D02*
G01X24627Y5377D01*
G01X24559Y5286D02*
G01X24581Y5331D01*
G01X24354Y5013D02*
G01X24354Y5036D01*
G01X24331Y4968D02*
G01X24354Y5013D01*
G01X24309Y4945D02*
G01X24331Y4968D01*
G01X24263Y4922D02*
G01X24309Y4945D01*
G01X24172Y4922D02*
G01X24263Y4922D01*
G01X24172Y4922D02*
G01X24127Y4945D01*
G01X24127Y4945D02*
G01X24104Y4968D01*
G01X24104Y4968D02*
G01X24081Y5013D01*
G01X24081Y5013D02*
G01X24081Y5059D01*
G01X24081Y5059D02*
G01X24104Y5104D01*
G01X24104Y5104D02*
G01X24150Y5172D01*
G01X24150Y5172D02*
G01X24377Y5400D01*
G01X24059Y5400D02*
G01X24377Y5400D01*
G01X23581Y5081D02*
G01X23604Y5150D01*
G01X23604Y5150D02*
G01X23650Y5195D01*
G01X23650Y5195D02*
G01X23718Y5218D01*
G01X23740Y5218D02*
G01X23718Y5218D01*
G01X23809Y5195D02*
G01X23740Y5218D01*
G01X23854Y5150D02*
G01X23809Y5195D01*
G01X23877Y5081D02*
G01X23854Y5150D01*
G01X23877Y5059D02*
G01X23877Y5081D01*
G01X23854Y4990D02*
G01X23877Y5059D01*
G01X23809Y4945D02*
G01X23854Y4990D01*
G01X23740Y4922D02*
G01X23809Y4945D01*
G01X23718Y4922D02*
G01X23740Y4922D01*
G01X23718Y4922D02*
G01X23650Y4945D01*
G01X23650Y4945D02*
G01X23604Y4990D01*
G01X23604Y4990D02*
G01X23581Y5081D01*
G01X23581Y5081D02*
G01X23581Y5195D01*
G01X23581Y5195D02*
G01X23604Y5309D01*
G01X23604Y5309D02*
G01X23650Y5377D01*
G01X23650Y5377D02*
G01X23718Y5400D01*
G01X23763Y5400D02*
G01X23718Y5400D01*
G01X23831Y5377D02*
G01X23763Y5400D01*
G01X23854Y5331D02*
G01X23831Y5377D01*
G04 draw value for part C29*
G04 Draw part R22*
G04 draw part outline for part R22*
G04 draw reference designator for part R22*
G01X28200Y3477D02*
G01X28200Y3000D01*
G01X28404Y3477D02*
G01X28200Y3477D01*
G01X28404Y3477D02*
G01X28472Y3454D01*
G01X28472Y3454D02*
G01X28495Y3431D01*
G01X28495Y3431D02*
G01X28518Y3386D01*
G01X28518Y3386D02*
G01X28518Y3340D01*
G01X28518Y3340D02*
G01X28495Y3295D01*
G01X28495Y3295D02*
G01X28472Y3272D01*
G01X28472Y3272D02*
G01X28404Y3250D01*
G01X28200Y3250D02*
G01X28404Y3250D01*
G01X28359Y3250D02*
G01X28518Y3000D01*
G01X28722Y3386D02*
G01X28722Y3363D01*
G01X28745Y3431D02*
G01X28722Y3386D01*
G01X28768Y3454D02*
G01X28745Y3431D01*
G01X28813Y3477D02*
G01X28768Y3454D01*
G01X28904Y3477D02*
G01X28813Y3477D01*
G01X28904Y3477D02*
G01X28950Y3454D01*
G01X28950Y3454D02*
G01X28972Y3431D01*
G01X28972Y3431D02*
G01X28995Y3386D01*
G01X28995Y3386D02*
G01X28995Y3340D01*
G01X28995Y3340D02*
G01X28972Y3295D01*
G01X28972Y3295D02*
G01X28927Y3227D01*
G01X28927Y3227D02*
G01X28700Y3000D01*
G01X29018Y3000D02*
G01X28700Y3000D01*
G01X29222Y3386D02*
G01X29222Y3363D01*
G01X29245Y3431D02*
G01X29222Y3386D01*
G01X29268Y3454D02*
G01X29245Y3431D01*
G01X29313Y3477D02*
G01X29268Y3454D01*
G01X29404Y3477D02*
G01X29313Y3477D01*
G01X29404Y3477D02*
G01X29450Y3454D01*
G01X29450Y3454D02*
G01X29472Y3431D01*
G01X29472Y3431D02*
G01X29495Y3386D01*
G01X29495Y3386D02*
G01X29495Y3340D01*
G01X29495Y3340D02*
G01X29472Y3295D01*
G01X29472Y3295D02*
G01X29427Y3227D01*
G01X29427Y3227D02*
G01X29200Y3000D01*
G01X29518Y3000D02*
G01X29200Y3000D01*
G04 draw value for part R22*
G04 Draw part C27*
G04 draw part outline for part C27*
G04 draw reference designator for part C27*
G01X27809Y2681D02*
G01X27763Y2659D01*
G01X27854Y2727D02*
G01X27809Y2681D01*
G01X27877Y2772D02*
G01X27854Y2727D01*
G01X27877Y2863D02*
G01X27877Y2772D01*
G01X27877Y2863D02*
G01X27854Y2909D01*
G01X27854Y2909D02*
G01X27809Y2954D01*
G01X27809Y2954D02*
G01X27763Y2977D01*
G01X27763Y2977D02*
G01X27695Y3000D01*
G01X27695Y3000D02*
G01X27581Y3000D01*
G01X27581Y3000D02*
G01X27513Y2977D01*
G01X27513Y2977D02*
G01X27468Y2954D01*
G01X27468Y2954D02*
G01X27422Y2909D01*
G01X27422Y2909D02*
G01X27400Y2863D01*
G01X27400Y2772D02*
G01X27400Y2863D01*
G01X27422Y2727D02*
G01X27400Y2772D01*
G01X27468Y2681D02*
G01X27422Y2727D01*
G01X27513Y2659D02*
G01X27468Y2681D01*
G01X27786Y2454D02*
G01X27763Y2454D01*
G01X27831Y2431D02*
G01X27786Y2454D01*
G01X27854Y2409D02*
G01X27831Y2431D01*
G01X27877Y2363D02*
G01X27854Y2409D01*
G01X27877Y2272D02*
G01X27877Y2363D01*
G01X27877Y2272D02*
G01X27854Y2227D01*
G01X27854Y2227D02*
G01X27831Y2204D01*
G01X27831Y2204D02*
G01X27786Y2181D01*
G01X27786Y2181D02*
G01X27740Y2181D01*
G01X27740Y2181D02*
G01X27695Y2204D01*
G01X27695Y2204D02*
G01X27627Y2250D01*
G01X27627Y2250D02*
G01X27400Y2477D01*
G01X27400Y2159D02*
G01X27400Y2477D01*
G01X27877Y1659D02*
G01X27400Y1886D01*
G01X27877Y1659D02*
G01X27877Y1977D01*
G04 draw value for part C27*
G04 Draw part C26*
G04 draw part outline for part C26*
G04 draw reference designator for part C26*
G01X26390Y5118D02*
G01X26436Y5140D01*
G01X26345Y5072D02*
G01X26390Y5118D01*
G01X26322Y5027D02*
G01X26345Y5072D01*
G01X26322Y4936D02*
G01X26322Y5027D01*
G01X26322Y4936D02*
G01X26345Y4890D01*
G01X26345Y4890D02*
G01X26390Y4845D01*
G01X26390Y4845D02*
G01X26436Y4822D01*
G01X26436Y4822D02*
G01X26504Y4800D01*
G01X26504Y4800D02*
G01X26618Y4800D01*
G01X26618Y4800D02*
G01X26686Y4822D01*
G01X26686Y4822D02*
G01X26731Y4845D01*
G01X26731Y4845D02*
G01X26777Y4890D01*
G01X26777Y4890D02*
G01X26800Y4936D01*
G01X26800Y5027D02*
G01X26800Y4936D01*
G01X26777Y5072D02*
G01X26800Y5027D01*
G01X26731Y5118D02*
G01X26777Y5072D01*
G01X26686Y5140D02*
G01X26731Y5118D01*
G01X26413Y5345D02*
G01X26436Y5345D01*
G01X26368Y5368D02*
G01X26413Y5345D01*
G01X26345Y5390D02*
G01X26368Y5368D01*
G01X26322Y5436D02*
G01X26345Y5390D01*
G01X26322Y5527D02*
G01X26322Y5436D01*
G01X26322Y5527D02*
G01X26345Y5572D01*
G01X26345Y5572D02*
G01X26368Y5595D01*
G01X26368Y5595D02*
G01X26413Y5618D01*
G01X26413Y5618D02*
G01X26459Y5618D01*
G01X26459Y5618D02*
G01X26504Y5595D01*
G01X26504Y5595D02*
G01X26572Y5550D01*
G01X26572Y5550D02*
G01X26800Y5322D01*
G01X26800Y5640D02*
G01X26800Y5322D01*
G01X26345Y6072D02*
G01X26390Y6095D01*
G01X26322Y6004D02*
G01X26345Y6072D01*
G01X26322Y5959D02*
G01X26322Y6004D01*
G01X26322Y5959D02*
G01X26345Y5890D01*
G01X26345Y5890D02*
G01X26413Y5845D01*
G01X26413Y5845D02*
G01X26527Y5822D01*
G01X26527Y5822D02*
G01X26640Y5822D01*
G01X26640Y5822D02*
G01X26731Y5845D01*
G01X26731Y5845D02*
G01X26777Y5890D01*
G01X26777Y5890D02*
G01X26800Y5959D01*
G01X26800Y5981D02*
G01X26800Y5959D01*
G01X26777Y6050D02*
G01X26800Y5981D01*
G01X26731Y6095D02*
G01X26777Y6050D01*
G01X26663Y6118D02*
G01X26731Y6095D01*
G01X26640Y6118D02*
G01X26663Y6118D01*
G01X26572Y6095D02*
G01X26640Y6118D01*
G01X26527Y6050D02*
G01X26572Y6095D01*
G01X26504Y5981D02*
G01X26527Y6050D01*
G01X26504Y5959D02*
G01X26504Y5981D01*
G01X26504Y5959D02*
G01X26527Y5890D01*
G01X26527Y5890D02*
G01X26572Y5845D01*
G01X26572Y5845D02*
G01X26640Y5822D01*
G04 draw value for part C26*
G04 Draw part C22*
G04 draw part outline for part C22*
G04 draw reference designator for part C22*
G01X23409Y-518D02*
G01X23363Y-540D01*
G01X23454Y-472D02*
G01X23409Y-518D01*
G01X23477Y-427D02*
G01X23454Y-472D01*
G01X23477Y-336D02*
G01X23477Y-427D01*
G01X23477Y-336D02*
G01X23454Y-290D01*
G01X23454Y-290D02*
G01X23409Y-245D01*
G01X23409Y-245D02*
G01X23363Y-222D01*
G01X23363Y-222D02*
G01X23295Y-200D01*
G01X23295Y-200D02*
G01X23181Y-200D01*
G01X23181Y-200D02*
G01X23113Y-222D01*
G01X23113Y-222D02*
G01X23068Y-245D01*
G01X23068Y-245D02*
G01X23022Y-290D01*
G01X23022Y-290D02*
G01X23000Y-336D01*
G01X23000Y-427D02*
G01X23000Y-336D01*
G01X23022Y-472D02*
G01X23000Y-427D01*
G01X23068Y-518D02*
G01X23022Y-472D01*
G01X23113Y-540D02*
G01X23068Y-518D01*
G01X23386Y-745D02*
G01X23363Y-745D01*
G01X23431Y-768D02*
G01X23386Y-745D01*
G01X23454Y-790D02*
G01X23431Y-768D01*
G01X23477Y-836D02*
G01X23454Y-790D01*
G01X23477Y-927D02*
G01X23477Y-836D01*
G01X23477Y-927D02*
G01X23454Y-972D01*
G01X23454Y-972D02*
G01X23431Y-995D01*
G01X23431Y-995D02*
G01X23386Y-1018D01*
G01X23386Y-1018D02*
G01X23340Y-1018D01*
G01X23340Y-1018D02*
G01X23295Y-995D01*
G01X23295Y-995D02*
G01X23227Y-950D01*
G01X23227Y-950D02*
G01X23000Y-722D01*
G01X23000Y-1040D02*
G01X23000Y-722D01*
G01X23386Y-1245D02*
G01X23363Y-1245D01*
G01X23431Y-1268D02*
G01X23386Y-1245D01*
G01X23454Y-1290D02*
G01X23431Y-1268D01*
G01X23477Y-1336D02*
G01X23454Y-1290D01*
G01X23477Y-1427D02*
G01X23477Y-1336D01*
G01X23477Y-1427D02*
G01X23454Y-1472D01*
G01X23454Y-1472D02*
G01X23431Y-1495D01*
G01X23431Y-1495D02*
G01X23386Y-1518D01*
G01X23386Y-1518D02*
G01X23340Y-1518D01*
G01X23340Y-1518D02*
G01X23295Y-1495D01*
G01X23295Y-1495D02*
G01X23227Y-1450D01*
G01X23227Y-1450D02*
G01X23000Y-1222D01*
G01X23000Y-1540D02*
G01X23000Y-1222D01*
G04 draw value for part C22*
G04 Draw part C21*
G04 draw part outline for part C21*
G04 draw reference designator for part C21*
G01X20181Y1290D02*
G01X20159Y1336D01*
G01X20227Y1245D02*
G01X20181Y1290D01*
G01X20272Y1222D02*
G01X20227Y1245D01*
G01X20363Y1222D02*
G01X20272Y1222D01*
G01X20363Y1222D02*
G01X20409Y1245D01*
G01X20409Y1245D02*
G01X20454Y1290D01*
G01X20454Y1290D02*
G01X20477Y1336D01*
G01X20477Y1336D02*
G01X20500Y1404D01*
G01X20500Y1404D02*
G01X20500Y1518D01*
G01X20500Y1518D02*
G01X20477Y1586D01*
G01X20477Y1586D02*
G01X20454Y1631D01*
G01X20454Y1631D02*
G01X20409Y1677D01*
G01X20409Y1677D02*
G01X20363Y1700D01*
G01X20272Y1700D02*
G01X20363Y1700D01*
G01X20227Y1677D02*
G01X20272Y1700D01*
G01X20181Y1631D02*
G01X20227Y1677D01*
G01X20159Y1586D02*
G01X20181Y1631D01*
G01X19954Y1313D02*
G01X19954Y1336D01*
G01X19931Y1268D02*
G01X19954Y1313D01*
G01X19909Y1245D02*
G01X19931Y1268D01*
G01X19863Y1222D02*
G01X19909Y1245D01*
G01X19772Y1222D02*
G01X19863Y1222D01*
G01X19772Y1222D02*
G01X19727Y1245D01*
G01X19727Y1245D02*
G01X19704Y1268D01*
G01X19704Y1268D02*
G01X19681Y1313D01*
G01X19681Y1313D02*
G01X19681Y1359D01*
G01X19681Y1359D02*
G01X19704Y1404D01*
G01X19704Y1404D02*
G01X19750Y1472D01*
G01X19750Y1472D02*
G01X19977Y1700D01*
G01X19659Y1700D02*
G01X19977Y1700D01*
G01X19431Y1290D02*
G01X19477Y1313D01*
G01X19363Y1222D02*
G01X19431Y1290D01*
G01X19363Y1222D02*
G01X19363Y1700D01*
G04 draw value for part C21*
G04 Draw part R21*
G04 draw part outline for part R21*
G04 draw reference designator for part R21*
G01X20500Y2422D02*
G01X20500Y2900D01*
G01X20295Y2422D02*
G01X20500Y2422D01*
G01X20295Y2422D02*
G01X20227Y2445D01*
G01X20227Y2445D02*
G01X20204Y2468D01*
G01X20204Y2468D02*
G01X20181Y2513D01*
G01X20181Y2513D02*
G01X20181Y2559D01*
G01X20181Y2559D02*
G01X20204Y2604D01*
G01X20204Y2604D02*
G01X20227Y2627D01*
G01X20227Y2627D02*
G01X20295Y2650D01*
G01X20500Y2650D02*
G01X20295Y2650D01*
G01X20340Y2650D02*
G01X20181Y2900D01*
G01X19977Y2513D02*
G01X19977Y2536D01*
G01X19954Y2468D02*
G01X19977Y2513D01*
G01X19931Y2445D02*
G01X19954Y2468D01*
G01X19886Y2422D02*
G01X19931Y2445D01*
G01X19795Y2422D02*
G01X19886Y2422D01*
G01X19795Y2422D02*
G01X19750Y2445D01*
G01X19750Y2445D02*
G01X19727Y2468D01*
G01X19727Y2468D02*
G01X19704Y2513D01*
G01X19704Y2513D02*
G01X19704Y2559D01*
G01X19704Y2559D02*
G01X19727Y2604D01*
G01X19727Y2604D02*
G01X19772Y2672D01*
G01X19772Y2672D02*
G01X20000Y2900D01*
G01X19681Y2900D02*
G01X20000Y2900D01*
G01X19454Y2490D02*
G01X19500Y2513D01*
G01X19386Y2422D02*
G01X19454Y2490D01*
G01X19386Y2422D02*
G01X19386Y2900D01*
G04 draw value for part R21*
G04 Draw part R18*
G04 draw part outline for part R18*
G04 draw reference designator for part R18*
G01X24022Y8200D02*
G01X24500Y8200D01*
G01X24022Y8404D02*
G01X24022Y8200D01*
G01X24022Y8404D02*
G01X24045Y8472D01*
G01X24045Y8472D02*
G01X24068Y8495D01*
G01X24068Y8495D02*
G01X24113Y8518D01*
G01X24113Y8518D02*
G01X24159Y8518D01*
G01X24159Y8518D02*
G01X24204Y8495D01*
G01X24204Y8495D02*
G01X24227Y8472D01*
G01X24227Y8472D02*
G01X24250Y8404D01*
G01X24250Y8200D02*
G01X24250Y8404D01*
G01X24250Y8359D02*
G01X24500Y8518D01*
G01X24090Y8745D02*
G01X24113Y8700D01*
G01X24022Y8813D02*
G01X24090Y8745D01*
G01X24022Y8813D02*
G01X24500Y8813D01*
G01X24022Y9109D02*
G01X24045Y9040D01*
G01X24045Y9040D02*
G01X24090Y9018D01*
G01X24090Y9018D02*
G01X24136Y9018D01*
G01X24136Y9018D02*
G01X24181Y9040D01*
G01X24181Y9040D02*
G01X24204Y9086D01*
G01X24204Y9086D02*
G01X24227Y9177D01*
G01X24227Y9177D02*
G01X24250Y9245D01*
G01X24250Y9245D02*
G01X24295Y9290D01*
G01X24295Y9290D02*
G01X24340Y9313D01*
G01X24340Y9313D02*
G01X24409Y9313D01*
G01X24409Y9313D02*
G01X24454Y9290D01*
G01X24454Y9290D02*
G01X24477Y9268D01*
G01X24477Y9268D02*
G01X24500Y9200D01*
G01X24500Y9109D02*
G01X24500Y9200D01*
G01X24477Y9040D02*
G01X24500Y9109D01*
G01X24454Y9018D02*
G01X24477Y9040D01*
G01X24409Y8995D02*
G01X24454Y9018D01*
G01X24340Y8995D02*
G01X24409Y8995D01*
G01X24295Y9018D02*
G01X24340Y8995D01*
G01X24250Y9063D02*
G01X24295Y9018D01*
G01X24227Y9131D02*
G01X24250Y9063D01*
G01X24204Y9222D02*
G01X24227Y9131D01*
G01X24181Y9268D02*
G01X24204Y9222D01*
G01X24136Y9290D02*
G01X24181Y9268D01*
G01X24090Y9290D02*
G01X24136Y9290D01*
G01X24045Y9268D02*
G01X24090Y9290D01*
G01X24022Y9200D02*
G01X24045Y9268D01*
G01X24022Y9109D02*
G01X24022Y9200D01*
G04 draw value for part R18*
G04 Draw part R19*
G04 draw part outline for part R19*
G04 draw reference designator for part R19*
G01X23622Y8200D02*
G01X24100Y8200D01*
G01X23622Y8404D02*
G01X23622Y8200D01*
G01X23622Y8404D02*
G01X23645Y8472D01*
G01X23645Y8472D02*
G01X23668Y8495D01*
G01X23668Y8495D02*
G01X23713Y8518D01*
G01X23713Y8518D02*
G01X23759Y8518D01*
G01X23759Y8518D02*
G01X23804Y8495D01*
G01X23804Y8495D02*
G01X23827Y8472D01*
G01X23827Y8472D02*
G01X23850Y8404D01*
G01X23850Y8200D02*
G01X23850Y8404D01*
G01X23850Y8359D02*
G01X24100Y8518D01*
G01X23690Y8745D02*
G01X23713Y8700D01*
G01X23622Y8813D02*
G01X23690Y8745D01*
G01X23622Y8813D02*
G01X24100Y8813D01*
G01X23781Y9290D02*
G01X23850Y9268D01*
G01X23850Y9268D02*
G01X23895Y9222D01*
G01X23895Y9222D02*
G01X23918Y9154D01*
G01X23918Y9131D02*
G01X23918Y9154D01*
G01X23895Y9063D02*
G01X23918Y9131D01*
G01X23850Y9018D02*
G01X23895Y9063D01*
G01X23781Y8995D02*
G01X23850Y9018D01*
G01X23759Y8995D02*
G01X23781Y8995D01*
G01X23690Y9018D02*
G01X23759Y8995D01*
G01X23645Y9063D02*
G01X23690Y9018D01*
G01X23622Y9131D02*
G01X23645Y9063D01*
G01X23622Y9154D02*
G01X23622Y9131D01*
G01X23622Y9154D02*
G01X23645Y9222D01*
G01X23645Y9222D02*
G01X23690Y9268D01*
G01X23690Y9268D02*
G01X23781Y9290D01*
G01X23781Y9290D02*
G01X23895Y9290D01*
G01X23895Y9290D02*
G01X24009Y9268D01*
G01X24009Y9268D02*
G01X24077Y9222D01*
G01X24077Y9222D02*
G01X24100Y9154D01*
G01X24100Y9109D02*
G01X24100Y9154D01*
G01X24077Y9040D02*
G01X24100Y9109D01*
G01X24031Y9018D02*
G01X24077Y9040D01*
G04 draw value for part R19*
G04 Draw part R20*
G04 draw part outline for part R20*
G04 draw reference designator for part R20*
G01X24677Y4900D02*
G01X24200Y4900D01*
G01X24677Y4695D02*
G01X24677Y4900D01*
G01X24677Y4695D02*
G01X24654Y4627D01*
G01X24654Y4627D02*
G01X24631Y4604D01*
G01X24631Y4604D02*
G01X24586Y4581D01*
G01X24586Y4581D02*
G01X24540Y4581D01*
G01X24540Y4581D02*
G01X24495Y4604D01*
G01X24495Y4604D02*
G01X24472Y4627D01*
G01X24472Y4627D02*
G01X24450Y4695D01*
G01X24450Y4900D02*
G01X24450Y4695D01*
G01X24450Y4740D02*
G01X24200Y4581D01*
G01X24586Y4377D02*
G01X24563Y4377D01*
G01X24631Y4354D02*
G01X24586Y4377D01*
G01X24654Y4331D02*
G01X24631Y4354D01*
G01X24677Y4286D02*
G01X24654Y4331D01*
G01X24677Y4195D02*
G01X24677Y4286D01*
G01X24677Y4195D02*
G01X24654Y4150D01*
G01X24654Y4150D02*
G01X24631Y4127D01*
G01X24631Y4127D02*
G01X24586Y4104D01*
G01X24586Y4104D02*
G01X24540Y4104D01*
G01X24540Y4104D02*
G01X24495Y4127D01*
G01X24495Y4127D02*
G01X24427Y4172D01*
G01X24427Y4172D02*
G01X24200Y4400D01*
G01X24200Y4081D02*
G01X24200Y4400D01*
G01X24677Y3763D02*
G01X24654Y3831D01*
G01X24654Y3831D02*
G01X24586Y3877D01*
G01X24586Y3877D02*
G01X24472Y3900D01*
G01X24472Y3900D02*
G01X24404Y3900D01*
G01X24404Y3900D02*
G01X24290Y3877D01*
G01X24290Y3877D02*
G01X24222Y3831D01*
G01X24222Y3831D02*
G01X24200Y3763D01*
G01X24200Y3718D02*
G01X24200Y3763D01*
G01X24222Y3650D02*
G01X24200Y3718D01*
G01X24290Y3604D02*
G01X24222Y3650D01*
G01X24404Y3581D02*
G01X24290Y3604D01*
G01X24472Y3581D02*
G01X24404Y3581D01*
G01X24586Y3604D02*
G01X24472Y3581D01*
G01X24654Y3650D02*
G01X24586Y3604D01*
G01X24677Y3718D02*
G01X24654Y3650D01*
G01X24677Y3763D02*
G01X24677Y3718D01*
G04 draw value for part R20*
G04 Draw part C19*
G04 draw part outline for part C19*
G04 draw reference designator for part C19*
G01X24118Y4309D02*
G01X24140Y4263D01*
G01X24072Y4354D02*
G01X24118Y4309D01*
G01X24027Y4377D02*
G01X24072Y4354D01*
G01X23936Y4377D02*
G01X24027Y4377D01*
G01X23936Y4377D02*
G01X23890Y4354D01*
G01X23890Y4354D02*
G01X23845Y4309D01*
G01X23845Y4309D02*
G01X23822Y4263D01*
G01X23822Y4263D02*
G01X23800Y4195D01*
G01X23800Y4195D02*
G01X23800Y4081D01*
G01X23800Y4081D02*
G01X23822Y4013D01*
G01X23822Y4013D02*
G01X23845Y3968D01*
G01X23845Y3968D02*
G01X23890Y3922D01*
G01X23890Y3922D02*
G01X23936Y3900D01*
G01X24027Y3900D02*
G01X23936Y3900D01*
G01X24072Y3922D02*
G01X24027Y3900D01*
G01X24118Y3968D02*
G01X24072Y3922D01*
G01X24140Y4013D02*
G01X24118Y3968D01*
G01X24368Y4309D02*
G01X24322Y4286D01*
G01X24436Y4377D02*
G01X24368Y4309D01*
G01X24436Y4377D02*
G01X24436Y3900D01*
G01X24913Y4218D02*
G01X24890Y4150D01*
G01X24890Y4150D02*
G01X24845Y4104D01*
G01X24845Y4104D02*
G01X24777Y4081D01*
G01X24754Y4081D02*
G01X24777Y4081D01*
G01X24686Y4104D02*
G01X24754Y4081D01*
G01X24640Y4150D02*
G01X24686Y4104D01*
G01X24618Y4218D02*
G01X24640Y4150D01*
G01X24618Y4240D02*
G01X24618Y4218D01*
G01X24640Y4309D02*
G01X24618Y4240D01*
G01X24686Y4354D02*
G01X24640Y4309D01*
G01X24754Y4377D02*
G01X24686Y4354D01*
G01X24777Y4377D02*
G01X24754Y4377D01*
G01X24777Y4377D02*
G01X24845Y4354D01*
G01X24845Y4354D02*
G01X24890Y4309D01*
G01X24890Y4309D02*
G01X24913Y4218D01*
G01X24913Y4218D02*
G01X24913Y4104D01*
G01X24913Y4104D02*
G01X24890Y3990D01*
G01X24890Y3990D02*
G01X24845Y3922D01*
G01X24845Y3922D02*
G01X24777Y3900D01*
G01X24731Y3900D02*
G01X24777Y3900D01*
G01X24663Y3922D02*
G01X24731Y3900D01*
G01X24640Y3968D02*
G01X24663Y3922D01*
G04 draw value for part C19*
G04 Draw part C24*
G04 draw part outline for part C24*
G04 draw reference designator for part C24*
G01X24281Y1590D02*
G01X24259Y1636D01*
G01X24327Y1545D02*
G01X24281Y1590D01*
G01X24372Y1522D02*
G01X24327Y1545D01*
G01X24463Y1522D02*
G01X24372Y1522D01*
G01X24463Y1522D02*
G01X24509Y1545D01*
G01X24509Y1545D02*
G01X24554Y1590D01*
G01X24554Y1590D02*
G01X24577Y1636D01*
G01X24577Y1636D02*
G01X24600Y1704D01*
G01X24600Y1704D02*
G01X24600Y1818D01*
G01X24600Y1818D02*
G01X24577Y1886D01*
G01X24577Y1886D02*
G01X24554Y1931D01*
G01X24554Y1931D02*
G01X24509Y1977D01*
G01X24509Y1977D02*
G01X24463Y2000D01*
G01X24372Y2000D02*
G01X24463Y2000D01*
G01X24327Y1977D02*
G01X24372Y2000D01*
G01X24281Y1931D02*
G01X24327Y1977D01*
G01X24259Y1886D02*
G01X24281Y1931D01*
G01X24054Y1613D02*
G01X24054Y1636D01*
G01X24031Y1568D02*
G01X24054Y1613D01*
G01X24009Y1545D02*
G01X24031Y1568D01*
G01X23963Y1522D02*
G01X24009Y1545D01*
G01X23872Y1522D02*
G01X23963Y1522D01*
G01X23872Y1522D02*
G01X23827Y1545D01*
G01X23827Y1545D02*
G01X23804Y1568D01*
G01X23804Y1568D02*
G01X23781Y1613D01*
G01X23781Y1613D02*
G01X23781Y1659D01*
G01X23781Y1659D02*
G01X23804Y1704D01*
G01X23804Y1704D02*
G01X23850Y1772D01*
G01X23850Y1772D02*
G01X24077Y2000D01*
G01X23759Y2000D02*
G01X24077Y2000D01*
G01X23350Y1522D02*
G01X23577Y1840D01*
G01X23236Y1840D02*
G01X23577Y1840D01*
G01X23350Y1522D02*
G01X23350Y2000D01*
G04 draw value for part C24*
G04 Draw part C23*
G04 draw part outline for part C23*
G04 draw reference designator for part C23*
G01X22590Y3618D02*
G01X22636Y3640D01*
G01X22545Y3572D02*
G01X22590Y3618D01*
G01X22522Y3527D02*
G01X22545Y3572D01*
G01X22522Y3436D02*
G01X22522Y3527D01*
G01X22522Y3436D02*
G01X22545Y3390D01*
G01X22545Y3390D02*
G01X22590Y3345D01*
G01X22590Y3345D02*
G01X22636Y3322D01*
G01X22636Y3322D02*
G01X22704Y3300D01*
G01X22704Y3300D02*
G01X22818Y3300D01*
G01X22818Y3300D02*
G01X22886Y3322D01*
G01X22886Y3322D02*
G01X22931Y3345D01*
G01X22931Y3345D02*
G01X22977Y3390D01*
G01X22977Y3390D02*
G01X23000Y3436D01*
G01X23000Y3527D02*
G01X23000Y3436D01*
G01X22977Y3572D02*
G01X23000Y3527D01*
G01X22931Y3618D02*
G01X22977Y3572D01*
G01X22886Y3640D02*
G01X22931Y3618D01*
G01X22613Y3845D02*
G01X22636Y3845D01*
G01X22568Y3868D02*
G01X22613Y3845D01*
G01X22545Y3890D02*
G01X22568Y3868D01*
G01X22522Y3936D02*
G01X22545Y3890D01*
G01X22522Y4027D02*
G01X22522Y3936D01*
G01X22522Y4027D02*
G01X22545Y4072D01*
G01X22545Y4072D02*
G01X22568Y4095D01*
G01X22568Y4095D02*
G01X22613Y4118D01*
G01X22613Y4118D02*
G01X22659Y4118D01*
G01X22659Y4118D02*
G01X22704Y4095D01*
G01X22704Y4095D02*
G01X22772Y4050D01*
G01X22772Y4050D02*
G01X23000Y3822D01*
G01X23000Y4140D02*
G01X23000Y3822D01*
G01X22522Y4618D02*
G01X22522Y4368D01*
G01X22522Y4618D02*
G01X22704Y4481D01*
G01X22704Y4550D02*
G01X22704Y4481D01*
G01X22704Y4550D02*
G01X22727Y4595D01*
G01X22727Y4595D02*
G01X22750Y4618D01*
G01X22750Y4618D02*
G01X22818Y4640D01*
G01X22818Y4640D02*
G01X22863Y4640D01*
G01X22863Y4640D02*
G01X22931Y4618D01*
G01X22931Y4618D02*
G01X22977Y4572D01*
G01X22977Y4572D02*
G01X23000Y4504D01*
G01X23000Y4436D02*
G01X23000Y4504D01*
G01X22977Y4368D02*
G01X23000Y4436D01*
G01X22954Y4345D02*
G01X22977Y4368D01*
G01X22909Y4322D02*
G01X22954Y4345D01*
G04 draw value for part C23*
G04 Draw part C20*
G04 draw part outline for part C20*
G04 draw reference designator for part C20*
G01X24118Y3359D02*
G01X24140Y3313D01*
G01X24072Y3404D02*
G01X24118Y3359D01*
G01X24027Y3427D02*
G01X24072Y3404D01*
G01X23936Y3427D02*
G01X24027Y3427D01*
G01X23936Y3427D02*
G01X23890Y3404D01*
G01X23890Y3404D02*
G01X23845Y3359D01*
G01X23845Y3359D02*
G01X23822Y3313D01*
G01X23822Y3313D02*
G01X23800Y3245D01*
G01X23800Y3245D02*
G01X23800Y3131D01*
G01X23800Y3131D02*
G01X23822Y3063D01*
G01X23822Y3063D02*
G01X23845Y3018D01*
G01X23845Y3018D02*
G01X23890Y2972D01*
G01X23890Y2972D02*
G01X23936Y2950D01*
G01X24027Y2950D02*
G01X23936Y2950D01*
G01X24072Y2972D02*
G01X24027Y2950D01*
G01X24118Y3018D02*
G01X24072Y2972D01*
G01X24140Y3063D02*
G01X24118Y3018D01*
G01X24345Y3336D02*
G01X24345Y3313D01*
G01X24368Y3381D02*
G01X24345Y3336D01*
G01X24390Y3404D02*
G01X24368Y3381D01*
G01X24436Y3427D02*
G01X24390Y3404D01*
G01X24527Y3427D02*
G01X24436Y3427D01*
G01X24527Y3427D02*
G01X24572Y3404D01*
G01X24572Y3404D02*
G01X24595Y3381D01*
G01X24595Y3381D02*
G01X24618Y3336D01*
G01X24618Y3336D02*
G01X24618Y3290D01*
G01X24618Y3290D02*
G01X24595Y3245D01*
G01X24595Y3245D02*
G01X24550Y3177D01*
G01X24550Y3177D02*
G01X24322Y2950D01*
G01X24640Y2950D02*
G01X24322Y2950D01*
G01X24959Y3427D02*
G01X24890Y3404D01*
G01X24890Y3404D02*
G01X24845Y3336D01*
G01X24845Y3336D02*
G01X24822Y3222D01*
G01X24822Y3222D02*
G01X24822Y3154D01*
G01X24822Y3154D02*
G01X24845Y3040D01*
G01X24845Y3040D02*
G01X24890Y2972D01*
G01X24890Y2972D02*
G01X24959Y2950D01*
G01X25004Y2950D02*
G01X24959Y2950D01*
G01X25072Y2972D02*
G01X25004Y2950D01*
G01X25118Y3040D02*
G01X25072Y2972D01*
G01X25140Y3154D02*
G01X25118Y3040D01*
G01X25140Y3222D02*
G01X25140Y3154D01*
G01X25118Y3336D02*
G01X25140Y3222D01*
G01X25072Y3404D02*
G01X25118Y3336D01*
G01X25004Y3427D02*
G01X25072Y3404D01*
G01X24959Y3427D02*
G01X25004Y3427D01*
G04 draw value for part C20*
G04 Draw part C25*
G04 draw part outline for part C25*
G04 draw reference designator for part C25*
G01X24581Y2390D02*
G01X24559Y2436D01*
G01X24627Y2345D02*
G01X24581Y2390D01*
G01X24672Y2322D02*
G01X24627Y2345D01*
G01X24763Y2322D02*
G01X24672Y2322D01*
G01X24763Y2322D02*
G01X24809Y2345D01*
G01X24809Y2345D02*
G01X24854Y2390D01*
G01X24854Y2390D02*
G01X24877Y2436D01*
G01X24877Y2436D02*
G01X24900Y2504D01*
G01X24900Y2504D02*
G01X24900Y2618D01*
G01X24900Y2618D02*
G01X24877Y2686D01*
G01X24877Y2686D02*
G01X24854Y2731D01*
G01X24854Y2731D02*
G01X24809Y2777D01*
G01X24809Y2777D02*
G01X24763Y2800D01*
G01X24672Y2800D02*
G01X24763Y2800D01*
G01X24627Y2777D02*
G01X24672Y2800D01*
G01X24581Y2731D02*
G01X24627Y2777D01*
G01X24559Y2686D02*
G01X24581Y2731D01*
G01X24354Y2413D02*
G01X24354Y2436D01*
G01X24331Y2368D02*
G01X24354Y2413D01*
G01X24309Y2345D02*
G01X24331Y2368D01*
G01X24263Y2322D02*
G01X24309Y2345D01*
G01X24172Y2322D02*
G01X24263Y2322D01*
G01X24172Y2322D02*
G01X24127Y2345D01*
G01X24127Y2345D02*
G01X24104Y2368D01*
G01X24104Y2368D02*
G01X24081Y2413D01*
G01X24081Y2413D02*
G01X24081Y2459D01*
G01X24081Y2459D02*
G01X24104Y2504D01*
G01X24104Y2504D02*
G01X24150Y2572D01*
G01X24150Y2572D02*
G01X24377Y2800D01*
G01X24059Y2800D02*
G01X24377Y2800D01*
G01X23831Y2322D02*
G01X23604Y2322D01*
G01X23831Y2322D02*
G01X23854Y2527D01*
G01X23831Y2504D02*
G01X23854Y2527D01*
G01X23763Y2481D02*
G01X23831Y2504D01*
G01X23695Y2481D02*
G01X23763Y2481D01*
G01X23695Y2481D02*
G01X23627Y2504D01*
G01X23627Y2504D02*
G01X23581Y2550D01*
G01X23581Y2550D02*
G01X23559Y2618D01*
G01X23559Y2618D02*
G01X23559Y2663D01*
G01X23559Y2663D02*
G01X23581Y2731D01*
G01X23581Y2731D02*
G01X23627Y2777D01*
G01X23627Y2777D02*
G01X23695Y2800D01*
G01X23763Y2800D02*
G01X23695Y2800D01*
G01X23831Y2777D02*
G01X23763Y2800D01*
G01X23854Y2754D02*
G01X23831Y2777D01*
G01X23877Y2709D02*
G01X23854Y2754D01*
G04 draw value for part C25*
G04 Draw part C18*
G04 draw part outline for part C18*
G04 draw reference designator for part C18*
G01X24209Y4581D02*
G01X24163Y4559D01*
G01X24254Y4627D02*
G01X24209Y4581D01*
G01X24277Y4672D02*
G01X24254Y4627D01*
G01X24277Y4763D02*
G01X24277Y4672D01*
G01X24277Y4763D02*
G01X24254Y4809D01*
G01X24254Y4809D02*
G01X24209Y4854D01*
G01X24209Y4854D02*
G01X24163Y4877D01*
G01X24163Y4877D02*
G01X24095Y4900D01*
G01X24095Y4900D02*
G01X23981Y4900D01*
G01X23981Y4900D02*
G01X23913Y4877D01*
G01X23913Y4877D02*
G01X23868Y4854D01*
G01X23868Y4854D02*
G01X23822Y4809D01*
G01X23822Y4809D02*
G01X23800Y4763D01*
G01X23800Y4672D02*
G01X23800Y4763D01*
G01X23822Y4627D02*
G01X23800Y4672D01*
G01X23868Y4581D02*
G01X23822Y4627D01*
G01X23913Y4559D02*
G01X23868Y4581D01*
G01X24209Y4331D02*
G01X24186Y4377D01*
G01X24277Y4263D02*
G01X24209Y4331D01*
G01X24277Y4263D02*
G01X23800Y4263D01*
G01X24277Y3968D02*
G01X24254Y4036D01*
G01X24254Y4036D02*
G01X24209Y4059D01*
G01X24209Y4059D02*
G01X24163Y4059D01*
G01X24163Y4059D02*
G01X24118Y4036D01*
G01X24118Y4036D02*
G01X24095Y3990D01*
G01X24095Y3990D02*
G01X24072Y3900D01*
G01X24072Y3900D02*
G01X24050Y3831D01*
G01X24050Y3831D02*
G01X24004Y3786D01*
G01X24004Y3786D02*
G01X23959Y3763D01*
G01X23959Y3763D02*
G01X23890Y3763D01*
G01X23890Y3763D02*
G01X23845Y3786D01*
G01X23845Y3786D02*
G01X23822Y3809D01*
G01X23822Y3809D02*
G01X23800Y3877D01*
G01X23800Y3968D02*
G01X23800Y3877D01*
G01X23822Y4036D02*
G01X23800Y3968D01*
G01X23845Y4059D02*
G01X23822Y4036D01*
G01X23890Y4081D02*
G01X23845Y4059D01*
G01X23959Y4081D02*
G01X23890Y4081D01*
G01X24004Y4059D02*
G01X23959Y4081D01*
G01X24050Y4013D02*
G01X24004Y4059D01*
G01X24072Y3945D02*
G01X24050Y4013D01*
G01X24095Y3854D02*
G01X24072Y3945D01*
G01X24118Y3809D02*
G01X24095Y3854D01*
G01X24163Y3786D02*
G01X24118Y3809D01*
G01X24209Y3786D02*
G01X24163Y3786D01*
G01X24254Y3809D02*
G01X24209Y3786D01*
G01X24277Y3877D02*
G01X24254Y3809D01*
G01X24277Y3968D02*
G01X24277Y3877D01*
G04 draw value for part C18*
G04 Draw part C28*
G04 draw part outline for part C28*
G04 draw reference designator for part C28*
G01X27409Y3081D02*
G01X27363Y3059D01*
G01X27454Y3127D02*
G01X27409Y3081D01*
G01X27477Y3172D02*
G01X27454Y3127D01*
G01X27477Y3263D02*
G01X27477Y3172D01*
G01X27477Y3263D02*
G01X27454Y3309D01*
G01X27454Y3309D02*
G01X27409Y3354D01*
G01X27409Y3354D02*
G01X27363Y3377D01*
G01X27363Y3377D02*
G01X27295Y3400D01*
G01X27295Y3400D02*
G01X27181Y3400D01*
G01X27181Y3400D02*
G01X27113Y3377D01*
G01X27113Y3377D02*
G01X27068Y3354D01*
G01X27068Y3354D02*
G01X27022Y3309D01*
G01X27022Y3309D02*
G01X27000Y3263D01*
G01X27000Y3172D02*
G01X27000Y3263D01*
G01X27022Y3127D02*
G01X27000Y3172D01*
G01X27068Y3081D02*
G01X27022Y3127D01*
G01X27113Y3059D02*
G01X27068Y3081D01*
G01X27386Y2854D02*
G01X27363Y2854D01*
G01X27431Y2831D02*
G01X27386Y2854D01*
G01X27454Y2809D02*
G01X27431Y2831D01*
G01X27477Y2763D02*
G01X27454Y2809D01*
G01X27477Y2672D02*
G01X27477Y2763D01*
G01X27477Y2672D02*
G01X27454Y2627D01*
G01X27454Y2627D02*
G01X27431Y2604D01*
G01X27431Y2604D02*
G01X27386Y2581D01*
G01X27386Y2581D02*
G01X27340Y2581D01*
G01X27340Y2581D02*
G01X27295Y2604D01*
G01X27295Y2604D02*
G01X27227Y2650D01*
G01X27227Y2650D02*
G01X27000Y2877D01*
G01X27000Y2559D02*
G01X27000Y2877D01*
G01X27477Y2263D02*
G01X27454Y2331D01*
G01X27454Y2331D02*
G01X27409Y2354D01*
G01X27409Y2354D02*
G01X27363Y2354D01*
G01X27363Y2354D02*
G01X27318Y2331D01*
G01X27318Y2331D02*
G01X27295Y2286D01*
G01X27295Y2286D02*
G01X27272Y2195D01*
G01X27272Y2195D02*
G01X27250Y2127D01*
G01X27250Y2127D02*
G01X27204Y2081D01*
G01X27204Y2081D02*
G01X27159Y2059D01*
G01X27159Y2059D02*
G01X27090Y2059D01*
G01X27090Y2059D02*
G01X27045Y2081D01*
G01X27045Y2081D02*
G01X27022Y2104D01*
G01X27022Y2104D02*
G01X27000Y2172D01*
G01X27000Y2263D02*
G01X27000Y2172D01*
G01X27022Y2331D02*
G01X27000Y2263D01*
G01X27045Y2354D02*
G01X27022Y2331D01*
G01X27090Y2377D02*
G01X27045Y2354D01*
G01X27159Y2377D02*
G01X27090Y2377D01*
G01X27204Y2354D02*
G01X27159Y2377D01*
G01X27250Y2309D02*
G01X27204Y2354D01*
G01X27272Y2240D02*
G01X27250Y2309D01*
G01X27295Y2150D02*
G01X27272Y2240D01*
G01X27318Y2104D02*
G01X27295Y2150D01*
G01X27363Y2081D02*
G01X27318Y2104D01*
G01X27409Y2081D02*
G01X27363Y2081D01*
G01X27454Y2104D02*
G01X27409Y2081D01*
G01X27477Y2172D02*
G01X27454Y2104D01*
G01X27477Y2263D02*
G01X27477Y2172D01*
G04 draw value for part C28*
G04 Draw part C17*
G04 draw part outline for part C17*
G54D11*
G01X19892Y2948D02*
G01X19892Y1861D01*
G01X19892Y1861D02*
G01X20507Y1861D01*
G01X20507Y1861D02*
G01X20507Y2948D01*
G01X20507Y2948D02*
G01X19892Y2948D01*
G04 draw reference designator for part C17*
G54D10*
G01X20909Y581D02*
G01X20863Y559D01*
G01X20954Y627D02*
G01X20909Y581D01*
G01X20977Y672D02*
G01X20954Y627D01*
G01X20977Y763D02*
G01X20977Y672D01*
G01X20977Y763D02*
G01X20954Y809D01*
G01X20954Y809D02*
G01X20909Y854D01*
G01X20909Y854D02*
G01X20863Y877D01*
G01X20863Y877D02*
G01X20795Y900D01*
G01X20795Y900D02*
G01X20681Y900D01*
G01X20681Y900D02*
G01X20613Y877D01*
G01X20613Y877D02*
G01X20568Y854D01*
G01X20568Y854D02*
G01X20522Y809D01*
G01X20522Y809D02*
G01X20500Y763D01*
G01X20500Y672D02*
G01X20500Y763D01*
G01X20522Y627D02*
G01X20500Y672D01*
G01X20568Y581D02*
G01X20522Y627D01*
G01X20613Y559D02*
G01X20568Y581D01*
G01X20909Y331D02*
G01X20886Y377D01*
G01X20977Y263D02*
G01X20909Y331D01*
G01X20977Y263D02*
G01X20500Y263D01*
G01X20977Y-236D02*
G01X20500Y-9D01*
G01X20977Y-236D02*
G01X20977Y81D01*
G04 draw value for part C17*
G04 Draw part C30*
G04 draw part outline for part C30*
G04 draw reference designator for part C30*
G01X13690Y5418D02*
G01X13736Y5440D01*
G01X13645Y5372D02*
G01X13690Y5418D01*
G01X13622Y5327D02*
G01X13645Y5372D01*
G01X13622Y5236D02*
G01X13622Y5327D01*
G01X13622Y5236D02*
G01X13645Y5190D01*
G01X13645Y5190D02*
G01X13690Y5145D01*
G01X13690Y5145D02*
G01X13736Y5122D01*
G01X13736Y5122D02*
G01X13804Y5100D01*
G01X13804Y5100D02*
G01X13918Y5100D01*
G01X13918Y5100D02*
G01X13986Y5122D01*
G01X13986Y5122D02*
G01X14031Y5145D01*
G01X14031Y5145D02*
G01X14077Y5190D01*
G01X14077Y5190D02*
G01X14100Y5236D01*
G01X14100Y5327D02*
G01X14100Y5236D01*
G01X14077Y5372D02*
G01X14100Y5327D01*
G01X14031Y5418D02*
G01X14077Y5372D01*
G01X13986Y5440D02*
G01X14031Y5418D01*
G01X13622Y5918D02*
G01X13622Y5668D01*
G01X13622Y5918D02*
G01X13804Y5781D01*
G01X13804Y5850D02*
G01X13804Y5781D01*
G01X13804Y5850D02*
G01X13827Y5895D01*
G01X13827Y5895D02*
G01X13850Y5918D01*
G01X13850Y5918D02*
G01X13918Y5940D01*
G01X13918Y5940D02*
G01X13963Y5940D01*
G01X13963Y5940D02*
G01X14031Y5918D01*
G01X14031Y5918D02*
G01X14077Y5872D01*
G01X14077Y5872D02*
G01X14100Y5804D01*
G01X14100Y5736D02*
G01X14100Y5804D01*
G01X14077Y5668D02*
G01X14100Y5736D01*
G01X14054Y5645D02*
G01X14077Y5668D01*
G01X14009Y5622D02*
G01X14054Y5645D01*
G01X13622Y6259D02*
G01X13645Y6190D01*
G01X13645Y6190D02*
G01X13713Y6145D01*
G01X13713Y6145D02*
G01X13827Y6122D01*
G01X13827Y6122D02*
G01X13895Y6122D01*
G01X13895Y6122D02*
G01X14009Y6145D01*
G01X14009Y6145D02*
G01X14077Y6190D01*
G01X14077Y6190D02*
G01X14100Y6259D01*
G01X14100Y6304D02*
G01X14100Y6259D01*
G01X14077Y6372D02*
G01X14100Y6304D01*
G01X14009Y6418D02*
G01X14077Y6372D01*
G01X13895Y6440D02*
G01X14009Y6418D01*
G01X13827Y6440D02*
G01X13895Y6440D01*
G01X13713Y6418D02*
G01X13827Y6440D01*
G01X13645Y6372D02*
G01X13713Y6418D01*
G01X13622Y6304D02*
G01X13645Y6372D01*
G01X13622Y6259D02*
G01X13622Y6304D01*
G04 draw value for part C30*
G04 Draw part R23*
G04 draw part outline for part R23*
G04 draw reference designator for part R23*
G01X11300Y1122D02*
G01X11300Y1600D01*
G01X11095Y1122D02*
G01X11300Y1122D01*
G01X11095Y1122D02*
G01X11027Y1145D01*
G01X11027Y1145D02*
G01X11004Y1168D01*
G01X11004Y1168D02*
G01X10981Y1213D01*
G01X10981Y1213D02*
G01X10981Y1259D01*
G01X10981Y1259D02*
G01X11004Y1304D01*
G01X11004Y1304D02*
G01X11027Y1327D01*
G01X11027Y1327D02*
G01X11095Y1350D01*
G01X11300Y1350D02*
G01X11095Y1350D01*
G01X11140Y1350D02*
G01X10981Y1600D01*
G01X10777Y1213D02*
G01X10777Y1236D01*
G01X10754Y1168D02*
G01X10777Y1213D01*
G01X10731Y1145D02*
G01X10754Y1168D01*
G01X10686Y1122D02*
G01X10731Y1145D01*
G01X10595Y1122D02*
G01X10686Y1122D01*
G01X10595Y1122D02*
G01X10550Y1145D01*
G01X10550Y1145D02*
G01X10527Y1168D01*
G01X10527Y1168D02*
G01X10504Y1213D01*
G01X10504Y1213D02*
G01X10504Y1259D01*
G01X10504Y1259D02*
G01X10527Y1304D01*
G01X10527Y1304D02*
G01X10572Y1372D01*
G01X10572Y1372D02*
G01X10800Y1600D01*
G01X10481Y1600D02*
G01X10800Y1600D01*
G01X10004Y1122D02*
G01X10254Y1122D01*
G01X10004Y1122D02*
G01X10140Y1304D01*
G01X10072Y1304D02*
G01X10140Y1304D01*
G01X10072Y1304D02*
G01X10027Y1327D01*
G01X10027Y1327D02*
G01X10004Y1350D01*
G01X10004Y1350D02*
G01X9981Y1418D01*
G01X9981Y1418D02*
G01X9981Y1463D01*
G01X9981Y1463D02*
G01X10004Y1531D01*
G01X10004Y1531D02*
G01X10050Y1577D01*
G01X10050Y1577D02*
G01X10118Y1600D01*
G01X10186Y1600D02*
G01X10118Y1600D01*
G01X10254Y1577D02*
G01X10186Y1600D01*
G01X10277Y1554D02*
G01X10254Y1577D01*
G01X10300Y1509D02*
G01X10277Y1554D01*
G04 draw value for part R23*
G04 Draw part C1*
G04 draw part outline for part C1*
G04 draw reference designator for part C1*
G01X10818Y3509D02*
G01X10840Y3463D01*
G01X10772Y3554D02*
G01X10818Y3509D01*
G01X10727Y3577D02*
G01X10772Y3554D01*
G01X10636Y3577D02*
G01X10727Y3577D01*
G01X10636Y3577D02*
G01X10590Y3554D01*
G01X10590Y3554D02*
G01X10545Y3509D01*
G01X10545Y3509D02*
G01X10522Y3463D01*
G01X10522Y3463D02*
G01X10500Y3395D01*
G01X10500Y3395D02*
G01X10500Y3281D01*
G01X10500Y3281D02*
G01X10522Y3213D01*
G01X10522Y3213D02*
G01X10545Y3168D01*
G01X10545Y3168D02*
G01X10590Y3122D01*
G01X10590Y3122D02*
G01X10636Y3100D01*
G01X10727Y3100D02*
G01X10636Y3100D01*
G01X10772Y3122D02*
G01X10727Y3100D01*
G01X10818Y3168D02*
G01X10772Y3122D01*
G01X10840Y3213D02*
G01X10818Y3168D01*
G01X11068Y3509D02*
G01X11022Y3486D01*
G01X11136Y3577D02*
G01X11068Y3509D01*
G01X11136Y3577D02*
G01X11136Y3100D01*
G04 draw value for part C1*
G04 Draw part D1*
G04 draw part outline for part D1*
G54D11*
G01X11748Y6607D02*
G01X10661Y6607D01*
G01X10661Y6607D02*
G01X10661Y5992D01*
G01X10661Y5992D02*
G01X11748Y5992D01*
G01X11748Y5992D02*
G01X11748Y6607D01*
G04 draw reference designator for part D1*
G54D10*
G01X10500Y4822D02*
G01X10500Y5300D01*
G01X10340Y4822D02*
G01X10500Y4822D01*
G01X10340Y4822D02*
G01X10272Y4845D01*
G01X10272Y4845D02*
G01X10227Y4890D01*
G01X10227Y4890D02*
G01X10204Y4936D01*
G01X10204Y4936D02*
G01X10181Y5004D01*
G01X10181Y5004D02*
G01X10181Y5118D01*
G01X10181Y5118D02*
G01X10204Y5186D01*
G01X10204Y5186D02*
G01X10227Y5231D01*
G01X10227Y5231D02*
G01X10272Y5277D01*
G01X10272Y5277D02*
G01X10340Y5300D01*
G01X10500Y5300D02*
G01X10340Y5300D01*
G01X9954Y4890D02*
G01X10000Y4913D01*
G01X9886Y4822D02*
G01X9954Y4890D01*
G01X9886Y4822D02*
G01X9886Y5300D01*
G04 draw value for part D1*
G04 Draw part D2*
G04 draw part outline for part D2*
G54D11*
G01X4692Y3148D02*
G01X4692Y2061D01*
G01X4692Y2061D02*
G01X5307Y2061D01*
G01X5307Y2061D02*
G01X5307Y3148D01*
G01X5307Y3148D02*
G01X4692Y3148D01*
G04 draw reference designator for part D2*
G54D10*
G01X6477Y1900D02*
G01X6000Y1900D01*
G01X6477Y1740D02*
G01X6477Y1900D01*
G01X6477Y1740D02*
G01X6454Y1672D01*
G01X6454Y1672D02*
G01X6409Y1627D01*
G01X6409Y1627D02*
G01X6363Y1604D01*
G01X6363Y1604D02*
G01X6295Y1581D01*
G01X6295Y1581D02*
G01X6181Y1581D01*
G01X6181Y1581D02*
G01X6113Y1604D01*
G01X6113Y1604D02*
G01X6068Y1627D01*
G01X6068Y1627D02*
G01X6022Y1672D01*
G01X6022Y1672D02*
G01X6000Y1740D01*
G01X6000Y1900D02*
G01X6000Y1740D01*
G01X6386Y1377D02*
G01X6363Y1377D01*
G01X6431Y1354D02*
G01X6386Y1377D01*
G01X6454Y1331D02*
G01X6431Y1354D01*
G01X6477Y1286D02*
G01X6454Y1331D01*
G01X6477Y1195D02*
G01X6477Y1286D01*
G01X6477Y1195D02*
G01X6454Y1150D01*
G01X6454Y1150D02*
G01X6431Y1127D01*
G01X6431Y1127D02*
G01X6386Y1104D01*
G01X6386Y1104D02*
G01X6340Y1104D01*
G01X6340Y1104D02*
G01X6295Y1127D01*
G01X6295Y1127D02*
G01X6227Y1172D01*
G01X6227Y1172D02*
G01X6000Y1400D01*
G01X6000Y1081D02*
G01X6000Y1400D01*
G04 draw value for part D2*
G04 Draw part B1*
G04 draw part outline for part B1*
G54D11*
G01X5570Y470D02*
G01X7430Y470D01*
G01X7430Y470D02*
G01X7430Y1330D01*
G01X7430Y1330D02*
G01X5570Y1330D01*
G01X5570Y1330D02*
G01X5570Y470D01*
G04 draw reference designator for part B1*
G54D10*
G01X6250Y1377D02*
G01X6250Y900D01*
G01X6454Y1377D02*
G01X6250Y1377D01*
G01X6454Y1377D02*
G01X6522Y1354D01*
G01X6522Y1354D02*
G01X6545Y1331D01*
G01X6545Y1331D02*
G01X6568Y1286D01*
G01X6568Y1286D02*
G01X6568Y1240D01*
G01X6568Y1240D02*
G01X6545Y1195D01*
G01X6545Y1195D02*
G01X6522Y1172D01*
G01X6522Y1172D02*
G01X6454Y1150D01*
G01X6454Y1150D02*
G01X6250Y1150D01*
G01X6454Y1150D02*
G01X6522Y1127D01*
G01X6522Y1127D02*
G01X6545Y1104D01*
G01X6545Y1104D02*
G01X6568Y1059D01*
G01X6568Y1059D02*
G01X6568Y990D01*
G01X6568Y990D02*
G01X6545Y945D01*
G01X6545Y945D02*
G01X6522Y922D01*
G01X6522Y922D02*
G01X6454Y900D01*
G01X6250Y900D02*
G01X6454Y900D01*
G01X6795Y1309D02*
G01X6750Y1286D01*
G01X6863Y1377D02*
G01X6795Y1309D01*
G01X6863Y1377D02*
G01X6863Y900D01*
G04 draw value for part B1*
G04 Draw part D10*
G04 draw part outline for part D10*
G54D11*
G01X292Y3048D02*
G01X292Y1961D01*
G01X292Y1961D02*
G01X907Y1961D01*
G01X907Y1961D02*
G01X907Y3048D01*
G01X907Y3048D02*
G01X292Y3048D01*
G04 draw reference designator for part D10*
G54D10*
G01X2077Y1800D02*
G01X1600Y1800D01*
G01X2077Y1640D02*
G01X2077Y1800D01*
G01X2077Y1640D02*
G01X2054Y1572D01*
G01X2054Y1572D02*
G01X2009Y1527D01*
G01X2009Y1527D02*
G01X1963Y1504D01*
G01X1963Y1504D02*
G01X1895Y1481D01*
G01X1895Y1481D02*
G01X1781Y1481D01*
G01X1781Y1481D02*
G01X1713Y1504D01*
G01X1713Y1504D02*
G01X1668Y1527D01*
G01X1668Y1527D02*
G01X1622Y1572D01*
G01X1622Y1572D02*
G01X1600Y1640D01*
G01X1600Y1800D02*
G01X1600Y1640D01*
G01X2009Y1254D02*
G01X1986Y1300D01*
G01X2077Y1186D02*
G01X2009Y1254D01*
G01X2077Y1186D02*
G01X1600Y1186D01*
G01X2077Y868D02*
G01X2054Y936D01*
G01X2054Y936D02*
G01X1986Y981D01*
G01X1986Y981D02*
G01X1872Y1004D01*
G01X1872Y1004D02*
G01X1804Y1004D01*
G01X1804Y1004D02*
G01X1690Y981D01*
G01X1690Y981D02*
G01X1622Y936D01*
G01X1622Y936D02*
G01X1600Y868D01*
G01X1600Y822D02*
G01X1600Y868D01*
G01X1622Y754D02*
G01X1600Y822D01*
G01X1690Y709D02*
G01X1622Y754D01*
G01X1804Y686D02*
G01X1690Y709D01*
G01X1872Y686D02*
G01X1804Y686D01*
G01X1986Y709D02*
G01X1872Y686D01*
G01X2054Y754D02*
G01X1986Y709D01*
G01X2077Y822D02*
G01X2054Y754D01*
G01X2077Y868D02*
G01X2077Y822D01*
G04 draw value for part D10*
G04 Draw part SW1*
G04 draw part outline for part SW1*
G04 draw reference designator for part SW1*
G54D12*
G01X7545Y6709D02*
G01X7636Y6618D01*
G01X7409Y6754D02*
G01X7545Y6709D01*
G01X7227Y6754D02*
G01X7409Y6754D01*
G01X7227Y6754D02*
G01X7090Y6709D01*
G01X7090Y6709D02*
G01X7000Y6618D01*
G01X7000Y6618D02*
G01X7000Y6527D01*
G01X7000Y6527D02*
G01X7045Y6436D01*
G01X7045Y6436D02*
G01X7090Y6390D01*
G01X7090Y6390D02*
G01X7181Y6345D01*
G01X7181Y6345D02*
G01X7454Y6254D01*
G01X7454Y6254D02*
G01X7545Y6209D01*
G01X7545Y6209D02*
G01X7590Y6163D01*
G01X7590Y6163D02*
G01X7636Y6072D01*
G01X7636Y6072D02*
G01X7636Y5936D01*
G01X7636Y5936D02*
G01X7545Y5845D01*
G01X7545Y5845D02*
G01X7409Y5800D01*
G01X7227Y5800D02*
G01X7409Y5800D01*
G01X7090Y5845D02*
G01X7227Y5800D01*
G01X7000Y5936D02*
G01X7090Y5845D01*
G01X8000Y6754D02*
G01X8227Y5800D01*
G01X8454Y6754D02*
G01X8227Y5800D01*
G01X8454Y6754D02*
G01X8681Y5800D01*
G01X8909Y6754D02*
G01X8681Y5800D01*
G01X9363Y6618D02*
G01X9272Y6572D01*
G01X9500Y6754D02*
G01X9363Y6618D01*
G01X9500Y6754D02*
G01X9500Y5800D01*
G04 draw value for part SW1*
G04 Draw part U4*
G04 draw part outline for part U4*
G04 draw reference designator for part U4*
G54D10*
G01X9100Y10877D02*
G01X9100Y10536D01*
G01X9100Y10536D02*
G01X9122Y10468D01*
G01X9122Y10468D02*
G01X9168Y10422D01*
G01X9168Y10422D02*
G01X9236Y10400D01*
G01X9281Y10400D02*
G01X9236Y10400D01*
G01X9350Y10422D02*
G01X9281Y10400D01*
G01X9395Y10468D02*
G01X9350Y10422D01*
G01X9418Y10536D02*
G01X9395Y10468D01*
G01X9418Y10877D02*
G01X9418Y10536D01*
G01X9827Y10877D02*
G01X9600Y10559D01*
G01X9940Y10559D02*
G01X9600Y10559D01*
G01X9827Y10877D02*
G01X9827Y10400D01*
G04 draw value for part U4*
G04 Draw part PT2*
G04 draw part outline for part PT2*
G54D11*
G01X2100Y10300D02*
G01X3500Y11700D01*
G01X3500Y11700D02*
G01X2800Y12400D01*
G01X2800Y12400D02*
G01X1400Y11000D01*
G01X1400Y11000D02*
G01X2100Y10300D01*
G04 draw reference designator for part PT2*
G54D10*
G01X2350Y11477D02*
G01X2350Y11000D01*
G01X2554Y11477D02*
G01X2350Y11477D01*
G01X2554Y11477D02*
G01X2622Y11454D01*
G01X2622Y11454D02*
G01X2645Y11431D01*
G01X2645Y11431D02*
G01X2668Y11386D01*
G01X2668Y11386D02*
G01X2668Y11318D01*
G01X2668Y11318D02*
G01X2645Y11272D01*
G01X2645Y11272D02*
G01X2622Y11250D01*
G01X2622Y11250D02*
G01X2554Y11227D01*
G01X2350Y11227D02*
G01X2554Y11227D01*
G01X3009Y11477D02*
G01X3009Y11000D01*
G01X3168Y11477D02*
G01X2850Y11477D01*
G01X3372Y11386D02*
G01X3372Y11363D01*
G01X3395Y11431D02*
G01X3372Y11386D01*
G01X3418Y11454D02*
G01X3395Y11431D01*
G01X3463Y11477D02*
G01X3418Y11454D01*
G01X3554Y11477D02*
G01X3463Y11477D01*
G01X3554Y11477D02*
G01X3600Y11454D01*
G01X3600Y11454D02*
G01X3622Y11431D01*
G01X3622Y11431D02*
G01X3645Y11386D01*
G01X3645Y11386D02*
G01X3645Y11340D01*
G01X3645Y11340D02*
G01X3622Y11295D01*
G01X3622Y11295D02*
G01X3577Y11227D01*
G01X3577Y11227D02*
G01X3350Y11000D01*
G01X3668Y11000D02*
G01X3350Y11000D01*
G04 draw value for part PT2*
G04 Draw part U5*
G04 draw part outline for part U5*
G54D12*
G01X13945Y9190D02*
G01X13900Y9145D01*
G01X13900Y9145D02*
G01X13945Y9100D01*
G01X13990Y9145D02*
G01X13945Y9100D01*
G01X13945Y9190D02*
G01X13990Y9145D01*
G04 draw reference designator for part U5*
G54D10*
G01X17400Y9777D02*
G01X17400Y9436D01*
G01X17400Y9436D02*
G01X17422Y9368D01*
G01X17422Y9368D02*
G01X17468Y9322D01*
G01X17468Y9322D02*
G01X17536Y9300D01*
G01X17581Y9300D02*
G01X17536Y9300D01*
G01X17650Y9322D02*
G01X17581Y9300D01*
G01X17695Y9368D02*
G01X17650Y9322D01*
G01X17718Y9436D02*
G01X17695Y9368D01*
G01X17718Y9777D02*
G01X17718Y9436D01*
G01X17945Y9777D02*
G01X18172Y9777D01*
G01X17945Y9777D02*
G01X17922Y9572D01*
G01X17945Y9595D02*
G01X17922Y9572D01*
G01X18013Y9618D02*
G01X17945Y9595D01*
G01X18081Y9618D02*
G01X18013Y9618D01*
G01X18081Y9618D02*
G01X18150Y9595D01*
G01X18150Y9595D02*
G01X18195Y9550D01*
G01X18195Y9550D02*
G01X18218Y9481D01*
G01X18218Y9481D02*
G01X18218Y9436D01*
G01X18218Y9436D02*
G01X18195Y9368D01*
G01X18195Y9368D02*
G01X18150Y9322D01*
G01X18150Y9322D02*
G01X18081Y9300D01*
G01X18013Y9300D02*
G01X18081Y9300D01*
G01X17945Y9322D02*
G01X18013Y9300D01*
G01X17922Y9345D02*
G01X17945Y9322D01*
G01X17900Y9390D02*
G01X17922Y9345D01*
G04 draw value for part U5*
G04 Draw part D6*
G04 draw part outline for part D6*
G54D11*
G01X22951Y9692D02*
G01X24038Y9692D01*
G01X24038Y9692D02*
G01X24038Y10307D01*
G01X24038Y10307D02*
G01X22951Y10307D01*
G01X22951Y10307D02*
G01X22951Y9692D01*
G04 draw reference designator for part D6*
G54D10*
G01X24200Y11477D02*
G01X24200Y11000D01*
G01X24359Y11477D02*
G01X24200Y11477D01*
G01X24359Y11477D02*
G01X24427Y11454D01*
G01X24427Y11454D02*
G01X24472Y11409D01*
G01X24472Y11409D02*
G01X24495Y11363D01*
G01X24495Y11363D02*
G01X24518Y11295D01*
G01X24518Y11295D02*
G01X24518Y11181D01*
G01X24518Y11181D02*
G01X24495Y11113D01*
G01X24495Y11113D02*
G01X24472Y11068D01*
G01X24472Y11068D02*
G01X24427Y11022D01*
G01X24427Y11022D02*
G01X24359Y11000D01*
G01X24200Y11000D02*
G01X24359Y11000D01*
G01X24950Y11454D02*
G01X24972Y11409D01*
G01X24881Y11477D02*
G01X24950Y11454D01*
G01X24836Y11477D02*
G01X24881Y11477D01*
G01X24836Y11477D02*
G01X24768Y11454D01*
G01X24768Y11454D02*
G01X24722Y11386D01*
G01X24722Y11386D02*
G01X24700Y11272D01*
G01X24700Y11272D02*
G01X24700Y11159D01*
G01X24700Y11159D02*
G01X24722Y11068D01*
G01X24722Y11068D02*
G01X24768Y11022D01*
G01X24768Y11022D02*
G01X24836Y11000D01*
G01X24859Y11000D02*
G01X24836Y11000D01*
G01X24927Y11022D02*
G01X24859Y11000D01*
G01X24972Y11068D02*
G01X24927Y11022D01*
G01X24995Y11136D02*
G01X24972Y11068D01*
G01X24995Y11159D02*
G01X24995Y11136D01*
G01X24972Y11227D02*
G01X24995Y11159D01*
G01X24927Y11272D02*
G01X24972Y11227D01*
G01X24859Y11295D02*
G01X24927Y11272D01*
G01X24836Y11295D02*
G01X24859Y11295D01*
G01X24836Y11295D02*
G01X24768Y11272D01*
G01X24768Y11272D02*
G01X24722Y11227D01*
G01X24722Y11227D02*
G01X24700Y11159D01*
G04 draw value for part D6*
G04 Draw part D7*
G04 draw part outline for part D7*
G54D11*
G01X22951Y8892D02*
G01X24038Y8892D01*
G01X24038Y8892D02*
G01X24038Y9507D01*
G01X24038Y9507D02*
G01X22951Y9507D01*
G01X22951Y9507D02*
G01X22951Y8892D01*
G04 draw reference designator for part D7*
G54D10*
G01X24200Y10677D02*
G01X24200Y10200D01*
G01X24359Y10677D02*
G01X24200Y10677D01*
G01X24359Y10677D02*
G01X24427Y10654D01*
G01X24427Y10654D02*
G01X24472Y10609D01*
G01X24472Y10609D02*
G01X24495Y10563D01*
G01X24495Y10563D02*
G01X24518Y10495D01*
G01X24518Y10495D02*
G01X24518Y10381D01*
G01X24518Y10381D02*
G01X24495Y10313D01*
G01X24495Y10313D02*
G01X24472Y10268D01*
G01X24472Y10268D02*
G01X24427Y10222D01*
G01X24427Y10222D02*
G01X24359Y10200D01*
G01X24200Y10200D02*
G01X24359Y10200D01*
G01X25018Y10677D02*
G01X24790Y10200D01*
G01X25018Y10677D02*
G01X24700Y10677D01*
G04 draw value for part D7*
G04 Draw part D8*
G04 draw part outline for part D8*
G54D11*
G01X22951Y8092D02*
G01X24038Y8092D01*
G01X24038Y8092D02*
G01X24038Y8707D01*
G01X24038Y8707D02*
G01X22951Y8707D01*
G01X22951Y8707D02*
G01X22951Y8092D01*
G04 draw reference designator for part D8*
G54D10*
G01X24200Y9877D02*
G01X24200Y9400D01*
G01X24359Y9877D02*
G01X24200Y9877D01*
G01X24359Y9877D02*
G01X24427Y9854D01*
G01X24427Y9854D02*
G01X24472Y9809D01*
G01X24472Y9809D02*
G01X24495Y9763D01*
G01X24495Y9763D02*
G01X24518Y9695D01*
G01X24518Y9695D02*
G01X24518Y9581D01*
G01X24518Y9581D02*
G01X24495Y9513D01*
G01X24495Y9513D02*
G01X24472Y9468D01*
G01X24472Y9468D02*
G01X24427Y9422D01*
G01X24427Y9422D02*
G01X24359Y9400D01*
G01X24200Y9400D02*
G01X24359Y9400D01*
G01X24813Y9877D02*
G01X24745Y9854D01*
G01X24745Y9854D02*
G01X24722Y9809D01*
G01X24722Y9809D02*
G01X24722Y9763D01*
G01X24722Y9763D02*
G01X24745Y9718D01*
G01X24745Y9718D02*
G01X24790Y9695D01*
G01X24790Y9695D02*
G01X24881Y9672D01*
G01X24881Y9672D02*
G01X24950Y9650D01*
G01X24950Y9650D02*
G01X24995Y9604D01*
G01X24995Y9604D02*
G01X25018Y9559D01*
G01X25018Y9559D02*
G01X25018Y9490D01*
G01X25018Y9490D02*
G01X24995Y9445D01*
G01X24995Y9445D02*
G01X24972Y9422D01*
G01X24972Y9422D02*
G01X24904Y9400D01*
G01X24813Y9400D02*
G01X24904Y9400D01*
G01X24745Y9422D02*
G01X24813Y9400D01*
G01X24722Y9445D02*
G01X24745Y9422D01*
G01X24700Y9490D02*
G01X24722Y9445D01*
G01X24700Y9559D02*
G01X24700Y9490D01*
G01X24722Y9604D02*
G01X24700Y9559D01*
G01X24768Y9650D02*
G01X24722Y9604D01*
G01X24836Y9672D02*
G01X24768Y9650D01*
G01X24927Y9695D02*
G01X24836Y9672D01*
G01X24972Y9718D02*
G01X24927Y9695D01*
G01X24995Y9763D02*
G01X24972Y9718D01*
G01X24995Y9809D02*
G01X24995Y9763D01*
G01X24972Y9854D02*
G01X24995Y9809D01*
G01X24904Y9877D02*
G01X24972Y9854D01*
G01X24813Y9877D02*
G01X24904Y9877D01*
G04 draw value for part D8*
G04 Draw part D9*
G04 draw part outline for part D9*
G54D11*
G01X24148Y7607D02*
G01X23061Y7607D01*
G01X23061Y7607D02*
G01X23061Y6992D01*
G01X23061Y6992D02*
G01X24148Y6992D01*
G01X24148Y6992D02*
G01X24148Y7607D01*
G04 draw reference designator for part D9*
G54D10*
G01X22900Y5822D02*
G01X22900Y6300D01*
G01X22740Y5822D02*
G01X22900Y5822D01*
G01X22740Y5822D02*
G01X22672Y5845D01*
G01X22672Y5845D02*
G01X22627Y5890D01*
G01X22627Y5890D02*
G01X22604Y5936D01*
G01X22604Y5936D02*
G01X22581Y6004D01*
G01X22581Y6004D02*
G01X22581Y6118D01*
G01X22581Y6118D02*
G01X22604Y6186D01*
G01X22604Y6186D02*
G01X22627Y6231D01*
G01X22627Y6231D02*
G01X22672Y6277D01*
G01X22672Y6277D02*
G01X22740Y6300D01*
G01X22900Y6300D02*
G01X22740Y6300D01*
G01X22104Y5981D02*
G01X22127Y6050D01*
G01X22127Y6050D02*
G01X22172Y6095D01*
G01X22172Y6095D02*
G01X22240Y6118D01*
G01X22263Y6118D02*
G01X22240Y6118D01*
G01X22331Y6095D02*
G01X22263Y6118D01*
G01X22377Y6050D02*
G01X22331Y6095D01*
G01X22400Y5981D02*
G01X22377Y6050D01*
G01X22400Y5959D02*
G01X22400Y5981D01*
G01X22377Y5890D02*
G01X22400Y5959D01*
G01X22331Y5845D02*
G01X22377Y5890D01*
G01X22263Y5822D02*
G01X22331Y5845D01*
G01X22240Y5822D02*
G01X22263Y5822D01*
G01X22240Y5822D02*
G01X22172Y5845D01*
G01X22172Y5845D02*
G01X22127Y5890D01*
G01X22127Y5890D02*
G01X22104Y5981D01*
G01X22104Y5981D02*
G01X22104Y6095D01*
G01X22104Y6095D02*
G01X22127Y6209D01*
G01X22127Y6209D02*
G01X22172Y6277D01*
G01X22172Y6277D02*
G01X22240Y6300D01*
G01X22286Y6300D02*
G01X22240Y6300D01*
G01X22354Y6277D02*
G01X22286Y6300D01*
G01X22377Y6231D02*
G01X22354Y6277D01*
G04 draw value for part D9*
G04 Draw part U7*
G04 draw part outline for part U7*
G54D12*
G01X16100Y2600D02*
G01X16100Y2400D01*
G04 draw reference designator for part U7*
G54D10*
G01X16500Y3877D02*
G01X16500Y3536D01*
G01X16500Y3536D02*
G01X16522Y3468D01*
G01X16522Y3468D02*
G01X16568Y3422D01*
G01X16568Y3422D02*
G01X16636Y3400D01*
G01X16681Y3400D02*
G01X16636Y3400D01*
G01X16750Y3422D02*
G01X16681Y3400D01*
G01X16795Y3468D02*
G01X16750Y3422D01*
G01X16818Y3536D02*
G01X16795Y3468D01*
G01X16818Y3877D02*
G01X16818Y3536D01*
G01X17318Y3877D02*
G01X17090Y3400D01*
G01X17318Y3877D02*
G01X17000Y3877D01*
G04 draw value for part U7*
G04 Draw part H5*
G04 draw part outline for part H5*
G54D11*
G01X14770Y470D02*
G01X16630Y470D01*
G01X16630Y470D02*
G01X16630Y1330D01*
G01X16630Y1330D02*
G01X14770Y1330D01*
G01X14770Y1330D02*
G01X14770Y470D01*
G04 draw reference designator for part H5*
G54D10*
G01X15450Y1377D02*
G01X15450Y900D01*
G01X15768Y1377D02*
G01X15768Y900D01*
G01X15768Y1150D02*
G01X15450Y1150D01*
G01X15995Y1377D02*
G01X16222Y1377D01*
G01X15995Y1377D02*
G01X15972Y1172D01*
G01X15995Y1195D02*
G01X15972Y1172D01*
G01X16063Y1218D02*
G01X15995Y1195D01*
G01X16131Y1218D02*
G01X16063Y1218D01*
G01X16131Y1218D02*
G01X16200Y1195D01*
G01X16200Y1195D02*
G01X16245Y1150D01*
G01X16245Y1150D02*
G01X16268Y1081D01*
G01X16268Y1081D02*
G01X16268Y1036D01*
G01X16268Y1036D02*
G01X16245Y968D01*
G01X16245Y968D02*
G01X16200Y922D01*
G01X16200Y922D02*
G01X16131Y900D01*
G01X16063Y900D02*
G01X16131Y900D01*
G01X15995Y922D02*
G01X16063Y900D01*
G01X15972Y945D02*
G01X15995Y922D01*
G01X15950Y990D02*
G01X15972Y945D01*
G04 draw value for part H5*
G04 Draw part H6*
G04 draw part outline for part H6*
G54D11*
G01X16970Y470D02*
G01X18830Y470D01*
G01X18830Y470D02*
G01X18830Y1330D01*
G01X18830Y1330D02*
G01X16970Y1330D01*
G01X16970Y1330D02*
G01X16970Y470D01*
G04 draw reference designator for part H6*
G54D10*
G01X17650Y1377D02*
G01X17650Y900D01*
G01X17968Y1377D02*
G01X17968Y900D01*
G01X17968Y1150D02*
G01X17650Y1150D01*
G01X18400Y1354D02*
G01X18422Y1309D01*
G01X18331Y1377D02*
G01X18400Y1354D01*
G01X18286Y1377D02*
G01X18331Y1377D01*
G01X18286Y1377D02*
G01X18218Y1354D01*
G01X18218Y1354D02*
G01X18172Y1286D01*
G01X18172Y1286D02*
G01X18150Y1172D01*
G01X18150Y1172D02*
G01X18150Y1059D01*
G01X18150Y1059D02*
G01X18172Y968D01*
G01X18172Y968D02*
G01X18218Y922D01*
G01X18218Y922D02*
G01X18286Y900D01*
G01X18309Y900D02*
G01X18286Y900D01*
G01X18377Y922D02*
G01X18309Y900D01*
G01X18422Y968D02*
G01X18377Y922D01*
G01X18445Y1036D02*
G01X18422Y968D01*
G01X18445Y1059D02*
G01X18445Y1036D01*
G01X18422Y1127D02*
G01X18445Y1059D01*
G01X18377Y1172D02*
G01X18422Y1127D01*
G01X18309Y1195D02*
G01X18377Y1172D01*
G01X18286Y1195D02*
G01X18309Y1195D01*
G01X18286Y1195D02*
G01X18218Y1172D01*
G01X18218Y1172D02*
G01X18172Y1127D01*
G01X18172Y1127D02*
G01X18150Y1059D01*
G04 draw value for part H6*
G04 Draw part U6*
G04 draw part outline for part U6*
G54D12*
G01X25954Y5759D02*
G01X26000Y5804D01*
G01X26000Y5804D02*
G01X25954Y5850D01*
G01X25909Y5804D02*
G01X25954Y5850D01*
G01X25954Y5759D02*
G01X25909Y5804D01*
G04 draw reference designator for part U6*
G54D10*
G01X22500Y2622D02*
G01X22500Y2963D01*
G01X22500Y2963D02*
G01X22477Y3031D01*
G01X22477Y3031D02*
G01X22431Y3077D01*
G01X22431Y3077D02*
G01X22363Y3100D01*
G01X22318Y3100D02*
G01X22363Y3100D01*
G01X22250Y3077D02*
G01X22318Y3100D01*
G01X22204Y3031D02*
G01X22250Y3077D01*
G01X22181Y2963D02*
G01X22204Y3031D01*
G01X22181Y2622D02*
G01X22181Y2963D01*
G01X21750Y2645D02*
G01X21727Y2690D01*
G01X21818Y2622D02*
G01X21750Y2645D01*
G01X21863Y2622D02*
G01X21818Y2622D01*
G01X21863Y2622D02*
G01X21931Y2645D01*
G01X21931Y2645D02*
G01X21977Y2713D01*
G01X21977Y2713D02*
G01X22000Y2827D01*
G01X22000Y2827D02*
G01X22000Y2940D01*
G01X22000Y2940D02*
G01X21977Y3031D01*
G01X21977Y3031D02*
G01X21931Y3077D01*
G01X21931Y3077D02*
G01X21863Y3100D01*
G01X21840Y3100D02*
G01X21863Y3100D01*
G01X21772Y3077D02*
G01X21840Y3100D01*
G01X21727Y3031D02*
G01X21772Y3077D01*
G01X21704Y2963D02*
G01X21727Y3031D01*
G01X21704Y2940D02*
G01X21704Y2963D01*
G01X21727Y2872D02*
G01X21704Y2940D01*
G01X21772Y2827D02*
G01X21727Y2872D01*
G01X21840Y2804D02*
G01X21772Y2827D01*
G01X21863Y2804D02*
G01X21840Y2804D01*
G01X21863Y2804D02*
G01X21931Y2827D01*
G01X21931Y2827D02*
G01X21977Y2872D01*
G01X21977Y2872D02*
G01X22000Y2940D01*
G04 draw value for part U6*
G04 Draw part H1*
G04 draw part outline for part H1*
G04 draw reference designator for part H1*
G54D12*
G01X11200Y4954D02*
G01X11200Y4000D01*
G01X11836Y4954D02*
G01X11836Y4000D01*
G01X11836Y4500D02*
G01X11200Y4500D01*
G01X12290Y4818D02*
G01X12200Y4772D01*
G01X12427Y4954D02*
G01X12290Y4818D01*
G01X12427Y4954D02*
G01X12427Y4000D01*
G04 draw value for part H1*
G04 Draw part H2*
G04 draw part outline for part H2*
G01X19195Y7190D02*
G01X19150Y7145D01*
G01X19150Y7145D02*
G01X19195Y7100D01*
G01X19240Y7145D02*
G01X19195Y7100D01*
G01X19195Y7190D02*
G01X19240Y7145D01*
G04 draw reference designator for part H2*
G54D10*
G01X24150Y10827D02*
G01X24150Y10350D01*
G01X24468Y10827D02*
G01X24468Y10350D01*
G01X24468Y10600D02*
G01X24150Y10600D01*
G01X24672Y10736D02*
G01X24672Y10713D01*
G01X24695Y10781D02*
G01X24672Y10736D01*
G01X24718Y10804D02*
G01X24695Y10781D01*
G01X24763Y10827D02*
G01X24718Y10804D01*
G01X24854Y10827D02*
G01X24763Y10827D01*
G01X24854Y10827D02*
G01X24900Y10804D01*
G01X24900Y10804D02*
G01X24922Y10781D01*
G01X24922Y10781D02*
G01X24945Y10736D01*
G01X24945Y10736D02*
G01X24945Y10690D01*
G01X24945Y10690D02*
G01X24922Y10645D01*
G01X24922Y10645D02*
G01X24877Y10577D01*
G01X24877Y10577D02*
G01X24650Y10350D01*
G01X24968Y10350D02*
G01X24650Y10350D01*
G04 draw value for part H2*
G04 Draw part Balun1*
G04 draw part outline for part Balun1*
G54D12*
G01X23909Y2095D02*
G01X23954Y2050D01*
G01X23954Y2050D02*
G01X24000Y2095D01*
G01X23954Y2140D02*
G01X24000Y2095D01*
G01X23909Y2095D02*
G01X23954Y2140D01*
G04 draw reference designator for part Balun1*
G54D10*
G01X23522Y2550D02*
G01X24000Y2550D01*
G01X23522Y2754D02*
G01X23522Y2550D01*
G01X23522Y2754D02*
G01X23545Y2822D01*
G01X23545Y2822D02*
G01X23568Y2845D01*
G01X23568Y2845D02*
G01X23613Y2868D01*
G01X23613Y2868D02*
G01X23659Y2868D01*
G01X23659Y2868D02*
G01X23704Y2845D01*
G01X23704Y2845D02*
G01X23727Y2822D01*
G01X23727Y2822D02*
G01X23750Y2754D01*
G01X23750Y2754D02*
G01X23750Y2550D01*
G01X23750Y2754D02*
G01X23772Y2822D01*
G01X23772Y2822D02*
G01X23795Y2845D01*
G01X23795Y2845D02*
G01X23840Y2868D01*
G01X23840Y2868D02*
G01X23909Y2868D01*
G01X23909Y2868D02*
G01X23954Y2845D01*
G01X23954Y2845D02*
G01X23977Y2822D01*
G01X23977Y2822D02*
G01X24000Y2754D01*
G01X24000Y2550D02*
G01X24000Y2754D01*
G01X23681Y3322D02*
G01X24000Y3322D01*
G01X23704Y3277D02*
G01X23750Y3322D01*
G01X23681Y3231D02*
G01X23704Y3277D01*
G01X23681Y3163D02*
G01X23681Y3231D01*
G01X23681Y3163D02*
G01X23704Y3118D01*
G01X23704Y3118D02*
G01X23750Y3072D01*
G01X23750Y3072D02*
G01X23818Y3050D01*
G01X23818Y3050D02*
G01X23863Y3050D01*
G01X23863Y3050D02*
G01X23931Y3072D01*
G01X23931Y3072D02*
G01X23977Y3118D01*
G01X23977Y3118D02*
G01X24000Y3163D01*
G01X24000Y3231D02*
G01X24000Y3163D01*
G01X23977Y3277D02*
G01X24000Y3231D01*
G01X23931Y3322D02*
G01X23977Y3277D01*
G01X23522Y3504D02*
G01X24000Y3504D01*
G01X23681Y3686D02*
G01X23909Y3686D01*
G01X23909Y3686D02*
G01X23977Y3709D01*
G01X23977Y3709D02*
G01X24000Y3754D01*
G01X24000Y3822D02*
G01X24000Y3754D01*
G01X23977Y3868D02*
G01X24000Y3822D01*
G01X23909Y3936D02*
G01X23977Y3868D01*
G01X23681Y3936D02*
G01X24000Y3936D01*
G01X23681Y4118D02*
G01X24000Y4118D01*
G01X23704Y4186D02*
G01X23772Y4118D01*
G01X23681Y4231D02*
G01X23704Y4186D01*
G01X23681Y4300D02*
G01X23681Y4231D01*
G01X23681Y4300D02*
G01X23704Y4345D01*
G01X23704Y4345D02*
G01X23772Y4368D01*
G01X23772Y4368D02*
G01X24000Y4368D01*
G01X23590Y4595D02*
G01X23613Y4550D01*
G01X23522Y4663D02*
G01X23590Y4595D01*
G01X23522Y4663D02*
G01X24000Y4663D01*
G04 draw value for part Balun1*
G04 Draw part A1*
G04 draw part outline for part A1*
G54D11*
G01X26512Y455D02*
G01X28426Y455D01*
G01X28426Y455D02*
G01X28426Y1344D01*
G01X28426Y1344D02*
G01X26512Y1344D01*
G01X26512Y1344D02*
G01X26512Y455D01*
G04 draw reference designator for part A1*
G54D10*
G01X29231Y1377D02*
G01X29050Y900D01*
G01X29231Y1377D02*
G01X29413Y900D01*
G01X29345Y1059D02*
G01X29118Y1059D01*
G01X29640Y1309D02*
G01X29595Y1286D01*
G01X29709Y1377D02*
G01X29640Y1309D01*
G01X29709Y1377D02*
G01X29709Y900D01*
G04 draw value for part A1*
G04 Draw part H4*
G04 draw part outline for part H4*
G54D12*
G01X19290Y6854D02*
G01X19245Y6900D01*
G01X19245Y6900D02*
G01X19200Y6854D01*
G01X19245Y6809D02*
G01X19200Y6854D01*
G01X19290Y6854D02*
G01X19245Y6809D01*
G04 draw reference designator for part H4*
G54D10*
G01X21677Y2900D02*
G01X21200Y2900D01*
G01X21677Y2581D02*
G01X21200Y2581D01*
G01X21450Y2581D02*
G01X21450Y2900D01*
G01X21677Y2172D02*
G01X21359Y2400D01*
G01X21359Y2059D02*
G01X21359Y2400D01*
G01X21677Y2172D02*
G01X21200Y2172D01*
G04 draw value for part H4*
G04 Draw part PT1*
G04 draw part outline for part PT1*
G54D11*
G01X9787Y7387D02*
G01X8621Y7387D01*
G01X8621Y7387D02*
G01X8621Y6812D01*
G01X8621Y6812D02*
G01X9787Y6812D01*
G01X9787Y6812D02*
G01X9787Y7387D01*
G04 draw reference designator for part PT1*
G54D10*
G01X8250Y6372D02*
G01X8250Y6850D01*
G01X8045Y6372D02*
G01X8250Y6372D01*
G01X8045Y6372D02*
G01X7977Y6395D01*
G01X7977Y6395D02*
G01X7954Y6418D01*
G01X7954Y6418D02*
G01X7931Y6463D01*
G01X7931Y6463D02*
G01X7931Y6531D01*
G01X7931Y6531D02*
G01X7954Y6577D01*
G01X7954Y6577D02*
G01X7977Y6600D01*
G01X7977Y6600D02*
G01X8045Y6622D01*
G01X8250Y6622D02*
G01X8045Y6622D01*
G01X7590Y6372D02*
G01X7590Y6850D01*
G01X7431Y6372D02*
G01X7750Y6372D01*
G01X7204Y6440D02*
G01X7250Y6463D01*
G01X7136Y6372D02*
G01X7204Y6440D01*
G01X7136Y6372D02*
G01X7136Y6850D01*
G04 draw value for part PT1*
G04 Draw part SW2*
G04 draw part outline for part SW2*
G54D11*
G01X12900Y10600D02*
G01X17700Y10600D01*
G01X17700Y10600D02*
G01X17700Y12000D01*
G01X17700Y12000D02*
G01X12900Y12000D01*
G01X12900Y12000D02*
G01X12900Y10600D01*
G04 draw reference designator for part SW2*
G54D10*
G01X19772Y12504D02*
G01X19818Y12459D01*
G01X19704Y12527D02*
G01X19772Y12504D01*
G01X19613Y12527D02*
G01X19704Y12527D01*
G01X19613Y12527D02*
G01X19545Y12504D01*
G01X19545Y12504D02*
G01X19500Y12459D01*
G01X19500Y12459D02*
G01X19500Y12413D01*
G01X19500Y12413D02*
G01X19522Y12368D01*
G01X19522Y12368D02*
G01X19545Y12345D01*
G01X19545Y12345D02*
G01X19590Y12322D01*
G01X19590Y12322D02*
G01X19727Y12277D01*
G01X19727Y12277D02*
G01X19772Y12254D01*
G01X19772Y12254D02*
G01X19795Y12231D01*
G01X19795Y12231D02*
G01X19818Y12186D01*
G01X19818Y12186D02*
G01X19818Y12118D01*
G01X19818Y12118D02*
G01X19772Y12072D01*
G01X19772Y12072D02*
G01X19704Y12050D01*
G01X19613Y12050D02*
G01X19704Y12050D01*
G01X19545Y12072D02*
G01X19613Y12050D01*
G01X19500Y12118D02*
G01X19545Y12072D01*
G01X20000Y12527D02*
G01X20113Y12050D01*
G01X20227Y12527D02*
G01X20113Y12050D01*
G01X20227Y12527D02*
G01X20340Y12050D01*
G01X20454Y12527D02*
G01X20340Y12050D01*
G01X20659Y12436D02*
G01X20659Y12413D01*
G01X20681Y12481D02*
G01X20659Y12436D01*
G01X20704Y12504D02*
G01X20681Y12481D01*
G01X20750Y12527D02*
G01X20704Y12504D01*
G01X20840Y12527D02*
G01X20750Y12527D01*
G01X20840Y12527D02*
G01X20886Y12504D01*
G01X20886Y12504D02*
G01X20909Y12481D01*
G01X20909Y12481D02*
G01X20931Y12436D01*
G01X20931Y12436D02*
G01X20931Y12390D01*
G01X20931Y12390D02*
G01X20909Y12345D01*
G01X20909Y12345D02*
G01X20863Y12277D01*
G01X20863Y12277D02*
G01X20636Y12050D01*
G01X20954Y12050D02*
G01X20636Y12050D01*
G04 draw value for part SW2*
G04 Draw part X2*
G04 draw part outline for part X2*
G54D11*
G01X27436Y5085D02*
G01X27436Y2660D01*
G01X27436Y2660D02*
G01X28563Y2660D01*
G01X28563Y2660D02*
G01X28563Y5085D01*
G01X28563Y5085D02*
G01X27436Y5085D01*
G04 draw reference designator for part X2*
G54D10*
G01X29177Y1200D02*
G01X28700Y881D01*
G01X29177Y881D02*
G01X28700Y1200D01*
G01X29086Y677D02*
G01X29063Y677D01*
G01X29131Y654D02*
G01X29086Y677D01*
G01X29154Y631D02*
G01X29131Y654D01*
G01X29177Y586D02*
G01X29154Y631D01*
G01X29177Y495D02*
G01X29177Y586D01*
G01X29177Y495D02*
G01X29154Y450D01*
G01X29154Y450D02*
G01X29131Y427D01*
G01X29131Y427D02*
G01X29086Y404D01*
G01X29086Y404D02*
G01X29040Y404D01*
G01X29040Y404D02*
G01X28995Y427D01*
G01X28995Y427D02*
G01X28927Y472D01*
G01X28927Y472D02*
G01X28700Y700D01*
G01X28700Y381D02*
G01X28700Y700D01*
G04 draw value for part X2*
G04 Draw part X1*
G04 draw part outline for part X1*
G54D12*
G01X22609Y545D02*
G01X22654Y500D01*
G01X22654Y500D02*
G01X22700Y545D01*
G01X22654Y590D02*
G01X22700Y545D01*
G01X22609Y545D02*
G01X22654Y590D01*
G04 draw reference designator for part X1*
G54D10*
G01X19922Y2900D02*
G01X20400Y3218D01*
G01X19922Y3218D02*
G01X20400Y2900D01*
G01X19990Y3445D02*
G01X20013Y3400D01*
G01X19922Y3513D02*
G01X19990Y3445D01*
G01X19922Y3513D02*
G01X20400Y3513D01*
G04 draw value for part X1*
G04 Draw part PT3*
G04 draw part outline for part PT3*
G54D11*
G01X25500Y11700D02*
G01X26900Y10300D01*
G01X26900Y10300D02*
G01X27600Y11000D01*
G01X27600Y11000D02*
G01X26200Y12400D01*
G01X26200Y12400D02*
G01X25500Y11700D01*
G04 draw reference designator for part PT3*
G54D10*
G01X26677Y11450D02*
G01X26200Y11450D01*
G01X26677Y11245D02*
G01X26677Y11450D01*
G01X26677Y11245D02*
G01X26654Y11177D01*
G01X26654Y11177D02*
G01X26631Y11154D01*
G01X26631Y11154D02*
G01X26586Y11131D01*
G01X26586Y11131D02*
G01X26518Y11131D01*
G01X26518Y11131D02*
G01X26472Y11154D01*
G01X26472Y11154D02*
G01X26450Y11177D01*
G01X26450Y11177D02*
G01X26427Y11245D01*
G01X26427Y11450D02*
G01X26427Y11245D01*
G01X26677Y10790D02*
G01X26200Y10790D01*
G01X26677Y10631D02*
G01X26677Y10950D01*
G01X26677Y10154D02*
G01X26677Y10404D01*
G01X26677Y10154D02*
G01X26495Y10290D01*
G01X26495Y10222D02*
G01X26495Y10290D01*
G01X26495Y10222D02*
G01X26472Y10177D01*
G01X26472Y10177D02*
G01X26450Y10154D01*
G01X26450Y10154D02*
G01X26381Y10131D01*
G01X26381Y10131D02*
G01X26336Y10131D01*
G01X26336Y10131D02*
G01X26268Y10154D01*
G01X26268Y10154D02*
G01X26222Y10200D01*
G01X26222Y10200D02*
G01X26200Y10268D01*
G01X26200Y10336D02*
G01X26200Y10268D01*
G01X26222Y10404D02*
G01X26200Y10336D01*
G01X26245Y10427D02*
G01X26222Y10404D01*
G01X26290Y10450D02*
G01X26245Y10427D01*
G04 draw value for part PT3*
G04 Draw part R13*
G04 draw part outline for part R13*
G04 draw reference designator for part R13*
G01X25422Y12300D02*
G01X25900Y12300D01*
G01X25422Y12504D02*
G01X25422Y12300D01*
G01X25422Y12504D02*
G01X25445Y12572D01*
G01X25445Y12572D02*
G01X25468Y12595D01*
G01X25468Y12595D02*
G01X25513Y12618D01*
G01X25513Y12618D02*
G01X25559Y12618D01*
G01X25559Y12618D02*
G01X25604Y12595D01*
G01X25604Y12595D02*
G01X25627Y12572D01*
G01X25627Y12572D02*
G01X25650Y12504D01*
G01X25650Y12300D02*
G01X25650Y12504D01*
G01X25650Y12459D02*
G01X25900Y12618D01*
G01X25490Y12845D02*
G01X25513Y12800D01*
G01X25422Y12913D02*
G01X25490Y12845D01*
G01X25422Y12913D02*
G01X25900Y12913D01*
G01X25422Y13390D02*
G01X25422Y13140D01*
G01X25422Y13390D02*
G01X25604Y13254D01*
G01X25604Y13322D02*
G01X25604Y13254D01*
G01X25604Y13322D02*
G01X25627Y13368D01*
G01X25627Y13368D02*
G01X25650Y13390D01*
G01X25650Y13390D02*
G01X25718Y13413D01*
G01X25718Y13413D02*
G01X25763Y13413D01*
G01X25763Y13413D02*
G01X25831Y13390D01*
G01X25831Y13390D02*
G01X25877Y13345D01*
G01X25877Y13345D02*
G01X25900Y13277D01*
G01X25900Y13209D02*
G01X25900Y13277D01*
G01X25877Y13140D02*
G01X25900Y13209D01*
G01X25854Y13118D02*
G01X25877Y13140D01*
G01X25809Y13095D02*
G01X25854Y13118D01*
G04 draw value for part R13*
G04 Draw part R12*
G04 draw part outline for part R12*
G04 draw reference designator for part R12*
G01X27522Y10300D02*
G01X28000Y10300D01*
G01X27522Y10504D02*
G01X27522Y10300D01*
G01X27522Y10504D02*
G01X27545Y10572D01*
G01X27545Y10572D02*
G01X27568Y10595D01*
G01X27568Y10595D02*
G01X27613Y10618D01*
G01X27613Y10618D02*
G01X27659Y10618D01*
G01X27659Y10618D02*
G01X27704Y10595D01*
G01X27704Y10595D02*
G01X27727Y10572D01*
G01X27727Y10572D02*
G01X27750Y10504D01*
G01X27750Y10300D02*
G01X27750Y10504D01*
G01X27750Y10459D02*
G01X28000Y10618D01*
G01X27590Y10845D02*
G01X27613Y10800D01*
G01X27522Y10913D02*
G01X27590Y10845D01*
G01X27522Y10913D02*
G01X28000Y10913D01*
G01X27613Y11118D02*
G01X27636Y11118D01*
G01X27568Y11140D02*
G01X27613Y11118D01*
G01X27545Y11163D02*
G01X27568Y11140D01*
G01X27522Y11209D02*
G01X27545Y11163D01*
G01X27522Y11300D02*
G01X27522Y11209D01*
G01X27522Y11300D02*
G01X27545Y11345D01*
G01X27545Y11345D02*
G01X27568Y11368D01*
G01X27568Y11368D02*
G01X27613Y11390D01*
G01X27613Y11390D02*
G01X27659Y11390D01*
G01X27659Y11390D02*
G01X27704Y11368D01*
G01X27704Y11368D02*
G01X27772Y11322D01*
G01X27772Y11322D02*
G01X28000Y11095D01*
G01X28000Y11413D02*
G01X28000Y11095D01*
G04 draw value for part R12*
G04 Draw part D5*
G04 draw part outline for part D5*
G54D11*
G01X26900Y10300D02*
G01X28300Y8900D01*
G01X28300Y8900D02*
G01X29000Y9600D01*
G01X29000Y9600D02*
G01X27600Y11000D01*
G01X27600Y11000D02*
G01X26900Y10300D01*
G04 draw reference designator for part D5*
G54D10*
G01X28077Y10152D02*
G01X27600Y10152D01*
G01X28077Y9993D02*
G01X28077Y10152D01*
G01X28077Y9993D02*
G01X28054Y9925D01*
G01X28054Y9925D02*
G01X28009Y9879D01*
G01X28009Y9879D02*
G01X27963Y9856D01*
G01X27963Y9856D02*
G01X27895Y9834D01*
G01X27895Y9834D02*
G01X27781Y9834D01*
G01X27781Y9834D02*
G01X27713Y9856D01*
G01X27713Y9856D02*
G01X27668Y9879D01*
G01X27668Y9879D02*
G01X27622Y9925D01*
G01X27622Y9925D02*
G01X27600Y9993D01*
G01X27600Y10152D02*
G01X27600Y9993D01*
G01X28077Y9606D02*
G01X28077Y9379D01*
G01X28077Y9606D02*
G01X27872Y9629D01*
G01X27895Y9606D02*
G01X27872Y9629D01*
G01X27918Y9538D02*
G01X27895Y9606D01*
G01X27918Y9470D02*
G01X27918Y9538D01*
G01X27918Y9470D02*
G01X27895Y9402D01*
G01X27895Y9402D02*
G01X27850Y9356D01*
G01X27850Y9356D02*
G01X27781Y9334D01*
G01X27781Y9334D02*
G01X27736Y9334D01*
G01X27736Y9334D02*
G01X27668Y9356D01*
G01X27668Y9356D02*
G01X27622Y9402D01*
G01X27622Y9402D02*
G01X27600Y9470D01*
G01X27600Y9538D02*
G01X27600Y9470D01*
G01X27622Y9606D02*
G01X27600Y9538D01*
G01X27645Y9629D02*
G01X27622Y9606D01*
G01X27690Y9652D02*
G01X27645Y9629D01*

G04 Draw traces*

G04 Draw Text*
M00*
M02*
