G04 FreePCB version 1.359*
G04 C:\Users\Jack Ruby\Documents\GitHub\DRI\DRI_mk1\CAM\top_silk.grb*
G04 top silk layer *
G04 Scale: 100 percent, Rotated: No, Reflected: No *
%FSLAX24Y24*%
%MOIN*%
%LN top silk *%
G04 Rounded Rectangle Macro, params: W/2, H/2, R *
%AMRNDREC*
21,1,$1+$1,$2+$2-$3-$3,0,0,0*
21,1,$1+$1-$3-$3,$2+$2,0,0,0*
1,1,$3+$3,$1-$3,$2-$3*
1,1,$3+$3,$3-$1,$2-$3*
1,1,$3+$3,$1-$3,$3-$2*
1,1,$3+$3,$3-$1,$3-$2*%
G04 Rectangular Thermal Macro, params: W/2, H/2, T/2 *
%AMRECTHERM*
$4=$3/2*
21,1,$1-$3,$2-$3,0-$1/2-$4,0-$2/2-$4,0*
21,1,$1-$3,$2-$3,0-$1/2-$4,$2/2+$4,0*
21,1,$1-$3,$2-$3,$1/2+$4,0-$2/2-$4,0*
21,1,$1-$3,$2-$3,$1/2+$4,$2/2+$4,0*%
%ADD10C,0.005000*%
%ADD11C,0.007000*%
%ADD12C,0.010000*%
G90*
G70D02*

G04 Step and Repeat for panelization *

G04 ----------------------- Draw board outline (positive)*
%LPD*%
G54D10*
G01X0Y0D02*
G01X0Y12500D01*
G04 end of side 1*
G01X29000Y12500D01*
G04 end of side 2*
G01X29000Y0D01*
G04 end of side 3*
G01X0Y0D01*

G04 -------------- Draw Parts, Pads, Traces, Vias and Text (positive)*
%LPD*%
G04 Draw part U1*
G04 draw part outline for part U1*
G04 draw reference designator for part U1*
G54D10*
G01X10000Y4181D02*
G01X10000Y3980D01*
G01X10000Y3980D02*
G01X10013Y3940D01*
G01X10013Y3940D02*
G01X10040Y3913D01*
G01X10040Y3913D02*
G01X10080Y3900D01*
G01X10107Y3900D02*
G01X10080Y3900D01*
G01X10147Y3913D02*
G01X10107Y3900D01*
G01X10174Y3940D02*
G01X10147Y3913D01*
G01X10187Y3980D02*
G01X10174Y3940D01*
G01X10187Y4181D02*
G01X10187Y3980D01*
G01X10322Y4141D02*
G01X10295Y4128D01*
G01X10362Y4181D02*
G01X10322Y4141D01*
G01X10362Y4181D02*
G01X10362Y3900D01*
G04 Draw part F1*
G04 draw part outline for part F1*
G04 draw reference designator for part F1*
G01X8918Y3800D02*
G01X9200Y3800D01*
G01X8918Y3974D02*
G01X8918Y3800D01*
G01X9052Y3907D02*
G01X9052Y3800D01*
G01X8958Y4108D02*
G01X8971Y4081D01*
G01X8918Y4148D02*
G01X8958Y4108D01*
G01X8918Y4148D02*
G01X9200Y4148D01*
G04 Draw part U2*
G04 draw part outline for part U2*
G04 draw reference designator for part U2*
G01X5900Y4581D02*
G01X5900Y4380D01*
G01X5900Y4380D02*
G01X5913Y4340D01*
G01X5913Y4340D02*
G01X5940Y4313D01*
G01X5940Y4313D02*
G01X5980Y4300D01*
G01X6007Y4300D02*
G01X5980Y4300D01*
G01X6047Y4313D02*
G01X6007Y4300D01*
G01X6074Y4340D02*
G01X6047Y4313D01*
G01X6087Y4380D02*
G01X6074Y4340D01*
G01X6087Y4581D02*
G01X6087Y4380D01*
G01X6208Y4528D02*
G01X6208Y4514D01*
G01X6222Y4555D02*
G01X6208Y4528D01*
G01X6235Y4568D02*
G01X6222Y4555D01*
G01X6262Y4581D02*
G01X6235Y4568D01*
G01X6316Y4581D02*
G01X6262Y4581D01*
G01X6316Y4581D02*
G01X6342Y4568D01*
G01X6342Y4568D02*
G01X6356Y4555D01*
G01X6356Y4555D02*
G01X6369Y4528D01*
G01X6369Y4528D02*
G01X6369Y4501D01*
G01X6369Y4501D02*
G01X6356Y4474D01*
G01X6356Y4474D02*
G01X6329Y4434D01*
G01X6329Y4434D02*
G01X6195Y4300D01*
G01X6383Y4300D02*
G01X6195Y4300D01*
G04 Draw part U3*
G04 draw part outline for part U3*
G04 draw reference designator for part U3*
G01X1600Y4881D02*
G01X1600Y4680D01*
G01X1600Y4680D02*
G01X1613Y4640D01*
G01X1613Y4640D02*
G01X1640Y4613D01*
G01X1640Y4613D02*
G01X1680Y4600D01*
G01X1707Y4600D02*
G01X1680Y4600D01*
G01X1747Y4613D02*
G01X1707Y4600D01*
G01X1774Y4640D02*
G01X1747Y4613D01*
G01X1787Y4680D02*
G01X1774Y4640D01*
G01X1787Y4881D02*
G01X1787Y4680D01*
G01X2069Y4881D02*
G01X1922Y4881D01*
G01X2069Y4881D02*
G01X1989Y4774D01*
G01X2029Y4774D02*
G01X1989Y4774D01*
G01X2029Y4774D02*
G01X2056Y4761D01*
G01X2056Y4761D02*
G01X2069Y4747D01*
G01X2069Y4747D02*
G01X2083Y4707D01*
G01X2083Y4707D02*
G01X2083Y4680D01*
G01X2083Y4680D02*
G01X2069Y4640D01*
G01X2069Y4640D02*
G01X2042Y4613D01*
G01X2042Y4613D02*
G01X2002Y4600D01*
G01X1962Y4600D02*
G01X2002Y4600D01*
G01X1922Y4613D02*
G01X1962Y4600D01*
G01X1908Y4626D02*
G01X1922Y4613D01*
G01X1895Y4653D02*
G01X1908Y4626D01*
G04 Draw part C10*
G04 draw part outline for part C10*
G54D11*
G01X1007Y3951D02*
G01X1007Y5038D01*
G01X1007Y5038D02*
G01X392Y5038D01*
G01X392Y5038D02*
G01X392Y3951D01*
G01X392Y3951D02*
G01X1007Y3951D01*
G04 draw reference designator for part C10*
G54D10*
G01X958Y5387D02*
G01X985Y5401D01*
G01X931Y5361D02*
G01X958Y5387D01*
G01X918Y5334D02*
G01X931Y5361D01*
G01X918Y5280D02*
G01X918Y5334D01*
G01X918Y5280D02*
G01X931Y5253D01*
G01X931Y5253D02*
G01X958Y5226D01*
G01X958Y5226D02*
G01X985Y5213D01*
G01X985Y5213D02*
G01X1025Y5200D01*
G01X1025Y5200D02*
G01X1092Y5200D01*
G01X1092Y5200D02*
G01X1132Y5213D01*
G01X1132Y5213D02*
G01X1159Y5226D01*
G01X1159Y5226D02*
G01X1186Y5253D01*
G01X1186Y5253D02*
G01X1200Y5280D01*
G01X1200Y5334D02*
G01X1200Y5280D01*
G01X1186Y5361D02*
G01X1200Y5334D01*
G01X1159Y5387D02*
G01X1186Y5361D01*
G01X1132Y5401D02*
G01X1159Y5387D01*
G01X958Y5535D02*
G01X971Y5508D01*
G01X918Y5575D02*
G01X958Y5535D01*
G01X918Y5575D02*
G01X1200Y5575D01*
G01X918Y5763D02*
G01X931Y5723D01*
G01X931Y5723D02*
G01X971Y5696D01*
G01X971Y5696D02*
G01X1038Y5683D01*
G01X1038Y5683D02*
G01X1079Y5683D01*
G01X1079Y5683D02*
G01X1146Y5696D01*
G01X1146Y5696D02*
G01X1186Y5723D01*
G01X1186Y5723D02*
G01X1200Y5763D01*
G01X1200Y5790D02*
G01X1200Y5763D01*
G01X1186Y5830D02*
G01X1200Y5790D01*
G01X1146Y5857D02*
G01X1186Y5830D01*
G01X1079Y5871D02*
G01X1146Y5857D01*
G01X1038Y5871D02*
G01X1079Y5871D01*
G01X971Y5857D02*
G01X1038Y5871D01*
G01X931Y5830D02*
G01X971Y5857D01*
G01X918Y5790D02*
G01X931Y5830D01*
G01X918Y5763D02*
G01X918Y5790D01*
G04 Draw part C6*
G04 draw part outline for part C6*
G54D11*
G01X8148Y2507D02*
G01X7061Y2507D01*
G01X7061Y2507D02*
G01X7061Y1892D01*
G01X7061Y1892D02*
G01X8148Y1892D01*
G01X8148Y1892D02*
G01X8148Y2507D01*
G04 draw reference designator for part C6*
G54D10*
G01X7712Y1558D02*
G01X7698Y1585D01*
G01X7738Y1531D02*
G01X7712Y1558D01*
G01X7765Y1518D02*
G01X7738Y1531D01*
G01X7819Y1518D02*
G01X7765Y1518D01*
G01X7819Y1518D02*
G01X7846Y1531D01*
G01X7846Y1531D02*
G01X7873Y1558D01*
G01X7873Y1558D02*
G01X7886Y1585D01*
G01X7886Y1585D02*
G01X7900Y1625D01*
G01X7900Y1625D02*
G01X7900Y1692D01*
G01X7900Y1692D02*
G01X7886Y1732D01*
G01X7886Y1732D02*
G01X7873Y1759D01*
G01X7873Y1759D02*
G01X7846Y1786D01*
G01X7846Y1786D02*
G01X7819Y1800D01*
G01X7765Y1800D02*
G01X7819Y1800D01*
G01X7738Y1786D02*
G01X7765Y1800D01*
G01X7712Y1759D02*
G01X7738Y1786D01*
G01X7698Y1732D02*
G01X7712Y1759D01*
G01X7443Y1531D02*
G01X7430Y1558D01*
G01X7483Y1518D02*
G01X7443Y1531D01*
G01X7510Y1518D02*
G01X7483Y1518D01*
G01X7510Y1518D02*
G01X7551Y1531D01*
G01X7551Y1531D02*
G01X7577Y1571D01*
G01X7577Y1571D02*
G01X7591Y1638D01*
G01X7591Y1638D02*
G01X7591Y1706D01*
G01X7591Y1706D02*
G01X7577Y1759D01*
G01X7577Y1759D02*
G01X7551Y1786D01*
G01X7551Y1786D02*
G01X7510Y1800D01*
G01X7497Y1800D02*
G01X7510Y1800D01*
G01X7457Y1786D02*
G01X7497Y1800D01*
G01X7430Y1759D02*
G01X7457Y1786D01*
G01X7416Y1719D02*
G01X7430Y1759D01*
G01X7416Y1706D02*
G01X7416Y1719D01*
G01X7430Y1665D02*
G01X7416Y1706D01*
G01X7457Y1638D02*
G01X7430Y1665D01*
G01X7497Y1625D02*
G01X7457Y1638D01*
G01X7510Y1625D02*
G01X7497Y1625D01*
G01X7510Y1625D02*
G01X7551Y1638D01*
G01X7551Y1638D02*
G01X7577Y1665D01*
G01X7577Y1665D02*
G01X7591Y1706D01*
G04 Draw part C7*
G04 draw part outline for part C7*
G54D11*
G01X7692Y4248D02*
G01X7692Y3161D01*
G01X7692Y3161D02*
G01X8307Y3161D01*
G01X8307Y3161D02*
G01X8307Y4248D01*
G01X8307Y4248D02*
G01X7692Y4248D01*
G04 draw reference designator for part C7*
G54D10*
G01X7887Y4541D02*
G01X7901Y4514D01*
G01X7861Y4568D02*
G01X7887Y4541D01*
G01X7834Y4581D02*
G01X7861Y4568D01*
G01X7780Y4581D02*
G01X7834Y4581D01*
G01X7780Y4581D02*
G01X7753Y4568D01*
G01X7753Y4568D02*
G01X7726Y4541D01*
G01X7726Y4541D02*
G01X7713Y4514D01*
G01X7713Y4514D02*
G01X7700Y4474D01*
G01X7700Y4474D02*
G01X7700Y4407D01*
G01X7700Y4407D02*
G01X7713Y4367D01*
G01X7713Y4367D02*
G01X7726Y4340D01*
G01X7726Y4340D02*
G01X7753Y4313D01*
G01X7753Y4313D02*
G01X7780Y4300D01*
G01X7834Y4300D02*
G01X7780Y4300D01*
G01X7861Y4313D02*
G01X7834Y4300D01*
G01X7887Y4340D02*
G01X7861Y4313D01*
G01X7901Y4367D02*
G01X7887Y4340D01*
G01X8196Y4581D02*
G01X8062Y4300D01*
G01X8196Y4581D02*
G01X8008Y4581D01*
G04 Draw part D3*
G04 draw part outline for part D3*
G54D11*
G01X3748Y4707D02*
G01X2661Y4707D01*
G01X2661Y4707D02*
G01X2661Y4092D01*
G01X2661Y4092D02*
G01X3748Y4092D01*
G01X3748Y4092D02*
G01X3748Y4707D01*
G04 draw reference designator for part D3*
G54D10*
G01X3000Y5081D02*
G01X3000Y4800D01*
G01X3093Y5081D02*
G01X3000Y5081D01*
G01X3093Y5081D02*
G01X3134Y5068D01*
G01X3134Y5068D02*
G01X3161Y5041D01*
G01X3161Y5041D02*
G01X3174Y5014D01*
G01X3174Y5014D02*
G01X3187Y4974D01*
G01X3187Y4974D02*
G01X3187Y4907D01*
G01X3187Y4907D02*
G01X3174Y4867D01*
G01X3174Y4867D02*
G01X3161Y4840D01*
G01X3161Y4840D02*
G01X3134Y4813D01*
G01X3134Y4813D02*
G01X3093Y4800D01*
G01X3000Y4800D02*
G01X3093Y4800D01*
G01X3469Y5081D02*
G01X3322Y5081D01*
G01X3469Y5081D02*
G01X3389Y4974D01*
G01X3429Y4974D02*
G01X3389Y4974D01*
G01X3429Y4974D02*
G01X3456Y4961D01*
G01X3456Y4961D02*
G01X3469Y4947D01*
G01X3469Y4947D02*
G01X3483Y4907D01*
G01X3483Y4907D02*
G01X3483Y4880D01*
G01X3483Y4880D02*
G01X3469Y4840D01*
G01X3469Y4840D02*
G01X3442Y4813D01*
G01X3442Y4813D02*
G01X3402Y4800D01*
G01X3362Y4800D02*
G01X3402Y4800D01*
G01X3322Y4813D02*
G01X3362Y4800D01*
G01X3308Y4826D02*
G01X3322Y4813D01*
G01X3295Y4853D02*
G01X3308Y4826D01*
G04 Draw part FET1*
G04 draw part outline for part FET1*
G04 draw reference designator for part FET1*
G01X3000Y2681D02*
G01X3000Y2400D01*
G01X3174Y2681D02*
G01X3000Y2681D01*
G01X3107Y2547D02*
G01X3000Y2547D01*
G01X3281Y2681D02*
G01X3281Y2400D01*
G01X3456Y2681D02*
G01X3281Y2681D01*
G01X3389Y2547D02*
G01X3281Y2547D01*
G01X3456Y2400D02*
G01X3281Y2400D01*
G01X3657Y2681D02*
G01X3657Y2400D01*
G01X3751Y2681D02*
G01X3563Y2681D01*
G01X3885Y2641D02*
G01X3858Y2628D01*
G01X3926Y2681D02*
G01X3885Y2641D01*
G01X3926Y2681D02*
G01X3926Y2400D01*
G04 Draw part C9*
G04 draw part outline for part C9*
G54D11*
G01X1651Y5092D02*
G01X2738Y5092D01*
G01X2738Y5092D02*
G01X2738Y5707D01*
G01X2738Y5707D02*
G01X1651Y5707D01*
G01X1651Y5707D02*
G01X1651Y5092D01*
G04 draw reference designator for part C9*
G54D10*
G01X2087Y6041D02*
G01X2101Y6014D01*
G01X2061Y6068D02*
G01X2087Y6041D01*
G01X2034Y6081D02*
G01X2061Y6068D01*
G01X1980Y6081D02*
G01X2034Y6081D01*
G01X1980Y6081D02*
G01X1953Y6068D01*
G01X1953Y6068D02*
G01X1926Y6041D01*
G01X1926Y6041D02*
G01X1913Y6014D01*
G01X1913Y6014D02*
G01X1900Y5974D01*
G01X1900Y5974D02*
G01X1900Y5907D01*
G01X1900Y5907D02*
G01X1913Y5867D01*
G01X1913Y5867D02*
G01X1926Y5840D01*
G01X1926Y5840D02*
G01X1953Y5813D01*
G01X1953Y5813D02*
G01X1980Y5800D01*
G01X2034Y5800D02*
G01X1980Y5800D01*
G01X2061Y5813D02*
G01X2034Y5800D01*
G01X2087Y5840D02*
G01X2061Y5813D01*
G01X2101Y5867D02*
G01X2087Y5840D01*
G01X2383Y5987D02*
G01X2369Y5947D01*
G01X2369Y5947D02*
G01X2342Y5920D01*
G01X2342Y5920D02*
G01X2302Y5907D01*
G01X2289Y5907D02*
G01X2302Y5907D01*
G01X2248Y5920D02*
G01X2289Y5907D01*
G01X2222Y5947D02*
G01X2248Y5920D01*
G01X2208Y5987D02*
G01X2222Y5947D01*
G01X2208Y6001D02*
G01X2208Y5987D01*
G01X2222Y6041D02*
G01X2208Y6001D01*
G01X2248Y6068D02*
G01X2222Y6041D01*
G01X2289Y6081D02*
G01X2248Y6068D01*
G01X2302Y6081D02*
G01X2289Y6081D01*
G01X2302Y6081D02*
G01X2342Y6068D01*
G01X2342Y6068D02*
G01X2369Y6041D01*
G01X2369Y6041D02*
G01X2383Y5987D01*
G01X2383Y5987D02*
G01X2383Y5920D01*
G01X2383Y5920D02*
G01X2369Y5853D01*
G01X2369Y5853D02*
G01X2342Y5813D01*
G01X2342Y5813D02*
G01X2302Y5800D01*
G01X2275Y5800D02*
G01X2302Y5800D01*
G01X2235Y5813D02*
G01X2275Y5800D01*
G01X2222Y5840D02*
G01X2235Y5813D01*
G04 Draw part D4*
G04 draw part outline for part D4*
G54D11*
G01X700Y8900D02*
G01X2100Y10300D01*
G01X2100Y10300D02*
G01X1400Y11000D01*
G01X1400Y11000D02*
G01X0Y9600D01*
G01X0Y9600D02*
G01X700Y8900D01*
G04 draw reference designator for part D4*
G54D10*
G01X400Y8677D02*
G01X400Y8200D01*
G01X559Y8677D02*
G01X400Y8677D01*
G01X559Y8677D02*
G01X627Y8654D01*
G01X627Y8654D02*
G01X672Y8609D01*
G01X672Y8609D02*
G01X695Y8563D01*
G01X695Y8563D02*
G01X718Y8495D01*
G01X718Y8495D02*
G01X718Y8381D01*
G01X718Y8381D02*
G01X695Y8313D01*
G01X695Y8313D02*
G01X672Y8268D01*
G01X672Y8268D02*
G01X627Y8222D01*
G01X627Y8222D02*
G01X559Y8200D01*
G01X400Y8200D02*
G01X559Y8200D01*
G01X1127Y8677D02*
G01X900Y8359D01*
G01X1240Y8359D02*
G01X900Y8359D01*
G01X1127Y8677D02*
G01X1127Y8200D01*
G04 draw part outline for part H3*
G04 Draw part FET2*
G04 draw part outline for part FET2*
G04 draw reference designator for part FET2*
G01X12500Y3781D02*
G01X12500Y3500D01*
G01X12674Y3781D02*
G01X12500Y3781D01*
G01X12607Y3647D02*
G01X12500Y3647D01*
G01X12781Y3781D02*
G01X12781Y3500D01*
G01X12956Y3781D02*
G01X12781Y3781D01*
G01X12889Y3647D02*
G01X12781Y3647D01*
G01X12956Y3500D02*
G01X12781Y3500D01*
G01X13157Y3781D02*
G01X13157Y3500D01*
G01X13251Y3781D02*
G01X13063Y3781D01*
G01X13372Y3728D02*
G01X13372Y3714D01*
G01X13385Y3755D02*
G01X13372Y3728D01*
G01X13399Y3768D02*
G01X13385Y3755D01*
G01X13426Y3781D02*
G01X13399Y3768D01*
G01X13479Y3781D02*
G01X13426Y3781D01*
G01X13479Y3781D02*
G01X13506Y3768D01*
G01X13506Y3768D02*
G01X13520Y3755D01*
G01X13520Y3755D02*
G01X13533Y3728D01*
G01X13533Y3728D02*
G01X13533Y3701D01*
G01X13533Y3701D02*
G01X13520Y3674D01*
G01X13520Y3674D02*
G01X13493Y3634D01*
G01X13493Y3634D02*
G01X13358Y3500D01*
G01X13546Y3500D02*
G01X13358Y3500D01*
G04 Draw part C31*
G04 draw part outline for part C31*
G54D11*
G01X14092Y2748D02*
G01X14092Y1661D01*
G01X14092Y1661D02*
G01X14707Y1661D01*
G01X14707Y1661D02*
G01X14707Y2748D01*
G01X14707Y2748D02*
G01X14092Y2748D01*
G04 draw reference designator for part C31*
G54D10*
G01X15141Y2712D02*
G01X15114Y2698D01*
G01X15168Y2738D02*
G01X15141Y2712D01*
G01X15181Y2765D02*
G01X15168Y2738D01*
G01X15181Y2819D02*
G01X15181Y2765D01*
G01X15181Y2819D02*
G01X15168Y2846D01*
G01X15168Y2846D02*
G01X15141Y2873D01*
G01X15141Y2873D02*
G01X15114Y2886D01*
G01X15114Y2886D02*
G01X15074Y2900D01*
G01X15074Y2900D02*
G01X15007Y2900D01*
G01X15007Y2900D02*
G01X14967Y2886D01*
G01X14967Y2886D02*
G01X14940Y2873D01*
G01X14940Y2873D02*
G01X14913Y2846D01*
G01X14913Y2846D02*
G01X14900Y2819D01*
G01X14900Y2765D02*
G01X14900Y2819D01*
G01X14913Y2738D02*
G01X14900Y2765D01*
G01X14940Y2712D02*
G01X14913Y2738D01*
G01X14967Y2698D02*
G01X14940Y2712D01*
G01X15181Y2416D02*
G01X15181Y2564D01*
G01X15181Y2416D02*
G01X15074Y2497D01*
G01X15074Y2457D02*
G01X15074Y2497D01*
G01X15074Y2457D02*
G01X15061Y2430D01*
G01X15061Y2430D02*
G01X15047Y2416D01*
G01X15047Y2416D02*
G01X15007Y2403D01*
G01X15007Y2403D02*
G01X14980Y2403D01*
G01X14980Y2403D02*
G01X14940Y2416D01*
G01X14940Y2416D02*
G01X14913Y2443D01*
G01X14913Y2443D02*
G01X14900Y2483D01*
G01X14900Y2524D02*
G01X14900Y2483D01*
G01X14913Y2564D02*
G01X14900Y2524D01*
G01X14926Y2577D02*
G01X14913Y2564D01*
G01X14953Y2591D02*
G01X14926Y2577D01*
G01X15141Y2269D02*
G01X15128Y2296D01*
G01X15181Y2228D02*
G01X15141Y2269D01*
G01X15181Y2228D02*
G01X14900Y2228D01*
G04 Draw part C4*
G04 draw part outline for part C4*
G04 draw reference designator for part C4*
G01X11458Y3487D02*
G01X11485Y3501D01*
G01X11431Y3461D02*
G01X11458Y3487D01*
G01X11418Y3434D02*
G01X11431Y3461D01*
G01X11418Y3380D02*
G01X11418Y3434D01*
G01X11418Y3380D02*
G01X11431Y3353D01*
G01X11431Y3353D02*
G01X11458Y3326D01*
G01X11458Y3326D02*
G01X11485Y3313D01*
G01X11485Y3313D02*
G01X11525Y3300D01*
G01X11525Y3300D02*
G01X11592Y3300D01*
G01X11592Y3300D02*
G01X11632Y3313D01*
G01X11632Y3313D02*
G01X11659Y3326D01*
G01X11659Y3326D02*
G01X11686Y3353D01*
G01X11686Y3353D02*
G01X11700Y3380D01*
G01X11700Y3434D02*
G01X11700Y3380D01*
G01X11686Y3461D02*
G01X11700Y3434D01*
G01X11659Y3487D02*
G01X11686Y3461D01*
G01X11632Y3501D02*
G01X11659Y3487D01*
G01X11418Y3742D02*
G01X11606Y3608D01*
G01X11606Y3810D02*
G01X11606Y3608D01*
G01X11418Y3742D02*
G01X11700Y3742D01*
G04 Draw part C5*
G04 draw part outline for part C5*
G04 draw reference designator for part C5*
G01X15941Y10212D02*
G01X15914Y10198D01*
G01X15968Y10238D02*
G01X15941Y10212D01*
G01X15981Y10265D02*
G01X15968Y10238D01*
G01X15981Y10319D02*
G01X15981Y10265D01*
G01X15981Y10319D02*
G01X15968Y10346D01*
G01X15968Y10346D02*
G01X15941Y10373D01*
G01X15941Y10373D02*
G01X15914Y10386D01*
G01X15914Y10386D02*
G01X15874Y10400D01*
G01X15874Y10400D02*
G01X15807Y10400D01*
G01X15807Y10400D02*
G01X15767Y10386D01*
G01X15767Y10386D02*
G01X15740Y10373D01*
G01X15740Y10373D02*
G01X15713Y10346D01*
G01X15713Y10346D02*
G01X15700Y10319D01*
G01X15700Y10265D02*
G01X15700Y10319D01*
G01X15713Y10238D02*
G01X15700Y10265D01*
G01X15740Y10212D02*
G01X15713Y10238D01*
G01X15767Y10198D02*
G01X15740Y10212D01*
G01X15981Y10064D02*
G01X15981Y9930D01*
G01X15981Y10064D02*
G01X15861Y10077D01*
G01X15874Y10064D02*
G01X15861Y10077D01*
G01X15887Y10024D02*
G01X15874Y10064D01*
G01X15887Y9983D02*
G01X15887Y10024D01*
G01X15887Y9983D02*
G01X15874Y9943D01*
G01X15874Y9943D02*
G01X15847Y9916D01*
G01X15847Y9916D02*
G01X15807Y9903D01*
G01X15807Y9903D02*
G01X15780Y9903D01*
G01X15780Y9903D02*
G01X15740Y9916D01*
G01X15740Y9916D02*
G01X15713Y9943D01*
G01X15713Y9943D02*
G01X15700Y9983D01*
G01X15700Y10024D02*
G01X15700Y9983D01*
G01X15713Y10064D02*
G01X15700Y10024D01*
G01X15726Y10077D02*
G01X15713Y10064D01*
G01X15753Y10091D02*
G01X15726Y10077D01*
G04 Draw part R3*
G04 draw part outline for part R3*
G04 draw reference designator for part R3*
G01X11018Y5300D02*
G01X11300Y5300D01*
G01X11018Y5420D02*
G01X11018Y5300D01*
G01X11018Y5420D02*
G01X11031Y5461D01*
G01X11031Y5461D02*
G01X11044Y5474D01*
G01X11044Y5474D02*
G01X11071Y5487D01*
G01X11071Y5487D02*
G01X11098Y5487D01*
G01X11098Y5487D02*
G01X11125Y5474D01*
G01X11125Y5474D02*
G01X11138Y5461D01*
G01X11138Y5461D02*
G01X11152Y5420D01*
G01X11152Y5300D02*
G01X11152Y5420D01*
G01X11152Y5393D02*
G01X11300Y5487D01*
G01X11018Y5769D02*
G01X11018Y5622D01*
G01X11018Y5769D02*
G01X11125Y5689D01*
G01X11125Y5729D02*
G01X11125Y5689D01*
G01X11125Y5729D02*
G01X11138Y5756D01*
G01X11138Y5756D02*
G01X11152Y5769D01*
G01X11152Y5769D02*
G01X11192Y5783D01*
G01X11192Y5783D02*
G01X11219Y5783D01*
G01X11219Y5783D02*
G01X11259Y5769D01*
G01X11259Y5769D02*
G01X11286Y5742D01*
G01X11286Y5742D02*
G01X11300Y5702D01*
G01X11300Y5662D02*
G01X11300Y5702D01*
G01X11286Y5622D02*
G01X11300Y5662D01*
G01X11273Y5608D02*
G01X11286Y5622D01*
G01X11246Y5595D02*
G01X11273Y5608D01*
G04 Draw part R1*
G04 draw part outline for part R1*
G04 draw reference designator for part R1*
G01X9581Y3600D02*
G01X9300Y3600D01*
G01X9581Y3479D02*
G01X9581Y3600D01*
G01X9581Y3479D02*
G01X9568Y3438D01*
G01X9568Y3438D02*
G01X9555Y3425D01*
G01X9555Y3425D02*
G01X9528Y3412D01*
G01X9528Y3412D02*
G01X9501Y3412D01*
G01X9501Y3412D02*
G01X9474Y3425D01*
G01X9474Y3425D02*
G01X9461Y3438D01*
G01X9461Y3438D02*
G01X9447Y3479D01*
G01X9447Y3600D02*
G01X9447Y3479D01*
G01X9447Y3506D02*
G01X9300Y3412D01*
G01X9541Y3277D02*
G01X9528Y3304D01*
G01X9581Y3237D02*
G01X9541Y3277D01*
G01X9581Y3237D02*
G01X9300Y3237D01*
G04 Draw part R2*
G04 draw part outline for part R2*
G04 draw reference designator for part R2*
G01X10781Y3500D02*
G01X10500Y3500D01*
G01X10781Y3379D02*
G01X10781Y3500D01*
G01X10781Y3379D02*
G01X10768Y3338D01*
G01X10768Y3338D02*
G01X10755Y3325D01*
G01X10755Y3325D02*
G01X10728Y3312D01*
G01X10728Y3312D02*
G01X10701Y3312D01*
G01X10701Y3312D02*
G01X10674Y3325D01*
G01X10674Y3325D02*
G01X10661Y3338D01*
G01X10661Y3338D02*
G01X10647Y3379D01*
G01X10647Y3500D02*
G01X10647Y3379D01*
G01X10647Y3406D02*
G01X10500Y3312D01*
G01X10728Y3191D02*
G01X10714Y3191D01*
G01X10755Y3177D02*
G01X10728Y3191D01*
G01X10768Y3164D02*
G01X10755Y3177D01*
G01X10781Y3137D02*
G01X10768Y3164D01*
G01X10781Y3083D02*
G01X10781Y3137D01*
G01X10781Y3083D02*
G01X10768Y3057D01*
G01X10768Y3057D02*
G01X10755Y3043D01*
G01X10755Y3043D02*
G01X10728Y3030D01*
G01X10728Y3030D02*
G01X10701Y3030D01*
G01X10701Y3030D02*
G01X10674Y3043D01*
G01X10674Y3043D02*
G01X10634Y3070D01*
G01X10634Y3070D02*
G01X10500Y3204D01*
G01X10500Y3016D02*
G01X10500Y3204D01*
G04 Draw part C2*
G04 draw part outline for part C2*
G04 draw reference designator for part C2*
G01X9587Y2541D02*
G01X9601Y2514D01*
G01X9561Y2568D02*
G01X9587Y2541D01*
G01X9534Y2581D02*
G01X9561Y2568D01*
G01X9480Y2581D02*
G01X9534Y2581D01*
G01X9480Y2581D02*
G01X9453Y2568D01*
G01X9453Y2568D02*
G01X9426Y2541D01*
G01X9426Y2541D02*
G01X9413Y2514D01*
G01X9413Y2514D02*
G01X9400Y2474D01*
G01X9400Y2474D02*
G01X9400Y2407D01*
G01X9400Y2407D02*
G01X9413Y2367D01*
G01X9413Y2367D02*
G01X9426Y2340D01*
G01X9426Y2340D02*
G01X9453Y2313D01*
G01X9453Y2313D02*
G01X9480Y2300D01*
G01X9534Y2300D02*
G01X9480Y2300D01*
G01X9561Y2313D02*
G01X9534Y2300D01*
G01X9587Y2340D02*
G01X9561Y2313D01*
G01X9601Y2367D02*
G01X9587Y2340D01*
G01X9722Y2528D02*
G01X9722Y2514D01*
G01X9735Y2555D02*
G01X9722Y2528D01*
G01X9748Y2568D02*
G01X9735Y2555D01*
G01X9775Y2581D02*
G01X9748Y2568D01*
G01X9829Y2581D02*
G01X9775Y2581D01*
G01X9829Y2581D02*
G01X9856Y2568D01*
G01X9856Y2568D02*
G01X9869Y2555D01*
G01X9869Y2555D02*
G01X9883Y2528D01*
G01X9883Y2528D02*
G01X9883Y2501D01*
G01X9883Y2501D02*
G01X9869Y2474D01*
G01X9869Y2474D02*
G01X9842Y2434D01*
G01X9842Y2434D02*
G01X9708Y2300D01*
G01X9896Y2300D02*
G01X9708Y2300D01*
G04 Draw part C3*
G04 draw part outline for part C3*
G04 draw reference designator for part C3*
G01X10387Y2541D02*
G01X10401Y2514D01*
G01X10361Y2568D02*
G01X10387Y2541D01*
G01X10334Y2581D02*
G01X10361Y2568D01*
G01X10280Y2581D02*
G01X10334Y2581D01*
G01X10280Y2581D02*
G01X10253Y2568D01*
G01X10253Y2568D02*
G01X10226Y2541D01*
G01X10226Y2541D02*
G01X10213Y2514D01*
G01X10213Y2514D02*
G01X10200Y2474D01*
G01X10200Y2474D02*
G01X10200Y2407D01*
G01X10200Y2407D02*
G01X10213Y2367D01*
G01X10213Y2367D02*
G01X10226Y2340D01*
G01X10226Y2340D02*
G01X10253Y2313D01*
G01X10253Y2313D02*
G01X10280Y2300D01*
G01X10334Y2300D02*
G01X10280Y2300D01*
G01X10361Y2313D02*
G01X10334Y2300D01*
G01X10387Y2340D02*
G01X10361Y2313D01*
G01X10401Y2367D02*
G01X10387Y2340D01*
G01X10683Y2581D02*
G01X10535Y2581D01*
G01X10683Y2581D02*
G01X10602Y2474D01*
G01X10642Y2474D02*
G01X10602Y2474D01*
G01X10642Y2474D02*
G01X10669Y2461D01*
G01X10669Y2461D02*
G01X10683Y2447D01*
G01X10683Y2447D02*
G01X10696Y2407D01*
G01X10696Y2407D02*
G01X10696Y2380D01*
G01X10696Y2380D02*
G01X10683Y2340D01*
G01X10683Y2340D02*
G01X10656Y2313D01*
G01X10656Y2313D02*
G01X10616Y2300D01*
G01X10575Y2300D02*
G01X10616Y2300D01*
G01X10535Y2313D02*
G01X10575Y2300D01*
G01X10522Y2326D02*
G01X10535Y2313D01*
G01X10508Y2353D02*
G01X10522Y2326D01*
G04 Draw part R4*
G04 draw part outline for part R4*
G04 draw reference designator for part R4*
G01X6818Y2700D02*
G01X7100Y2700D01*
G01X6818Y2820D02*
G01X6818Y2700D01*
G01X6818Y2820D02*
G01X6831Y2861D01*
G01X6831Y2861D02*
G01X6844Y2874D01*
G01X6844Y2874D02*
G01X6871Y2887D01*
G01X6871Y2887D02*
G01X6898Y2887D01*
G01X6898Y2887D02*
G01X6925Y2874D01*
G01X6925Y2874D02*
G01X6938Y2861D01*
G01X6938Y2861D02*
G01X6952Y2820D01*
G01X6952Y2700D02*
G01X6952Y2820D01*
G01X6952Y2793D02*
G01X7100Y2887D01*
G01X6818Y3129D02*
G01X7006Y2995D01*
G01X7006Y3196D02*
G01X7006Y2995D01*
G01X6818Y3129D02*
G01X7100Y3129D01*
G04 Draw part R5*
G04 draw part outline for part R5*
G04 draw reference designator for part R5*
G01X4900Y1681D02*
G01X4900Y1400D01*
G01X5020Y1681D02*
G01X4900Y1681D01*
G01X5020Y1681D02*
G01X5061Y1668D01*
G01X5061Y1668D02*
G01X5074Y1655D01*
G01X5074Y1655D02*
G01X5087Y1628D01*
G01X5087Y1628D02*
G01X5087Y1601D01*
G01X5087Y1601D02*
G01X5074Y1574D01*
G01X5074Y1574D02*
G01X5061Y1561D01*
G01X5061Y1561D02*
G01X5020Y1547D01*
G01X4900Y1547D02*
G01X5020Y1547D01*
G01X4993Y1547D02*
G01X5087Y1400D01*
G01X5222Y1681D02*
G01X5356Y1681D01*
G01X5222Y1681D02*
G01X5208Y1561D01*
G01X5222Y1574D02*
G01X5208Y1561D01*
G01X5262Y1587D02*
G01X5222Y1574D01*
G01X5302Y1587D02*
G01X5262Y1587D01*
G01X5302Y1587D02*
G01X5342Y1574D01*
G01X5342Y1574D02*
G01X5369Y1547D01*
G01X5369Y1547D02*
G01X5383Y1507D01*
G01X5383Y1507D02*
G01X5383Y1480D01*
G01X5383Y1480D02*
G01X5369Y1440D01*
G01X5369Y1440D02*
G01X5342Y1413D01*
G01X5342Y1413D02*
G01X5302Y1400D01*
G01X5262Y1400D02*
G01X5302Y1400D01*
G01X5222Y1413D02*
G01X5262Y1400D01*
G01X5208Y1426D02*
G01X5222Y1413D01*
G01X5195Y1453D02*
G01X5208Y1426D01*
G04 Draw part C8*
G04 draw part outline for part C8*
G04 draw reference designator for part C8*
G01X7441Y4512D02*
G01X7414Y4498D01*
G01X7468Y4538D02*
G01X7441Y4512D01*
G01X7481Y4565D02*
G01X7468Y4538D01*
G01X7481Y4619D02*
G01X7481Y4565D01*
G01X7481Y4619D02*
G01X7468Y4646D01*
G01X7468Y4646D02*
G01X7441Y4673D01*
G01X7441Y4673D02*
G01X7414Y4686D01*
G01X7414Y4686D02*
G01X7374Y4700D01*
G01X7374Y4700D02*
G01X7307Y4700D01*
G01X7307Y4700D02*
G01X7267Y4686D01*
G01X7267Y4686D02*
G01X7240Y4673D01*
G01X7240Y4673D02*
G01X7213Y4646D01*
G01X7213Y4646D02*
G01X7200Y4619D01*
G01X7200Y4565D02*
G01X7200Y4619D01*
G01X7213Y4538D02*
G01X7200Y4565D01*
G01X7240Y4512D02*
G01X7213Y4538D01*
G01X7267Y4498D02*
G01X7240Y4512D01*
G01X7481Y4324D02*
G01X7468Y4364D01*
G01X7468Y4364D02*
G01X7441Y4377D01*
G01X7441Y4377D02*
G01X7414Y4377D01*
G01X7414Y4377D02*
G01X7387Y4364D01*
G01X7387Y4364D02*
G01X7374Y4337D01*
G01X7374Y4337D02*
G01X7361Y4283D01*
G01X7361Y4283D02*
G01X7347Y4243D01*
G01X7347Y4243D02*
G01X7320Y4216D01*
G01X7320Y4216D02*
G01X7293Y4203D01*
G01X7293Y4203D02*
G01X7253Y4203D01*
G01X7253Y4203D02*
G01X7226Y4216D01*
G01X7226Y4216D02*
G01X7213Y4230D01*
G01X7213Y4230D02*
G01X7200Y4270D01*
G01X7200Y4324D02*
G01X7200Y4270D01*
G01X7213Y4364D02*
G01X7200Y4324D01*
G01X7226Y4377D02*
G01X7213Y4364D01*
G01X7253Y4391D02*
G01X7226Y4377D01*
G01X7293Y4391D02*
G01X7253Y4391D01*
G01X7320Y4377D02*
G01X7293Y4391D01*
G01X7347Y4351D02*
G01X7320Y4377D01*
G01X7361Y4310D02*
G01X7347Y4351D01*
G01X7374Y4257D02*
G01X7361Y4310D01*
G01X7387Y4230D02*
G01X7374Y4257D01*
G01X7414Y4216D02*
G01X7387Y4230D01*
G01X7441Y4216D02*
G01X7414Y4216D01*
G01X7468Y4230D02*
G01X7441Y4216D01*
G01X7481Y4270D02*
G01X7468Y4230D01*
G01X7481Y4324D02*
G01X7481Y4270D01*
G04 Draw part R6*
G04 draw part outline for part R6*
G04 draw reference designator for part R6*
G01X4018Y4500D02*
G01X4300Y4500D01*
G01X4018Y4620D02*
G01X4018Y4500D01*
G01X4018Y4620D02*
G01X4031Y4661D01*
G01X4031Y4661D02*
G01X4044Y4674D01*
G01X4044Y4674D02*
G01X4071Y4687D01*
G01X4071Y4687D02*
G01X4098Y4687D01*
G01X4098Y4687D02*
G01X4125Y4674D01*
G01X4125Y4674D02*
G01X4138Y4661D01*
G01X4138Y4661D02*
G01X4152Y4620D01*
G01X4152Y4500D02*
G01X4152Y4620D01*
G01X4152Y4593D02*
G01X4300Y4687D01*
G01X4031Y4942D02*
G01X4058Y4956D01*
G01X4018Y4902D02*
G01X4031Y4942D01*
G01X4018Y4875D02*
G01X4018Y4902D01*
G01X4018Y4875D02*
G01X4031Y4835D01*
G01X4031Y4835D02*
G01X4071Y4808D01*
G01X4071Y4808D02*
G01X4138Y4795D01*
G01X4138Y4795D02*
G01X4206Y4795D01*
G01X4206Y4795D02*
G01X4259Y4808D01*
G01X4259Y4808D02*
G01X4286Y4835D01*
G01X4286Y4835D02*
G01X4300Y4875D01*
G01X4300Y4889D02*
G01X4300Y4875D01*
G01X4286Y4929D02*
G01X4300Y4889D01*
G01X4259Y4956D02*
G01X4286Y4929D01*
G01X4219Y4969D02*
G01X4259Y4956D01*
G01X4206Y4969D02*
G01X4219Y4969D01*
G01X4165Y4956D02*
G01X4206Y4969D01*
G01X4138Y4929D02*
G01X4165Y4956D01*
G01X4125Y4889D02*
G01X4138Y4929D01*
G01X4125Y4875D02*
G01X4125Y4889D01*
G01X4125Y4875D02*
G01X4138Y4835D01*
G01X4138Y4835D02*
G01X4165Y4808D01*
G01X4165Y4808D02*
G01X4206Y4795D01*
G04 Draw part R24*
G04 draw part outline for part R24*
G04 draw reference designator for part R24*
G01X1081Y1200D02*
G01X800Y1200D01*
G01X1081Y1079D02*
G01X1081Y1200D01*
G01X1081Y1079D02*
G01X1068Y1038D01*
G01X1068Y1038D02*
G01X1055Y1025D01*
G01X1055Y1025D02*
G01X1028Y1012D01*
G01X1028Y1012D02*
G01X1001Y1012D01*
G01X1001Y1012D02*
G01X974Y1025D01*
G01X974Y1025D02*
G01X961Y1038D01*
G01X961Y1038D02*
G01X947Y1079D01*
G01X947Y1200D02*
G01X947Y1079D01*
G01X947Y1106D02*
G01X800Y1012D01*
G01X1028Y891D02*
G01X1014Y891D01*
G01X1055Y877D02*
G01X1028Y891D01*
G01X1068Y864D02*
G01X1055Y877D01*
G01X1081Y837D02*
G01X1068Y864D01*
G01X1081Y783D02*
G01X1081Y837D01*
G01X1081Y783D02*
G01X1068Y757D01*
G01X1068Y757D02*
G01X1055Y743D01*
G01X1055Y743D02*
G01X1028Y730D01*
G01X1028Y730D02*
G01X1001Y730D01*
G01X1001Y730D02*
G01X974Y743D01*
G01X974Y743D02*
G01X934Y770D01*
G01X934Y770D02*
G01X800Y904D01*
G01X800Y716D02*
G01X800Y904D01*
G01X1081Y475D02*
G01X893Y609D01*
G01X893Y408D02*
G01X893Y609D01*
G01X1081Y475D02*
G01X800Y475D01*
G04 Draw part C13*
G04 draw part outline for part C13*
G04 draw reference designator for part C13*
G01X9987Y7741D02*
G01X10001Y7714D01*
G01X9961Y7768D02*
G01X9987Y7741D01*
G01X9934Y7781D02*
G01X9961Y7768D01*
G01X9880Y7781D02*
G01X9934Y7781D01*
G01X9880Y7781D02*
G01X9853Y7768D01*
G01X9853Y7768D02*
G01X9826Y7741D01*
G01X9826Y7741D02*
G01X9813Y7714D01*
G01X9813Y7714D02*
G01X9800Y7674D01*
G01X9800Y7674D02*
G01X9800Y7607D01*
G01X9800Y7607D02*
G01X9813Y7567D01*
G01X9813Y7567D02*
G01X9826Y7540D01*
G01X9826Y7540D02*
G01X9853Y7513D01*
G01X9853Y7513D02*
G01X9880Y7500D01*
G01X9934Y7500D02*
G01X9880Y7500D01*
G01X9961Y7513D02*
G01X9934Y7500D01*
G01X9987Y7540D02*
G01X9961Y7513D01*
G01X10001Y7567D02*
G01X9987Y7540D01*
G01X10135Y7741D02*
G01X10108Y7728D01*
G01X10175Y7781D02*
G01X10135Y7741D01*
G01X10175Y7781D02*
G01X10175Y7500D01*
G01X10457Y7781D02*
G01X10310Y7781D01*
G01X10457Y7781D02*
G01X10377Y7674D01*
G01X10417Y7674D02*
G01X10377Y7674D01*
G01X10417Y7674D02*
G01X10444Y7661D01*
G01X10444Y7661D02*
G01X10457Y7647D01*
G01X10457Y7647D02*
G01X10471Y7607D01*
G01X10471Y7607D02*
G01X10471Y7580D01*
G01X10471Y7580D02*
G01X10457Y7540D01*
G01X10457Y7540D02*
G01X10430Y7513D01*
G01X10430Y7513D02*
G01X10390Y7500D01*
G01X10350Y7500D02*
G01X10390Y7500D01*
G01X10310Y7513D02*
G01X10350Y7500D01*
G01X10296Y7526D02*
G01X10310Y7513D01*
G01X10283Y7553D02*
G01X10296Y7526D01*
G04 Draw part R7*
G04 draw part outline for part R7*
G04 draw reference designator for part R7*
G01X10700Y8981D02*
G01X10700Y8700D01*
G01X10820Y8981D02*
G01X10700Y8981D01*
G01X10820Y8981D02*
G01X10861Y8968D01*
G01X10861Y8968D02*
G01X10874Y8955D01*
G01X10874Y8955D02*
G01X10887Y8928D01*
G01X10887Y8928D02*
G01X10887Y8901D01*
G01X10887Y8901D02*
G01X10874Y8874D01*
G01X10874Y8874D02*
G01X10861Y8861D01*
G01X10861Y8861D02*
G01X10820Y8847D01*
G01X10700Y8847D02*
G01X10820Y8847D01*
G01X10793Y8847D02*
G01X10887Y8700D01*
G01X11183Y8981D02*
G01X11048Y8700D01*
G01X11183Y8981D02*
G01X10995Y8981D01*
G04 Draw part C12*
G04 draw part outline for part C12*
G04 draw reference designator for part C12*
G01X9987Y8941D02*
G01X10001Y8914D01*
G01X9961Y8968D02*
G01X9987Y8941D01*
G01X9934Y8981D02*
G01X9961Y8968D01*
G01X9880Y8981D02*
G01X9934Y8981D01*
G01X9880Y8981D02*
G01X9853Y8968D01*
G01X9853Y8968D02*
G01X9826Y8941D01*
G01X9826Y8941D02*
G01X9813Y8914D01*
G01X9813Y8914D02*
G01X9800Y8874D01*
G01X9800Y8874D02*
G01X9800Y8807D01*
G01X9800Y8807D02*
G01X9813Y8767D01*
G01X9813Y8767D02*
G01X9826Y8740D01*
G01X9826Y8740D02*
G01X9853Y8713D01*
G01X9853Y8713D02*
G01X9880Y8700D01*
G01X9934Y8700D02*
G01X9880Y8700D01*
G01X9961Y8713D02*
G01X9934Y8700D01*
G01X9987Y8740D02*
G01X9961Y8713D01*
G01X10001Y8767D02*
G01X9987Y8740D01*
G01X10135Y8941D02*
G01X10108Y8928D01*
G01X10175Y8981D02*
G01X10135Y8941D01*
G01X10175Y8981D02*
G01X10175Y8700D01*
G01X10296Y8928D02*
G01X10296Y8914D01*
G01X10310Y8955D02*
G01X10296Y8928D01*
G01X10323Y8968D02*
G01X10310Y8955D01*
G01X10350Y8981D02*
G01X10323Y8968D01*
G01X10403Y8981D02*
G01X10350Y8981D01*
G01X10403Y8981D02*
G01X10430Y8968D01*
G01X10430Y8968D02*
G01X10444Y8955D01*
G01X10444Y8955D02*
G01X10457Y8928D01*
G01X10457Y8928D02*
G01X10457Y8901D01*
G01X10457Y8901D02*
G01X10444Y8874D01*
G01X10444Y8874D02*
G01X10417Y8834D01*
G01X10417Y8834D02*
G01X10283Y8700D01*
G01X10471Y8700D02*
G01X10283Y8700D01*
G04 Draw part C14*
G04 draw part outline for part C14*
G04 draw reference designator for part C14*
G01X11741Y9812D02*
G01X11714Y9798D01*
G01X11768Y9838D02*
G01X11741Y9812D01*
G01X11781Y9865D02*
G01X11768Y9838D01*
G01X11781Y9919D02*
G01X11781Y9865D01*
G01X11781Y9919D02*
G01X11768Y9946D01*
G01X11768Y9946D02*
G01X11741Y9973D01*
G01X11741Y9973D02*
G01X11714Y9986D01*
G01X11714Y9986D02*
G01X11674Y10000D01*
G01X11674Y10000D02*
G01X11607Y10000D01*
G01X11607Y10000D02*
G01X11567Y9986D01*
G01X11567Y9986D02*
G01X11540Y9973D01*
G01X11540Y9973D02*
G01X11513Y9946D01*
G01X11513Y9946D02*
G01X11500Y9919D01*
G01X11500Y9865D02*
G01X11500Y9919D01*
G01X11513Y9838D02*
G01X11500Y9865D01*
G01X11540Y9812D02*
G01X11513Y9838D01*
G01X11567Y9798D02*
G01X11540Y9812D01*
G01X11741Y9664D02*
G01X11728Y9691D01*
G01X11781Y9624D02*
G01X11741Y9664D01*
G01X11781Y9624D02*
G01X11500Y9624D01*
G01X11781Y9382D02*
G01X11593Y9516D01*
G01X11593Y9315D02*
G01X11593Y9516D01*
G01X11781Y9382D02*
G01X11500Y9382D01*
G04 Draw part R8*
G04 draw part outline for part R8*
G04 draw reference designator for part R8*
G01X11381Y10800D02*
G01X11100Y10800D01*
G01X11381Y10679D02*
G01X11381Y10800D01*
G01X11381Y10679D02*
G01X11368Y10638D01*
G01X11368Y10638D02*
G01X11355Y10625D01*
G01X11355Y10625D02*
G01X11328Y10612D01*
G01X11328Y10612D02*
G01X11301Y10612D01*
G01X11301Y10612D02*
G01X11274Y10625D01*
G01X11274Y10625D02*
G01X11261Y10638D01*
G01X11261Y10638D02*
G01X11247Y10679D01*
G01X11247Y10800D02*
G01X11247Y10679D01*
G01X11247Y10706D02*
G01X11100Y10612D01*
G01X11381Y10437D02*
G01X11368Y10477D01*
G01X11368Y10477D02*
G01X11341Y10491D01*
G01X11341Y10491D02*
G01X11314Y10491D01*
G01X11314Y10491D02*
G01X11287Y10477D01*
G01X11287Y10477D02*
G01X11274Y10451D01*
G01X11274Y10451D02*
G01X11261Y10397D01*
G01X11261Y10397D02*
G01X11247Y10357D01*
G01X11247Y10357D02*
G01X11220Y10330D01*
G01X11220Y10330D02*
G01X11193Y10316D01*
G01X11193Y10316D02*
G01X11153Y10316D01*
G01X11153Y10316D02*
G01X11126Y10330D01*
G01X11126Y10330D02*
G01X11113Y10343D01*
G01X11113Y10343D02*
G01X11100Y10383D01*
G01X11100Y10437D02*
G01X11100Y10383D01*
G01X11113Y10477D02*
G01X11100Y10437D01*
G01X11126Y10491D02*
G01X11113Y10477D01*
G01X11153Y10504D02*
G01X11126Y10491D01*
G01X11193Y10504D02*
G01X11153Y10504D01*
G01X11220Y10491D02*
G01X11193Y10504D01*
G01X11247Y10464D02*
G01X11220Y10491D01*
G01X11261Y10424D02*
G01X11247Y10464D01*
G01X11274Y10370D02*
G01X11261Y10424D01*
G01X11287Y10343D02*
G01X11274Y10370D01*
G01X11314Y10330D02*
G01X11287Y10343D01*
G01X11341Y10330D02*
G01X11314Y10330D01*
G01X11368Y10343D02*
G01X11341Y10330D01*
G01X11381Y10383D02*
G01X11368Y10343D01*
G01X11381Y10437D02*
G01X11381Y10383D01*
G04 Draw part R9*
G04 draw part outline for part R9*
G04 draw reference designator for part R9*
G01X9000Y6081D02*
G01X9000Y5800D01*
G01X9120Y6081D02*
G01X9000Y6081D01*
G01X9120Y6081D02*
G01X9161Y6068D01*
G01X9161Y6068D02*
G01X9174Y6055D01*
G01X9174Y6055D02*
G01X9187Y6028D01*
G01X9187Y6028D02*
G01X9187Y6001D01*
G01X9187Y6001D02*
G01X9174Y5974D01*
G01X9174Y5974D02*
G01X9161Y5961D01*
G01X9161Y5961D02*
G01X9120Y5947D01*
G01X9000Y5947D02*
G01X9120Y5947D01*
G01X9093Y5947D02*
G01X9187Y5800D01*
G01X9469Y5987D02*
G01X9456Y5947D01*
G01X9456Y5947D02*
G01X9429Y5920D01*
G01X9429Y5920D02*
G01X9389Y5907D01*
G01X9375Y5907D02*
G01X9389Y5907D01*
G01X9335Y5920D02*
G01X9375Y5907D01*
G01X9308Y5947D02*
G01X9335Y5920D01*
G01X9295Y5987D02*
G01X9308Y5947D01*
G01X9295Y6001D02*
G01X9295Y5987D01*
G01X9308Y6041D02*
G01X9295Y6001D01*
G01X9335Y6068D02*
G01X9308Y6041D01*
G01X9375Y6081D02*
G01X9335Y6068D01*
G01X9389Y6081D02*
G01X9375Y6081D01*
G01X9389Y6081D02*
G01X9429Y6068D01*
G01X9429Y6068D02*
G01X9456Y6041D01*
G01X9456Y6041D02*
G01X9469Y5987D01*
G01X9469Y5987D02*
G01X9469Y5920D01*
G01X9469Y5920D02*
G01X9456Y5853D01*
G01X9456Y5853D02*
G01X9429Y5813D01*
G01X9429Y5813D02*
G01X9389Y5800D01*
G01X9362Y5800D02*
G01X9389Y5800D01*
G01X9322Y5813D02*
G01X9362Y5800D01*
G01X9308Y5840D02*
G01X9322Y5813D01*
G04 Draw part R10*
G04 draw part outline for part R10*
G04 draw reference designator for part R10*
G01X2018Y9000D02*
G01X2300Y9000D01*
G01X2018Y9120D02*
G01X2018Y9000D01*
G01X2018Y9120D02*
G01X2031Y9161D01*
G01X2031Y9161D02*
G01X2044Y9174D01*
G01X2044Y9174D02*
G01X2071Y9187D01*
G01X2071Y9187D02*
G01X2098Y9187D01*
G01X2098Y9187D02*
G01X2125Y9174D01*
G01X2125Y9174D02*
G01X2138Y9161D01*
G01X2138Y9161D02*
G01X2152Y9120D01*
G01X2152Y9000D02*
G01X2152Y9120D01*
G01X2152Y9093D02*
G01X2300Y9187D01*
G01X2058Y9322D02*
G01X2071Y9295D01*
G01X2018Y9362D02*
G01X2058Y9322D01*
G01X2018Y9362D02*
G01X2300Y9362D01*
G01X2018Y9550D02*
G01X2031Y9510D01*
G01X2031Y9510D02*
G01X2071Y9483D01*
G01X2071Y9483D02*
G01X2138Y9469D01*
G01X2138Y9469D02*
G01X2179Y9469D01*
G01X2179Y9469D02*
G01X2246Y9483D01*
G01X2246Y9483D02*
G01X2286Y9510D01*
G01X2286Y9510D02*
G01X2300Y9550D01*
G01X2300Y9577D02*
G01X2300Y9550D01*
G01X2286Y9617D02*
G01X2300Y9577D01*
G01X2246Y9644D02*
G01X2286Y9617D01*
G01X2179Y9657D02*
G01X2246Y9644D01*
G01X2138Y9657D02*
G01X2179Y9657D01*
G01X2071Y9644D02*
G01X2138Y9657D01*
G01X2031Y9617D02*
G01X2071Y9644D01*
G01X2018Y9577D02*
G01X2031Y9617D01*
G01X2018Y9550D02*
G01X2018Y9577D01*
G04 Draw part R11*
G04 draw part outline for part R11*
G04 draw reference designator for part R11*
G01X3181Y10600D02*
G01X2900Y10600D01*
G01X3181Y10479D02*
G01X3181Y10600D01*
G01X3181Y10479D02*
G01X3168Y10438D01*
G01X3168Y10438D02*
G01X3155Y10425D01*
G01X3155Y10425D02*
G01X3128Y10412D01*
G01X3128Y10412D02*
G01X3101Y10412D01*
G01X3101Y10412D02*
G01X3074Y10425D01*
G01X3074Y10425D02*
G01X3061Y10438D01*
G01X3061Y10438D02*
G01X3047Y10479D01*
G01X3047Y10600D02*
G01X3047Y10479D01*
G01X3047Y10506D02*
G01X2900Y10412D01*
G01X3141Y10277D02*
G01X3128Y10304D01*
G01X3181Y10237D02*
G01X3141Y10277D01*
G01X3181Y10237D02*
G01X2900Y10237D01*
G01X3141Y10103D02*
G01X3128Y10130D01*
G01X3181Y10063D02*
G01X3141Y10103D01*
G01X3181Y10063D02*
G01X2900Y10063D01*
G04 Draw part C11*
G04 draw part outline for part C11*
G04 draw reference designator for part C11*
G01X7612Y8358D02*
G01X7598Y8385D01*
G01X7638Y8331D02*
G01X7612Y8358D01*
G01X7665Y8318D02*
G01X7638Y8331D01*
G01X7719Y8318D02*
G01X7665Y8318D01*
G01X7719Y8318D02*
G01X7746Y8331D01*
G01X7746Y8331D02*
G01X7773Y8358D01*
G01X7773Y8358D02*
G01X7786Y8385D01*
G01X7786Y8385D02*
G01X7800Y8425D01*
G01X7800Y8425D02*
G01X7800Y8492D01*
G01X7800Y8492D02*
G01X7786Y8532D01*
G01X7786Y8532D02*
G01X7773Y8559D01*
G01X7773Y8559D02*
G01X7746Y8586D01*
G01X7746Y8586D02*
G01X7719Y8600D01*
G01X7665Y8600D02*
G01X7719Y8600D01*
G01X7638Y8586D02*
G01X7665Y8600D01*
G01X7612Y8559D02*
G01X7638Y8586D01*
G01X7598Y8532D02*
G01X7612Y8559D01*
G01X7464Y8358D02*
G01X7491Y8371D01*
G01X7424Y8318D02*
G01X7464Y8358D01*
G01X7424Y8318D02*
G01X7424Y8600D01*
G01X7289Y8358D02*
G01X7316Y8371D01*
G01X7249Y8318D02*
G01X7289Y8358D01*
G01X7249Y8318D02*
G01X7249Y8600D01*
G04 Draw part R17*
G04 draw part outline for part R17*
G04 draw reference designator for part R17*
G01X14518Y9900D02*
G01X14800Y9900D01*
G01X14518Y10020D02*
G01X14518Y9900D01*
G01X14518Y10020D02*
G01X14531Y10061D01*
G01X14531Y10061D02*
G01X14544Y10074D01*
G01X14544Y10074D02*
G01X14571Y10087D01*
G01X14571Y10087D02*
G01X14598Y10087D01*
G01X14598Y10087D02*
G01X14625Y10074D01*
G01X14625Y10074D02*
G01X14638Y10061D01*
G01X14638Y10061D02*
G01X14652Y10020D01*
G01X14652Y9900D02*
G01X14652Y10020D01*
G01X14652Y9993D02*
G01X14800Y10087D01*
G01X14558Y10222D02*
G01X14571Y10195D01*
G01X14518Y10262D02*
G01X14558Y10222D01*
G01X14518Y10262D02*
G01X14800Y10262D01*
G01X14518Y10557D02*
G01X14800Y10423D01*
G01X14518Y10557D02*
G01X14518Y10369D01*
G04 Draw part C16*
G04 draw part outline for part C16*
G04 draw reference designator for part C16*
G01X17158Y7787D02*
G01X17185Y7801D01*
G01X17131Y7761D02*
G01X17158Y7787D01*
G01X17118Y7734D02*
G01X17131Y7761D01*
G01X17118Y7680D02*
G01X17118Y7734D01*
G01X17118Y7680D02*
G01X17131Y7653D01*
G01X17131Y7653D02*
G01X17158Y7626D01*
G01X17158Y7626D02*
G01X17185Y7613D01*
G01X17185Y7613D02*
G01X17225Y7600D01*
G01X17225Y7600D02*
G01X17292Y7600D01*
G01X17292Y7600D02*
G01X17332Y7613D01*
G01X17332Y7613D02*
G01X17359Y7626D01*
G01X17359Y7626D02*
G01X17386Y7653D01*
G01X17386Y7653D02*
G01X17400Y7680D01*
G01X17400Y7734D02*
G01X17400Y7680D01*
G01X17386Y7761D02*
G01X17400Y7734D01*
G01X17359Y7787D02*
G01X17386Y7761D01*
G01X17332Y7801D02*
G01X17359Y7787D01*
G01X17158Y7935D02*
G01X17171Y7908D01*
G01X17118Y7975D02*
G01X17158Y7935D01*
G01X17118Y7975D02*
G01X17400Y7975D01*
G01X17131Y8230D02*
G01X17158Y8244D01*
G01X17118Y8190D02*
G01X17131Y8230D01*
G01X17118Y8163D02*
G01X17118Y8190D01*
G01X17118Y8163D02*
G01X17131Y8123D01*
G01X17131Y8123D02*
G01X17171Y8096D01*
G01X17171Y8096D02*
G01X17238Y8083D01*
G01X17238Y8083D02*
G01X17306Y8083D01*
G01X17306Y8083D02*
G01X17359Y8096D01*
G01X17359Y8096D02*
G01X17386Y8123D01*
G01X17386Y8123D02*
G01X17400Y8163D01*
G01X17400Y8177D02*
G01X17400Y8163D01*
G01X17386Y8217D02*
G01X17400Y8177D01*
G01X17359Y8244D02*
G01X17386Y8217D01*
G01X17319Y8257D02*
G01X17359Y8244D01*
G01X17306Y8257D02*
G01X17319Y8257D01*
G01X17265Y8244D02*
G01X17306Y8257D01*
G01X17238Y8217D02*
G01X17265Y8244D01*
G01X17225Y8177D02*
G01X17238Y8217D01*
G01X17225Y8163D02*
G01X17225Y8177D01*
G01X17225Y8163D02*
G01X17238Y8123D01*
G01X17238Y8123D02*
G01X17265Y8096D01*
G01X17265Y8096D02*
G01X17306Y8083D01*
G04 Draw part C15*
G04 draw part outline for part C15*
G04 draw reference designator for part C15*
G01X13041Y6612D02*
G01X13014Y6598D01*
G01X13068Y6638D02*
G01X13041Y6612D01*
G01X13081Y6665D02*
G01X13068Y6638D01*
G01X13081Y6719D02*
G01X13081Y6665D01*
G01X13081Y6719D02*
G01X13068Y6746D01*
G01X13068Y6746D02*
G01X13041Y6773D01*
G01X13041Y6773D02*
G01X13014Y6786D01*
G01X13014Y6786D02*
G01X12974Y6800D01*
G01X12974Y6800D02*
G01X12907Y6800D01*
G01X12907Y6800D02*
G01X12867Y6786D01*
G01X12867Y6786D02*
G01X12840Y6773D01*
G01X12840Y6773D02*
G01X12813Y6746D01*
G01X12813Y6746D02*
G01X12800Y6719D01*
G01X12800Y6665D02*
G01X12800Y6719D01*
G01X12813Y6638D02*
G01X12800Y6665D01*
G01X12840Y6612D02*
G01X12813Y6638D01*
G01X12867Y6598D02*
G01X12840Y6612D01*
G01X13041Y6464D02*
G01X13028Y6491D01*
G01X13081Y6424D02*
G01X13041Y6464D01*
G01X13081Y6424D02*
G01X12800Y6424D01*
G01X13081Y6289D02*
G01X13081Y6155D01*
G01X13081Y6289D02*
G01X12961Y6303D01*
G01X12974Y6289D02*
G01X12961Y6303D01*
G01X12987Y6249D02*
G01X12974Y6289D01*
G01X12987Y6209D02*
G01X12987Y6249D01*
G01X12987Y6209D02*
G01X12974Y6169D01*
G01X12974Y6169D02*
G01X12947Y6142D01*
G01X12947Y6142D02*
G01X12907Y6128D01*
G01X12907Y6128D02*
G01X12880Y6128D01*
G01X12880Y6128D02*
G01X12840Y6142D01*
G01X12840Y6142D02*
G01X12813Y6169D01*
G01X12813Y6169D02*
G01X12800Y6209D01*
G01X12800Y6249D02*
G01X12800Y6209D01*
G01X12813Y6289D02*
G01X12800Y6249D01*
G01X12826Y6303D02*
G01X12813Y6289D01*
G01X12853Y6316D02*
G01X12826Y6303D01*
G04 Draw part R14*
G04 draw part outline for part R14*
G04 draw reference designator for part R14*
G01X24200Y10481D02*
G01X24200Y10200D01*
G01X24320Y10481D02*
G01X24200Y10481D01*
G01X24320Y10481D02*
G01X24361Y10468D01*
G01X24361Y10468D02*
G01X24374Y10455D01*
G01X24374Y10455D02*
G01X24387Y10428D01*
G01X24387Y10428D02*
G01X24387Y10401D01*
G01X24387Y10401D02*
G01X24374Y10374D01*
G01X24374Y10374D02*
G01X24361Y10361D01*
G01X24361Y10361D02*
G01X24320Y10347D01*
G01X24200Y10347D02*
G01X24320Y10347D01*
G01X24293Y10347D02*
G01X24387Y10200D01*
G01X24522Y10441D02*
G01X24495Y10428D01*
G01X24562Y10481D02*
G01X24522Y10441D01*
G01X24562Y10481D02*
G01X24562Y10200D01*
G01X24803Y10481D02*
G01X24669Y10293D01*
G01X24871Y10293D02*
G01X24669Y10293D01*
G01X24803Y10481D02*
G01X24803Y10200D01*
G04 Draw part R15*
G04 draw part outline for part R15*
G04 draw reference designator for part R15*
G01X24200Y9681D02*
G01X24200Y9400D01*
G01X24320Y9681D02*
G01X24200Y9681D01*
G01X24320Y9681D02*
G01X24361Y9668D01*
G01X24361Y9668D02*
G01X24374Y9655D01*
G01X24374Y9655D02*
G01X24387Y9628D01*
G01X24387Y9628D02*
G01X24387Y9601D01*
G01X24387Y9601D02*
G01X24374Y9574D01*
G01X24374Y9574D02*
G01X24361Y9561D01*
G01X24361Y9561D02*
G01X24320Y9547D01*
G01X24200Y9547D02*
G01X24320Y9547D01*
G01X24293Y9547D02*
G01X24387Y9400D01*
G01X24522Y9641D02*
G01X24495Y9628D01*
G01X24562Y9681D02*
G01X24522Y9641D01*
G01X24562Y9681D02*
G01X24562Y9400D01*
G01X24696Y9681D02*
G01X24830Y9681D01*
G01X24696Y9681D02*
G01X24683Y9561D01*
G01X24696Y9574D02*
G01X24683Y9561D01*
G01X24736Y9587D02*
G01X24696Y9574D01*
G01X24777Y9587D02*
G01X24736Y9587D01*
G01X24777Y9587D02*
G01X24817Y9574D01*
G01X24817Y9574D02*
G01X24844Y9547D01*
G01X24844Y9547D02*
G01X24857Y9507D01*
G01X24857Y9507D02*
G01X24857Y9480D01*
G01X24857Y9480D02*
G01X24844Y9440D01*
G01X24844Y9440D02*
G01X24817Y9413D01*
G01X24817Y9413D02*
G01X24777Y9400D01*
G01X24736Y9400D02*
G01X24777Y9400D01*
G01X24696Y9413D02*
G01X24736Y9400D01*
G01X24683Y9426D02*
G01X24696Y9413D01*
G01X24669Y9453D02*
G01X24683Y9426D01*
G04 Draw part R16*
G04 draw part outline for part R16*
G04 draw reference designator for part R16*
G01X24200Y8881D02*
G01X24200Y8600D01*
G01X24320Y8881D02*
G01X24200Y8881D01*
G01X24320Y8881D02*
G01X24361Y8868D01*
G01X24361Y8868D02*
G01X24374Y8855D01*
G01X24374Y8855D02*
G01X24387Y8828D01*
G01X24387Y8828D02*
G01X24387Y8801D01*
G01X24387Y8801D02*
G01X24374Y8774D01*
G01X24374Y8774D02*
G01X24361Y8761D01*
G01X24361Y8761D02*
G01X24320Y8747D01*
G01X24200Y8747D02*
G01X24320Y8747D01*
G01X24293Y8747D02*
G01X24387Y8600D01*
G01X24522Y8841D02*
G01X24495Y8828D01*
G01X24562Y8881D02*
G01X24522Y8841D01*
G01X24562Y8881D02*
G01X24562Y8600D01*
G01X24817Y8868D02*
G01X24830Y8841D01*
G01X24777Y8881D02*
G01X24817Y8868D01*
G01X24750Y8881D02*
G01X24777Y8881D01*
G01X24750Y8881D02*
G01X24710Y8868D01*
G01X24710Y8868D02*
G01X24683Y8828D01*
G01X24683Y8828D02*
G01X24669Y8761D01*
G01X24669Y8761D02*
G01X24669Y8693D01*
G01X24669Y8693D02*
G01X24683Y8640D01*
G01X24683Y8640D02*
G01X24710Y8613D01*
G01X24710Y8613D02*
G01X24750Y8600D01*
G01X24763Y8600D02*
G01X24750Y8600D01*
G01X24803Y8613D02*
G01X24763Y8600D01*
G01X24830Y8640D02*
G01X24803Y8613D01*
G01X24844Y8680D02*
G01X24830Y8640D01*
G01X24844Y8693D02*
G01X24844Y8680D01*
G01X24830Y8734D02*
G01X24844Y8693D01*
G01X24803Y8761D02*
G01X24830Y8734D01*
G01X24763Y8774D02*
G01X24803Y8761D01*
G01X24750Y8774D02*
G01X24763Y8774D01*
G01X24750Y8774D02*
G01X24710Y8761D01*
G01X24710Y8761D02*
G01X24683Y8734D01*
G01X24683Y8734D02*
G01X24669Y8693D01*
G04 Draw part C29*
G04 draw part outline for part C29*
G04 draw reference designator for part C29*
G01X26287Y6141D02*
G01X26301Y6114D01*
G01X26261Y6168D02*
G01X26287Y6141D01*
G01X26234Y6181D02*
G01X26261Y6168D01*
G01X26180Y6181D02*
G01X26234Y6181D01*
G01X26180Y6181D02*
G01X26153Y6168D01*
G01X26153Y6168D02*
G01X26126Y6141D01*
G01X26126Y6141D02*
G01X26113Y6114D01*
G01X26113Y6114D02*
G01X26100Y6074D01*
G01X26100Y6074D02*
G01X26100Y6007D01*
G01X26100Y6007D02*
G01X26113Y5967D01*
G01X26113Y5967D02*
G01X26126Y5940D01*
G01X26126Y5940D02*
G01X26153Y5913D01*
G01X26153Y5913D02*
G01X26180Y5900D01*
G01X26234Y5900D02*
G01X26180Y5900D01*
G01X26261Y5913D02*
G01X26234Y5900D01*
G01X26287Y5940D02*
G01X26261Y5913D01*
G01X26301Y5967D02*
G01X26287Y5940D01*
G01X26422Y6128D02*
G01X26422Y6114D01*
G01X26435Y6155D02*
G01X26422Y6128D01*
G01X26448Y6168D02*
G01X26435Y6155D01*
G01X26475Y6181D02*
G01X26448Y6168D01*
G01X26529Y6181D02*
G01X26475Y6181D01*
G01X26529Y6181D02*
G01X26556Y6168D01*
G01X26556Y6168D02*
G01X26569Y6155D01*
G01X26569Y6155D02*
G01X26583Y6128D01*
G01X26583Y6128D02*
G01X26583Y6101D01*
G01X26583Y6101D02*
G01X26569Y6074D01*
G01X26569Y6074D02*
G01X26542Y6034D01*
G01X26542Y6034D02*
G01X26408Y5900D01*
G01X26596Y5900D02*
G01X26408Y5900D01*
G01X26878Y6087D02*
G01X26865Y6047D01*
G01X26865Y6047D02*
G01X26838Y6020D01*
G01X26838Y6020D02*
G01X26797Y6007D01*
G01X26784Y6007D02*
G01X26797Y6007D01*
G01X26744Y6020D02*
G01X26784Y6007D01*
G01X26717Y6047D02*
G01X26744Y6020D01*
G01X26703Y6087D02*
G01X26717Y6047D01*
G01X26703Y6101D02*
G01X26703Y6087D01*
G01X26717Y6141D02*
G01X26703Y6101D01*
G01X26744Y6168D02*
G01X26717Y6141D01*
G01X26784Y6181D02*
G01X26744Y6168D01*
G01X26797Y6181D02*
G01X26784Y6181D01*
G01X26797Y6181D02*
G01X26838Y6168D01*
G01X26838Y6168D02*
G01X26865Y6141D01*
G01X26865Y6141D02*
G01X26878Y6087D01*
G01X26878Y6087D02*
G01X26878Y6020D01*
G01X26878Y6020D02*
G01X26865Y5953D01*
G01X26865Y5953D02*
G01X26838Y5913D01*
G01X26838Y5913D02*
G01X26797Y5900D01*
G01X26771Y5900D02*
G01X26797Y5900D01*
G01X26730Y5913D02*
G01X26771Y5900D01*
G01X26717Y5940D02*
G01X26730Y5913D01*
G04 Draw part R22*
G04 draw part outline for part R22*
G04 draw reference designator for part R22*
G01X25500Y2781D02*
G01X25500Y2500D01*
G01X25620Y2781D02*
G01X25500Y2781D01*
G01X25620Y2781D02*
G01X25661Y2768D01*
G01X25661Y2768D02*
G01X25674Y2755D01*
G01X25674Y2755D02*
G01X25687Y2728D01*
G01X25687Y2728D02*
G01X25687Y2701D01*
G01X25687Y2701D02*
G01X25674Y2674D01*
G01X25674Y2674D02*
G01X25661Y2661D01*
G01X25661Y2661D02*
G01X25620Y2647D01*
G01X25500Y2647D02*
G01X25620Y2647D01*
G01X25593Y2647D02*
G01X25687Y2500D01*
G01X25808Y2728D02*
G01X25808Y2714D01*
G01X25822Y2755D02*
G01X25808Y2728D01*
G01X25835Y2768D02*
G01X25822Y2755D01*
G01X25862Y2781D02*
G01X25835Y2768D01*
G01X25916Y2781D02*
G01X25862Y2781D01*
G01X25916Y2781D02*
G01X25942Y2768D01*
G01X25942Y2768D02*
G01X25956Y2755D01*
G01X25956Y2755D02*
G01X25969Y2728D01*
G01X25969Y2728D02*
G01X25969Y2701D01*
G01X25969Y2701D02*
G01X25956Y2674D01*
G01X25956Y2674D02*
G01X25929Y2634D01*
G01X25929Y2634D02*
G01X25795Y2500D01*
G01X25983Y2500D02*
G01X25795Y2500D01*
G01X26103Y2728D02*
G01X26103Y2714D01*
G01X26117Y2755D02*
G01X26103Y2728D01*
G01X26130Y2768D02*
G01X26117Y2755D01*
G01X26157Y2781D02*
G01X26130Y2768D01*
G01X26211Y2781D02*
G01X26157Y2781D01*
G01X26211Y2781D02*
G01X26238Y2768D01*
G01X26238Y2768D02*
G01X26251Y2755D01*
G01X26251Y2755D02*
G01X26265Y2728D01*
G01X26265Y2728D02*
G01X26265Y2701D01*
G01X26265Y2701D02*
G01X26251Y2674D01*
G01X26251Y2674D02*
G01X26224Y2634D01*
G01X26224Y2634D02*
G01X26090Y2500D01*
G01X26278Y2500D02*
G01X26090Y2500D01*
G04 Draw part C27*
G04 draw part outline for part C27*
G04 draw reference designator for part C27*
G01X27241Y4112D02*
G01X27214Y4098D01*
G01X27268Y4138D02*
G01X27241Y4112D01*
G01X27281Y4165D02*
G01X27268Y4138D01*
G01X27281Y4219D02*
G01X27281Y4165D01*
G01X27281Y4219D02*
G01X27268Y4246D01*
G01X27268Y4246D02*
G01X27241Y4273D01*
G01X27241Y4273D02*
G01X27214Y4286D01*
G01X27214Y4286D02*
G01X27174Y4300D01*
G01X27174Y4300D02*
G01X27107Y4300D01*
G01X27107Y4300D02*
G01X27067Y4286D01*
G01X27067Y4286D02*
G01X27040Y4273D01*
G01X27040Y4273D02*
G01X27013Y4246D01*
G01X27013Y4246D02*
G01X27000Y4219D01*
G01X27000Y4165D02*
G01X27000Y4219D01*
G01X27013Y4138D02*
G01X27000Y4165D01*
G01X27040Y4112D02*
G01X27013Y4138D01*
G01X27067Y4098D02*
G01X27040Y4112D01*
G01X27228Y3977D02*
G01X27214Y3977D01*
G01X27255Y3964D02*
G01X27228Y3977D01*
G01X27268Y3951D02*
G01X27255Y3964D01*
G01X27281Y3924D02*
G01X27268Y3951D01*
G01X27281Y3870D02*
G01X27281Y3924D01*
G01X27281Y3870D02*
G01X27268Y3843D01*
G01X27268Y3843D02*
G01X27255Y3830D01*
G01X27255Y3830D02*
G01X27228Y3816D01*
G01X27228Y3816D02*
G01X27201Y3816D01*
G01X27201Y3816D02*
G01X27174Y3830D01*
G01X27174Y3830D02*
G01X27134Y3857D01*
G01X27134Y3857D02*
G01X27000Y3991D01*
G01X27000Y3803D02*
G01X27000Y3991D01*
G01X27281Y3508D02*
G01X27000Y3642D01*
G01X27281Y3508D02*
G01X27281Y3696D01*
G04 Draw part C26*
G04 draw part outline for part C26*
G04 draw reference designator for part C26*
G01X27258Y1987D02*
G01X27285Y2001D01*
G01X27231Y1961D02*
G01X27258Y1987D01*
G01X27218Y1934D02*
G01X27231Y1961D01*
G01X27218Y1880D02*
G01X27218Y1934D01*
G01X27218Y1880D02*
G01X27231Y1853D01*
G01X27231Y1853D02*
G01X27258Y1826D01*
G01X27258Y1826D02*
G01X27285Y1813D01*
G01X27285Y1813D02*
G01X27325Y1800D01*
G01X27325Y1800D02*
G01X27392Y1800D01*
G01X27392Y1800D02*
G01X27432Y1813D01*
G01X27432Y1813D02*
G01X27459Y1826D01*
G01X27459Y1826D02*
G01X27486Y1853D01*
G01X27486Y1853D02*
G01X27500Y1880D01*
G01X27500Y1934D02*
G01X27500Y1880D01*
G01X27486Y1961D02*
G01X27500Y1934D01*
G01X27459Y1987D02*
G01X27486Y1961D01*
G01X27432Y2001D02*
G01X27459Y1987D01*
G01X27271Y2122D02*
G01X27285Y2122D01*
G01X27244Y2135D02*
G01X27271Y2122D01*
G01X27231Y2148D02*
G01X27244Y2135D01*
G01X27218Y2175D02*
G01X27231Y2148D01*
G01X27218Y2229D02*
G01X27218Y2175D01*
G01X27218Y2229D02*
G01X27231Y2256D01*
G01X27231Y2256D02*
G01X27244Y2269D01*
G01X27244Y2269D02*
G01X27271Y2283D01*
G01X27271Y2283D02*
G01X27298Y2283D01*
G01X27298Y2283D02*
G01X27325Y2269D01*
G01X27325Y2269D02*
G01X27365Y2242D01*
G01X27365Y2242D02*
G01X27500Y2108D01*
G01X27500Y2296D02*
G01X27500Y2108D01*
G01X27231Y2551D02*
G01X27258Y2565D01*
G01X27218Y2511D02*
G01X27231Y2551D01*
G01X27218Y2484D02*
G01X27218Y2511D01*
G01X27218Y2484D02*
G01X27231Y2444D01*
G01X27231Y2444D02*
G01X27271Y2417D01*
G01X27271Y2417D02*
G01X27338Y2403D01*
G01X27338Y2403D02*
G01X27406Y2403D01*
G01X27406Y2403D02*
G01X27459Y2417D01*
G01X27459Y2417D02*
G01X27486Y2444D01*
G01X27486Y2444D02*
G01X27500Y2484D01*
G01X27500Y2497D02*
G01X27500Y2484D01*
G01X27486Y2538D02*
G01X27500Y2497D01*
G01X27459Y2565D02*
G01X27486Y2538D01*
G01X27419Y2578D02*
G01X27459Y2565D01*
G01X27406Y2578D02*
G01X27419Y2578D01*
G01X27365Y2565D02*
G01X27406Y2578D01*
G01X27338Y2538D02*
G01X27365Y2565D01*
G01X27325Y2497D02*
G01X27338Y2538D01*
G01X27325Y2484D02*
G01X27325Y2497D01*
G01X27325Y2484D02*
G01X27338Y2444D01*
G01X27338Y2444D02*
G01X27365Y2417D01*
G01X27365Y2417D02*
G01X27406Y2403D01*
G04 Draw part C22*
G04 draw part outline for part C22*
G04 draw reference designator for part C22*
G01X23041Y1112D02*
G01X23014Y1098D01*
G01X23068Y1138D02*
G01X23041Y1112D01*
G01X23081Y1165D02*
G01X23068Y1138D01*
G01X23081Y1219D02*
G01X23081Y1165D01*
G01X23081Y1219D02*
G01X23068Y1246D01*
G01X23068Y1246D02*
G01X23041Y1273D01*
G01X23041Y1273D02*
G01X23014Y1286D01*
G01X23014Y1286D02*
G01X22974Y1300D01*
G01X22974Y1300D02*
G01X22907Y1300D01*
G01X22907Y1300D02*
G01X22867Y1286D01*
G01X22867Y1286D02*
G01X22840Y1273D01*
G01X22840Y1273D02*
G01X22813Y1246D01*
G01X22813Y1246D02*
G01X22800Y1219D01*
G01X22800Y1165D02*
G01X22800Y1219D01*
G01X22813Y1138D02*
G01X22800Y1165D01*
G01X22840Y1112D02*
G01X22813Y1138D01*
G01X22867Y1098D02*
G01X22840Y1112D01*
G01X23028Y977D02*
G01X23014Y977D01*
G01X23055Y964D02*
G01X23028Y977D01*
G01X23068Y951D02*
G01X23055Y964D01*
G01X23081Y924D02*
G01X23068Y951D01*
G01X23081Y870D02*
G01X23081Y924D01*
G01X23081Y870D02*
G01X23068Y843D01*
G01X23068Y843D02*
G01X23055Y830D01*
G01X23055Y830D02*
G01X23028Y816D01*
G01X23028Y816D02*
G01X23001Y816D01*
G01X23001Y816D02*
G01X22974Y830D01*
G01X22974Y830D02*
G01X22934Y857D01*
G01X22934Y857D02*
G01X22800Y991D01*
G01X22800Y803D02*
G01X22800Y991D01*
G01X23028Y682D02*
G01X23014Y682D01*
G01X23055Y669D02*
G01X23028Y682D01*
G01X23068Y655D02*
G01X23055Y669D01*
G01X23081Y628D02*
G01X23068Y655D01*
G01X23081Y575D02*
G01X23081Y628D01*
G01X23081Y575D02*
G01X23068Y548D01*
G01X23068Y548D02*
G01X23055Y534D01*
G01X23055Y534D02*
G01X23028Y521D01*
G01X23028Y521D02*
G01X23001Y521D01*
G01X23001Y521D02*
G01X22974Y534D01*
G01X22974Y534D02*
G01X22934Y561D01*
G01X22934Y561D02*
G01X22800Y696D01*
G01X22800Y508D02*
G01X22800Y696D01*
G04 Draw part C21*
G04 draw part outline for part C21*
G04 draw reference designator for part C21*
G01X21612Y1958D02*
G01X21598Y1985D01*
G01X21638Y1931D02*
G01X21612Y1958D01*
G01X21665Y1918D02*
G01X21638Y1931D01*
G01X21719Y1918D02*
G01X21665Y1918D01*
G01X21719Y1918D02*
G01X21746Y1931D01*
G01X21746Y1931D02*
G01X21773Y1958D01*
G01X21773Y1958D02*
G01X21786Y1985D01*
G01X21786Y1985D02*
G01X21800Y2025D01*
G01X21800Y2025D02*
G01X21800Y2092D01*
G01X21800Y2092D02*
G01X21786Y2132D01*
G01X21786Y2132D02*
G01X21773Y2159D01*
G01X21773Y2159D02*
G01X21746Y2186D01*
G01X21746Y2186D02*
G01X21719Y2200D01*
G01X21665Y2200D02*
G01X21719Y2200D01*
G01X21638Y2186D02*
G01X21665Y2200D01*
G01X21612Y2159D02*
G01X21638Y2186D01*
G01X21598Y2132D02*
G01X21612Y2159D01*
G01X21477Y1971D02*
G01X21477Y1985D01*
G01X21464Y1944D02*
G01X21477Y1971D01*
G01X21451Y1931D02*
G01X21464Y1944D01*
G01X21424Y1918D02*
G01X21451Y1931D01*
G01X21370Y1918D02*
G01X21424Y1918D01*
G01X21370Y1918D02*
G01X21343Y1931D01*
G01X21343Y1931D02*
G01X21330Y1944D01*
G01X21330Y1944D02*
G01X21316Y1971D01*
G01X21316Y1971D02*
G01X21316Y1998D01*
G01X21316Y1998D02*
G01X21330Y2025D01*
G01X21330Y2025D02*
G01X21357Y2065D01*
G01X21357Y2065D02*
G01X21491Y2200D01*
G01X21303Y2200D02*
G01X21491Y2200D01*
G01X21169Y1958D02*
G01X21196Y1971D01*
G01X21128Y1918D02*
G01X21169Y1958D01*
G01X21128Y1918D02*
G01X21128Y2200D01*
G04 Draw part R21*
G04 draw part outline for part R21*
G04 draw reference designator for part R21*
G01X20900Y3481D02*
G01X20900Y3200D01*
G01X21020Y3481D02*
G01X20900Y3481D01*
G01X21020Y3481D02*
G01X21061Y3468D01*
G01X21061Y3468D02*
G01X21074Y3455D01*
G01X21074Y3455D02*
G01X21087Y3428D01*
G01X21087Y3428D02*
G01X21087Y3401D01*
G01X21087Y3401D02*
G01X21074Y3374D01*
G01X21074Y3374D02*
G01X21061Y3361D01*
G01X21061Y3361D02*
G01X21020Y3347D01*
G01X20900Y3347D02*
G01X21020Y3347D01*
G01X20993Y3347D02*
G01X21087Y3200D01*
G01X21208Y3428D02*
G01X21208Y3414D01*
G01X21222Y3455D02*
G01X21208Y3428D01*
G01X21235Y3468D02*
G01X21222Y3455D01*
G01X21262Y3481D02*
G01X21235Y3468D01*
G01X21316Y3481D02*
G01X21262Y3481D01*
G01X21316Y3481D02*
G01X21342Y3468D01*
G01X21342Y3468D02*
G01X21356Y3455D01*
G01X21356Y3455D02*
G01X21369Y3428D01*
G01X21369Y3428D02*
G01X21369Y3401D01*
G01X21369Y3401D02*
G01X21356Y3374D01*
G01X21356Y3374D02*
G01X21329Y3334D01*
G01X21329Y3334D02*
G01X21195Y3200D01*
G01X21383Y3200D02*
G01X21195Y3200D01*
G01X21517Y3441D02*
G01X21490Y3428D01*
G01X21557Y3481D02*
G01X21517Y3441D01*
G01X21557Y3481D02*
G01X21557Y3200D01*
G04 Draw part R18*
G04 draw part outline for part R18*
G04 draw reference designator for part R18*
G01X25018Y6400D02*
G01X25300Y6400D01*
G01X25018Y6520D02*
G01X25018Y6400D01*
G01X25018Y6520D02*
G01X25031Y6561D01*
G01X25031Y6561D02*
G01X25044Y6574D01*
G01X25044Y6574D02*
G01X25071Y6587D01*
G01X25071Y6587D02*
G01X25098Y6587D01*
G01X25098Y6587D02*
G01X25125Y6574D01*
G01X25125Y6574D02*
G01X25138Y6561D01*
G01X25138Y6561D02*
G01X25152Y6520D01*
G01X25152Y6400D02*
G01X25152Y6520D01*
G01X25152Y6493D02*
G01X25300Y6587D01*
G01X25058Y6722D02*
G01X25071Y6695D01*
G01X25018Y6762D02*
G01X25058Y6722D01*
G01X25018Y6762D02*
G01X25300Y6762D01*
G01X25018Y6936D02*
G01X25031Y6896D01*
G01X25031Y6896D02*
G01X25058Y6883D01*
G01X25058Y6883D02*
G01X25085Y6883D01*
G01X25085Y6883D02*
G01X25112Y6896D01*
G01X25112Y6896D02*
G01X25125Y6923D01*
G01X25125Y6923D02*
G01X25138Y6977D01*
G01X25138Y6977D02*
G01X25152Y7017D01*
G01X25152Y7017D02*
G01X25179Y7044D01*
G01X25179Y7044D02*
G01X25206Y7057D01*
G01X25206Y7057D02*
G01X25246Y7057D01*
G01X25246Y7057D02*
G01X25273Y7044D01*
G01X25273Y7044D02*
G01X25286Y7030D01*
G01X25286Y7030D02*
G01X25300Y6990D01*
G01X25300Y6936D02*
G01X25300Y6990D01*
G01X25286Y6896D02*
G01X25300Y6936D01*
G01X25273Y6883D02*
G01X25286Y6896D01*
G01X25246Y6869D02*
G01X25273Y6883D01*
G01X25206Y6869D02*
G01X25246Y6869D01*
G01X25179Y6883D02*
G01X25206Y6869D01*
G01X25152Y6910D02*
G01X25179Y6883D01*
G01X25138Y6950D02*
G01X25152Y6910D01*
G01X25125Y7003D02*
G01X25138Y6950D01*
G01X25112Y7030D02*
G01X25125Y7003D01*
G01X25085Y7044D02*
G01X25112Y7030D01*
G01X25058Y7044D02*
G01X25085Y7044D01*
G01X25031Y7030D02*
G01X25058Y7044D01*
G01X25018Y6990D02*
G01X25031Y7030D01*
G01X25018Y6936D02*
G01X25018Y6990D01*
G04 Draw part R19*
G04 draw part outline for part R19*
G04 draw reference designator for part R19*
G01X24318Y7300D02*
G01X24600Y7300D01*
G01X24318Y7420D02*
G01X24318Y7300D01*
G01X24318Y7420D02*
G01X24331Y7461D01*
G01X24331Y7461D02*
G01X24344Y7474D01*
G01X24344Y7474D02*
G01X24371Y7487D01*
G01X24371Y7487D02*
G01X24398Y7487D01*
G01X24398Y7487D02*
G01X24425Y7474D01*
G01X24425Y7474D02*
G01X24438Y7461D01*
G01X24438Y7461D02*
G01X24452Y7420D01*
G01X24452Y7300D02*
G01X24452Y7420D01*
G01X24452Y7393D02*
G01X24600Y7487D01*
G01X24358Y7622D02*
G01X24371Y7595D01*
G01X24318Y7662D02*
G01X24358Y7622D01*
G01X24318Y7662D02*
G01X24600Y7662D01*
G01X24412Y7944D02*
G01X24452Y7930D01*
G01X24452Y7930D02*
G01X24479Y7903D01*
G01X24479Y7903D02*
G01X24492Y7863D01*
G01X24492Y7850D02*
G01X24492Y7863D01*
G01X24479Y7810D02*
G01X24492Y7850D01*
G01X24452Y7783D02*
G01X24479Y7810D01*
G01X24412Y7769D02*
G01X24452Y7783D01*
G01X24398Y7769D02*
G01X24412Y7769D01*
G01X24358Y7783D02*
G01X24398Y7769D01*
G01X24331Y7810D02*
G01X24358Y7783D01*
G01X24318Y7850D02*
G01X24331Y7810D01*
G01X24318Y7863D02*
G01X24318Y7850D01*
G01X24318Y7863D02*
G01X24331Y7903D01*
G01X24331Y7903D02*
G01X24358Y7930D01*
G01X24358Y7930D02*
G01X24412Y7944D01*
G01X24412Y7944D02*
G01X24479Y7944D01*
G01X24479Y7944D02*
G01X24546Y7930D01*
G01X24546Y7930D02*
G01X24586Y7903D01*
G01X24586Y7903D02*
G01X24600Y7863D01*
G01X24600Y7836D02*
G01X24600Y7863D01*
G01X24586Y7796D02*
G01X24600Y7836D01*
G01X24559Y7783D02*
G01X24586Y7796D01*
G04 Draw part R20*
G04 draw part outline for part R20*
G04 draw reference designator for part R20*
G01X24187Y6200D02*
G01X24000Y6200D01*
G01X24187Y6119D02*
G01X24187Y6200D01*
G01X24187Y6119D02*
G01X24178Y6092D01*
G01X24178Y6092D02*
G01X24170Y6083D01*
G01X24170Y6083D02*
G01X24152Y6074D01*
G01X24152Y6074D02*
G01X24134Y6074D01*
G01X24134Y6074D02*
G01X24116Y6083D01*
G01X24116Y6083D02*
G01X24107Y6092D01*
G01X24107Y6092D02*
G01X24098Y6119D01*
G01X24098Y6200D02*
G01X24098Y6119D01*
G01X24098Y6137D02*
G01X24000Y6074D01*
G01X24152Y5994D02*
G01X24143Y5994D01*
G01X24170Y5985D02*
G01X24152Y5994D01*
G01X24178Y5976D02*
G01X24170Y5985D01*
G01X24187Y5958D02*
G01X24178Y5976D01*
G01X24187Y5922D02*
G01X24187Y5958D01*
G01X24187Y5922D02*
G01X24178Y5904D01*
G01X24178Y5904D02*
G01X24170Y5895D01*
G01X24170Y5895D02*
G01X24152Y5886D01*
G01X24152Y5886D02*
G01X24134Y5886D01*
G01X24134Y5886D02*
G01X24116Y5895D01*
G01X24116Y5895D02*
G01X24089Y5913D01*
G01X24089Y5913D02*
G01X24000Y6003D01*
G01X24000Y5877D02*
G01X24000Y6003D01*
G01X24187Y5752D02*
G01X24178Y5779D01*
G01X24178Y5779D02*
G01X24152Y5797D01*
G01X24152Y5797D02*
G01X24107Y5806D01*
G01X24107Y5806D02*
G01X24080Y5806D01*
G01X24080Y5806D02*
G01X24035Y5797D01*
G01X24035Y5797D02*
G01X24008Y5779D01*
G01X24008Y5779D02*
G01X24000Y5752D01*
G01X24000Y5734D02*
G01X24000Y5752D01*
G01X24008Y5707D02*
G01X24000Y5734D01*
G01X24035Y5689D02*
G01X24008Y5707D01*
G01X24080Y5681D02*
G01X24035Y5689D01*
G01X24107Y5681D02*
G01X24080Y5681D01*
G01X24152Y5689D02*
G01X24107Y5681D01*
G01X24178Y5707D02*
G01X24152Y5689D01*
G01X24187Y5734D02*
G01X24178Y5707D01*
G01X24187Y5752D02*
G01X24187Y5734D01*
G04 Draw part C19*
G04 draw part outline for part C19*
G04 draw reference designator for part C19*
G01X20987Y3841D02*
G01X21001Y3814D01*
G01X20961Y3868D02*
G01X20987Y3841D01*
G01X20934Y3881D02*
G01X20961Y3868D01*
G01X20880Y3881D02*
G01X20934Y3881D01*
G01X20880Y3881D02*
G01X20853Y3868D01*
G01X20853Y3868D02*
G01X20826Y3841D01*
G01X20826Y3841D02*
G01X20813Y3814D01*
G01X20813Y3814D02*
G01X20800Y3774D01*
G01X20800Y3774D02*
G01X20800Y3707D01*
G01X20800Y3707D02*
G01X20813Y3667D01*
G01X20813Y3667D02*
G01X20826Y3640D01*
G01X20826Y3640D02*
G01X20853Y3613D01*
G01X20853Y3613D02*
G01X20880Y3600D01*
G01X20934Y3600D02*
G01X20880Y3600D01*
G01X20961Y3613D02*
G01X20934Y3600D01*
G01X20987Y3640D02*
G01X20961Y3613D01*
G01X21001Y3667D02*
G01X20987Y3640D01*
G01X21135Y3841D02*
G01X21108Y3828D01*
G01X21175Y3881D02*
G01X21135Y3841D01*
G01X21175Y3881D02*
G01X21175Y3600D01*
G01X21457Y3787D02*
G01X21444Y3747D01*
G01X21444Y3747D02*
G01X21417Y3720D01*
G01X21417Y3720D02*
G01X21377Y3707D01*
G01X21363Y3707D02*
G01X21377Y3707D01*
G01X21323Y3720D02*
G01X21363Y3707D01*
G01X21296Y3747D02*
G01X21323Y3720D01*
G01X21283Y3787D02*
G01X21296Y3747D01*
G01X21283Y3801D02*
G01X21283Y3787D01*
G01X21296Y3841D02*
G01X21283Y3801D01*
G01X21323Y3868D02*
G01X21296Y3841D01*
G01X21363Y3881D02*
G01X21323Y3868D01*
G01X21377Y3881D02*
G01X21363Y3881D01*
G01X21377Y3881D02*
G01X21417Y3868D01*
G01X21417Y3868D02*
G01X21444Y3841D01*
G01X21444Y3841D02*
G01X21457Y3787D01*
G01X21457Y3787D02*
G01X21457Y3720D01*
G01X21457Y3720D02*
G01X21444Y3653D01*
G01X21444Y3653D02*
G01X21417Y3613D01*
G01X21417Y3613D02*
G01X21377Y3600D01*
G01X21350Y3600D02*
G01X21377Y3600D01*
G01X21310Y3613D02*
G01X21350Y3600D01*
G01X21296Y3640D02*
G01X21310Y3613D01*
G04 Draw part C24*
G04 draw part outline for part C24*
G04 draw reference designator for part C24*
G01X26112Y1858D02*
G01X26098Y1885D01*
G01X26138Y1831D02*
G01X26112Y1858D01*
G01X26165Y1818D02*
G01X26138Y1831D01*
G01X26219Y1818D02*
G01X26165Y1818D01*
G01X26219Y1818D02*
G01X26246Y1831D01*
G01X26246Y1831D02*
G01X26273Y1858D01*
G01X26273Y1858D02*
G01X26286Y1885D01*
G01X26286Y1885D02*
G01X26300Y1925D01*
G01X26300Y1925D02*
G01X26300Y1992D01*
G01X26300Y1992D02*
G01X26286Y2032D01*
G01X26286Y2032D02*
G01X26273Y2059D01*
G01X26273Y2059D02*
G01X26246Y2086D01*
G01X26246Y2086D02*
G01X26219Y2100D01*
G01X26165Y2100D02*
G01X26219Y2100D01*
G01X26138Y2086D02*
G01X26165Y2100D01*
G01X26112Y2059D02*
G01X26138Y2086D01*
G01X26098Y2032D02*
G01X26112Y2059D01*
G01X25977Y1871D02*
G01X25977Y1885D01*
G01X25964Y1844D02*
G01X25977Y1871D01*
G01X25951Y1831D02*
G01X25964Y1844D01*
G01X25924Y1818D02*
G01X25951Y1831D01*
G01X25870Y1818D02*
G01X25924Y1818D01*
G01X25870Y1818D02*
G01X25843Y1831D01*
G01X25843Y1831D02*
G01X25830Y1844D01*
G01X25830Y1844D02*
G01X25816Y1871D01*
G01X25816Y1871D02*
G01X25816Y1898D01*
G01X25816Y1898D02*
G01X25830Y1925D01*
G01X25830Y1925D02*
G01X25857Y1965D01*
G01X25857Y1965D02*
G01X25991Y2100D01*
G01X25803Y2100D02*
G01X25991Y2100D01*
G01X25561Y1818D02*
G01X25696Y2006D01*
G01X25494Y2006D02*
G01X25696Y2006D01*
G01X25561Y1818D02*
G01X25561Y2100D01*
G04 Draw part C23*
G04 draw part outline for part C23*
G04 draw reference designator for part C23*
G01X23158Y2187D02*
G01X23185Y2201D01*
G01X23131Y2161D02*
G01X23158Y2187D01*
G01X23118Y2134D02*
G01X23131Y2161D01*
G01X23118Y2080D02*
G01X23118Y2134D01*
G01X23118Y2080D02*
G01X23131Y2053D01*
G01X23131Y2053D02*
G01X23158Y2026D01*
G01X23158Y2026D02*
G01X23185Y2013D01*
G01X23185Y2013D02*
G01X23225Y2000D01*
G01X23225Y2000D02*
G01X23292Y2000D01*
G01X23292Y2000D02*
G01X23332Y2013D01*
G01X23332Y2013D02*
G01X23359Y2026D01*
G01X23359Y2026D02*
G01X23386Y2053D01*
G01X23386Y2053D02*
G01X23400Y2080D01*
G01X23400Y2134D02*
G01X23400Y2080D01*
G01X23386Y2161D02*
G01X23400Y2134D01*
G01X23359Y2187D02*
G01X23386Y2161D01*
G01X23332Y2201D02*
G01X23359Y2187D01*
G01X23171Y2322D02*
G01X23185Y2322D01*
G01X23144Y2335D02*
G01X23171Y2322D01*
G01X23131Y2348D02*
G01X23144Y2335D01*
G01X23118Y2375D02*
G01X23131Y2348D01*
G01X23118Y2429D02*
G01X23118Y2375D01*
G01X23118Y2429D02*
G01X23131Y2456D01*
G01X23131Y2456D02*
G01X23144Y2469D01*
G01X23144Y2469D02*
G01X23171Y2483D01*
G01X23171Y2483D02*
G01X23198Y2483D01*
G01X23198Y2483D02*
G01X23225Y2469D01*
G01X23225Y2469D02*
G01X23265Y2442D01*
G01X23265Y2442D02*
G01X23400Y2308D01*
G01X23400Y2496D02*
G01X23400Y2308D01*
G01X23118Y2778D02*
G01X23118Y2630D01*
G01X23118Y2778D02*
G01X23225Y2697D01*
G01X23225Y2738D02*
G01X23225Y2697D01*
G01X23225Y2738D02*
G01X23238Y2765D01*
G01X23238Y2765D02*
G01X23252Y2778D01*
G01X23252Y2778D02*
G01X23292Y2791D01*
G01X23292Y2791D02*
G01X23319Y2791D01*
G01X23319Y2791D02*
G01X23359Y2778D01*
G01X23359Y2778D02*
G01X23386Y2751D01*
G01X23386Y2751D02*
G01X23400Y2711D01*
G01X23400Y2671D02*
G01X23400Y2711D01*
G01X23386Y2630D02*
G01X23400Y2671D01*
G01X23373Y2617D02*
G01X23386Y2630D01*
G01X23346Y2603D02*
G01X23373Y2617D01*
G04 Draw part C20*
G04 draw part outline for part C20*
G04 draw reference designator for part C20*
G01X21087Y3041D02*
G01X21101Y3014D01*
G01X21061Y3068D02*
G01X21087Y3041D01*
G01X21034Y3081D02*
G01X21061Y3068D01*
G01X20980Y3081D02*
G01X21034Y3081D01*
G01X20980Y3081D02*
G01X20953Y3068D01*
G01X20953Y3068D02*
G01X20926Y3041D01*
G01X20926Y3041D02*
G01X20913Y3014D01*
G01X20913Y3014D02*
G01X20900Y2974D01*
G01X20900Y2974D02*
G01X20900Y2907D01*
G01X20900Y2907D02*
G01X20913Y2867D01*
G01X20913Y2867D02*
G01X20926Y2840D01*
G01X20926Y2840D02*
G01X20953Y2813D01*
G01X20953Y2813D02*
G01X20980Y2800D01*
G01X21034Y2800D02*
G01X20980Y2800D01*
G01X21061Y2813D02*
G01X21034Y2800D01*
G01X21087Y2840D02*
G01X21061Y2813D01*
G01X21101Y2867D02*
G01X21087Y2840D01*
G01X21222Y3028D02*
G01X21222Y3014D01*
G01X21235Y3055D02*
G01X21222Y3028D01*
G01X21248Y3068D02*
G01X21235Y3055D01*
G01X21275Y3081D02*
G01X21248Y3068D01*
G01X21329Y3081D02*
G01X21275Y3081D01*
G01X21329Y3081D02*
G01X21356Y3068D01*
G01X21356Y3068D02*
G01X21369Y3055D01*
G01X21369Y3055D02*
G01X21383Y3028D01*
G01X21383Y3028D02*
G01X21383Y3001D01*
G01X21383Y3001D02*
G01X21369Y2974D01*
G01X21369Y2974D02*
G01X21342Y2934D01*
G01X21342Y2934D02*
G01X21208Y2800D01*
G01X21396Y2800D02*
G01X21208Y2800D01*
G01X21584Y3081D02*
G01X21544Y3068D01*
G01X21544Y3068D02*
G01X21517Y3028D01*
G01X21517Y3028D02*
G01X21503Y2961D01*
G01X21503Y2961D02*
G01X21503Y2920D01*
G01X21503Y2920D02*
G01X21517Y2853D01*
G01X21517Y2853D02*
G01X21544Y2813D01*
G01X21544Y2813D02*
G01X21584Y2800D01*
G01X21611Y2800D02*
G01X21584Y2800D01*
G01X21651Y2813D02*
G01X21611Y2800D01*
G01X21678Y2853D02*
G01X21651Y2813D01*
G01X21691Y2920D02*
G01X21678Y2853D01*
G01X21691Y2961D02*
G01X21691Y2920D01*
G01X21678Y3028D02*
G01X21691Y2961D01*
G01X21651Y3068D02*
G01X21678Y3028D01*
G01X21611Y3081D02*
G01X21651Y3068D01*
G01X21584Y3081D02*
G01X21611Y3081D01*
G04 Draw part C25*
G04 draw part outline for part C25*
G04 draw reference designator for part C25*
G01X26287Y3541D02*
G01X26301Y3514D01*
G01X26261Y3568D02*
G01X26287Y3541D01*
G01X26234Y3581D02*
G01X26261Y3568D01*
G01X26180Y3581D02*
G01X26234Y3581D01*
G01X26180Y3581D02*
G01X26153Y3568D01*
G01X26153Y3568D02*
G01X26126Y3541D01*
G01X26126Y3541D02*
G01X26113Y3514D01*
G01X26113Y3514D02*
G01X26100Y3474D01*
G01X26100Y3474D02*
G01X26100Y3407D01*
G01X26100Y3407D02*
G01X26113Y3367D01*
G01X26113Y3367D02*
G01X26126Y3340D01*
G01X26126Y3340D02*
G01X26153Y3313D01*
G01X26153Y3313D02*
G01X26180Y3300D01*
G01X26234Y3300D02*
G01X26180Y3300D01*
G01X26261Y3313D02*
G01X26234Y3300D01*
G01X26287Y3340D02*
G01X26261Y3313D01*
G01X26301Y3367D02*
G01X26287Y3340D01*
G01X26422Y3528D02*
G01X26422Y3514D01*
G01X26435Y3555D02*
G01X26422Y3528D01*
G01X26448Y3568D02*
G01X26435Y3555D01*
G01X26475Y3581D02*
G01X26448Y3568D01*
G01X26529Y3581D02*
G01X26475Y3581D01*
G01X26529Y3581D02*
G01X26556Y3568D01*
G01X26556Y3568D02*
G01X26569Y3555D01*
G01X26569Y3555D02*
G01X26583Y3528D01*
G01X26583Y3528D02*
G01X26583Y3501D01*
G01X26583Y3501D02*
G01X26569Y3474D01*
G01X26569Y3474D02*
G01X26542Y3434D01*
G01X26542Y3434D02*
G01X26408Y3300D01*
G01X26596Y3300D02*
G01X26408Y3300D01*
G01X26730Y3581D02*
G01X26865Y3581D01*
G01X26730Y3581D02*
G01X26717Y3461D01*
G01X26730Y3474D02*
G01X26717Y3461D01*
G01X26771Y3487D02*
G01X26730Y3474D01*
G01X26811Y3487D02*
G01X26771Y3487D01*
G01X26811Y3487D02*
G01X26851Y3474D01*
G01X26851Y3474D02*
G01X26878Y3447D01*
G01X26878Y3447D02*
G01X26891Y3407D01*
G01X26891Y3407D02*
G01X26891Y3380D01*
G01X26891Y3380D02*
G01X26878Y3340D01*
G01X26878Y3340D02*
G01X26851Y3313D01*
G01X26851Y3313D02*
G01X26811Y3300D01*
G01X26771Y3300D02*
G01X26811Y3300D01*
G01X26730Y3313D02*
G01X26771Y3300D01*
G01X26717Y3326D02*
G01X26730Y3313D01*
G01X26703Y3353D02*
G01X26717Y3326D01*
G04 Draw part C18*
G04 draw part outline for part C18*
G04 draw reference designator for part C18*
G01X23241Y6712D02*
G01X23214Y6698D01*
G01X23268Y6738D02*
G01X23241Y6712D01*
G01X23281Y6765D02*
G01X23268Y6738D01*
G01X23281Y6819D02*
G01X23281Y6765D01*
G01X23281Y6819D02*
G01X23268Y6846D01*
G01X23268Y6846D02*
G01X23241Y6873D01*
G01X23241Y6873D02*
G01X23214Y6886D01*
G01X23214Y6886D02*
G01X23174Y6900D01*
G01X23174Y6900D02*
G01X23107Y6900D01*
G01X23107Y6900D02*
G01X23067Y6886D01*
G01X23067Y6886D02*
G01X23040Y6873D01*
G01X23040Y6873D02*
G01X23013Y6846D01*
G01X23013Y6846D02*
G01X23000Y6819D01*
G01X23000Y6765D02*
G01X23000Y6819D01*
G01X23013Y6738D02*
G01X23000Y6765D01*
G01X23040Y6712D02*
G01X23013Y6738D01*
G01X23067Y6698D02*
G01X23040Y6712D01*
G01X23241Y6564D02*
G01X23228Y6591D01*
G01X23281Y6524D02*
G01X23241Y6564D01*
G01X23281Y6524D02*
G01X23000Y6524D01*
G01X23281Y6349D02*
G01X23268Y6389D01*
G01X23268Y6389D02*
G01X23241Y6403D01*
G01X23241Y6403D02*
G01X23214Y6403D01*
G01X23214Y6403D02*
G01X23187Y6389D01*
G01X23187Y6389D02*
G01X23174Y6363D01*
G01X23174Y6363D02*
G01X23161Y6309D01*
G01X23161Y6309D02*
G01X23147Y6269D01*
G01X23147Y6269D02*
G01X23120Y6242D01*
G01X23120Y6242D02*
G01X23093Y6228D01*
G01X23093Y6228D02*
G01X23053Y6228D01*
G01X23053Y6228D02*
G01X23026Y6242D01*
G01X23026Y6242D02*
G01X23013Y6255D01*
G01X23013Y6255D02*
G01X23000Y6296D01*
G01X23000Y6349D02*
G01X23000Y6296D01*
G01X23013Y6389D02*
G01X23000Y6349D01*
G01X23026Y6403D02*
G01X23013Y6389D01*
G01X23053Y6416D02*
G01X23026Y6403D01*
G01X23093Y6416D02*
G01X23053Y6416D01*
G01X23120Y6403D02*
G01X23093Y6416D01*
G01X23147Y6376D02*
G01X23120Y6403D01*
G01X23161Y6336D02*
G01X23147Y6376D01*
G01X23174Y6282D02*
G01X23161Y6336D01*
G01X23187Y6255D02*
G01X23174Y6282D01*
G01X23214Y6242D02*
G01X23187Y6255D01*
G01X23241Y6242D02*
G01X23214Y6242D01*
G01X23268Y6255D02*
G01X23241Y6242D01*
G01X23281Y6296D02*
G01X23268Y6255D01*
G01X23281Y6349D02*
G01X23281Y6296D01*
G04 Draw part C28*
G04 draw part outline for part C28*
G04 draw reference designator for part C28*
G01X26441Y5312D02*
G01X26414Y5298D01*
G01X26468Y5338D02*
G01X26441Y5312D01*
G01X26481Y5365D02*
G01X26468Y5338D01*
G01X26481Y5419D02*
G01X26481Y5365D01*
G01X26481Y5419D02*
G01X26468Y5446D01*
G01X26468Y5446D02*
G01X26441Y5473D01*
G01X26441Y5473D02*
G01X26414Y5486D01*
G01X26414Y5486D02*
G01X26374Y5500D01*
G01X26374Y5500D02*
G01X26307Y5500D01*
G01X26307Y5500D02*
G01X26267Y5486D01*
G01X26267Y5486D02*
G01X26240Y5473D01*
G01X26240Y5473D02*
G01X26213Y5446D01*
G01X26213Y5446D02*
G01X26200Y5419D01*
G01X26200Y5365D02*
G01X26200Y5419D01*
G01X26213Y5338D02*
G01X26200Y5365D01*
G01X26240Y5312D02*
G01X26213Y5338D01*
G01X26267Y5298D02*
G01X26240Y5312D01*
G01X26428Y5177D02*
G01X26414Y5177D01*
G01X26455Y5164D02*
G01X26428Y5177D01*
G01X26468Y5151D02*
G01X26455Y5164D01*
G01X26481Y5124D02*
G01X26468Y5151D01*
G01X26481Y5070D02*
G01X26481Y5124D01*
G01X26481Y5070D02*
G01X26468Y5043D01*
G01X26468Y5043D02*
G01X26455Y5030D01*
G01X26455Y5030D02*
G01X26428Y5016D01*
G01X26428Y5016D02*
G01X26401Y5016D01*
G01X26401Y5016D02*
G01X26374Y5030D01*
G01X26374Y5030D02*
G01X26334Y5057D01*
G01X26334Y5057D02*
G01X26200Y5191D01*
G01X26200Y5003D02*
G01X26200Y5191D01*
G01X26481Y4828D02*
G01X26468Y4869D01*
G01X26468Y4869D02*
G01X26441Y4882D01*
G01X26441Y4882D02*
G01X26414Y4882D01*
G01X26414Y4882D02*
G01X26387Y4869D01*
G01X26387Y4869D02*
G01X26374Y4842D01*
G01X26374Y4842D02*
G01X26361Y4788D01*
G01X26361Y4788D02*
G01X26347Y4748D01*
G01X26347Y4748D02*
G01X26320Y4721D01*
G01X26320Y4721D02*
G01X26293Y4708D01*
G01X26293Y4708D02*
G01X26253Y4708D01*
G01X26253Y4708D02*
G01X26226Y4721D01*
G01X26226Y4721D02*
G01X26213Y4734D01*
G01X26213Y4734D02*
G01X26200Y4775D01*
G01X26200Y4828D02*
G01X26200Y4775D01*
G01X26213Y4869D02*
G01X26200Y4828D01*
G01X26226Y4882D02*
G01X26213Y4869D01*
G01X26253Y4896D02*
G01X26226Y4882D01*
G01X26293Y4896D02*
G01X26253Y4896D01*
G01X26320Y4882D02*
G01X26293Y4896D01*
G01X26347Y4855D02*
G01X26320Y4882D01*
G01X26361Y4815D02*
G01X26347Y4855D01*
G01X26374Y4761D02*
G01X26361Y4815D01*
G01X26387Y4734D02*
G01X26374Y4761D01*
G01X26414Y4721D02*
G01X26387Y4734D01*
G01X26441Y4721D02*
G01X26414Y4721D01*
G01X26468Y4734D02*
G01X26441Y4721D01*
G01X26481Y4775D02*
G01X26468Y4734D01*
G01X26481Y4828D02*
G01X26481Y4775D01*
G04 Draw part C17*
G04 draw part outline for part C17*
G54D11*
G01X19892Y2948D02*
G01X19892Y1861D01*
G01X19892Y1861D02*
G01X20507Y1861D01*
G01X20507Y1861D02*
G01X20507Y2948D01*
G01X20507Y2948D02*
G01X19892Y2948D01*
G04 draw reference designator for part C17*
G54D10*
G01X19641Y2212D02*
G01X19614Y2198D01*
G01X19668Y2238D02*
G01X19641Y2212D01*
G01X19681Y2265D02*
G01X19668Y2238D01*
G01X19681Y2319D02*
G01X19681Y2265D01*
G01X19681Y2319D02*
G01X19668Y2346D01*
G01X19668Y2346D02*
G01X19641Y2373D01*
G01X19641Y2373D02*
G01X19614Y2386D01*
G01X19614Y2386D02*
G01X19574Y2400D01*
G01X19574Y2400D02*
G01X19507Y2400D01*
G01X19507Y2400D02*
G01X19467Y2386D01*
G01X19467Y2386D02*
G01X19440Y2373D01*
G01X19440Y2373D02*
G01X19413Y2346D01*
G01X19413Y2346D02*
G01X19400Y2319D01*
G01X19400Y2265D02*
G01X19400Y2319D01*
G01X19413Y2238D02*
G01X19400Y2265D01*
G01X19440Y2212D02*
G01X19413Y2238D01*
G01X19467Y2198D02*
G01X19440Y2212D01*
G01X19641Y2064D02*
G01X19628Y2091D01*
G01X19681Y2024D02*
G01X19641Y2064D01*
G01X19681Y2024D02*
G01X19400Y2024D01*
G01X19681Y1728D02*
G01X19400Y1863D01*
G01X19681Y1728D02*
G01X19681Y1916D01*
G04 Draw part C30*
G04 draw part outline for part C30*
G04 draw reference designator for part C30*
G01X14658Y3287D02*
G01X14685Y3301D01*
G01X14631Y3261D02*
G01X14658Y3287D01*
G01X14618Y3234D02*
G01X14631Y3261D01*
G01X14618Y3180D02*
G01X14618Y3234D01*
G01X14618Y3180D02*
G01X14631Y3153D01*
G01X14631Y3153D02*
G01X14658Y3126D01*
G01X14658Y3126D02*
G01X14685Y3113D01*
G01X14685Y3113D02*
G01X14725Y3100D01*
G01X14725Y3100D02*
G01X14792Y3100D01*
G01X14792Y3100D02*
G01X14832Y3113D01*
G01X14832Y3113D02*
G01X14859Y3126D01*
G01X14859Y3126D02*
G01X14886Y3153D01*
G01X14886Y3153D02*
G01X14900Y3180D01*
G01X14900Y3234D02*
G01X14900Y3180D01*
G01X14886Y3261D02*
G01X14900Y3234D01*
G01X14859Y3287D02*
G01X14886Y3261D01*
G01X14832Y3301D02*
G01X14859Y3287D01*
G01X14618Y3583D02*
G01X14618Y3435D01*
G01X14618Y3583D02*
G01X14725Y3502D01*
G01X14725Y3542D02*
G01X14725Y3502D01*
G01X14725Y3542D02*
G01X14738Y3569D01*
G01X14738Y3569D02*
G01X14752Y3583D01*
G01X14752Y3583D02*
G01X14792Y3596D01*
G01X14792Y3596D02*
G01X14819Y3596D01*
G01X14819Y3596D02*
G01X14859Y3583D01*
G01X14859Y3583D02*
G01X14886Y3556D01*
G01X14886Y3556D02*
G01X14900Y3516D01*
G01X14900Y3475D02*
G01X14900Y3516D01*
G01X14886Y3435D02*
G01X14900Y3475D01*
G01X14873Y3422D02*
G01X14886Y3435D01*
G01X14846Y3408D02*
G01X14873Y3422D01*
G01X14618Y3784D02*
G01X14631Y3744D01*
G01X14631Y3744D02*
G01X14671Y3717D01*
G01X14671Y3717D02*
G01X14738Y3703D01*
G01X14738Y3703D02*
G01X14779Y3703D01*
G01X14779Y3703D02*
G01X14846Y3717D01*
G01X14846Y3717D02*
G01X14886Y3744D01*
G01X14886Y3744D02*
G01X14900Y3784D01*
G01X14900Y3811D02*
G01X14900Y3784D01*
G01X14886Y3851D02*
G01X14900Y3811D01*
G01X14846Y3878D02*
G01X14886Y3851D01*
G01X14779Y3891D02*
G01X14846Y3878D01*
G01X14738Y3891D02*
G01X14779Y3891D01*
G01X14671Y3878D02*
G01X14738Y3891D01*
G01X14631Y3851D02*
G01X14671Y3878D01*
G01X14618Y3811D02*
G01X14631Y3851D01*
G01X14618Y3784D02*
G01X14618Y3811D01*
G04 Draw part R23*
G04 draw part outline for part R23*
G04 draw reference designator for part R23*
G01X13300Y1418D02*
G01X13300Y1700D01*
G01X13179Y1418D02*
G01X13300Y1418D01*
G01X13179Y1418D02*
G01X13138Y1431D01*
G01X13138Y1431D02*
G01X13125Y1444D01*
G01X13125Y1444D02*
G01X13112Y1471D01*
G01X13112Y1471D02*
G01X13112Y1498D01*
G01X13112Y1498D02*
G01X13125Y1525D01*
G01X13125Y1525D02*
G01X13138Y1538D01*
G01X13138Y1538D02*
G01X13179Y1552D01*
G01X13300Y1552D02*
G01X13179Y1552D01*
G01X13206Y1552D02*
G01X13112Y1700D01*
G01X12991Y1471D02*
G01X12991Y1485D01*
G01X12977Y1444D02*
G01X12991Y1471D01*
G01X12964Y1431D02*
G01X12977Y1444D01*
G01X12937Y1418D02*
G01X12964Y1431D01*
G01X12883Y1418D02*
G01X12937Y1418D01*
G01X12883Y1418D02*
G01X12857Y1431D01*
G01X12857Y1431D02*
G01X12843Y1444D01*
G01X12843Y1444D02*
G01X12830Y1471D01*
G01X12830Y1471D02*
G01X12830Y1498D01*
G01X12830Y1498D02*
G01X12843Y1525D01*
G01X12843Y1525D02*
G01X12870Y1565D01*
G01X12870Y1565D02*
G01X13004Y1700D01*
G01X12816Y1700D02*
G01X13004Y1700D01*
G01X12534Y1418D02*
G01X12682Y1418D01*
G01X12534Y1418D02*
G01X12615Y1525D01*
G01X12575Y1525D02*
G01X12615Y1525D01*
G01X12575Y1525D02*
G01X12548Y1538D01*
G01X12548Y1538D02*
G01X12534Y1552D01*
G01X12534Y1552D02*
G01X12521Y1592D01*
G01X12521Y1592D02*
G01X12521Y1619D01*
G01X12521Y1619D02*
G01X12534Y1659D01*
G01X12534Y1659D02*
G01X12561Y1686D01*
G01X12561Y1686D02*
G01X12602Y1700D01*
G01X12642Y1700D02*
G01X12602Y1700D01*
G01X12682Y1686D02*
G01X12642Y1700D01*
G01X12696Y1673D02*
G01X12682Y1686D01*
G01X12709Y1646D02*
G01X12696Y1673D01*
G04 Draw part C1*
G04 draw part outline for part C1*
G04 draw reference designator for part C1*
G01X8787Y2541D02*
G01X8801Y2514D01*
G01X8761Y2568D02*
G01X8787Y2541D01*
G01X8734Y2581D02*
G01X8761Y2568D01*
G01X8680Y2581D02*
G01X8734Y2581D01*
G01X8680Y2581D02*
G01X8653Y2568D01*
G01X8653Y2568D02*
G01X8626Y2541D01*
G01X8626Y2541D02*
G01X8613Y2514D01*
G01X8613Y2514D02*
G01X8600Y2474D01*
G01X8600Y2474D02*
G01X8600Y2407D01*
G01X8600Y2407D02*
G01X8613Y2367D01*
G01X8613Y2367D02*
G01X8626Y2340D01*
G01X8626Y2340D02*
G01X8653Y2313D01*
G01X8653Y2313D02*
G01X8680Y2300D01*
G01X8734Y2300D02*
G01X8680Y2300D01*
G01X8761Y2313D02*
G01X8734Y2300D01*
G01X8787Y2340D02*
G01X8761Y2313D01*
G01X8801Y2367D02*
G01X8787Y2340D01*
G01X8935Y2541D02*
G01X8908Y2528D01*
G01X8975Y2581D02*
G01X8935Y2541D01*
G01X8975Y2581D02*
G01X8975Y2300D01*
G04 Draw part D1*
G04 draw part outline for part D1*
G54D11*
G01X11748Y6607D02*
G01X10661Y6607D01*
G01X10661Y6607D02*
G01X10661Y5992D01*
G01X10661Y5992D02*
G01X11748Y5992D01*
G01X11748Y5992D02*
G01X11748Y6607D01*
G04 draw reference designator for part D1*
G54D10*
G01X10200Y6681D02*
G01X10200Y6400D01*
G01X10293Y6681D02*
G01X10200Y6681D01*
G01X10293Y6681D02*
G01X10334Y6668D01*
G01X10334Y6668D02*
G01X10361Y6641D01*
G01X10361Y6641D02*
G01X10374Y6614D01*
G01X10374Y6614D02*
G01X10387Y6574D01*
G01X10387Y6574D02*
G01X10387Y6507D01*
G01X10387Y6507D02*
G01X10374Y6467D01*
G01X10374Y6467D02*
G01X10361Y6440D01*
G01X10361Y6440D02*
G01X10334Y6413D01*
G01X10334Y6413D02*
G01X10293Y6400D01*
G01X10200Y6400D02*
G01X10293Y6400D01*
G01X10522Y6641D02*
G01X10495Y6628D01*
G01X10562Y6681D02*
G01X10522Y6641D01*
G01X10562Y6681D02*
G01X10562Y6400D01*
G04 Draw part D2*
G04 draw part outline for part D2*
G54D11*
G01X4692Y3148D02*
G01X4692Y2061D01*
G01X4692Y2061D02*
G01X5307Y2061D01*
G01X5307Y2061D02*
G01X5307Y3148D01*
G01X5307Y3148D02*
G01X4692Y3148D01*
G04 draw reference designator for part D2*
G54D10*
G01X4800Y3581D02*
G01X4800Y3300D01*
G01X4893Y3581D02*
G01X4800Y3581D01*
G01X4893Y3581D02*
G01X4934Y3568D01*
G01X4934Y3568D02*
G01X4961Y3541D01*
G01X4961Y3541D02*
G01X4974Y3514D01*
G01X4974Y3514D02*
G01X4987Y3474D01*
G01X4987Y3474D02*
G01X4987Y3407D01*
G01X4987Y3407D02*
G01X4974Y3367D01*
G01X4974Y3367D02*
G01X4961Y3340D01*
G01X4961Y3340D02*
G01X4934Y3313D01*
G01X4934Y3313D02*
G01X4893Y3300D01*
G01X4800Y3300D02*
G01X4893Y3300D01*
G01X5108Y3528D02*
G01X5108Y3514D01*
G01X5122Y3555D02*
G01X5108Y3528D01*
G01X5135Y3568D02*
G01X5122Y3555D01*
G01X5162Y3581D02*
G01X5135Y3568D01*
G01X5216Y3581D02*
G01X5162Y3581D01*
G01X5216Y3581D02*
G01X5242Y3568D01*
G01X5242Y3568D02*
G01X5256Y3555D01*
G01X5256Y3555D02*
G01X5269Y3528D01*
G01X5269Y3528D02*
G01X5269Y3501D01*
G01X5269Y3501D02*
G01X5256Y3474D01*
G01X5256Y3474D02*
G01X5229Y3434D01*
G01X5229Y3434D02*
G01X5095Y3300D01*
G01X5283Y3300D02*
G01X5095Y3300D01*
G04 Draw part B1*
G04 draw part outline for part B1*
G54D11*
G01X5570Y470D02*
G01X7430Y470D01*
G01X7430Y470D02*
G01X7430Y1330D01*
G01X7430Y1330D02*
G01X5570Y1330D01*
G01X5570Y1330D02*
G01X5570Y470D01*
G04 Draw part D10*
G04 draw part outline for part D10*
G01X292Y3048D02*
G01X292Y1961D01*
G01X292Y1961D02*
G01X907Y1961D01*
G01X907Y1961D02*
G01X907Y3048D01*
G01X907Y3048D02*
G01X292Y3048D01*
G04 draw reference designator for part D10*
G54D10*
G01X781Y3800D02*
G01X500Y3800D01*
G01X781Y3706D02*
G01X781Y3800D01*
G01X781Y3706D02*
G01X768Y3665D01*
G01X768Y3665D02*
G01X741Y3638D01*
G01X741Y3638D02*
G01X714Y3625D01*
G01X714Y3625D02*
G01X674Y3612D01*
G01X674Y3612D02*
G01X607Y3612D01*
G01X607Y3612D02*
G01X567Y3625D01*
G01X567Y3625D02*
G01X540Y3638D01*
G01X540Y3638D02*
G01X513Y3665D01*
G01X513Y3665D02*
G01X500Y3706D01*
G01X500Y3800D02*
G01X500Y3706D01*
G01X741Y3477D02*
G01X728Y3504D01*
G01X781Y3437D02*
G01X741Y3477D01*
G01X781Y3437D02*
G01X500Y3437D01*
G01X781Y3249D02*
G01X768Y3289D01*
G01X768Y3289D02*
G01X728Y3316D01*
G01X728Y3316D02*
G01X661Y3330D01*
G01X661Y3330D02*
G01X620Y3330D01*
G01X620Y3330D02*
G01X553Y3316D01*
G01X553Y3316D02*
G01X513Y3289D01*
G01X513Y3289D02*
G01X500Y3249D01*
G01X500Y3222D02*
G01X500Y3249D01*
G01X513Y3182D02*
G01X500Y3222D01*
G01X553Y3155D02*
G01X513Y3182D01*
G01X620Y3142D02*
G01X553Y3155D01*
G01X661Y3142D02*
G01X620Y3142D01*
G01X728Y3155D02*
G01X661Y3142D01*
G01X768Y3182D02*
G01X728Y3155D01*
G01X781Y3222D02*
G01X768Y3182D01*
G01X781Y3249D02*
G01X781Y3222D01*
G04 Draw part SW1*
G04 draw part outline for part SW1*
G04 Draw part U4*
G04 draw part outline for part U4*
G04 draw reference designator for part U4*
G01X8100Y10681D02*
G01X8100Y10480D01*
G01X8100Y10480D02*
G01X8113Y10440D01*
G01X8113Y10440D02*
G01X8140Y10413D01*
G01X8140Y10413D02*
G01X8180Y10400D01*
G01X8207Y10400D02*
G01X8180Y10400D01*
G01X8247Y10413D02*
G01X8207Y10400D01*
G01X8274Y10440D02*
G01X8247Y10413D01*
G01X8287Y10480D02*
G01X8274Y10440D01*
G01X8287Y10681D02*
G01X8287Y10480D01*
G01X8529Y10681D02*
G01X8395Y10493D01*
G01X8596Y10493D02*
G01X8395Y10493D01*
G01X8529Y10681D02*
G01X8529Y10400D01*
G04 Draw part PT2*
G04 draw part outline for part PT2*
G54D11*
G01X2100Y10300D02*
G01X3500Y11700D01*
G01X3500Y11700D02*
G01X2800Y12400D01*
G01X2800Y12400D02*
G01X1400Y11000D01*
G01X1400Y11000D02*
G01X2100Y10300D01*
G04 draw reference designator for part PT2*
G54D10*
G01X3200Y11377D02*
G01X3200Y10900D01*
G01X3404Y11377D02*
G01X3200Y11377D01*
G01X3404Y11377D02*
G01X3472Y11354D01*
G01X3472Y11354D02*
G01X3495Y11331D01*
G01X3495Y11331D02*
G01X3518Y11286D01*
G01X3518Y11286D02*
G01X3518Y11218D01*
G01X3518Y11218D02*
G01X3495Y11172D01*
G01X3495Y11172D02*
G01X3472Y11150D01*
G01X3472Y11150D02*
G01X3404Y11127D01*
G01X3200Y11127D02*
G01X3404Y11127D01*
G01X3859Y11377D02*
G01X3859Y10900D01*
G01X4018Y11377D02*
G01X3700Y11377D01*
G01X4222Y11286D02*
G01X4222Y11263D01*
G01X4245Y11331D02*
G01X4222Y11286D01*
G01X4268Y11354D02*
G01X4245Y11331D01*
G01X4313Y11377D02*
G01X4268Y11354D01*
G01X4404Y11377D02*
G01X4313Y11377D01*
G01X4404Y11377D02*
G01X4450Y11354D01*
G01X4450Y11354D02*
G01X4472Y11331D01*
G01X4472Y11331D02*
G01X4495Y11286D01*
G01X4495Y11286D02*
G01X4495Y11240D01*
G01X4495Y11240D02*
G01X4472Y11195D01*
G01X4472Y11195D02*
G01X4427Y11127D01*
G01X4427Y11127D02*
G01X4200Y10900D01*
G01X4518Y10900D02*
G01X4200Y10900D01*
G04 Draw part U5*
G04 draw part outline for part U5*
G54D12*
G01X13945Y9190D02*
G01X13900Y9145D01*
G01X13900Y9145D02*
G01X13945Y9100D01*
G01X13990Y9145D02*
G01X13945Y9100D01*
G01X13945Y9190D02*
G01X13990Y9145D01*
G04 draw reference designator for part U5*
G54D10*
G01X13200Y9181D02*
G01X13200Y8980D01*
G01X13200Y8980D02*
G01X13213Y8940D01*
G01X13213Y8940D02*
G01X13240Y8913D01*
G01X13240Y8913D02*
G01X13280Y8900D01*
G01X13307Y8900D02*
G01X13280Y8900D01*
G01X13347Y8913D02*
G01X13307Y8900D01*
G01X13374Y8940D02*
G01X13347Y8913D01*
G01X13387Y8980D02*
G01X13374Y8940D01*
G01X13387Y9181D02*
G01X13387Y8980D01*
G01X13522Y9181D02*
G01X13656Y9181D01*
G01X13522Y9181D02*
G01X13508Y9061D01*
G01X13522Y9074D02*
G01X13508Y9061D01*
G01X13562Y9087D02*
G01X13522Y9074D01*
G01X13602Y9087D02*
G01X13562Y9087D01*
G01X13602Y9087D02*
G01X13642Y9074D01*
G01X13642Y9074D02*
G01X13669Y9047D01*
G01X13669Y9047D02*
G01X13683Y9007D01*
G01X13683Y9007D02*
G01X13683Y8980D01*
G01X13683Y8980D02*
G01X13669Y8940D01*
G01X13669Y8940D02*
G01X13642Y8913D01*
G01X13642Y8913D02*
G01X13602Y8900D01*
G01X13562Y8900D02*
G01X13602Y8900D01*
G01X13522Y8913D02*
G01X13562Y8900D01*
G01X13508Y8926D02*
G01X13522Y8913D01*
G01X13495Y8953D02*
G01X13508Y8926D01*
G04 Draw part D6*
G04 draw part outline for part D6*
G54D11*
G01X22951Y9692D02*
G01X24038Y9692D01*
G01X24038Y9692D02*
G01X24038Y10307D01*
G01X24038Y10307D02*
G01X22951Y10307D01*
G01X22951Y10307D02*
G01X22951Y9692D01*
G04 draw reference designator for part D6*
G54D10*
G01X22400Y10181D02*
G01X22400Y9900D01*
G01X22493Y10181D02*
G01X22400Y10181D01*
G01X22493Y10181D02*
G01X22534Y10168D01*
G01X22534Y10168D02*
G01X22561Y10141D01*
G01X22561Y10141D02*
G01X22574Y10114D01*
G01X22574Y10114D02*
G01X22587Y10074D01*
G01X22587Y10074D02*
G01X22587Y10007D01*
G01X22587Y10007D02*
G01X22574Y9967D01*
G01X22574Y9967D02*
G01X22561Y9940D01*
G01X22561Y9940D02*
G01X22534Y9913D01*
G01X22534Y9913D02*
G01X22493Y9900D01*
G01X22400Y9900D02*
G01X22493Y9900D01*
G01X22842Y10168D02*
G01X22856Y10141D01*
G01X22802Y10181D02*
G01X22842Y10168D01*
G01X22775Y10181D02*
G01X22802Y10181D01*
G01X22775Y10181D02*
G01X22735Y10168D01*
G01X22735Y10168D02*
G01X22708Y10128D01*
G01X22708Y10128D02*
G01X22695Y10061D01*
G01X22695Y10061D02*
G01X22695Y9993D01*
G01X22695Y9993D02*
G01X22708Y9940D01*
G01X22708Y9940D02*
G01X22735Y9913D01*
G01X22735Y9913D02*
G01X22775Y9900D01*
G01X22789Y9900D02*
G01X22775Y9900D01*
G01X22829Y9913D02*
G01X22789Y9900D01*
G01X22856Y9940D02*
G01X22829Y9913D01*
G01X22869Y9980D02*
G01X22856Y9940D01*
G01X22869Y9993D02*
G01X22869Y9980D01*
G01X22856Y10034D02*
G01X22869Y9993D01*
G01X22829Y10061D02*
G01X22856Y10034D01*
G01X22789Y10074D02*
G01X22829Y10061D01*
G01X22775Y10074D02*
G01X22789Y10074D01*
G01X22775Y10074D02*
G01X22735Y10061D01*
G01X22735Y10061D02*
G01X22708Y10034D01*
G01X22708Y10034D02*
G01X22695Y9993D01*
G04 Draw part D7*
G04 draw part outline for part D7*
G54D11*
G01X22951Y8892D02*
G01X24038Y8892D01*
G01X24038Y8892D02*
G01X24038Y9507D01*
G01X24038Y9507D02*
G01X22951Y9507D01*
G01X22951Y9507D02*
G01X22951Y8892D01*
G04 draw reference designator for part D7*
G54D10*
G01X22400Y9381D02*
G01X22400Y9100D01*
G01X22493Y9381D02*
G01X22400Y9381D01*
G01X22493Y9381D02*
G01X22534Y9368D01*
G01X22534Y9368D02*
G01X22561Y9341D01*
G01X22561Y9341D02*
G01X22574Y9314D01*
G01X22574Y9314D02*
G01X22587Y9274D01*
G01X22587Y9274D02*
G01X22587Y9207D01*
G01X22587Y9207D02*
G01X22574Y9167D01*
G01X22574Y9167D02*
G01X22561Y9140D01*
G01X22561Y9140D02*
G01X22534Y9113D01*
G01X22534Y9113D02*
G01X22493Y9100D01*
G01X22400Y9100D02*
G01X22493Y9100D01*
G01X22883Y9381D02*
G01X22748Y9100D01*
G01X22883Y9381D02*
G01X22695Y9381D01*
G04 Draw part D8*
G04 draw part outline for part D8*
G54D11*
G01X22951Y8092D02*
G01X24038Y8092D01*
G01X24038Y8092D02*
G01X24038Y8707D01*
G01X24038Y8707D02*
G01X22951Y8707D01*
G01X22951Y8707D02*
G01X22951Y8092D01*
G04 draw reference designator for part D8*
G54D10*
G01X22400Y8581D02*
G01X22400Y8300D01*
G01X22493Y8581D02*
G01X22400Y8581D01*
G01X22493Y8581D02*
G01X22534Y8568D01*
G01X22534Y8568D02*
G01X22561Y8541D01*
G01X22561Y8541D02*
G01X22574Y8514D01*
G01X22574Y8514D02*
G01X22587Y8474D01*
G01X22587Y8474D02*
G01X22587Y8407D01*
G01X22587Y8407D02*
G01X22574Y8367D01*
G01X22574Y8367D02*
G01X22561Y8340D01*
G01X22561Y8340D02*
G01X22534Y8313D01*
G01X22534Y8313D02*
G01X22493Y8300D01*
G01X22400Y8300D02*
G01X22493Y8300D01*
G01X22762Y8581D02*
G01X22722Y8568D01*
G01X22722Y8568D02*
G01X22708Y8541D01*
G01X22708Y8541D02*
G01X22708Y8514D01*
G01X22708Y8514D02*
G01X22722Y8487D01*
G01X22722Y8487D02*
G01X22748Y8474D01*
G01X22748Y8474D02*
G01X22802Y8461D01*
G01X22802Y8461D02*
G01X22842Y8447D01*
G01X22842Y8447D02*
G01X22869Y8420D01*
G01X22869Y8420D02*
G01X22883Y8393D01*
G01X22883Y8393D02*
G01X22883Y8353D01*
G01X22883Y8353D02*
G01X22869Y8326D01*
G01X22869Y8326D02*
G01X22856Y8313D01*
G01X22856Y8313D02*
G01X22816Y8300D01*
G01X22762Y8300D02*
G01X22816Y8300D01*
G01X22722Y8313D02*
G01X22762Y8300D01*
G01X22708Y8326D02*
G01X22722Y8313D01*
G01X22695Y8353D02*
G01X22708Y8326D01*
G01X22695Y8393D02*
G01X22695Y8353D01*
G01X22708Y8420D02*
G01X22695Y8393D01*
G01X22735Y8447D02*
G01X22708Y8420D01*
G01X22775Y8461D02*
G01X22735Y8447D01*
G01X22829Y8474D02*
G01X22775Y8461D01*
G01X22856Y8487D02*
G01X22829Y8474D01*
G01X22869Y8514D02*
G01X22856Y8487D01*
G01X22869Y8541D02*
G01X22869Y8514D01*
G01X22856Y8568D02*
G01X22869Y8541D01*
G01X22816Y8581D02*
G01X22856Y8568D01*
G01X22762Y8581D02*
G01X22816Y8581D01*
G04 Draw part D9*
G04 draw part outline for part D9*
G54D11*
G01X24148Y7607D02*
G01X23061Y7607D01*
G01X23061Y7607D02*
G01X23061Y6992D01*
G01X23061Y6992D02*
G01X24148Y6992D01*
G01X24148Y6992D02*
G01X24148Y7607D01*
G04 draw reference designator for part D9*
G54D10*
G01X22500Y7381D02*
G01X22500Y7100D01*
G01X22593Y7381D02*
G01X22500Y7381D01*
G01X22593Y7381D02*
G01X22634Y7368D01*
G01X22634Y7368D02*
G01X22661Y7341D01*
G01X22661Y7341D02*
G01X22674Y7314D01*
G01X22674Y7314D02*
G01X22687Y7274D01*
G01X22687Y7274D02*
G01X22687Y7207D01*
G01X22687Y7207D02*
G01X22674Y7167D01*
G01X22674Y7167D02*
G01X22661Y7140D01*
G01X22661Y7140D02*
G01X22634Y7113D01*
G01X22634Y7113D02*
G01X22593Y7100D01*
G01X22500Y7100D02*
G01X22593Y7100D01*
G01X22969Y7287D02*
G01X22956Y7247D01*
G01X22956Y7247D02*
G01X22929Y7220D01*
G01X22929Y7220D02*
G01X22889Y7207D01*
G01X22875Y7207D02*
G01X22889Y7207D01*
G01X22835Y7220D02*
G01X22875Y7207D01*
G01X22808Y7247D02*
G01X22835Y7220D01*
G01X22795Y7287D02*
G01X22808Y7247D01*
G01X22795Y7301D02*
G01X22795Y7287D01*
G01X22808Y7341D02*
G01X22795Y7301D01*
G01X22835Y7368D02*
G01X22808Y7341D01*
G01X22875Y7381D02*
G01X22835Y7368D01*
G01X22889Y7381D02*
G01X22875Y7381D01*
G01X22889Y7381D02*
G01X22929Y7368D01*
G01X22929Y7368D02*
G01X22956Y7341D01*
G01X22956Y7341D02*
G01X22969Y7287D01*
G01X22969Y7287D02*
G01X22969Y7220D01*
G01X22969Y7220D02*
G01X22956Y7153D01*
G01X22956Y7153D02*
G01X22929Y7113D01*
G01X22929Y7113D02*
G01X22889Y7100D01*
G01X22862Y7100D02*
G01X22889Y7100D01*
G01X22822Y7113D02*
G01X22862Y7100D01*
G01X22808Y7140D02*
G01X22822Y7113D01*
G04 Draw part U7*
G04 draw part outline for part U7*
G54D12*
G01X16100Y2600D02*
G01X16100Y2400D01*
G04 draw reference designator for part U7*
G54D10*
G01X16500Y3881D02*
G01X16500Y3680D01*
G01X16500Y3680D02*
G01X16513Y3640D01*
G01X16513Y3640D02*
G01X16540Y3613D01*
G01X16540Y3613D02*
G01X16580Y3600D01*
G01X16607Y3600D02*
G01X16580Y3600D01*
G01X16647Y3613D02*
G01X16607Y3600D01*
G01X16674Y3640D02*
G01X16647Y3613D01*
G01X16687Y3680D02*
G01X16674Y3640D01*
G01X16687Y3881D02*
G01X16687Y3680D01*
G01X16983Y3881D02*
G01X16848Y3600D01*
G01X16983Y3881D02*
G01X16795Y3881D01*
G04 Draw part H5*
G04 draw part outline for part H5*
G54D11*
G01X14770Y470D02*
G01X16630Y470D01*
G01X16630Y470D02*
G01X16630Y1330D01*
G01X16630Y1330D02*
G01X14770Y1330D01*
G01X14770Y1330D02*
G01X14770Y470D01*
G04 Draw part H6*
G04 draw part outline for part H6*
G01X16970Y470D02*
G01X18830Y470D01*
G01X18830Y470D02*
G01X18830Y1330D01*
G01X18830Y1330D02*
G01X16970Y1330D01*
G01X16970Y1330D02*
G01X16970Y470D01*
G04 Draw part U6*
G04 draw part outline for part U6*
G54D12*
G01X25954Y5759D02*
G01X26000Y5804D01*
G01X26000Y5804D02*
G01X25954Y5850D01*
G01X25909Y5804D02*
G01X25954Y5850D01*
G01X25954Y5759D02*
G01X25909Y5804D01*
G04 draw reference designator for part U6*
G54D10*
G01X22400Y5677D02*
G01X22400Y5336D01*
G01X22400Y5336D02*
G01X22422Y5268D01*
G01X22422Y5268D02*
G01X22468Y5222D01*
G01X22468Y5222D02*
G01X22536Y5200D01*
G01X22581Y5200D02*
G01X22536Y5200D01*
G01X22650Y5222D02*
G01X22581Y5200D01*
G01X22695Y5268D02*
G01X22650Y5222D01*
G01X22718Y5336D02*
G01X22695Y5268D01*
G01X22718Y5677D02*
G01X22718Y5336D01*
G01X23150Y5654D02*
G01X23172Y5609D01*
G01X23081Y5677D02*
G01X23150Y5654D01*
G01X23036Y5677D02*
G01X23081Y5677D01*
G01X23036Y5677D02*
G01X22968Y5654D01*
G01X22968Y5654D02*
G01X22922Y5586D01*
G01X22922Y5586D02*
G01X22900Y5472D01*
G01X22900Y5472D02*
G01X22900Y5359D01*
G01X22900Y5359D02*
G01X22922Y5268D01*
G01X22922Y5268D02*
G01X22968Y5222D01*
G01X22968Y5222D02*
G01X23036Y5200D01*
G01X23059Y5200D02*
G01X23036Y5200D01*
G01X23127Y5222D02*
G01X23059Y5200D01*
G01X23172Y5268D02*
G01X23127Y5222D01*
G01X23195Y5336D02*
G01X23172Y5268D01*
G01X23195Y5359D02*
G01X23195Y5336D01*
G01X23172Y5427D02*
G01X23195Y5359D01*
G01X23127Y5472D02*
G01X23172Y5427D01*
G01X23059Y5495D02*
G01X23127Y5472D01*
G01X23036Y5495D02*
G01X23059Y5495D01*
G01X23036Y5495D02*
G01X22968Y5472D01*
G01X22968Y5472D02*
G01X22922Y5427D01*
G01X22922Y5427D02*
G01X22900Y5359D01*
G04 Draw part H1*
G04 draw part outline for part H1*
G04 Draw part H2*
G04 draw part outline for part H2*
G54D12*
G01X19195Y7190D02*
G01X19150Y7145D01*
G01X19150Y7145D02*
G01X19195Y7100D01*
G01X19240Y7145D02*
G01X19195Y7100D01*
G01X19195Y7190D02*
G01X19240Y7145D01*
G04 Draw part Balun1*
G04 draw part outline for part Balun1*
G01X23909Y2095D02*
G01X23954Y2050D01*
G01X23954Y2050D02*
G01X24000Y2095D01*
G01X23954Y2140D02*
G01X24000Y2095D01*
G01X23909Y2095D02*
G01X23954Y2140D01*
G04 Draw part A1*
G04 draw part outline for part A1*
G54D11*
G01X26512Y455D02*
G01X28426Y455D01*
G01X28426Y455D02*
G01X28426Y1344D01*
G01X28426Y1344D02*
G01X26512Y1344D01*
G01X26512Y1344D02*
G01X26512Y455D01*
G04 Draw part H4*
G04 draw part outline for part H4*
G54D12*
G01X19290Y6854D02*
G01X19245Y6900D01*
G01X19245Y6900D02*
G01X19200Y6854D01*
G01X19245Y6809D02*
G01X19200Y6854D01*
G01X19290Y6854D02*
G01X19245Y6809D01*
G04 Draw part PT1*
G04 draw part outline for part PT1*
G54D11*
G01X9787Y7387D02*
G01X8621Y7387D01*
G01X8621Y7387D02*
G01X8621Y6812D01*
G01X8621Y6812D02*
G01X9787Y6812D01*
G01X9787Y6812D02*
G01X9787Y7387D01*
G04 draw reference designator for part PT1*
G54D10*
G01X8500Y7018D02*
G01X8500Y7300D01*
G01X8379Y7018D02*
G01X8500Y7018D01*
G01X8379Y7018D02*
G01X8338Y7031D01*
G01X8338Y7031D02*
G01X8325Y7044D01*
G01X8325Y7044D02*
G01X8312Y7071D01*
G01X8312Y7071D02*
G01X8312Y7112D01*
G01X8312Y7112D02*
G01X8325Y7138D01*
G01X8325Y7138D02*
G01X8338Y7152D01*
G01X8338Y7152D02*
G01X8379Y7165D01*
G01X8500Y7165D02*
G01X8379Y7165D01*
G01X8110Y7018D02*
G01X8110Y7300D01*
G01X8016Y7018D02*
G01X8204Y7018D01*
G01X7882Y7058D02*
G01X7909Y7071D01*
G01X7842Y7018D02*
G01X7882Y7058D01*
G01X7842Y7018D02*
G01X7842Y7300D01*
G04 Draw part SW2*
G04 draw part outline for part SW2*
G54D11*
G01X12900Y10600D02*
G01X17700Y10600D01*
G01X17700Y10600D02*
G01X17700Y12000D01*
G01X17700Y12000D02*
G01X12900Y12000D01*
G01X12900Y12000D02*
G01X12900Y10600D01*
G04 Draw part X2*
G04 draw part outline for part X2*
G01X27436Y5085D02*
G01X27436Y2660D01*
G01X27436Y2660D02*
G01X28563Y2660D01*
G01X28563Y2660D02*
G01X28563Y5085D01*
G01X28563Y5085D02*
G01X27436Y5085D01*
G04 draw reference designator for part X2*
G54D10*
G01X28481Y5800D02*
G01X28200Y5612D01*
G01X28481Y5612D02*
G01X28200Y5800D01*
G01X28428Y5491D02*
G01X28414Y5491D01*
G01X28455Y5477D02*
G01X28428Y5491D01*
G01X28468Y5464D02*
G01X28455Y5477D01*
G01X28481Y5437D02*
G01X28468Y5464D01*
G01X28481Y5383D02*
G01X28481Y5437D01*
G01X28481Y5383D02*
G01X28468Y5357D01*
G01X28468Y5357D02*
G01X28455Y5343D01*
G01X28455Y5343D02*
G01X28428Y5330D01*
G01X28428Y5330D02*
G01X28401Y5330D01*
G01X28401Y5330D02*
G01X28374Y5343D01*
G01X28374Y5343D02*
G01X28334Y5370D01*
G01X28334Y5370D02*
G01X28200Y5504D01*
G01X28200Y5316D02*
G01X28200Y5504D01*
G04 Draw part X1*
G04 draw part outline for part X1*
G54D12*
G01X22609Y545D02*
G01X22654Y500D01*
G01X22654Y500D02*
G01X22700Y545D01*
G01X22654Y590D02*
G01X22700Y545D01*
G01X22609Y545D02*
G01X22654Y590D01*
G04 draw reference designator for part X1*
G54D10*
G01X21118Y1300D02*
G01X21400Y1487D01*
G01X21118Y1487D02*
G01X21400Y1300D01*
G01X21158Y1622D02*
G01X21171Y1595D01*
G01X21118Y1662D02*
G01X21158Y1622D01*
G01X21118Y1662D02*
G01X21400Y1662D01*
G04 Draw part PT3*
G04 draw part outline for part PT3*
G54D11*
G01X25500Y11700D02*
G01X26900Y10300D01*
G01X26900Y10300D02*
G01X27600Y11000D01*
G01X27600Y11000D02*
G01X26200Y12400D01*
G01X26200Y12400D02*
G01X25500Y11700D01*
G04 draw reference designator for part PT3*
G54D10*
G01X25377Y12200D02*
G01X24900Y12200D01*
G01X25377Y11995D02*
G01X25377Y12200D01*
G01X25377Y11995D02*
G01X25354Y11927D01*
G01X25354Y11927D02*
G01X25331Y11904D01*
G01X25331Y11904D02*
G01X25286Y11881D01*
G01X25286Y11881D02*
G01X25218Y11881D01*
G01X25218Y11881D02*
G01X25172Y11904D01*
G01X25172Y11904D02*
G01X25150Y11927D01*
G01X25150Y11927D02*
G01X25127Y11995D01*
G01X25127Y12200D02*
G01X25127Y11995D01*
G01X25377Y11540D02*
G01X24900Y11540D01*
G01X25377Y11381D02*
G01X25377Y11700D01*
G01X25377Y10904D02*
G01X25377Y11154D01*
G01X25377Y10904D02*
G01X25195Y11040D01*
G01X25195Y10972D02*
G01X25195Y11040D01*
G01X25195Y10972D02*
G01X25172Y10927D01*
G01X25172Y10927D02*
G01X25150Y10904D01*
G01X25150Y10904D02*
G01X25081Y10881D01*
G01X25081Y10881D02*
G01X25036Y10881D01*
G01X25036Y10881D02*
G01X24968Y10904D01*
G01X24968Y10904D02*
G01X24922Y10950D01*
G01X24922Y10950D02*
G01X24900Y11018D01*
G01X24900Y11086D02*
G01X24900Y11018D01*
G01X24922Y11154D02*
G01X24900Y11086D01*
G01X24945Y11177D02*
G01X24922Y11154D01*
G01X24990Y11200D02*
G01X24945Y11177D01*
G04 Draw part R13*
G04 draw part outline for part R13*
G04 draw reference designator for part R13*
G01X26018Y9600D02*
G01X26300Y9600D01*
G01X26018Y9720D02*
G01X26018Y9600D01*
G01X26018Y9720D02*
G01X26031Y9761D01*
G01X26031Y9761D02*
G01X26044Y9774D01*
G01X26044Y9774D02*
G01X26071Y9787D01*
G01X26071Y9787D02*
G01X26098Y9787D01*
G01X26098Y9787D02*
G01X26125Y9774D01*
G01X26125Y9774D02*
G01X26138Y9761D01*
G01X26138Y9761D02*
G01X26152Y9720D01*
G01X26152Y9600D02*
G01X26152Y9720D01*
G01X26152Y9693D02*
G01X26300Y9787D01*
G01X26058Y9922D02*
G01X26071Y9895D01*
G01X26018Y9962D02*
G01X26058Y9922D01*
G01X26018Y9962D02*
G01X26300Y9962D01*
G01X26018Y10244D02*
G01X26018Y10096D01*
G01X26018Y10244D02*
G01X26125Y10163D01*
G01X26125Y10203D02*
G01X26125Y10163D01*
G01X26125Y10203D02*
G01X26138Y10230D01*
G01X26138Y10230D02*
G01X26152Y10244D01*
G01X26152Y10244D02*
G01X26192Y10257D01*
G01X26192Y10257D02*
G01X26219Y10257D01*
G01X26219Y10257D02*
G01X26259Y10244D01*
G01X26259Y10244D02*
G01X26286Y10217D01*
G01X26286Y10217D02*
G01X26300Y10177D01*
G01X26300Y10136D02*
G01X26300Y10177D01*
G01X26286Y10096D02*
G01X26300Y10136D01*
G01X26273Y10083D02*
G01X26286Y10096D01*
G01X26246Y10069D02*
G01X26273Y10083D01*
G04 Draw part R12*
G04 draw part outline for part R12*
G04 draw reference designator for part R12*
G01X27818Y7900D02*
G01X28100Y7900D01*
G01X27818Y8020D02*
G01X27818Y7900D01*
G01X27818Y8020D02*
G01X27831Y8061D01*
G01X27831Y8061D02*
G01X27844Y8074D01*
G01X27844Y8074D02*
G01X27871Y8087D01*
G01X27871Y8087D02*
G01X27898Y8087D01*
G01X27898Y8087D02*
G01X27925Y8074D01*
G01X27925Y8074D02*
G01X27938Y8061D01*
G01X27938Y8061D02*
G01X27952Y8020D01*
G01X27952Y7900D02*
G01X27952Y8020D01*
G01X27952Y7993D02*
G01X28100Y8087D01*
G01X27858Y8222D02*
G01X27871Y8195D01*
G01X27818Y8262D02*
G01X27858Y8222D01*
G01X27818Y8262D02*
G01X28100Y8262D01*
G01X27871Y8383D02*
G01X27885Y8383D01*
G01X27844Y8396D02*
G01X27871Y8383D01*
G01X27831Y8410D02*
G01X27844Y8396D01*
G01X27818Y8436D02*
G01X27831Y8410D01*
G01X27818Y8490D02*
G01X27818Y8436D01*
G01X27818Y8490D02*
G01X27831Y8517D01*
G01X27831Y8517D02*
G01X27844Y8530D01*
G01X27844Y8530D02*
G01X27871Y8544D01*
G01X27871Y8544D02*
G01X27898Y8544D01*
G01X27898Y8544D02*
G01X27925Y8530D01*
G01X27925Y8530D02*
G01X27965Y8503D01*
G01X27965Y8503D02*
G01X28100Y8369D01*
G01X28100Y8557D02*
G01X28100Y8369D01*
G04 Draw part D5*
G04 draw part outline for part D5*
G54D11*
G01X26900Y10300D02*
G01X28300Y8900D01*
G01X28300Y8900D02*
G01X29000Y9600D01*
G01X29000Y9600D02*
G01X27600Y11000D01*
G01X27600Y11000D02*
G01X26900Y10300D01*
G04 draw reference designator for part D5*
G54D10*
G01X27477Y9600D02*
G01X27000Y9600D01*
G01X27477Y9440D02*
G01X27477Y9600D01*
G01X27477Y9440D02*
G01X27454Y9372D01*
G01X27454Y9372D02*
G01X27409Y9327D01*
G01X27409Y9327D02*
G01X27363Y9304D01*
G01X27363Y9304D02*
G01X27295Y9281D01*
G01X27295Y9281D02*
G01X27181Y9281D01*
G01X27181Y9281D02*
G01X27113Y9304D01*
G01X27113Y9304D02*
G01X27068Y9327D01*
G01X27068Y9327D02*
G01X27022Y9372D01*
G01X27022Y9372D02*
G01X27000Y9440D01*
G01X27000Y9600D02*
G01X27000Y9440D01*
G01X27477Y9054D02*
G01X27477Y8827D01*
G01X27477Y9054D02*
G01X27272Y9077D01*
G01X27295Y9054D02*
G01X27272Y9077D01*
G01X27318Y8986D02*
G01X27295Y9054D01*
G01X27318Y8918D02*
G01X27318Y8986D01*
G01X27318Y8918D02*
G01X27295Y8850D01*
G01X27295Y8850D02*
G01X27250Y8804D01*
G01X27250Y8804D02*
G01X27181Y8781D01*
G01X27181Y8781D02*
G01X27136Y8781D01*
G01X27136Y8781D02*
G01X27068Y8804D01*
G01X27068Y8804D02*
G01X27022Y8850D01*
G01X27022Y8850D02*
G01X27000Y8918D01*
G01X27000Y8986D02*
G01X27000Y8918D01*
G01X27022Y9054D02*
G01X27000Y8986D01*
G01X27045Y9077D02*
G01X27022Y9054D01*
G01X27090Y9100D02*
G01X27045Y9077D01*

G04 Draw traces*

G04 Draw Text*
G54D12*
G01X10645Y4090D02*
G01X10600Y4045D01*
G01X10600Y4045D02*
G01X10645Y4000D01*
G01X10645Y4000D02*
G01X10690Y4045D01*
G01X10690Y4045D02*
G01X10645Y4090D01*
G01X8445Y8990D02*
G01X8400Y8945D01*
G01X8400Y8945D02*
G01X8445Y8900D01*
G01X8445Y8900D02*
G01X8490Y8945D01*
G01X8490Y8945D02*
G01X8445Y8990D01*
G01X4822Y4700D02*
G01X5300Y4700D01*
G01X4822Y4700D02*
G01X4822Y4859D01*
G01X4822Y4859D02*
G01X4845Y4927D01*
G01X4845Y4927D02*
G01X4890Y4972D01*
G01X4890Y4972D02*
G01X4936Y4995D01*
G01X4936Y4995D02*
G01X5004Y5018D01*
G01X5004Y5018D02*
G01X5118Y5018D01*
G01X5118Y5018D02*
G01X5186Y4995D01*
G01X5186Y4995D02*
G01X5231Y4972D01*
G01X5231Y4972D02*
G01X5277Y4927D01*
G01X5277Y4927D02*
G01X5300Y4859D01*
G01X5300Y4859D02*
G01X5300Y4700D01*
G01X4981Y5472D02*
G01X5300Y5472D01*
G01X5050Y5472D02*
G01X5004Y5427D01*
G01X5004Y5427D02*
G01X4981Y5381D01*
G01X4981Y5381D02*
G01X4981Y5313D01*
G01X4981Y5313D02*
G01X5004Y5268D01*
G01X5004Y5268D02*
G01X5050Y5222D01*
G01X5050Y5222D02*
G01X5118Y5200D01*
G01X5118Y5200D02*
G01X5163Y5200D01*
G01X5163Y5200D02*
G01X5231Y5222D01*
G01X5231Y5222D02*
G01X5277Y5268D01*
G01X5277Y5268D02*
G01X5300Y5313D01*
G01X5300Y5313D02*
G01X5300Y5381D01*
G01X5300Y5381D02*
G01X5277Y5427D01*
G01X5277Y5427D02*
G01X5231Y5472D01*
G01X5050Y5904D02*
G01X5004Y5881D01*
G01X5004Y5881D02*
G01X4981Y5813D01*
G01X4981Y5813D02*
G01X4981Y5745D01*
G01X4981Y5745D02*
G01X5004Y5677D01*
G01X5004Y5677D02*
G01X5050Y5654D01*
G01X5050Y5654D02*
G01X5095Y5677D01*
G01X5095Y5677D02*
G01X5118Y5722D01*
G01X5118Y5722D02*
G01X5140Y5836D01*
G01X5140Y5836D02*
G01X5163Y5881D01*
G01X5163Y5881D02*
G01X5209Y5904D01*
G01X5209Y5904D02*
G01X5231Y5904D01*
G01X5231Y5904D02*
G01X5277Y5881D01*
G01X5277Y5881D02*
G01X5300Y5813D01*
G01X5300Y5813D02*
G01X5300Y5745D01*
G01X5300Y5745D02*
G01X5277Y5677D01*
G01X5277Y5677D02*
G01X5231Y5654D01*
G01X4822Y6086D02*
G01X5300Y6086D01*
G01X5072Y6086D02*
G01X5004Y6154D01*
G01X5004Y6154D02*
G01X4981Y6199D01*
G01X4981Y6199D02*
G01X4981Y6268D01*
G01X4981Y6268D02*
G01X5004Y6313D01*
G01X5004Y6313D02*
G01X5072Y6336D01*
G01X5072Y6336D02*
G01X5300Y6336D01*
G01X4822Y6881D02*
G01X5300Y6881D01*
G01X4822Y6881D02*
G01X4822Y7086D01*
G01X4822Y7086D02*
G01X4845Y7154D01*
G01X4845Y7154D02*
G01X4868Y7177D01*
G01X4868Y7177D02*
G01X4913Y7199D01*
G01X4913Y7199D02*
G01X4959Y7199D01*
G01X4959Y7199D02*
G01X5004Y7177D01*
G01X5004Y7177D02*
G01X5027Y7154D01*
G01X5027Y7154D02*
G01X5050Y7086D01*
G01X5050Y7086D02*
G01X5050Y6881D01*
G01X5050Y7040D02*
G01X5300Y7199D01*
G01X4981Y7495D02*
G01X5004Y7449D01*
G01X5004Y7449D02*
G01X5050Y7404D01*
G01X5050Y7404D02*
G01X5118Y7381D01*
G01X5118Y7381D02*
G01X5163Y7381D01*
G01X5163Y7381D02*
G01X5231Y7404D01*
G01X5231Y7404D02*
G01X5277Y7449D01*
G01X5277Y7449D02*
G01X5300Y7495D01*
G01X5300Y7495D02*
G01X5300Y7563D01*
G01X5300Y7563D02*
G01X5277Y7609D01*
G01X5277Y7609D02*
G01X5231Y7654D01*
G01X5231Y7654D02*
G01X5163Y7677D01*
G01X5163Y7677D02*
G01X5118Y7677D01*
G01X5118Y7677D02*
G01X5050Y7654D01*
G01X5050Y7654D02*
G01X5004Y7609D01*
G01X5004Y7609D02*
G01X4981Y7563D01*
G01X4981Y7563D02*
G01X4981Y7495D01*
G01X4822Y7859D02*
G01X5300Y7859D01*
G01X5050Y7859D02*
G01X5004Y7904D01*
G01X5004Y7904D02*
G01X4981Y7949D01*
G01X4981Y7949D02*
G01X4981Y8018D01*
G01X4981Y8018D02*
G01X5004Y8063D01*
G01X5004Y8063D02*
G01X5050Y8109D01*
G01X5050Y8109D02*
G01X5118Y8131D01*
G01X5118Y8131D02*
G01X5163Y8131D01*
G01X5163Y8131D02*
G01X5231Y8109D01*
G01X5231Y8109D02*
G01X5277Y8063D01*
G01X5277Y8063D02*
G01X5300Y8018D01*
G01X5300Y8018D02*
G01X5300Y7949D01*
G01X5300Y7949D02*
G01X5277Y7904D01*
G01X5277Y7904D02*
G01X5231Y7859D01*
G01X4981Y8427D02*
G01X5004Y8381D01*
G01X5004Y8381D02*
G01X5050Y8336D01*
G01X5050Y8336D02*
G01X5118Y8313D01*
G01X5118Y8313D02*
G01X5163Y8313D01*
G01X5163Y8313D02*
G01X5231Y8336D01*
G01X5231Y8336D02*
G01X5277Y8381D01*
G01X5277Y8381D02*
G01X5300Y8427D01*
G01X5300Y8427D02*
G01X5300Y8495D01*
G01X5300Y8495D02*
G01X5277Y8540D01*
G01X5277Y8540D02*
G01X5231Y8586D01*
G01X5231Y8586D02*
G01X5163Y8609D01*
G01X5163Y8609D02*
G01X5118Y8609D01*
G01X5118Y8609D02*
G01X5050Y8586D01*
G01X5050Y8586D02*
G01X5004Y8540D01*
G01X5004Y8540D02*
G01X4981Y8495D01*
G01X4981Y8495D02*
G01X4981Y8427D01*
G01X4822Y8859D02*
G01X5209Y8859D01*
G01X5209Y8859D02*
G01X5277Y8881D01*
G01X5277Y8881D02*
G01X5300Y8927D01*
G01X5300Y8927D02*
G01X5300Y8972D01*
G01X4981Y8790D02*
G01X4981Y8949D01*
G01X4822Y9154D02*
G01X4845Y9177D01*
G01X4845Y9177D02*
G01X4822Y9199D01*
G01X4822Y9199D02*
G01X4800Y9177D01*
G01X4800Y9177D02*
G01X4822Y9154D01*
G01X4981Y9177D02*
G01X5300Y9177D01*
G01X5050Y9654D02*
G01X5004Y9609D01*
G01X5004Y9609D02*
G01X4981Y9563D01*
G01X4981Y9563D02*
G01X4981Y9495D01*
G01X4981Y9495D02*
G01X5004Y9449D01*
G01X5004Y9449D02*
G01X5050Y9404D01*
G01X5050Y9404D02*
G01X5118Y9381D01*
G01X5118Y9381D02*
G01X5163Y9381D01*
G01X5163Y9381D02*
G01X5231Y9404D01*
G01X5231Y9404D02*
G01X5277Y9449D01*
G01X5277Y9449D02*
G01X5300Y9495D01*
G01X5300Y9495D02*
G01X5300Y9563D01*
G01X5300Y9563D02*
G01X5277Y9609D01*
G01X5277Y9609D02*
G01X5231Y9654D01*
G01X5050Y10086D02*
G01X5004Y10063D01*
G01X5004Y10063D02*
G01X4981Y9995D01*
G01X4981Y9995D02*
G01X4981Y9927D01*
G01X4981Y9927D02*
G01X5004Y9859D01*
G01X5004Y9859D02*
G01X5050Y9836D01*
G01X5050Y9836D02*
G01X5095Y9859D01*
G01X5095Y9859D02*
G01X5118Y9904D01*
G01X5118Y9904D02*
G01X5140Y10018D01*
G01X5140Y10018D02*
G01X5163Y10063D01*
G01X5163Y10063D02*
G01X5209Y10086D01*
G01X5209Y10086D02*
G01X5231Y10086D01*
G01X5231Y10086D02*
G01X5277Y10063D01*
G01X5277Y10063D02*
G01X5300Y9995D01*
G01X5300Y9995D02*
G01X5300Y9927D01*
G01X5300Y9927D02*
G01X5277Y9859D01*
G01X5277Y9859D02*
G01X5231Y9836D01*
G01X5277Y10313D02*
G01X5300Y10290D01*
G01X5300Y10290D02*
G01X5277Y10268D01*
G01X5277Y10268D02*
G01X5254Y10290D01*
G01X5254Y10290D02*
G01X5277Y10313D01*
G01X5277Y10313D02*
G01X5322Y10313D01*
G01X5322Y10313D02*
G01X5368Y10290D01*
G01X5368Y10290D02*
G01X5390Y10268D01*
G01X4822Y10859D02*
G01X5300Y10859D01*
G01X4981Y11040D02*
G01X5300Y11040D01*
G01X5072Y11040D02*
G01X5004Y11109D01*
G01X5004Y11109D02*
G01X4981Y11154D01*
G01X4981Y11154D02*
G01X4981Y11222D01*
G01X4981Y11222D02*
G01X5004Y11268D01*
G01X5004Y11268D02*
G01X5072Y11290D01*
G01X5072Y11290D02*
G01X5300Y11290D01*
G01X5050Y11745D02*
G01X5004Y11699D01*
G01X5004Y11699D02*
G01X4981Y11654D01*
G01X4981Y11654D02*
G01X4981Y11586D01*
G01X4981Y11586D02*
G01X5004Y11540D01*
G01X5004Y11540D02*
G01X5050Y11495D01*
G01X5050Y11495D02*
G01X5118Y11472D01*
G01X5118Y11472D02*
G01X5163Y11472D01*
G01X5163Y11472D02*
G01X5231Y11495D01*
G01X5231Y11495D02*
G01X5277Y11540D01*
G01X5277Y11540D02*
G01X5300Y11586D01*
G01X5300Y11586D02*
G01X5300Y11654D01*
G01X5300Y11654D02*
G01X5277Y11699D01*
G01X5277Y11699D02*
G01X5231Y11745D01*
G01X5622Y6700D02*
G01X6100Y6700D01*
G01X5622Y6700D02*
G01X5622Y6995D01*
G01X5850Y6700D02*
G01X5850Y6881D01*
G01X6100Y6700D02*
G01X6100Y6995D01*
G01X5622Y7177D02*
G01X6100Y7177D01*
G01X5622Y7177D02*
G01X5622Y7381D01*
G01X5622Y7381D02*
G01X5645Y7449D01*
G01X5645Y7449D02*
G01X5668Y7472D01*
G01X5668Y7472D02*
G01X5713Y7495D01*
G01X5713Y7495D02*
G01X5781Y7495D01*
G01X5781Y7495D02*
G01X5827Y7472D01*
G01X5827Y7472D02*
G01X5850Y7449D01*
G01X5850Y7449D02*
G01X5872Y7381D01*
G01X5872Y7381D02*
G01X5872Y7177D01*
G01X5713Y7677D02*
G01X5690Y7722D01*
G01X5690Y7722D02*
G01X5622Y7790D01*
G01X5622Y7790D02*
G01X6100Y7790D01*
M00*
M02*
